G75*
%MOIN*%
%OFA0B0*%
%FSLAX25Y25*%
%IPPOS*%
%LPD*%
%AMOC8*
5,1,8,0,0,1.08239X$1,22.5*
%
%ADD10R,0.04737X0.05131*%
%ADD11R,0.05131X0.04737*%
%ADD12R,0.06312X0.07099*%
%ADD13C,0.07400*%
%ADD14C,0.13800*%
%ADD15R,0.08200X0.08200*%
%ADD16C,0.08200*%
%ADD17R,0.02170X0.06300*%
%ADD18R,0.05162X0.05162*%
%ADD19C,0.05556*%
D10*
X0443333Y0038904D03*
X0443333Y0045596D03*
X0463333Y0058904D03*
X0463333Y0065596D03*
D11*
X0504987Y0072250D03*
X0511680Y0072250D03*
X0519987Y0072250D03*
X0526680Y0072250D03*
D12*
X0468845Y0042250D03*
X0457822Y0042250D03*
D13*
X0431133Y0047329D03*
X0423333Y0047329D03*
X0423333Y0057171D03*
X0431133Y0057171D03*
D14*
X0398333Y0012250D03*
X0412633Y0028550D03*
X0412633Y0075950D03*
X0398333Y0092250D03*
X0298333Y0137250D03*
X0203333Y0112250D03*
D15*
X0528333Y0062250D03*
D16*
X0528333Y0052250D03*
X0528333Y0042250D03*
X0528333Y0032250D03*
X0533333Y0082250D03*
X0533333Y0092250D03*
X0493333Y0092250D03*
X0493333Y0082250D03*
X0478333Y0082250D03*
X0468333Y0082250D03*
X0453333Y0082250D03*
X0443333Y0082250D03*
D17*
X0481699Y0061644D03*
X0484259Y0061644D03*
X0486818Y0061644D03*
X0489377Y0061644D03*
X0491936Y0061644D03*
X0494495Y0061644D03*
X0497054Y0061644D03*
X0499613Y0061644D03*
X0502172Y0061644D03*
X0504731Y0061644D03*
X0507290Y0061644D03*
X0509849Y0061644D03*
X0512408Y0061644D03*
X0514967Y0061644D03*
X0514967Y0032856D03*
X0512408Y0032856D03*
X0509849Y0032856D03*
X0507290Y0032856D03*
X0504731Y0032856D03*
X0502172Y0032856D03*
X0499613Y0032856D03*
X0497054Y0032856D03*
X0494495Y0032856D03*
X0491936Y0032856D03*
X0489377Y0032856D03*
X0486818Y0032856D03*
X0484259Y0032856D03*
X0481699Y0032856D03*
D18*
X0488333Y0022250D03*
X0473333Y0022250D03*
X0503333Y0042250D03*
X0503333Y0052250D03*
D19*
X0520833Y0062250D03*
X0470833Y0064750D03*
X0433333Y0097250D03*
M02*
