G75*
%MOIN*%
%OFA0B0*%
%FSLAX25Y25*%
%IPPOS*%
%LPD*%
%AMOC8*
5,1,8,0,0,1.08239X$1,22.5*
%
%ADD10C,0.00600*%
%ADD11C,0.00200*%
%ADD12C,0.02200*%
%ADD13C,0.00800*%
%ADD14C,0.00500*%
%ADD15C,0.00100*%
D10*
X0423633Y0012550D02*
X0423633Y0018955D01*
X0425768Y0016820D01*
X0427904Y0018955D01*
X0427904Y0012550D01*
X0430079Y0013618D02*
X0431146Y0014685D01*
X0434349Y0014685D01*
X0434349Y0015753D02*
X0434349Y0012550D01*
X0431146Y0012550D01*
X0430079Y0013618D01*
X0433282Y0016820D02*
X0434349Y0015753D01*
X0433282Y0016820D02*
X0431146Y0016820D01*
X0436524Y0016820D02*
X0438659Y0012550D01*
X0440795Y0016820D01*
X0442970Y0016820D02*
X0444037Y0016820D01*
X0444037Y0012550D01*
X0442970Y0012550D02*
X0445105Y0012550D01*
X0447267Y0012550D02*
X0450470Y0012550D01*
X0451537Y0013618D01*
X0450470Y0014685D01*
X0448334Y0014685D01*
X0447267Y0015753D01*
X0448334Y0016820D01*
X0451537Y0016820D01*
X0444037Y0018955D02*
X0444037Y0020023D01*
X0453633Y0013955D02*
X0456836Y0013955D01*
X0457904Y0012888D01*
X0457904Y0011820D01*
X0456836Y0010753D01*
X0453633Y0010753D01*
X0456836Y0010753D02*
X0457904Y0009685D01*
X0457904Y0008618D01*
X0456836Y0007550D01*
X0453633Y0007550D01*
X0453633Y0013955D01*
X0460079Y0010753D02*
X0461146Y0011820D01*
X0463282Y0011820D01*
X0464349Y0010753D01*
X0464349Y0009685D01*
X0460079Y0009685D01*
X0460079Y0008618D02*
X0460079Y0010753D01*
X0466524Y0008618D02*
X0467592Y0009685D01*
X0470795Y0009685D01*
X0470795Y0010753D02*
X0470795Y0007550D01*
X0467592Y0007550D01*
X0466524Y0008618D01*
X0463282Y0007550D02*
X0461146Y0007550D01*
X0460079Y0008618D01*
X0467592Y0011820D02*
X0469727Y0011820D01*
X0470795Y0010753D01*
X0472970Y0010753D02*
X0472970Y0008618D01*
X0474037Y0007550D01*
X0477240Y0007550D01*
X0479415Y0008618D02*
X0480483Y0007550D01*
X0482618Y0007550D01*
X0483686Y0008618D01*
X0483686Y0010753D01*
X0482618Y0011820D01*
X0480483Y0011820D01*
X0479415Y0010753D01*
X0479415Y0008618D01*
X0477240Y0011820D02*
X0474037Y0011820D01*
X0472970Y0010753D01*
X0485861Y0011820D02*
X0485861Y0007550D01*
X0490131Y0007550D02*
X0490131Y0010753D01*
X0489064Y0011820D01*
X0485861Y0011820D01*
X0477861Y0035734D02*
X0477861Y0058766D01*
X0518806Y0058766D01*
X0518806Y0035734D01*
X0477861Y0035734D01*
X0479890Y0039573D02*
X0479892Y0039658D01*
X0479898Y0039742D01*
X0479908Y0039827D01*
X0479922Y0039910D01*
X0479939Y0039993D01*
X0479961Y0040075D01*
X0479987Y0040156D01*
X0480016Y0040236D01*
X0480049Y0040314D01*
X0480085Y0040390D01*
X0480125Y0040465D01*
X0480169Y0040538D01*
X0480216Y0040609D01*
X0480266Y0040677D01*
X0480319Y0040743D01*
X0480376Y0040806D01*
X0480435Y0040867D01*
X0480497Y0040925D01*
X0480562Y0040980D01*
X0480629Y0041032D01*
X0480698Y0041080D01*
X0480770Y0041125D01*
X0480844Y0041167D01*
X0480920Y0041205D01*
X0480997Y0041240D01*
X0481076Y0041271D01*
X0481156Y0041299D01*
X0481238Y0041322D01*
X0481320Y0041342D01*
X0481403Y0041358D01*
X0481487Y0041370D01*
X0481572Y0041378D01*
X0481657Y0041382D01*
X0481741Y0041382D01*
X0481826Y0041378D01*
X0481911Y0041370D01*
X0481995Y0041358D01*
X0482078Y0041342D01*
X0482160Y0041322D01*
X0482242Y0041299D01*
X0482322Y0041271D01*
X0482401Y0041240D01*
X0482478Y0041205D01*
X0482554Y0041167D01*
X0482628Y0041125D01*
X0482700Y0041080D01*
X0482769Y0041032D01*
X0482836Y0040980D01*
X0482901Y0040925D01*
X0482963Y0040867D01*
X0483022Y0040806D01*
X0483079Y0040743D01*
X0483132Y0040677D01*
X0483182Y0040609D01*
X0483229Y0040538D01*
X0483273Y0040465D01*
X0483313Y0040390D01*
X0483349Y0040314D01*
X0483382Y0040236D01*
X0483411Y0040156D01*
X0483437Y0040075D01*
X0483459Y0039993D01*
X0483476Y0039910D01*
X0483490Y0039827D01*
X0483500Y0039742D01*
X0483506Y0039658D01*
X0483508Y0039573D01*
X0483506Y0039488D01*
X0483500Y0039404D01*
X0483490Y0039319D01*
X0483476Y0039236D01*
X0483459Y0039153D01*
X0483437Y0039071D01*
X0483411Y0038990D01*
X0483382Y0038910D01*
X0483349Y0038832D01*
X0483313Y0038756D01*
X0483273Y0038681D01*
X0483229Y0038608D01*
X0483182Y0038537D01*
X0483132Y0038469D01*
X0483079Y0038403D01*
X0483022Y0038340D01*
X0482963Y0038279D01*
X0482901Y0038221D01*
X0482836Y0038166D01*
X0482769Y0038114D01*
X0482700Y0038066D01*
X0482628Y0038021D01*
X0482554Y0037979D01*
X0482478Y0037941D01*
X0482401Y0037906D01*
X0482322Y0037875D01*
X0482242Y0037847D01*
X0482160Y0037824D01*
X0482078Y0037804D01*
X0481995Y0037788D01*
X0481911Y0037776D01*
X0481826Y0037768D01*
X0481741Y0037764D01*
X0481657Y0037764D01*
X0481572Y0037768D01*
X0481487Y0037776D01*
X0481403Y0037788D01*
X0481320Y0037804D01*
X0481238Y0037824D01*
X0481156Y0037847D01*
X0481076Y0037875D01*
X0480997Y0037906D01*
X0480920Y0037941D01*
X0480844Y0037979D01*
X0480770Y0038021D01*
X0480698Y0038066D01*
X0480629Y0038114D01*
X0480562Y0038166D01*
X0480497Y0038221D01*
X0480435Y0038279D01*
X0480376Y0038340D01*
X0480319Y0038403D01*
X0480266Y0038469D01*
X0480216Y0038537D01*
X0480169Y0038608D01*
X0480125Y0038681D01*
X0480085Y0038756D01*
X0480049Y0038832D01*
X0480016Y0038910D01*
X0479987Y0038990D01*
X0479961Y0039071D01*
X0479939Y0039153D01*
X0479922Y0039236D01*
X0479908Y0039319D01*
X0479898Y0039404D01*
X0479892Y0039488D01*
X0479890Y0039573D01*
X0514297Y0052685D02*
X0516432Y0050550D01*
X0518567Y0052685D01*
X0518567Y0056955D01*
X0514297Y0056955D02*
X0514297Y0052685D01*
X0520742Y0051618D02*
X0521810Y0050550D01*
X0525013Y0050550D01*
X0527188Y0051618D02*
X0528255Y0050550D01*
X0531458Y0050550D01*
X0527188Y0051618D02*
X0527188Y0053753D01*
X0528255Y0054820D01*
X0531458Y0054820D01*
X0525013Y0054820D02*
X0521810Y0054820D01*
X0520742Y0053753D01*
X0520742Y0051618D01*
X0463333Y0082250D02*
X0463336Y0082495D01*
X0463345Y0082741D01*
X0463360Y0082986D01*
X0463381Y0083230D01*
X0463408Y0083474D01*
X0463441Y0083717D01*
X0463480Y0083960D01*
X0463525Y0084201D01*
X0463576Y0084441D01*
X0463633Y0084680D01*
X0463695Y0084917D01*
X0463764Y0085153D01*
X0463838Y0085387D01*
X0463918Y0085619D01*
X0464003Y0085849D01*
X0464094Y0086077D01*
X0464191Y0086302D01*
X0464293Y0086526D01*
X0464401Y0086746D01*
X0464514Y0086964D01*
X0464632Y0087179D01*
X0464756Y0087391D01*
X0464884Y0087600D01*
X0465018Y0087806D01*
X0465157Y0088008D01*
X0465301Y0088207D01*
X0465450Y0088402D01*
X0465603Y0088594D01*
X0465761Y0088782D01*
X0465923Y0088966D01*
X0466091Y0089145D01*
X0466262Y0089321D01*
X0466438Y0089492D01*
X0466617Y0089660D01*
X0466801Y0089822D01*
X0466989Y0089980D01*
X0467181Y0090133D01*
X0467376Y0090282D01*
X0467575Y0090426D01*
X0467777Y0090565D01*
X0467983Y0090699D01*
X0468192Y0090827D01*
X0468404Y0090951D01*
X0468619Y0091069D01*
X0468837Y0091182D01*
X0469057Y0091290D01*
X0469281Y0091392D01*
X0469506Y0091489D01*
X0469734Y0091580D01*
X0469964Y0091665D01*
X0470196Y0091745D01*
X0470430Y0091819D01*
X0470666Y0091888D01*
X0470903Y0091950D01*
X0471142Y0092007D01*
X0471382Y0092058D01*
X0471623Y0092103D01*
X0471866Y0092142D01*
X0472109Y0092175D01*
X0472353Y0092202D01*
X0472597Y0092223D01*
X0472842Y0092238D01*
X0473088Y0092247D01*
X0473333Y0092250D01*
X0473578Y0092247D01*
X0473824Y0092238D01*
X0474069Y0092223D01*
X0474313Y0092202D01*
X0474557Y0092175D01*
X0474800Y0092142D01*
X0475043Y0092103D01*
X0475284Y0092058D01*
X0475524Y0092007D01*
X0475763Y0091950D01*
X0476000Y0091888D01*
X0476236Y0091819D01*
X0476470Y0091745D01*
X0476702Y0091665D01*
X0476932Y0091580D01*
X0477160Y0091489D01*
X0477385Y0091392D01*
X0477609Y0091290D01*
X0477829Y0091182D01*
X0478047Y0091069D01*
X0478262Y0090951D01*
X0478474Y0090827D01*
X0478683Y0090699D01*
X0478889Y0090565D01*
X0479091Y0090426D01*
X0479290Y0090282D01*
X0479485Y0090133D01*
X0479677Y0089980D01*
X0479865Y0089822D01*
X0480049Y0089660D01*
X0480228Y0089492D01*
X0480404Y0089321D01*
X0480575Y0089145D01*
X0480743Y0088966D01*
X0480905Y0088782D01*
X0481063Y0088594D01*
X0481216Y0088402D01*
X0481365Y0088207D01*
X0481509Y0088008D01*
X0481648Y0087806D01*
X0481782Y0087600D01*
X0481910Y0087391D01*
X0482034Y0087179D01*
X0482152Y0086964D01*
X0482265Y0086746D01*
X0482373Y0086526D01*
X0482475Y0086302D01*
X0482572Y0086077D01*
X0482663Y0085849D01*
X0482748Y0085619D01*
X0482828Y0085387D01*
X0482902Y0085153D01*
X0482971Y0084917D01*
X0483033Y0084680D01*
X0483090Y0084441D01*
X0483141Y0084201D01*
X0483186Y0083960D01*
X0483225Y0083717D01*
X0483258Y0083474D01*
X0483285Y0083230D01*
X0483306Y0082986D01*
X0483321Y0082741D01*
X0483330Y0082495D01*
X0483333Y0082250D01*
X0483330Y0082005D01*
X0483321Y0081759D01*
X0483306Y0081514D01*
X0483285Y0081270D01*
X0483258Y0081026D01*
X0483225Y0080783D01*
X0483186Y0080540D01*
X0483141Y0080299D01*
X0483090Y0080059D01*
X0483033Y0079820D01*
X0482971Y0079583D01*
X0482902Y0079347D01*
X0482828Y0079113D01*
X0482748Y0078881D01*
X0482663Y0078651D01*
X0482572Y0078423D01*
X0482475Y0078198D01*
X0482373Y0077974D01*
X0482265Y0077754D01*
X0482152Y0077536D01*
X0482034Y0077321D01*
X0481910Y0077109D01*
X0481782Y0076900D01*
X0481648Y0076694D01*
X0481509Y0076492D01*
X0481365Y0076293D01*
X0481216Y0076098D01*
X0481063Y0075906D01*
X0480905Y0075718D01*
X0480743Y0075534D01*
X0480575Y0075355D01*
X0480404Y0075179D01*
X0480228Y0075008D01*
X0480049Y0074840D01*
X0479865Y0074678D01*
X0479677Y0074520D01*
X0479485Y0074367D01*
X0479290Y0074218D01*
X0479091Y0074074D01*
X0478889Y0073935D01*
X0478683Y0073801D01*
X0478474Y0073673D01*
X0478262Y0073549D01*
X0478047Y0073431D01*
X0477829Y0073318D01*
X0477609Y0073210D01*
X0477385Y0073108D01*
X0477160Y0073011D01*
X0476932Y0072920D01*
X0476702Y0072835D01*
X0476470Y0072755D01*
X0476236Y0072681D01*
X0476000Y0072612D01*
X0475763Y0072550D01*
X0475524Y0072493D01*
X0475284Y0072442D01*
X0475043Y0072397D01*
X0474800Y0072358D01*
X0474557Y0072325D01*
X0474313Y0072298D01*
X0474069Y0072277D01*
X0473824Y0072262D01*
X0473578Y0072253D01*
X0473333Y0072250D01*
X0473088Y0072253D01*
X0472842Y0072262D01*
X0472597Y0072277D01*
X0472353Y0072298D01*
X0472109Y0072325D01*
X0471866Y0072358D01*
X0471623Y0072397D01*
X0471382Y0072442D01*
X0471142Y0072493D01*
X0470903Y0072550D01*
X0470666Y0072612D01*
X0470430Y0072681D01*
X0470196Y0072755D01*
X0469964Y0072835D01*
X0469734Y0072920D01*
X0469506Y0073011D01*
X0469281Y0073108D01*
X0469057Y0073210D01*
X0468837Y0073318D01*
X0468619Y0073431D01*
X0468404Y0073549D01*
X0468192Y0073673D01*
X0467983Y0073801D01*
X0467777Y0073935D01*
X0467575Y0074074D01*
X0467376Y0074218D01*
X0467181Y0074367D01*
X0466989Y0074520D01*
X0466801Y0074678D01*
X0466617Y0074840D01*
X0466438Y0075008D01*
X0466262Y0075179D01*
X0466091Y0075355D01*
X0465923Y0075534D01*
X0465761Y0075718D01*
X0465603Y0075906D01*
X0465450Y0076098D01*
X0465301Y0076293D01*
X0465157Y0076492D01*
X0465018Y0076694D01*
X0464884Y0076900D01*
X0464756Y0077109D01*
X0464632Y0077321D01*
X0464514Y0077536D01*
X0464401Y0077754D01*
X0464293Y0077974D01*
X0464191Y0078198D01*
X0464094Y0078423D01*
X0464003Y0078651D01*
X0463918Y0078881D01*
X0463838Y0079113D01*
X0463764Y0079347D01*
X0463695Y0079583D01*
X0463633Y0079820D01*
X0463576Y0080059D01*
X0463525Y0080299D01*
X0463480Y0080540D01*
X0463441Y0080783D01*
X0463408Y0081026D01*
X0463381Y0081270D01*
X0463360Y0081514D01*
X0463345Y0081759D01*
X0463336Y0082005D01*
X0463333Y0082250D01*
X0438333Y0082250D02*
X0438336Y0082495D01*
X0438345Y0082741D01*
X0438360Y0082986D01*
X0438381Y0083230D01*
X0438408Y0083474D01*
X0438441Y0083717D01*
X0438480Y0083960D01*
X0438525Y0084201D01*
X0438576Y0084441D01*
X0438633Y0084680D01*
X0438695Y0084917D01*
X0438764Y0085153D01*
X0438838Y0085387D01*
X0438918Y0085619D01*
X0439003Y0085849D01*
X0439094Y0086077D01*
X0439191Y0086302D01*
X0439293Y0086526D01*
X0439401Y0086746D01*
X0439514Y0086964D01*
X0439632Y0087179D01*
X0439756Y0087391D01*
X0439884Y0087600D01*
X0440018Y0087806D01*
X0440157Y0088008D01*
X0440301Y0088207D01*
X0440450Y0088402D01*
X0440603Y0088594D01*
X0440761Y0088782D01*
X0440923Y0088966D01*
X0441091Y0089145D01*
X0441262Y0089321D01*
X0441438Y0089492D01*
X0441617Y0089660D01*
X0441801Y0089822D01*
X0441989Y0089980D01*
X0442181Y0090133D01*
X0442376Y0090282D01*
X0442575Y0090426D01*
X0442777Y0090565D01*
X0442983Y0090699D01*
X0443192Y0090827D01*
X0443404Y0090951D01*
X0443619Y0091069D01*
X0443837Y0091182D01*
X0444057Y0091290D01*
X0444281Y0091392D01*
X0444506Y0091489D01*
X0444734Y0091580D01*
X0444964Y0091665D01*
X0445196Y0091745D01*
X0445430Y0091819D01*
X0445666Y0091888D01*
X0445903Y0091950D01*
X0446142Y0092007D01*
X0446382Y0092058D01*
X0446623Y0092103D01*
X0446866Y0092142D01*
X0447109Y0092175D01*
X0447353Y0092202D01*
X0447597Y0092223D01*
X0447842Y0092238D01*
X0448088Y0092247D01*
X0448333Y0092250D01*
X0448578Y0092247D01*
X0448824Y0092238D01*
X0449069Y0092223D01*
X0449313Y0092202D01*
X0449557Y0092175D01*
X0449800Y0092142D01*
X0450043Y0092103D01*
X0450284Y0092058D01*
X0450524Y0092007D01*
X0450763Y0091950D01*
X0451000Y0091888D01*
X0451236Y0091819D01*
X0451470Y0091745D01*
X0451702Y0091665D01*
X0451932Y0091580D01*
X0452160Y0091489D01*
X0452385Y0091392D01*
X0452609Y0091290D01*
X0452829Y0091182D01*
X0453047Y0091069D01*
X0453262Y0090951D01*
X0453474Y0090827D01*
X0453683Y0090699D01*
X0453889Y0090565D01*
X0454091Y0090426D01*
X0454290Y0090282D01*
X0454485Y0090133D01*
X0454677Y0089980D01*
X0454865Y0089822D01*
X0455049Y0089660D01*
X0455228Y0089492D01*
X0455404Y0089321D01*
X0455575Y0089145D01*
X0455743Y0088966D01*
X0455905Y0088782D01*
X0456063Y0088594D01*
X0456216Y0088402D01*
X0456365Y0088207D01*
X0456509Y0088008D01*
X0456648Y0087806D01*
X0456782Y0087600D01*
X0456910Y0087391D01*
X0457034Y0087179D01*
X0457152Y0086964D01*
X0457265Y0086746D01*
X0457373Y0086526D01*
X0457475Y0086302D01*
X0457572Y0086077D01*
X0457663Y0085849D01*
X0457748Y0085619D01*
X0457828Y0085387D01*
X0457902Y0085153D01*
X0457971Y0084917D01*
X0458033Y0084680D01*
X0458090Y0084441D01*
X0458141Y0084201D01*
X0458186Y0083960D01*
X0458225Y0083717D01*
X0458258Y0083474D01*
X0458285Y0083230D01*
X0458306Y0082986D01*
X0458321Y0082741D01*
X0458330Y0082495D01*
X0458333Y0082250D01*
X0458330Y0082005D01*
X0458321Y0081759D01*
X0458306Y0081514D01*
X0458285Y0081270D01*
X0458258Y0081026D01*
X0458225Y0080783D01*
X0458186Y0080540D01*
X0458141Y0080299D01*
X0458090Y0080059D01*
X0458033Y0079820D01*
X0457971Y0079583D01*
X0457902Y0079347D01*
X0457828Y0079113D01*
X0457748Y0078881D01*
X0457663Y0078651D01*
X0457572Y0078423D01*
X0457475Y0078198D01*
X0457373Y0077974D01*
X0457265Y0077754D01*
X0457152Y0077536D01*
X0457034Y0077321D01*
X0456910Y0077109D01*
X0456782Y0076900D01*
X0456648Y0076694D01*
X0456509Y0076492D01*
X0456365Y0076293D01*
X0456216Y0076098D01*
X0456063Y0075906D01*
X0455905Y0075718D01*
X0455743Y0075534D01*
X0455575Y0075355D01*
X0455404Y0075179D01*
X0455228Y0075008D01*
X0455049Y0074840D01*
X0454865Y0074678D01*
X0454677Y0074520D01*
X0454485Y0074367D01*
X0454290Y0074218D01*
X0454091Y0074074D01*
X0453889Y0073935D01*
X0453683Y0073801D01*
X0453474Y0073673D01*
X0453262Y0073549D01*
X0453047Y0073431D01*
X0452829Y0073318D01*
X0452609Y0073210D01*
X0452385Y0073108D01*
X0452160Y0073011D01*
X0451932Y0072920D01*
X0451702Y0072835D01*
X0451470Y0072755D01*
X0451236Y0072681D01*
X0451000Y0072612D01*
X0450763Y0072550D01*
X0450524Y0072493D01*
X0450284Y0072442D01*
X0450043Y0072397D01*
X0449800Y0072358D01*
X0449557Y0072325D01*
X0449313Y0072298D01*
X0449069Y0072277D01*
X0448824Y0072262D01*
X0448578Y0072253D01*
X0448333Y0072250D01*
X0448088Y0072253D01*
X0447842Y0072262D01*
X0447597Y0072277D01*
X0447353Y0072298D01*
X0447109Y0072325D01*
X0446866Y0072358D01*
X0446623Y0072397D01*
X0446382Y0072442D01*
X0446142Y0072493D01*
X0445903Y0072550D01*
X0445666Y0072612D01*
X0445430Y0072681D01*
X0445196Y0072755D01*
X0444964Y0072835D01*
X0444734Y0072920D01*
X0444506Y0073011D01*
X0444281Y0073108D01*
X0444057Y0073210D01*
X0443837Y0073318D01*
X0443619Y0073431D01*
X0443404Y0073549D01*
X0443192Y0073673D01*
X0442983Y0073801D01*
X0442777Y0073935D01*
X0442575Y0074074D01*
X0442376Y0074218D01*
X0442181Y0074367D01*
X0441989Y0074520D01*
X0441801Y0074678D01*
X0441617Y0074840D01*
X0441438Y0075008D01*
X0441262Y0075179D01*
X0441091Y0075355D01*
X0440923Y0075534D01*
X0440761Y0075718D01*
X0440603Y0075906D01*
X0440450Y0076098D01*
X0440301Y0076293D01*
X0440157Y0076492D01*
X0440018Y0076694D01*
X0439884Y0076900D01*
X0439756Y0077109D01*
X0439632Y0077321D01*
X0439514Y0077536D01*
X0439401Y0077754D01*
X0439293Y0077974D01*
X0439191Y0078198D01*
X0439094Y0078423D01*
X0439003Y0078651D01*
X0438918Y0078881D01*
X0438838Y0079113D01*
X0438764Y0079347D01*
X0438695Y0079583D01*
X0438633Y0079820D01*
X0438576Y0080059D01*
X0438525Y0080299D01*
X0438480Y0080540D01*
X0438441Y0080783D01*
X0438408Y0081026D01*
X0438381Y0081270D01*
X0438360Y0081514D01*
X0438345Y0081759D01*
X0438336Y0082005D01*
X0438333Y0082250D01*
D11*
X0533431Y0060931D02*
X0535299Y0060931D01*
X0536233Y0059997D01*
X0535299Y0059063D01*
X0533431Y0059063D01*
X0533398Y0057243D02*
X0532931Y0056776D01*
X0532931Y0055375D01*
X0535733Y0055375D01*
X0535733Y0056776D01*
X0535266Y0057243D01*
X0533398Y0057243D01*
X0532931Y0054481D02*
X0535733Y0054481D01*
X0532931Y0052612D01*
X0535733Y0052612D01*
X0535266Y0051718D02*
X0534332Y0051718D01*
X0534332Y0050784D01*
X0533398Y0049850D02*
X0535266Y0049850D01*
X0535733Y0050317D01*
X0535733Y0051251D01*
X0535266Y0051718D01*
X0533398Y0051718D02*
X0532931Y0051251D01*
X0532931Y0050317D01*
X0533398Y0049850D01*
X0533431Y0043956D02*
X0536233Y0042088D01*
X0536233Y0043956D02*
X0533431Y0042088D01*
X0533431Y0041194D02*
X0533431Y0039325D01*
X0533431Y0040259D02*
X0536233Y0040259D01*
X0536233Y0033956D02*
X0533431Y0032088D01*
X0533898Y0031194D02*
X0534832Y0031194D01*
X0535299Y0030726D01*
X0535299Y0029325D01*
X0536233Y0029325D02*
X0533431Y0029325D01*
X0533431Y0030726D01*
X0533898Y0031194D01*
X0535299Y0030259D02*
X0536233Y0031194D01*
X0536233Y0032088D02*
X0533431Y0033956D01*
X0534832Y0061825D02*
X0535766Y0061825D01*
X0536233Y0062292D01*
X0536233Y0063694D01*
X0535766Y0064588D02*
X0536233Y0065055D01*
X0536233Y0066456D01*
X0534365Y0066456D02*
X0534365Y0065055D01*
X0534832Y0064588D01*
X0535766Y0064588D01*
X0534365Y0063694D02*
X0534365Y0062292D01*
X0534832Y0061825D01*
D12*
X0523333Y0072130D02*
X0523333Y0072370D01*
X0508333Y0072370D02*
X0508333Y0072130D01*
X0463453Y0062250D02*
X0463213Y0062250D01*
D13*
X0404436Y0028628D02*
X0389475Y0028628D01*
X0420971Y0028628D02*
X0436325Y0028628D01*
X0436325Y0075872D01*
X0420971Y0075872D01*
X0404436Y0075872D02*
X0389475Y0075872D01*
X0438333Y0074750D02*
X0438333Y0089750D01*
X0463333Y0089750D02*
X0463333Y0074750D01*
X0500932Y0077526D02*
X0500932Y0086974D01*
X0525735Y0086974D01*
X0525735Y0077526D01*
X0500932Y0077526D01*
X0500932Y0087526D02*
X0500932Y0096974D01*
X0525735Y0096974D01*
X0525735Y0087526D01*
X0500932Y0087526D01*
X0523333Y0064750D02*
X0525833Y0067250D01*
X0530833Y0067250D01*
X0533333Y0064750D01*
X0533333Y0059750D01*
X0530833Y0057250D01*
X0533333Y0054750D01*
X0533333Y0049750D01*
X0530833Y0047250D01*
X0533333Y0044750D01*
X0533333Y0039750D01*
X0530833Y0037250D01*
X0533333Y0034750D01*
X0533333Y0029750D01*
X0530833Y0027250D01*
X0525833Y0027250D01*
X0523333Y0029750D01*
X0523333Y0034750D01*
X0525833Y0037250D01*
X0523333Y0039750D01*
X0523333Y0044750D01*
X0525833Y0047250D01*
X0523333Y0049750D01*
X0523333Y0054750D01*
X0525833Y0057250D01*
X0523333Y0059750D01*
X0523333Y0064750D01*
X0473176Y0046974D02*
X0467270Y0046974D01*
X0473176Y0046974D02*
X0473176Y0037526D01*
X0467270Y0037526D01*
X0459396Y0037526D02*
X0455066Y0037526D01*
X0453491Y0039100D01*
X0453491Y0045400D01*
X0455066Y0046974D01*
X0459396Y0046974D01*
D14*
X0461833Y0046250D02*
X0461833Y0038250D01*
D15*
X0463004Y0074441D02*
X0463724Y0074981D01*
X0463723Y0074980D02*
X0463904Y0074747D01*
X0464090Y0074519D01*
X0464282Y0074295D01*
X0464479Y0074076D01*
X0464681Y0073862D01*
X0464889Y0073653D01*
X0465102Y0073450D01*
X0465319Y0073251D01*
X0465542Y0073058D01*
X0465769Y0072870D01*
X0466000Y0072688D01*
X0466236Y0072511D01*
X0466477Y0072341D01*
X0466721Y0072176D01*
X0466969Y0072018D01*
X0467221Y0071865D01*
X0467477Y0071719D01*
X0467736Y0071579D01*
X0467999Y0071445D01*
X0468264Y0071318D01*
X0468533Y0071197D01*
X0468805Y0071083D01*
X0469079Y0070976D01*
X0469356Y0070875D01*
X0469635Y0070781D01*
X0469917Y0070694D01*
X0470200Y0070614D01*
X0470486Y0070541D01*
X0470773Y0070475D01*
X0471062Y0070416D01*
X0471352Y0070364D01*
X0471643Y0070319D01*
X0471935Y0070281D01*
X0472228Y0070251D01*
X0472522Y0070227D01*
X0472816Y0070211D01*
X0473110Y0070202D01*
X0473405Y0070200D01*
X0473700Y0070206D01*
X0473994Y0070218D01*
X0474288Y0070238D01*
X0474581Y0070265D01*
X0474874Y0070299D01*
X0475166Y0070340D01*
X0475456Y0070389D01*
X0475746Y0070444D01*
X0476033Y0070506D01*
X0476320Y0070576D01*
X0476604Y0070653D01*
X0476887Y0070736D01*
X0477167Y0070826D01*
X0477445Y0070923D01*
X0477721Y0071027D01*
X0477994Y0071138D01*
X0478264Y0071255D01*
X0478532Y0071379D01*
X0478796Y0071509D01*
X0479057Y0071646D01*
X0479314Y0071789D01*
X0479568Y0071939D01*
X0479819Y0072094D01*
X0480065Y0072256D01*
X0480307Y0072423D01*
X0480545Y0072597D01*
X0480779Y0072776D01*
X0481009Y0072961D01*
X0481233Y0073151D01*
X0481454Y0073347D01*
X0481669Y0073548D01*
X0481879Y0073755D01*
X0482084Y0073966D01*
X0482284Y0074183D01*
X0482479Y0074404D01*
X0482668Y0074630D01*
X0482851Y0074860D01*
X0483029Y0075095D01*
X0483201Y0075335D01*
X0483367Y0075578D01*
X0483527Y0075825D01*
X0483681Y0076076D01*
X0483829Y0076331D01*
X0483971Y0076590D01*
X0484106Y0076851D01*
X0484235Y0077116D01*
X0484357Y0077384D01*
X0484473Y0077655D01*
X0484582Y0077929D01*
X0484684Y0078205D01*
X0484779Y0078484D01*
X0484868Y0078765D01*
X0484950Y0079048D01*
X0485025Y0079333D01*
X0485092Y0079620D01*
X0485153Y0079908D01*
X0485207Y0080198D01*
X0485254Y0080489D01*
X0485293Y0080781D01*
X0485325Y0081073D01*
X0485351Y0081367D01*
X0485369Y0081661D01*
X0485379Y0081955D01*
X0485383Y0082250D01*
X0485379Y0082545D01*
X0485369Y0082839D01*
X0485351Y0083133D01*
X0485325Y0083427D01*
X0485293Y0083719D01*
X0485254Y0084011D01*
X0485207Y0084302D01*
X0485153Y0084592D01*
X0485092Y0084880D01*
X0485025Y0085167D01*
X0484950Y0085452D01*
X0484868Y0085735D01*
X0484779Y0086016D01*
X0484684Y0086295D01*
X0484582Y0086571D01*
X0484473Y0086845D01*
X0484357Y0087116D01*
X0484235Y0087384D01*
X0484106Y0087649D01*
X0483971Y0087910D01*
X0483829Y0088169D01*
X0483681Y0088424D01*
X0483527Y0088675D01*
X0483367Y0088922D01*
X0483201Y0089165D01*
X0483029Y0089405D01*
X0482851Y0089640D01*
X0482668Y0089870D01*
X0482479Y0090096D01*
X0482284Y0090317D01*
X0482084Y0090534D01*
X0481879Y0090745D01*
X0481669Y0090952D01*
X0481454Y0091153D01*
X0481233Y0091349D01*
X0481009Y0091539D01*
X0480779Y0091724D01*
X0480545Y0091903D01*
X0480307Y0092077D01*
X0480065Y0092244D01*
X0479819Y0092406D01*
X0479568Y0092561D01*
X0479314Y0092711D01*
X0479057Y0092854D01*
X0478796Y0092991D01*
X0478532Y0093121D01*
X0478264Y0093245D01*
X0477994Y0093362D01*
X0477721Y0093473D01*
X0477445Y0093577D01*
X0477167Y0093674D01*
X0476887Y0093764D01*
X0476604Y0093847D01*
X0476320Y0093924D01*
X0476033Y0093994D01*
X0475746Y0094056D01*
X0475456Y0094111D01*
X0475166Y0094160D01*
X0474874Y0094201D01*
X0474581Y0094235D01*
X0474288Y0094262D01*
X0473994Y0094282D01*
X0473700Y0094294D01*
X0473405Y0094300D01*
X0473110Y0094298D01*
X0472816Y0094289D01*
X0472522Y0094273D01*
X0472228Y0094249D01*
X0471935Y0094219D01*
X0471643Y0094181D01*
X0471352Y0094136D01*
X0471062Y0094084D01*
X0470773Y0094025D01*
X0470486Y0093959D01*
X0470200Y0093886D01*
X0469917Y0093806D01*
X0469635Y0093719D01*
X0469356Y0093625D01*
X0469079Y0093524D01*
X0468805Y0093417D01*
X0468533Y0093303D01*
X0468264Y0093182D01*
X0467999Y0093055D01*
X0467736Y0092921D01*
X0467477Y0092781D01*
X0467221Y0092635D01*
X0466969Y0092482D01*
X0466721Y0092324D01*
X0466477Y0092159D01*
X0466236Y0091989D01*
X0466000Y0091812D01*
X0465769Y0091630D01*
X0465542Y0091442D01*
X0465319Y0091249D01*
X0465102Y0091050D01*
X0464889Y0090847D01*
X0464681Y0090638D01*
X0464479Y0090424D01*
X0464282Y0090205D01*
X0464090Y0089981D01*
X0463904Y0089753D01*
X0463723Y0089520D01*
X0463004Y0090059D01*
X0463003Y0090060D01*
X0463197Y0090310D01*
X0463397Y0090556D01*
X0463603Y0090796D01*
X0463815Y0091031D01*
X0464033Y0091261D01*
X0464256Y0091486D01*
X0464484Y0091705D01*
X0464718Y0091919D01*
X0464957Y0092127D01*
X0465201Y0092329D01*
X0465450Y0092524D01*
X0465704Y0092714D01*
X0465962Y0092897D01*
X0466224Y0093074D01*
X0466491Y0093245D01*
X0466762Y0093409D01*
X0467037Y0093566D01*
X0467315Y0093717D01*
X0467598Y0093861D01*
X0467883Y0093997D01*
X0468172Y0094127D01*
X0468464Y0094250D01*
X0468759Y0094365D01*
X0469056Y0094473D01*
X0469357Y0094574D01*
X0469659Y0094668D01*
X0469964Y0094754D01*
X0470271Y0094833D01*
X0470579Y0094904D01*
X0470889Y0094967D01*
X0471201Y0095023D01*
X0471514Y0095072D01*
X0471828Y0095112D01*
X0472143Y0095145D01*
X0472459Y0095170D01*
X0472775Y0095188D01*
X0473091Y0095198D01*
X0473408Y0095200D01*
X0473725Y0095194D01*
X0474041Y0095181D01*
X0474357Y0095159D01*
X0474672Y0095131D01*
X0474987Y0095094D01*
X0475300Y0095050D01*
X0475613Y0094998D01*
X0475924Y0094938D01*
X0476233Y0094871D01*
X0476541Y0094796D01*
X0476847Y0094714D01*
X0477150Y0094625D01*
X0477452Y0094528D01*
X0477751Y0094423D01*
X0478047Y0094311D01*
X0478341Y0094193D01*
X0478631Y0094067D01*
X0478918Y0093934D01*
X0479203Y0093793D01*
X0479483Y0093646D01*
X0479760Y0093493D01*
X0480033Y0093332D01*
X0480302Y0093165D01*
X0480567Y0092991D01*
X0480827Y0092811D01*
X0481083Y0092625D01*
X0481334Y0092432D01*
X0481581Y0092234D01*
X0481823Y0092029D01*
X0482059Y0091819D01*
X0482291Y0091602D01*
X0482516Y0091380D01*
X0482737Y0091153D01*
X0482952Y0090921D01*
X0483161Y0090683D01*
X0483364Y0090440D01*
X0483562Y0090192D01*
X0483753Y0089940D01*
X0483938Y0089683D01*
X0484116Y0089421D01*
X0484288Y0089155D01*
X0484454Y0088886D01*
X0484613Y0088612D01*
X0484765Y0088334D01*
X0484910Y0088053D01*
X0485049Y0087768D01*
X0485180Y0087480D01*
X0485304Y0087188D01*
X0485422Y0086894D01*
X0485532Y0086597D01*
X0485634Y0086298D01*
X0485729Y0085996D01*
X0485817Y0085692D01*
X0485898Y0085385D01*
X0485971Y0085077D01*
X0486036Y0084767D01*
X0486094Y0084456D01*
X0486144Y0084143D01*
X0486186Y0083829D01*
X0486221Y0083515D01*
X0486248Y0083199D01*
X0486268Y0082883D01*
X0486279Y0082567D01*
X0486283Y0082250D01*
X0486279Y0081933D01*
X0486268Y0081617D01*
X0486248Y0081301D01*
X0486221Y0080985D01*
X0486186Y0080671D01*
X0486144Y0080357D01*
X0486094Y0080044D01*
X0486036Y0079733D01*
X0485971Y0079423D01*
X0485898Y0079115D01*
X0485817Y0078808D01*
X0485729Y0078504D01*
X0485634Y0078202D01*
X0485532Y0077903D01*
X0485422Y0077606D01*
X0485304Y0077312D01*
X0485180Y0077020D01*
X0485049Y0076732D01*
X0484910Y0076447D01*
X0484765Y0076166D01*
X0484613Y0075888D01*
X0484454Y0075614D01*
X0484288Y0075345D01*
X0484116Y0075079D01*
X0483938Y0074817D01*
X0483753Y0074560D01*
X0483562Y0074308D01*
X0483364Y0074060D01*
X0483161Y0073817D01*
X0482952Y0073579D01*
X0482737Y0073347D01*
X0482516Y0073120D01*
X0482291Y0072898D01*
X0482059Y0072681D01*
X0481823Y0072471D01*
X0481581Y0072266D01*
X0481334Y0072068D01*
X0481083Y0071875D01*
X0480827Y0071689D01*
X0480567Y0071509D01*
X0480302Y0071335D01*
X0480033Y0071168D01*
X0479760Y0071007D01*
X0479483Y0070854D01*
X0479203Y0070707D01*
X0478918Y0070566D01*
X0478631Y0070433D01*
X0478341Y0070307D01*
X0478047Y0070189D01*
X0477751Y0070077D01*
X0477452Y0069972D01*
X0477150Y0069875D01*
X0476847Y0069786D01*
X0476541Y0069704D01*
X0476233Y0069629D01*
X0475924Y0069562D01*
X0475613Y0069502D01*
X0475300Y0069450D01*
X0474987Y0069406D01*
X0474672Y0069369D01*
X0474357Y0069341D01*
X0474041Y0069319D01*
X0473725Y0069306D01*
X0473408Y0069300D01*
X0473091Y0069302D01*
X0472775Y0069312D01*
X0472459Y0069330D01*
X0472143Y0069355D01*
X0471828Y0069388D01*
X0471514Y0069428D01*
X0471201Y0069477D01*
X0470889Y0069533D01*
X0470579Y0069596D01*
X0470271Y0069667D01*
X0469964Y0069746D01*
X0469659Y0069832D01*
X0469357Y0069926D01*
X0469056Y0070027D01*
X0468759Y0070135D01*
X0468464Y0070250D01*
X0468172Y0070373D01*
X0467883Y0070503D01*
X0467598Y0070639D01*
X0467315Y0070783D01*
X0467037Y0070934D01*
X0466762Y0071091D01*
X0466491Y0071255D01*
X0466224Y0071426D01*
X0465962Y0071603D01*
X0465704Y0071786D01*
X0465450Y0071976D01*
X0465201Y0072171D01*
X0464957Y0072373D01*
X0464718Y0072581D01*
X0464484Y0072795D01*
X0464256Y0073014D01*
X0464033Y0073239D01*
X0463815Y0073469D01*
X0463603Y0073704D01*
X0463397Y0073944D01*
X0463197Y0074190D01*
X0463003Y0074440D01*
X0463078Y0074496D01*
X0463271Y0074248D01*
X0463470Y0074004D01*
X0463674Y0073766D01*
X0463884Y0073532D01*
X0464100Y0073304D01*
X0464322Y0073081D01*
X0464549Y0072863D01*
X0464781Y0072651D01*
X0465018Y0072445D01*
X0465260Y0072244D01*
X0465508Y0072050D01*
X0465759Y0071862D01*
X0466016Y0071680D01*
X0466276Y0071504D01*
X0466541Y0071335D01*
X0466810Y0071172D01*
X0467083Y0071016D01*
X0467359Y0070866D01*
X0467639Y0070724D01*
X0467923Y0070588D01*
X0468210Y0070459D01*
X0468500Y0070337D01*
X0468792Y0070223D01*
X0469088Y0070115D01*
X0469386Y0070015D01*
X0469686Y0069922D01*
X0469989Y0069837D01*
X0470293Y0069759D01*
X0470599Y0069688D01*
X0470907Y0069625D01*
X0471217Y0069569D01*
X0471527Y0069521D01*
X0471839Y0069481D01*
X0472152Y0069448D01*
X0472465Y0069423D01*
X0472779Y0069406D01*
X0473093Y0069396D01*
X0473408Y0069394D01*
X0473722Y0069400D01*
X0474036Y0069413D01*
X0474350Y0069434D01*
X0474663Y0069463D01*
X0474975Y0069499D01*
X0475286Y0069543D01*
X0475596Y0069595D01*
X0475905Y0069654D01*
X0476212Y0069721D01*
X0476518Y0069795D01*
X0476821Y0069876D01*
X0477123Y0069965D01*
X0477422Y0070062D01*
X0477719Y0070165D01*
X0478013Y0070276D01*
X0478304Y0070394D01*
X0478593Y0070519D01*
X0478878Y0070651D01*
X0479160Y0070790D01*
X0479438Y0070936D01*
X0479713Y0071089D01*
X0479984Y0071248D01*
X0480251Y0071414D01*
X0480514Y0071587D01*
X0480773Y0071765D01*
X0481027Y0071950D01*
X0481276Y0072142D01*
X0481521Y0072339D01*
X0481761Y0072542D01*
X0481996Y0072751D01*
X0482226Y0072966D01*
X0482450Y0073186D01*
X0482669Y0073411D01*
X0482882Y0073642D01*
X0483090Y0073878D01*
X0483292Y0074120D01*
X0483487Y0074365D01*
X0483677Y0074616D01*
X0483861Y0074871D01*
X0484038Y0075131D01*
X0484209Y0075395D01*
X0484373Y0075663D01*
X0484531Y0075935D01*
X0484682Y0076210D01*
X0484826Y0076490D01*
X0484964Y0076772D01*
X0485094Y0077058D01*
X0485218Y0077347D01*
X0485334Y0077640D01*
X0485443Y0077934D01*
X0485545Y0078232D01*
X0485639Y0078531D01*
X0485727Y0078834D01*
X0485807Y0079138D01*
X0485879Y0079443D01*
X0485944Y0079751D01*
X0486001Y0080060D01*
X0486051Y0080371D01*
X0486093Y0080682D01*
X0486128Y0080995D01*
X0486154Y0081308D01*
X0486174Y0081622D01*
X0486185Y0081936D01*
X0486189Y0082250D01*
X0486185Y0082564D01*
X0486174Y0082878D01*
X0486154Y0083192D01*
X0486128Y0083505D01*
X0486093Y0083818D01*
X0486051Y0084129D01*
X0486001Y0084440D01*
X0485944Y0084749D01*
X0485879Y0085057D01*
X0485807Y0085362D01*
X0485727Y0085666D01*
X0485639Y0085969D01*
X0485545Y0086268D01*
X0485443Y0086566D01*
X0485334Y0086860D01*
X0485218Y0087153D01*
X0485094Y0087442D01*
X0484964Y0087728D01*
X0484826Y0088010D01*
X0484682Y0088290D01*
X0484531Y0088565D01*
X0484373Y0088837D01*
X0484209Y0089105D01*
X0484038Y0089369D01*
X0483861Y0089629D01*
X0483677Y0089884D01*
X0483487Y0090135D01*
X0483292Y0090380D01*
X0483090Y0090622D01*
X0482882Y0090858D01*
X0482669Y0091089D01*
X0482450Y0091314D01*
X0482226Y0091534D01*
X0481996Y0091749D01*
X0481761Y0091958D01*
X0481521Y0092161D01*
X0481276Y0092358D01*
X0481027Y0092550D01*
X0480773Y0092735D01*
X0480514Y0092913D01*
X0480251Y0093086D01*
X0479984Y0093252D01*
X0479713Y0093411D01*
X0479438Y0093564D01*
X0479160Y0093710D01*
X0478878Y0093849D01*
X0478593Y0093981D01*
X0478304Y0094106D01*
X0478013Y0094224D01*
X0477719Y0094335D01*
X0477422Y0094438D01*
X0477123Y0094535D01*
X0476821Y0094624D01*
X0476518Y0094705D01*
X0476212Y0094779D01*
X0475905Y0094846D01*
X0475596Y0094905D01*
X0475286Y0094957D01*
X0474975Y0095001D01*
X0474663Y0095037D01*
X0474350Y0095066D01*
X0474036Y0095087D01*
X0473722Y0095100D01*
X0473408Y0095106D01*
X0473093Y0095104D01*
X0472779Y0095094D01*
X0472465Y0095077D01*
X0472152Y0095052D01*
X0471839Y0095019D01*
X0471527Y0094979D01*
X0471217Y0094931D01*
X0470907Y0094875D01*
X0470599Y0094812D01*
X0470293Y0094741D01*
X0469989Y0094663D01*
X0469686Y0094578D01*
X0469386Y0094485D01*
X0469088Y0094385D01*
X0468792Y0094277D01*
X0468500Y0094163D01*
X0468210Y0094041D01*
X0467923Y0093912D01*
X0467639Y0093776D01*
X0467359Y0093634D01*
X0467083Y0093484D01*
X0466810Y0093328D01*
X0466541Y0093165D01*
X0466276Y0092996D01*
X0466016Y0092820D01*
X0465759Y0092638D01*
X0465508Y0092450D01*
X0465260Y0092256D01*
X0465018Y0092055D01*
X0464781Y0091849D01*
X0464549Y0091637D01*
X0464322Y0091419D01*
X0464100Y0091196D01*
X0463884Y0090968D01*
X0463674Y0090734D01*
X0463470Y0090496D01*
X0463271Y0090252D01*
X0463078Y0090004D01*
X0463153Y0089947D01*
X0463345Y0090194D01*
X0463542Y0090436D01*
X0463745Y0090673D01*
X0463954Y0090904D01*
X0464168Y0091131D01*
X0464388Y0091353D01*
X0464613Y0091569D01*
X0464844Y0091779D01*
X0465079Y0091984D01*
X0465320Y0092183D01*
X0465565Y0092376D01*
X0465815Y0092562D01*
X0466069Y0092743D01*
X0466328Y0092918D01*
X0466591Y0093086D01*
X0466858Y0093247D01*
X0467129Y0093402D01*
X0467403Y0093551D01*
X0467681Y0093692D01*
X0467963Y0093827D01*
X0468247Y0093955D01*
X0468535Y0094076D01*
X0468826Y0094190D01*
X0469119Y0094296D01*
X0469415Y0094396D01*
X0469713Y0094488D01*
X0470013Y0094573D01*
X0470316Y0094650D01*
X0470620Y0094720D01*
X0470925Y0094783D01*
X0471232Y0094838D01*
X0471541Y0094886D01*
X0471850Y0094926D01*
X0472161Y0094958D01*
X0472472Y0094983D01*
X0472783Y0095000D01*
X0473095Y0095010D01*
X0473407Y0095012D01*
X0473719Y0095006D01*
X0474031Y0094993D01*
X0474342Y0094972D01*
X0474653Y0094944D01*
X0474963Y0094907D01*
X0475272Y0094864D01*
X0475580Y0094813D01*
X0475887Y0094754D01*
X0476191Y0094688D01*
X0476495Y0094614D01*
X0476796Y0094533D01*
X0477095Y0094445D01*
X0477392Y0094349D01*
X0477687Y0094246D01*
X0477979Y0094136D01*
X0478268Y0094019D01*
X0478555Y0093895D01*
X0478838Y0093764D01*
X0479118Y0093626D01*
X0479394Y0093481D01*
X0479667Y0093329D01*
X0479936Y0093171D01*
X0480201Y0093006D01*
X0480462Y0092835D01*
X0480718Y0092658D01*
X0480971Y0092474D01*
X0481218Y0092284D01*
X0481461Y0092089D01*
X0481700Y0091887D01*
X0481933Y0091679D01*
X0482161Y0091466D01*
X0482383Y0091248D01*
X0482601Y0091024D01*
X0482812Y0090795D01*
X0483018Y0090560D01*
X0483219Y0090321D01*
X0483413Y0090077D01*
X0483601Y0089828D01*
X0483784Y0089575D01*
X0483960Y0089317D01*
X0484129Y0089055D01*
X0484292Y0088789D01*
X0484449Y0088519D01*
X0484599Y0088245D01*
X0484742Y0087968D01*
X0484879Y0087688D01*
X0485008Y0087404D01*
X0485131Y0087117D01*
X0485246Y0086827D01*
X0485354Y0086534D01*
X0485456Y0086239D01*
X0485550Y0085941D01*
X0485636Y0085641D01*
X0485715Y0085340D01*
X0485787Y0085036D01*
X0485852Y0084731D01*
X0485909Y0084424D01*
X0485958Y0084116D01*
X0486000Y0083806D01*
X0486034Y0083496D01*
X0486061Y0083185D01*
X0486080Y0082874D01*
X0486091Y0082562D01*
X0486095Y0082250D01*
X0486091Y0081938D01*
X0486080Y0081626D01*
X0486061Y0081315D01*
X0486034Y0081004D01*
X0486000Y0080694D01*
X0485958Y0080384D01*
X0485909Y0080076D01*
X0485852Y0079769D01*
X0485787Y0079464D01*
X0485715Y0079160D01*
X0485636Y0078859D01*
X0485550Y0078559D01*
X0485456Y0078261D01*
X0485354Y0077966D01*
X0485246Y0077673D01*
X0485131Y0077383D01*
X0485008Y0077096D01*
X0484879Y0076812D01*
X0484742Y0076532D01*
X0484599Y0076255D01*
X0484449Y0075981D01*
X0484292Y0075711D01*
X0484129Y0075445D01*
X0483960Y0075183D01*
X0483784Y0074925D01*
X0483601Y0074672D01*
X0483413Y0074423D01*
X0483219Y0074179D01*
X0483018Y0073940D01*
X0482812Y0073705D01*
X0482601Y0073476D01*
X0482383Y0073252D01*
X0482161Y0073034D01*
X0481933Y0072821D01*
X0481700Y0072613D01*
X0481461Y0072411D01*
X0481218Y0072216D01*
X0480971Y0072026D01*
X0480718Y0071842D01*
X0480462Y0071665D01*
X0480201Y0071494D01*
X0479936Y0071329D01*
X0479667Y0071171D01*
X0479394Y0071019D01*
X0479118Y0070874D01*
X0478838Y0070736D01*
X0478555Y0070605D01*
X0478268Y0070481D01*
X0477979Y0070364D01*
X0477687Y0070254D01*
X0477392Y0070151D01*
X0477095Y0070055D01*
X0476796Y0069967D01*
X0476495Y0069886D01*
X0476191Y0069812D01*
X0475887Y0069746D01*
X0475580Y0069687D01*
X0475272Y0069636D01*
X0474963Y0069593D01*
X0474653Y0069556D01*
X0474342Y0069528D01*
X0474031Y0069507D01*
X0473719Y0069494D01*
X0473407Y0069488D01*
X0473095Y0069490D01*
X0472783Y0069500D01*
X0472472Y0069517D01*
X0472161Y0069542D01*
X0471850Y0069574D01*
X0471541Y0069614D01*
X0471232Y0069662D01*
X0470925Y0069717D01*
X0470620Y0069780D01*
X0470316Y0069850D01*
X0470013Y0069927D01*
X0469713Y0070012D01*
X0469415Y0070104D01*
X0469119Y0070204D01*
X0468826Y0070310D01*
X0468535Y0070424D01*
X0468247Y0070545D01*
X0467963Y0070673D01*
X0467681Y0070808D01*
X0467403Y0070949D01*
X0467129Y0071098D01*
X0466858Y0071253D01*
X0466591Y0071414D01*
X0466328Y0071582D01*
X0466069Y0071757D01*
X0465815Y0071938D01*
X0465565Y0072124D01*
X0465320Y0072317D01*
X0465079Y0072516D01*
X0464844Y0072721D01*
X0464613Y0072931D01*
X0464388Y0073147D01*
X0464168Y0073369D01*
X0463954Y0073596D01*
X0463745Y0073827D01*
X0463542Y0074064D01*
X0463345Y0074306D01*
X0463153Y0074553D01*
X0463229Y0074609D01*
X0463419Y0074364D01*
X0463614Y0074124D01*
X0463816Y0073889D01*
X0464023Y0073659D01*
X0464236Y0073434D01*
X0464454Y0073214D01*
X0464678Y0073000D01*
X0464907Y0072791D01*
X0465140Y0072588D01*
X0465379Y0072390D01*
X0465622Y0072199D01*
X0465871Y0072013D01*
X0466123Y0071834D01*
X0466380Y0071661D01*
X0466641Y0071494D01*
X0466906Y0071333D01*
X0467175Y0071180D01*
X0467447Y0071032D01*
X0467723Y0070892D01*
X0468003Y0070758D01*
X0468285Y0070631D01*
X0468571Y0070511D01*
X0468859Y0070398D01*
X0469150Y0070292D01*
X0469444Y0070194D01*
X0469740Y0070102D01*
X0470038Y0070018D01*
X0470338Y0069941D01*
X0470640Y0069872D01*
X0470943Y0069809D01*
X0471248Y0069755D01*
X0471554Y0069707D01*
X0471862Y0069668D01*
X0472170Y0069636D01*
X0472478Y0069611D01*
X0472788Y0069594D01*
X0473097Y0069584D01*
X0473407Y0069582D01*
X0473717Y0069588D01*
X0474026Y0069601D01*
X0474335Y0069622D01*
X0474644Y0069650D01*
X0474951Y0069686D01*
X0475258Y0069729D01*
X0475564Y0069780D01*
X0475868Y0069838D01*
X0476171Y0069904D01*
X0476472Y0069977D01*
X0476771Y0070057D01*
X0477068Y0070145D01*
X0477363Y0070240D01*
X0477655Y0070342D01*
X0477945Y0070451D01*
X0478232Y0070568D01*
X0478516Y0070691D01*
X0478797Y0070821D01*
X0479075Y0070958D01*
X0479349Y0071102D01*
X0479620Y0071252D01*
X0479887Y0071409D01*
X0480150Y0071573D01*
X0480409Y0071743D01*
X0480664Y0071919D01*
X0480915Y0072101D01*
X0481160Y0072290D01*
X0481402Y0072484D01*
X0481638Y0072684D01*
X0481869Y0072890D01*
X0482096Y0073102D01*
X0482317Y0073319D01*
X0482532Y0073541D01*
X0482743Y0073768D01*
X0482947Y0074001D01*
X0483146Y0074239D01*
X0483339Y0074481D01*
X0483526Y0074728D01*
X0483707Y0074979D01*
X0483881Y0075235D01*
X0484050Y0075495D01*
X0484212Y0075759D01*
X0484367Y0076027D01*
X0484516Y0076299D01*
X0484658Y0076574D01*
X0484794Y0076853D01*
X0484922Y0077134D01*
X0485044Y0077419D01*
X0485158Y0077707D01*
X0485266Y0077998D01*
X0485366Y0078291D01*
X0485460Y0078586D01*
X0485546Y0078884D01*
X0485624Y0079183D01*
X0485695Y0079485D01*
X0485759Y0079788D01*
X0485816Y0080092D01*
X0485865Y0080398D01*
X0485906Y0080705D01*
X0485940Y0081013D01*
X0485967Y0081322D01*
X0485986Y0081631D01*
X0485997Y0081940D01*
X0486001Y0082250D01*
X0485997Y0082560D01*
X0485986Y0082869D01*
X0485967Y0083178D01*
X0485940Y0083487D01*
X0485906Y0083795D01*
X0485865Y0084102D01*
X0485816Y0084408D01*
X0485759Y0084712D01*
X0485695Y0085015D01*
X0485624Y0085317D01*
X0485546Y0085616D01*
X0485460Y0085914D01*
X0485366Y0086209D01*
X0485266Y0086502D01*
X0485158Y0086793D01*
X0485044Y0087081D01*
X0484922Y0087366D01*
X0484794Y0087647D01*
X0484658Y0087926D01*
X0484516Y0088201D01*
X0484367Y0088473D01*
X0484212Y0088741D01*
X0484050Y0089005D01*
X0483881Y0089265D01*
X0483707Y0089521D01*
X0483526Y0089772D01*
X0483339Y0090019D01*
X0483146Y0090261D01*
X0482947Y0090499D01*
X0482743Y0090732D01*
X0482532Y0090959D01*
X0482317Y0091181D01*
X0482096Y0091398D01*
X0481869Y0091610D01*
X0481638Y0091816D01*
X0481402Y0092016D01*
X0481160Y0092210D01*
X0480915Y0092399D01*
X0480664Y0092581D01*
X0480409Y0092757D01*
X0480150Y0092927D01*
X0479887Y0093091D01*
X0479620Y0093248D01*
X0479349Y0093398D01*
X0479075Y0093542D01*
X0478797Y0093679D01*
X0478516Y0093809D01*
X0478232Y0093932D01*
X0477945Y0094049D01*
X0477655Y0094158D01*
X0477363Y0094260D01*
X0477068Y0094355D01*
X0476771Y0094443D01*
X0476472Y0094523D01*
X0476171Y0094596D01*
X0475868Y0094662D01*
X0475564Y0094720D01*
X0475258Y0094771D01*
X0474951Y0094814D01*
X0474644Y0094850D01*
X0474335Y0094878D01*
X0474026Y0094899D01*
X0473717Y0094912D01*
X0473407Y0094918D01*
X0473097Y0094916D01*
X0472788Y0094906D01*
X0472478Y0094889D01*
X0472170Y0094864D01*
X0471862Y0094832D01*
X0471554Y0094793D01*
X0471248Y0094745D01*
X0470943Y0094691D01*
X0470640Y0094628D01*
X0470338Y0094559D01*
X0470038Y0094482D01*
X0469740Y0094398D01*
X0469444Y0094306D01*
X0469150Y0094208D01*
X0468859Y0094102D01*
X0468571Y0093989D01*
X0468285Y0093869D01*
X0468003Y0093742D01*
X0467723Y0093608D01*
X0467447Y0093468D01*
X0467175Y0093320D01*
X0466906Y0093167D01*
X0466641Y0093006D01*
X0466380Y0092839D01*
X0466123Y0092666D01*
X0465871Y0092487D01*
X0465622Y0092301D01*
X0465379Y0092110D01*
X0465140Y0091912D01*
X0464907Y0091709D01*
X0464678Y0091500D01*
X0464454Y0091286D01*
X0464236Y0091066D01*
X0464023Y0090841D01*
X0463816Y0090611D01*
X0463614Y0090376D01*
X0463419Y0090136D01*
X0463229Y0089891D01*
X0463304Y0089834D01*
X0463492Y0090077D01*
X0463687Y0090316D01*
X0463887Y0090549D01*
X0464092Y0090777D01*
X0464304Y0091001D01*
X0464520Y0091219D01*
X0464742Y0091432D01*
X0464969Y0091639D01*
X0465201Y0091841D01*
X0465438Y0092037D01*
X0465680Y0092227D01*
X0465926Y0092411D01*
X0466177Y0092589D01*
X0466432Y0092761D01*
X0466691Y0092926D01*
X0466954Y0093086D01*
X0467221Y0093238D01*
X0467491Y0093385D01*
X0467765Y0093524D01*
X0468042Y0093657D01*
X0468323Y0093783D01*
X0468606Y0093902D01*
X0468893Y0094014D01*
X0469182Y0094119D01*
X0469473Y0094217D01*
X0469767Y0094308D01*
X0470063Y0094391D01*
X0470360Y0094468D01*
X0470660Y0094537D01*
X0470961Y0094598D01*
X0471264Y0094653D01*
X0471568Y0094699D01*
X0471873Y0094739D01*
X0472178Y0094771D01*
X0472485Y0094795D01*
X0472792Y0094812D01*
X0473099Y0094822D01*
X0473407Y0094824D01*
X0473714Y0094818D01*
X0474021Y0094805D01*
X0474328Y0094785D01*
X0474634Y0094756D01*
X0474940Y0094721D01*
X0475244Y0094678D01*
X0475547Y0094627D01*
X0475849Y0094570D01*
X0476150Y0094504D01*
X0476449Y0094432D01*
X0476745Y0094352D01*
X0477040Y0094265D01*
X0477333Y0094171D01*
X0477623Y0094069D01*
X0477911Y0093961D01*
X0478196Y0093846D01*
X0478478Y0093723D01*
X0478757Y0093594D01*
X0479033Y0093458D01*
X0479305Y0093315D01*
X0479574Y0093166D01*
X0479839Y0093010D01*
X0480100Y0092848D01*
X0480357Y0092679D01*
X0480610Y0092504D01*
X0480858Y0092323D01*
X0481102Y0092136D01*
X0481342Y0091943D01*
X0481576Y0091745D01*
X0481806Y0091540D01*
X0482031Y0091330D01*
X0482250Y0091115D01*
X0482464Y0090894D01*
X0482673Y0090669D01*
X0482876Y0090438D01*
X0483073Y0090202D01*
X0483265Y0089961D01*
X0483450Y0089716D01*
X0483630Y0089467D01*
X0483803Y0089213D01*
X0483970Y0088955D01*
X0484131Y0088693D01*
X0484285Y0088427D01*
X0484433Y0088157D01*
X0484574Y0087884D01*
X0484709Y0087607D01*
X0484836Y0087328D01*
X0484957Y0087045D01*
X0485071Y0086759D01*
X0485177Y0086471D01*
X0485277Y0086180D01*
X0485370Y0085887D01*
X0485455Y0085591D01*
X0485533Y0085294D01*
X0485604Y0084995D01*
X0485667Y0084694D01*
X0485723Y0084392D01*
X0485772Y0084088D01*
X0485813Y0083783D01*
X0485847Y0083478D01*
X0485873Y0083172D01*
X0485892Y0082865D01*
X0485903Y0082557D01*
X0485907Y0082250D01*
X0485903Y0081943D01*
X0485892Y0081635D01*
X0485873Y0081328D01*
X0485847Y0081022D01*
X0485813Y0080717D01*
X0485772Y0080412D01*
X0485723Y0080108D01*
X0485667Y0079806D01*
X0485604Y0079505D01*
X0485533Y0079206D01*
X0485455Y0078909D01*
X0485370Y0078613D01*
X0485277Y0078320D01*
X0485177Y0078029D01*
X0485071Y0077741D01*
X0484957Y0077455D01*
X0484836Y0077172D01*
X0484709Y0076893D01*
X0484574Y0076616D01*
X0484433Y0076343D01*
X0484285Y0076073D01*
X0484131Y0075807D01*
X0483970Y0075545D01*
X0483803Y0075287D01*
X0483630Y0075033D01*
X0483450Y0074784D01*
X0483265Y0074539D01*
X0483073Y0074298D01*
X0482876Y0074062D01*
X0482673Y0073831D01*
X0482464Y0073606D01*
X0482250Y0073385D01*
X0482031Y0073170D01*
X0481806Y0072960D01*
X0481576Y0072755D01*
X0481342Y0072557D01*
X0481102Y0072364D01*
X0480858Y0072177D01*
X0480610Y0071996D01*
X0480357Y0071821D01*
X0480100Y0071652D01*
X0479839Y0071490D01*
X0479574Y0071334D01*
X0479305Y0071185D01*
X0479033Y0071042D01*
X0478757Y0070906D01*
X0478478Y0070777D01*
X0478196Y0070654D01*
X0477911Y0070539D01*
X0477623Y0070431D01*
X0477333Y0070329D01*
X0477040Y0070235D01*
X0476745Y0070148D01*
X0476449Y0070068D01*
X0476150Y0069996D01*
X0475849Y0069930D01*
X0475547Y0069873D01*
X0475244Y0069822D01*
X0474940Y0069779D01*
X0474634Y0069744D01*
X0474328Y0069715D01*
X0474021Y0069695D01*
X0473714Y0069682D01*
X0473407Y0069676D01*
X0473099Y0069678D01*
X0472792Y0069688D01*
X0472485Y0069705D01*
X0472178Y0069729D01*
X0471873Y0069761D01*
X0471568Y0069801D01*
X0471264Y0069847D01*
X0470961Y0069902D01*
X0470660Y0069963D01*
X0470360Y0070032D01*
X0470063Y0070109D01*
X0469767Y0070192D01*
X0469473Y0070283D01*
X0469182Y0070381D01*
X0468893Y0070486D01*
X0468606Y0070598D01*
X0468323Y0070717D01*
X0468042Y0070843D01*
X0467765Y0070976D01*
X0467491Y0071115D01*
X0467221Y0071262D01*
X0466954Y0071414D01*
X0466691Y0071574D01*
X0466432Y0071739D01*
X0466177Y0071911D01*
X0465926Y0072089D01*
X0465680Y0072273D01*
X0465438Y0072463D01*
X0465201Y0072659D01*
X0464969Y0072861D01*
X0464742Y0073068D01*
X0464520Y0073281D01*
X0464304Y0073499D01*
X0464092Y0073723D01*
X0463887Y0073951D01*
X0463687Y0074184D01*
X0463492Y0074423D01*
X0463304Y0074666D01*
X0463379Y0074722D01*
X0463566Y0074481D01*
X0463759Y0074244D01*
X0463958Y0074013D01*
X0464162Y0073786D01*
X0464371Y0073564D01*
X0464586Y0073348D01*
X0464807Y0073137D01*
X0465032Y0072931D01*
X0465262Y0072731D01*
X0465498Y0072536D01*
X0465737Y0072348D01*
X0465982Y0072165D01*
X0466231Y0071988D01*
X0466484Y0071818D01*
X0466741Y0071653D01*
X0467002Y0071495D01*
X0467267Y0071344D01*
X0467535Y0071199D01*
X0467807Y0071060D01*
X0468082Y0070928D01*
X0468361Y0070803D01*
X0468642Y0070685D01*
X0468926Y0070574D01*
X0469213Y0070470D01*
X0469502Y0070372D01*
X0469794Y0070282D01*
X0470087Y0070199D01*
X0470383Y0070124D01*
X0470680Y0070055D01*
X0470979Y0069994D01*
X0471280Y0069940D01*
X0471581Y0069894D01*
X0471884Y0069854D01*
X0472187Y0069823D01*
X0472492Y0069798D01*
X0472796Y0069782D01*
X0473101Y0069772D01*
X0473406Y0069770D01*
X0473711Y0069776D01*
X0474016Y0069789D01*
X0474321Y0069809D01*
X0474625Y0069837D01*
X0474928Y0069872D01*
X0475230Y0069915D01*
X0475531Y0069965D01*
X0475831Y0070022D01*
X0476129Y0070087D01*
X0476425Y0070159D01*
X0476720Y0070238D01*
X0477013Y0070325D01*
X0477303Y0070418D01*
X0477591Y0070519D01*
X0477877Y0070627D01*
X0478160Y0070741D01*
X0478440Y0070863D01*
X0478717Y0070991D01*
X0478990Y0071126D01*
X0479260Y0071267D01*
X0479527Y0071416D01*
X0479790Y0071570D01*
X0480049Y0071731D01*
X0480305Y0071899D01*
X0480556Y0072072D01*
X0480802Y0072252D01*
X0481044Y0072438D01*
X0481282Y0072629D01*
X0481515Y0072826D01*
X0481743Y0073029D01*
X0481966Y0073238D01*
X0482184Y0073451D01*
X0482396Y0073670D01*
X0482603Y0073894D01*
X0482805Y0074124D01*
X0483001Y0074358D01*
X0483191Y0074596D01*
X0483375Y0074840D01*
X0483553Y0075087D01*
X0483725Y0075339D01*
X0483891Y0075596D01*
X0484050Y0075856D01*
X0484204Y0076120D01*
X0484350Y0076387D01*
X0484490Y0076658D01*
X0484624Y0076933D01*
X0484750Y0077210D01*
X0484870Y0077491D01*
X0484983Y0077775D01*
X0485089Y0078061D01*
X0485188Y0078349D01*
X0485280Y0078640D01*
X0485364Y0078934D01*
X0485442Y0079229D01*
X0485512Y0079526D01*
X0485575Y0079824D01*
X0485631Y0080124D01*
X0485679Y0080426D01*
X0485720Y0080728D01*
X0485753Y0081031D01*
X0485779Y0081335D01*
X0485798Y0081640D01*
X0485809Y0081945D01*
X0485813Y0082250D01*
X0485809Y0082555D01*
X0485798Y0082860D01*
X0485779Y0083165D01*
X0485753Y0083469D01*
X0485720Y0083772D01*
X0485679Y0084074D01*
X0485631Y0084376D01*
X0485575Y0084676D01*
X0485512Y0084974D01*
X0485442Y0085271D01*
X0485364Y0085566D01*
X0485280Y0085860D01*
X0485188Y0086151D01*
X0485089Y0086439D01*
X0484983Y0086725D01*
X0484870Y0087009D01*
X0484750Y0087290D01*
X0484624Y0087567D01*
X0484490Y0087842D01*
X0484350Y0088113D01*
X0484204Y0088380D01*
X0484050Y0088644D01*
X0483891Y0088904D01*
X0483725Y0089161D01*
X0483553Y0089413D01*
X0483375Y0089660D01*
X0483191Y0089904D01*
X0483001Y0090142D01*
X0482805Y0090376D01*
X0482603Y0090606D01*
X0482396Y0090830D01*
X0482184Y0091049D01*
X0481966Y0091262D01*
X0481743Y0091471D01*
X0481515Y0091674D01*
X0481282Y0091871D01*
X0481044Y0092062D01*
X0480802Y0092248D01*
X0480556Y0092428D01*
X0480305Y0092601D01*
X0480049Y0092769D01*
X0479790Y0092930D01*
X0479527Y0093084D01*
X0479260Y0093233D01*
X0478990Y0093374D01*
X0478717Y0093509D01*
X0478440Y0093637D01*
X0478160Y0093759D01*
X0477877Y0093873D01*
X0477591Y0093981D01*
X0477303Y0094082D01*
X0477013Y0094175D01*
X0476720Y0094262D01*
X0476425Y0094341D01*
X0476129Y0094413D01*
X0475831Y0094478D01*
X0475531Y0094535D01*
X0475230Y0094585D01*
X0474928Y0094628D01*
X0474625Y0094663D01*
X0474321Y0094691D01*
X0474016Y0094711D01*
X0473711Y0094724D01*
X0473406Y0094730D01*
X0473101Y0094728D01*
X0472796Y0094718D01*
X0472492Y0094702D01*
X0472187Y0094677D01*
X0471884Y0094646D01*
X0471581Y0094606D01*
X0471280Y0094560D01*
X0470979Y0094506D01*
X0470680Y0094445D01*
X0470383Y0094376D01*
X0470087Y0094301D01*
X0469794Y0094218D01*
X0469502Y0094128D01*
X0469213Y0094030D01*
X0468926Y0093926D01*
X0468642Y0093815D01*
X0468361Y0093697D01*
X0468082Y0093572D01*
X0467807Y0093440D01*
X0467535Y0093301D01*
X0467267Y0093156D01*
X0467002Y0093005D01*
X0466741Y0092847D01*
X0466484Y0092682D01*
X0466231Y0092512D01*
X0465982Y0092335D01*
X0465737Y0092152D01*
X0465498Y0091964D01*
X0465262Y0091769D01*
X0465032Y0091569D01*
X0464807Y0091363D01*
X0464586Y0091152D01*
X0464371Y0090936D01*
X0464162Y0090714D01*
X0463958Y0090487D01*
X0463759Y0090256D01*
X0463566Y0090019D01*
X0463379Y0089778D01*
X0463454Y0089722D01*
X0463640Y0089961D01*
X0463831Y0090196D01*
X0464028Y0090425D01*
X0464231Y0090650D01*
X0464439Y0090871D01*
X0464653Y0091085D01*
X0464871Y0091295D01*
X0465095Y0091499D01*
X0465323Y0091698D01*
X0465557Y0091891D01*
X0465795Y0092078D01*
X0466037Y0092259D01*
X0466284Y0092435D01*
X0466535Y0092604D01*
X0466791Y0092767D01*
X0467050Y0092924D01*
X0467313Y0093074D01*
X0467579Y0093218D01*
X0467849Y0093356D01*
X0468122Y0093487D01*
X0468398Y0093611D01*
X0468678Y0093728D01*
X0468960Y0093838D01*
X0469244Y0093942D01*
X0469531Y0094038D01*
X0469821Y0094128D01*
X0470112Y0094210D01*
X0470405Y0094285D01*
X0470701Y0094353D01*
X0470997Y0094414D01*
X0471295Y0094467D01*
X0471595Y0094513D01*
X0471895Y0094552D01*
X0472196Y0094584D01*
X0472498Y0094608D01*
X0472801Y0094625D01*
X0473103Y0094634D01*
X0473406Y0094636D01*
X0473709Y0094630D01*
X0474011Y0094617D01*
X0474314Y0094597D01*
X0474615Y0094569D01*
X0474916Y0094534D01*
X0475216Y0094492D01*
X0475515Y0094442D01*
X0475812Y0094385D01*
X0476108Y0094321D01*
X0476402Y0094250D01*
X0476695Y0094171D01*
X0476985Y0094085D01*
X0477274Y0093992D01*
X0477559Y0093893D01*
X0477843Y0093786D01*
X0478123Y0093672D01*
X0478401Y0093552D01*
X0478676Y0093424D01*
X0478948Y0093290D01*
X0479216Y0093150D01*
X0479481Y0093003D01*
X0479742Y0092849D01*
X0479999Y0092689D01*
X0480252Y0092523D01*
X0480501Y0092351D01*
X0480746Y0092173D01*
X0480987Y0091988D01*
X0481222Y0091798D01*
X0481453Y0091603D01*
X0481680Y0091401D01*
X0481901Y0091195D01*
X0482117Y0090982D01*
X0482328Y0090765D01*
X0482533Y0090543D01*
X0482733Y0090315D01*
X0482928Y0090083D01*
X0483116Y0089846D01*
X0483299Y0089604D01*
X0483476Y0089359D01*
X0483647Y0089108D01*
X0483811Y0088854D01*
X0483970Y0088596D01*
X0484122Y0088334D01*
X0484267Y0088069D01*
X0484406Y0087800D01*
X0484539Y0087527D01*
X0484664Y0087252D01*
X0484783Y0086973D01*
X0484895Y0086692D01*
X0485000Y0086408D01*
X0485099Y0086121D01*
X0485190Y0085832D01*
X0485274Y0085541D01*
X0485351Y0085248D01*
X0485420Y0084954D01*
X0485483Y0084657D01*
X0485538Y0084360D01*
X0485586Y0084061D01*
X0485627Y0083761D01*
X0485660Y0083459D01*
X0485686Y0083158D01*
X0485704Y0082855D01*
X0485715Y0082553D01*
X0485719Y0082250D01*
X0485715Y0081947D01*
X0485704Y0081645D01*
X0485686Y0081342D01*
X0485660Y0081041D01*
X0485627Y0080739D01*
X0485586Y0080439D01*
X0485538Y0080140D01*
X0485483Y0079843D01*
X0485420Y0079546D01*
X0485351Y0079252D01*
X0485274Y0078959D01*
X0485190Y0078668D01*
X0485099Y0078379D01*
X0485000Y0078092D01*
X0484895Y0077808D01*
X0484783Y0077527D01*
X0484664Y0077248D01*
X0484539Y0076973D01*
X0484406Y0076700D01*
X0484267Y0076431D01*
X0484122Y0076166D01*
X0483970Y0075904D01*
X0483811Y0075646D01*
X0483647Y0075392D01*
X0483476Y0075141D01*
X0483299Y0074896D01*
X0483116Y0074654D01*
X0482928Y0074417D01*
X0482733Y0074185D01*
X0482533Y0073957D01*
X0482328Y0073735D01*
X0482117Y0073518D01*
X0481901Y0073305D01*
X0481680Y0073099D01*
X0481453Y0072897D01*
X0481222Y0072702D01*
X0480987Y0072512D01*
X0480746Y0072327D01*
X0480501Y0072149D01*
X0480252Y0071977D01*
X0479999Y0071811D01*
X0479742Y0071651D01*
X0479481Y0071497D01*
X0479216Y0071350D01*
X0478948Y0071210D01*
X0478676Y0071076D01*
X0478401Y0070948D01*
X0478123Y0070828D01*
X0477843Y0070714D01*
X0477559Y0070607D01*
X0477274Y0070508D01*
X0476985Y0070415D01*
X0476695Y0070329D01*
X0476402Y0070250D01*
X0476108Y0070179D01*
X0475812Y0070115D01*
X0475515Y0070058D01*
X0475216Y0070008D01*
X0474916Y0069966D01*
X0474615Y0069931D01*
X0474314Y0069903D01*
X0474011Y0069883D01*
X0473709Y0069870D01*
X0473406Y0069864D01*
X0473103Y0069866D01*
X0472801Y0069875D01*
X0472498Y0069892D01*
X0472196Y0069916D01*
X0471895Y0069948D01*
X0471595Y0069987D01*
X0471295Y0070033D01*
X0470997Y0070086D01*
X0470701Y0070147D01*
X0470405Y0070215D01*
X0470112Y0070290D01*
X0469821Y0070372D01*
X0469531Y0070462D01*
X0469244Y0070558D01*
X0468960Y0070662D01*
X0468678Y0070772D01*
X0468398Y0070889D01*
X0468122Y0071013D01*
X0467849Y0071144D01*
X0467579Y0071282D01*
X0467313Y0071426D01*
X0467050Y0071576D01*
X0466791Y0071733D01*
X0466535Y0071896D01*
X0466284Y0072065D01*
X0466037Y0072241D01*
X0465795Y0072422D01*
X0465557Y0072609D01*
X0465323Y0072802D01*
X0465095Y0073001D01*
X0464871Y0073205D01*
X0464653Y0073415D01*
X0464439Y0073629D01*
X0464231Y0073850D01*
X0464028Y0074075D01*
X0463831Y0074304D01*
X0463640Y0074539D01*
X0463454Y0074778D01*
X0463529Y0074835D01*
X0463714Y0074597D01*
X0463904Y0074365D01*
X0464099Y0074136D01*
X0464300Y0073913D01*
X0464507Y0073695D01*
X0464719Y0073481D01*
X0464936Y0073273D01*
X0465158Y0073071D01*
X0465385Y0072874D01*
X0465616Y0072682D01*
X0465852Y0072496D01*
X0466093Y0072316D01*
X0466338Y0072142D01*
X0466587Y0071974D01*
X0466841Y0071812D01*
X0467098Y0071657D01*
X0467359Y0071508D01*
X0467623Y0071365D01*
X0467891Y0071228D01*
X0468162Y0071099D01*
X0468436Y0070976D01*
X0468713Y0070859D01*
X0468993Y0070750D01*
X0469276Y0070647D01*
X0469560Y0070551D01*
X0469848Y0070463D01*
X0470137Y0070381D01*
X0470428Y0070306D01*
X0470721Y0070239D01*
X0471015Y0070178D01*
X0471311Y0070125D01*
X0471608Y0070080D01*
X0471906Y0070041D01*
X0472205Y0070010D01*
X0472505Y0069986D01*
X0472805Y0069969D01*
X0473105Y0069960D01*
X0473406Y0069958D01*
X0473706Y0069964D01*
X0474007Y0069976D01*
X0474306Y0069997D01*
X0474606Y0070024D01*
X0474904Y0070059D01*
X0475202Y0070101D01*
X0475498Y0070150D01*
X0475793Y0070207D01*
X0476087Y0070271D01*
X0476379Y0070341D01*
X0476669Y0070419D01*
X0476958Y0070505D01*
X0477244Y0070597D01*
X0477528Y0070696D01*
X0477809Y0070802D01*
X0478087Y0070915D01*
X0478363Y0071034D01*
X0478636Y0071161D01*
X0478905Y0071294D01*
X0479171Y0071433D01*
X0479434Y0071579D01*
X0479693Y0071731D01*
X0479949Y0071890D01*
X0480200Y0072055D01*
X0480447Y0072226D01*
X0480690Y0072403D01*
X0480929Y0072586D01*
X0481163Y0072774D01*
X0481392Y0072968D01*
X0481616Y0073168D01*
X0481836Y0073373D01*
X0482050Y0073584D01*
X0482260Y0073800D01*
X0482464Y0074020D01*
X0482662Y0074246D01*
X0482855Y0074477D01*
X0483042Y0074712D01*
X0483224Y0074951D01*
X0483399Y0075195D01*
X0483569Y0075444D01*
X0483732Y0075696D01*
X0483889Y0075952D01*
X0484040Y0076212D01*
X0484184Y0076476D01*
X0484322Y0076743D01*
X0484454Y0077013D01*
X0484578Y0077286D01*
X0484696Y0077563D01*
X0484807Y0077842D01*
X0484912Y0078124D01*
X0485009Y0078408D01*
X0485100Y0078695D01*
X0485183Y0078984D01*
X0485259Y0079274D01*
X0485329Y0079567D01*
X0485391Y0079861D01*
X0485445Y0080156D01*
X0485493Y0080453D01*
X0485533Y0080751D01*
X0485566Y0081050D01*
X0485592Y0081349D01*
X0485610Y0081649D01*
X0485621Y0081949D01*
X0485625Y0082250D01*
X0485621Y0082551D01*
X0485610Y0082851D01*
X0485592Y0083151D01*
X0485566Y0083450D01*
X0485533Y0083749D01*
X0485493Y0084047D01*
X0485445Y0084344D01*
X0485391Y0084639D01*
X0485329Y0084933D01*
X0485259Y0085226D01*
X0485183Y0085516D01*
X0485100Y0085805D01*
X0485009Y0086092D01*
X0484912Y0086376D01*
X0484807Y0086658D01*
X0484696Y0086937D01*
X0484578Y0087214D01*
X0484454Y0087487D01*
X0484322Y0087757D01*
X0484184Y0088024D01*
X0484040Y0088288D01*
X0483889Y0088548D01*
X0483732Y0088804D01*
X0483569Y0089056D01*
X0483399Y0089305D01*
X0483224Y0089549D01*
X0483042Y0089788D01*
X0482855Y0090023D01*
X0482662Y0090254D01*
X0482464Y0090480D01*
X0482260Y0090700D01*
X0482050Y0090916D01*
X0481836Y0091127D01*
X0481616Y0091332D01*
X0481392Y0091532D01*
X0481163Y0091726D01*
X0480929Y0091914D01*
X0480690Y0092097D01*
X0480447Y0092274D01*
X0480200Y0092445D01*
X0479949Y0092610D01*
X0479693Y0092769D01*
X0479434Y0092921D01*
X0479171Y0093067D01*
X0478905Y0093206D01*
X0478636Y0093339D01*
X0478363Y0093466D01*
X0478087Y0093585D01*
X0477809Y0093698D01*
X0477528Y0093804D01*
X0477244Y0093903D01*
X0476958Y0093995D01*
X0476669Y0094081D01*
X0476379Y0094159D01*
X0476087Y0094229D01*
X0475793Y0094293D01*
X0475498Y0094350D01*
X0475202Y0094399D01*
X0474904Y0094441D01*
X0474606Y0094476D01*
X0474306Y0094503D01*
X0474007Y0094524D01*
X0473706Y0094536D01*
X0473406Y0094542D01*
X0473105Y0094540D01*
X0472805Y0094531D01*
X0472505Y0094514D01*
X0472205Y0094490D01*
X0471906Y0094459D01*
X0471608Y0094420D01*
X0471311Y0094375D01*
X0471015Y0094322D01*
X0470721Y0094261D01*
X0470428Y0094194D01*
X0470137Y0094119D01*
X0469848Y0094037D01*
X0469560Y0093949D01*
X0469276Y0093853D01*
X0468993Y0093750D01*
X0468713Y0093641D01*
X0468436Y0093524D01*
X0468162Y0093401D01*
X0467891Y0093272D01*
X0467623Y0093135D01*
X0467359Y0092992D01*
X0467098Y0092843D01*
X0466841Y0092688D01*
X0466587Y0092526D01*
X0466338Y0092358D01*
X0466093Y0092184D01*
X0465852Y0092004D01*
X0465616Y0091818D01*
X0465385Y0091626D01*
X0465158Y0091429D01*
X0464936Y0091227D01*
X0464719Y0091019D01*
X0464507Y0090805D01*
X0464300Y0090587D01*
X0464099Y0090364D01*
X0463904Y0090135D01*
X0463714Y0089903D01*
X0463529Y0089665D01*
X0463605Y0089609D01*
X0463787Y0089844D01*
X0463976Y0090075D01*
X0464170Y0090302D01*
X0464370Y0090524D01*
X0464575Y0090740D01*
X0464785Y0090952D01*
X0465000Y0091158D01*
X0465220Y0091359D01*
X0465446Y0091555D01*
X0465675Y0091745D01*
X0465910Y0091929D01*
X0466149Y0092108D01*
X0466392Y0092281D01*
X0466639Y0092447D01*
X0466891Y0092608D01*
X0467146Y0092762D01*
X0467405Y0092910D01*
X0467667Y0093052D01*
X0467933Y0093187D01*
X0468202Y0093316D01*
X0468474Y0093438D01*
X0468749Y0093554D01*
X0469027Y0093663D01*
X0469307Y0093764D01*
X0469590Y0093859D01*
X0469875Y0093947D01*
X0470162Y0094028D01*
X0470450Y0094103D01*
X0470741Y0094169D01*
X0471033Y0094229D01*
X0471327Y0094282D01*
X0471622Y0094327D01*
X0471917Y0094366D01*
X0472214Y0094397D01*
X0472511Y0094420D01*
X0472809Y0094437D01*
X0473107Y0094446D01*
X0473405Y0094448D01*
X0473704Y0094442D01*
X0474002Y0094430D01*
X0474299Y0094410D01*
X0474596Y0094382D01*
X0474892Y0094348D01*
X0475188Y0094306D01*
X0475482Y0094257D01*
X0475775Y0094201D01*
X0476066Y0094138D01*
X0476356Y0094067D01*
X0476644Y0093990D01*
X0476930Y0093906D01*
X0477214Y0093814D01*
X0477496Y0093716D01*
X0477775Y0093611D01*
X0478051Y0093499D01*
X0478325Y0093380D01*
X0478595Y0093255D01*
X0478863Y0093123D01*
X0479127Y0092984D01*
X0479388Y0092839D01*
X0479645Y0092688D01*
X0479898Y0092531D01*
X0480147Y0092367D01*
X0480393Y0092197D01*
X0480634Y0092022D01*
X0480871Y0091840D01*
X0481103Y0091653D01*
X0481330Y0091461D01*
X0481553Y0091262D01*
X0481771Y0091059D01*
X0481984Y0090850D01*
X0482192Y0090636D01*
X0482394Y0090416D01*
X0482591Y0090193D01*
X0482782Y0089964D01*
X0482968Y0089730D01*
X0483148Y0089493D01*
X0483322Y0089251D01*
X0483490Y0089004D01*
X0483652Y0088754D01*
X0483808Y0088500D01*
X0483958Y0088242D01*
X0484101Y0087980D01*
X0484238Y0087715D01*
X0484369Y0087447D01*
X0484492Y0087176D01*
X0484609Y0086901D01*
X0484720Y0086624D01*
X0484823Y0086344D01*
X0484920Y0086062D01*
X0485010Y0085778D01*
X0485092Y0085491D01*
X0485168Y0085203D01*
X0485237Y0084913D01*
X0485298Y0084621D01*
X0485353Y0084328D01*
X0485400Y0084033D01*
X0485440Y0083738D01*
X0485473Y0083441D01*
X0485498Y0083144D01*
X0485516Y0082846D01*
X0485527Y0082548D01*
X0485531Y0082250D01*
X0485527Y0081952D01*
X0485516Y0081654D01*
X0485498Y0081356D01*
X0485473Y0081059D01*
X0485440Y0080762D01*
X0485400Y0080467D01*
X0485353Y0080172D01*
X0485298Y0079879D01*
X0485237Y0079587D01*
X0485168Y0079297D01*
X0485092Y0079009D01*
X0485010Y0078722D01*
X0484920Y0078438D01*
X0484823Y0078156D01*
X0484720Y0077876D01*
X0484609Y0077599D01*
X0484492Y0077324D01*
X0484369Y0077053D01*
X0484238Y0076785D01*
X0484101Y0076520D01*
X0483958Y0076258D01*
X0483808Y0076000D01*
X0483652Y0075746D01*
X0483490Y0075496D01*
X0483322Y0075249D01*
X0483148Y0075007D01*
X0482968Y0074770D01*
X0482782Y0074536D01*
X0482591Y0074307D01*
X0482394Y0074084D01*
X0482192Y0073864D01*
X0481984Y0073650D01*
X0481771Y0073441D01*
X0481553Y0073238D01*
X0481330Y0073039D01*
X0481103Y0072847D01*
X0480871Y0072660D01*
X0480634Y0072478D01*
X0480393Y0072303D01*
X0480147Y0072133D01*
X0479898Y0071969D01*
X0479645Y0071812D01*
X0479388Y0071661D01*
X0479127Y0071516D01*
X0478863Y0071377D01*
X0478595Y0071245D01*
X0478325Y0071120D01*
X0478051Y0071001D01*
X0477775Y0070889D01*
X0477496Y0070784D01*
X0477214Y0070686D01*
X0476930Y0070594D01*
X0476644Y0070510D01*
X0476356Y0070433D01*
X0476066Y0070362D01*
X0475775Y0070299D01*
X0475482Y0070243D01*
X0475188Y0070194D01*
X0474892Y0070152D01*
X0474596Y0070118D01*
X0474299Y0070090D01*
X0474002Y0070070D01*
X0473704Y0070058D01*
X0473405Y0070052D01*
X0473107Y0070054D01*
X0472809Y0070063D01*
X0472511Y0070080D01*
X0472214Y0070103D01*
X0471917Y0070134D01*
X0471622Y0070173D01*
X0471327Y0070218D01*
X0471033Y0070271D01*
X0470741Y0070331D01*
X0470450Y0070397D01*
X0470162Y0070472D01*
X0469875Y0070553D01*
X0469590Y0070641D01*
X0469307Y0070736D01*
X0469027Y0070837D01*
X0468749Y0070946D01*
X0468474Y0071062D01*
X0468202Y0071184D01*
X0467933Y0071313D01*
X0467667Y0071448D01*
X0467405Y0071590D01*
X0467146Y0071738D01*
X0466891Y0071892D01*
X0466639Y0072053D01*
X0466392Y0072219D01*
X0466149Y0072392D01*
X0465910Y0072571D01*
X0465675Y0072755D01*
X0465446Y0072945D01*
X0465220Y0073141D01*
X0465000Y0073342D01*
X0464785Y0073548D01*
X0464575Y0073760D01*
X0464370Y0073976D01*
X0464170Y0074198D01*
X0463976Y0074425D01*
X0463787Y0074656D01*
X0463605Y0074891D01*
X0463680Y0074948D01*
X0463861Y0074714D01*
X0464048Y0074485D01*
X0464241Y0074260D01*
X0464439Y0074040D01*
X0464642Y0073825D01*
X0464851Y0073615D01*
X0465065Y0073410D01*
X0465283Y0073211D01*
X0465507Y0073017D01*
X0465735Y0072828D01*
X0465967Y0072645D01*
X0466204Y0072468D01*
X0466446Y0072297D01*
X0466691Y0072131D01*
X0466940Y0071972D01*
X0467194Y0071819D01*
X0467450Y0071672D01*
X0467711Y0071531D01*
X0467975Y0071397D01*
X0468242Y0071269D01*
X0468512Y0071148D01*
X0468784Y0071033D01*
X0469060Y0070925D01*
X0469338Y0070824D01*
X0469619Y0070730D01*
X0469901Y0070643D01*
X0470186Y0070562D01*
X0470473Y0070489D01*
X0470761Y0070422D01*
X0471051Y0070363D01*
X0471343Y0070311D01*
X0471635Y0070266D01*
X0471929Y0070228D01*
X0472223Y0070197D01*
X0472518Y0070173D01*
X0472813Y0070157D01*
X0473109Y0070148D01*
X0473405Y0070146D01*
X0473701Y0070152D01*
X0473997Y0070164D01*
X0474292Y0070184D01*
X0474587Y0070211D01*
X0474881Y0070245D01*
X0475174Y0070287D01*
X0475466Y0070335D01*
X0475756Y0070391D01*
X0476045Y0070454D01*
X0476333Y0070524D01*
X0476619Y0070601D01*
X0476903Y0070684D01*
X0477184Y0070775D01*
X0477464Y0070873D01*
X0477741Y0070977D01*
X0478015Y0071088D01*
X0478286Y0071206D01*
X0478555Y0071330D01*
X0478820Y0071461D01*
X0479082Y0071599D01*
X0479341Y0071742D01*
X0479596Y0071892D01*
X0479848Y0072049D01*
X0480095Y0072211D01*
X0480338Y0072379D01*
X0480578Y0072554D01*
X0480813Y0072734D01*
X0481043Y0072919D01*
X0481269Y0073111D01*
X0481490Y0073307D01*
X0481706Y0073509D01*
X0481917Y0073717D01*
X0482123Y0073929D01*
X0482324Y0074147D01*
X0482520Y0074369D01*
X0482710Y0074596D01*
X0482894Y0074827D01*
X0483072Y0075063D01*
X0483245Y0075303D01*
X0483412Y0075548D01*
X0483573Y0075796D01*
X0483728Y0076049D01*
X0483876Y0076305D01*
X0484018Y0076564D01*
X0484154Y0076827D01*
X0484284Y0077093D01*
X0484406Y0077362D01*
X0484523Y0077635D01*
X0484632Y0077910D01*
X0484735Y0078187D01*
X0484831Y0078467D01*
X0484920Y0078749D01*
X0485002Y0079034D01*
X0485077Y0079320D01*
X0485145Y0079608D01*
X0485206Y0079897D01*
X0485260Y0080188D01*
X0485307Y0080481D01*
X0485347Y0080774D01*
X0485379Y0081068D01*
X0485404Y0081363D01*
X0485423Y0081658D01*
X0485433Y0081954D01*
X0485437Y0082250D01*
X0485433Y0082546D01*
X0485423Y0082842D01*
X0485404Y0083137D01*
X0485379Y0083432D01*
X0485347Y0083726D01*
X0485307Y0084019D01*
X0485260Y0084312D01*
X0485206Y0084603D01*
X0485145Y0084892D01*
X0485077Y0085180D01*
X0485002Y0085466D01*
X0484920Y0085751D01*
X0484831Y0086033D01*
X0484735Y0086313D01*
X0484632Y0086590D01*
X0484523Y0086865D01*
X0484406Y0087138D01*
X0484284Y0087407D01*
X0484154Y0087673D01*
X0484018Y0087936D01*
X0483876Y0088195D01*
X0483728Y0088451D01*
X0483573Y0088704D01*
X0483412Y0088952D01*
X0483245Y0089197D01*
X0483072Y0089437D01*
X0482894Y0089673D01*
X0482710Y0089904D01*
X0482520Y0090131D01*
X0482324Y0090353D01*
X0482123Y0090571D01*
X0481917Y0090783D01*
X0481706Y0090991D01*
X0481490Y0091193D01*
X0481269Y0091389D01*
X0481043Y0091581D01*
X0480813Y0091766D01*
X0480578Y0091946D01*
X0480338Y0092121D01*
X0480095Y0092289D01*
X0479848Y0092451D01*
X0479596Y0092608D01*
X0479341Y0092758D01*
X0479082Y0092901D01*
X0478820Y0093039D01*
X0478555Y0093170D01*
X0478286Y0093294D01*
X0478015Y0093412D01*
X0477741Y0093523D01*
X0477464Y0093627D01*
X0477184Y0093725D01*
X0476903Y0093816D01*
X0476619Y0093899D01*
X0476333Y0093976D01*
X0476045Y0094046D01*
X0475756Y0094109D01*
X0475466Y0094165D01*
X0475174Y0094213D01*
X0474881Y0094255D01*
X0474587Y0094289D01*
X0474292Y0094316D01*
X0473997Y0094336D01*
X0473701Y0094348D01*
X0473405Y0094354D01*
X0473109Y0094352D01*
X0472813Y0094343D01*
X0472518Y0094327D01*
X0472223Y0094303D01*
X0471929Y0094272D01*
X0471635Y0094234D01*
X0471343Y0094189D01*
X0471051Y0094137D01*
X0470761Y0094078D01*
X0470473Y0094011D01*
X0470186Y0093938D01*
X0469901Y0093857D01*
X0469619Y0093770D01*
X0469338Y0093676D01*
X0469060Y0093575D01*
X0468784Y0093467D01*
X0468512Y0093352D01*
X0468242Y0093231D01*
X0467975Y0093103D01*
X0467711Y0092969D01*
X0467450Y0092828D01*
X0467194Y0092681D01*
X0466940Y0092528D01*
X0466691Y0092369D01*
X0466446Y0092203D01*
X0466204Y0092032D01*
X0465967Y0091855D01*
X0465735Y0091672D01*
X0465507Y0091483D01*
X0465283Y0091289D01*
X0465065Y0091090D01*
X0464851Y0090885D01*
X0464642Y0090675D01*
X0464439Y0090460D01*
X0464241Y0090240D01*
X0464048Y0090015D01*
X0463861Y0089786D01*
X0463680Y0089552D01*
X0438004Y0074441D02*
X0438724Y0074981D01*
X0438723Y0074980D02*
X0438904Y0074747D01*
X0439090Y0074519D01*
X0439282Y0074295D01*
X0439479Y0074076D01*
X0439681Y0073862D01*
X0439889Y0073653D01*
X0440102Y0073450D01*
X0440319Y0073251D01*
X0440542Y0073058D01*
X0440769Y0072870D01*
X0441000Y0072688D01*
X0441236Y0072511D01*
X0441477Y0072341D01*
X0441721Y0072176D01*
X0441969Y0072018D01*
X0442221Y0071865D01*
X0442477Y0071719D01*
X0442736Y0071579D01*
X0442999Y0071445D01*
X0443264Y0071318D01*
X0443533Y0071197D01*
X0443805Y0071083D01*
X0444079Y0070976D01*
X0444356Y0070875D01*
X0444635Y0070781D01*
X0444917Y0070694D01*
X0445200Y0070614D01*
X0445486Y0070541D01*
X0445773Y0070475D01*
X0446062Y0070416D01*
X0446352Y0070364D01*
X0446643Y0070319D01*
X0446935Y0070281D01*
X0447228Y0070251D01*
X0447522Y0070227D01*
X0447816Y0070211D01*
X0448110Y0070202D01*
X0448405Y0070200D01*
X0448700Y0070206D01*
X0448994Y0070218D01*
X0449288Y0070238D01*
X0449581Y0070265D01*
X0449874Y0070299D01*
X0450166Y0070340D01*
X0450456Y0070389D01*
X0450746Y0070444D01*
X0451033Y0070506D01*
X0451320Y0070576D01*
X0451604Y0070653D01*
X0451887Y0070736D01*
X0452167Y0070826D01*
X0452445Y0070923D01*
X0452721Y0071027D01*
X0452994Y0071138D01*
X0453264Y0071255D01*
X0453532Y0071379D01*
X0453796Y0071509D01*
X0454057Y0071646D01*
X0454314Y0071789D01*
X0454568Y0071939D01*
X0454819Y0072094D01*
X0455065Y0072256D01*
X0455307Y0072423D01*
X0455545Y0072597D01*
X0455779Y0072776D01*
X0456009Y0072961D01*
X0456233Y0073151D01*
X0456454Y0073347D01*
X0456669Y0073548D01*
X0456879Y0073755D01*
X0457084Y0073966D01*
X0457284Y0074183D01*
X0457479Y0074404D01*
X0457668Y0074630D01*
X0457851Y0074860D01*
X0458029Y0075095D01*
X0458201Y0075335D01*
X0458367Y0075578D01*
X0458527Y0075825D01*
X0458681Y0076076D01*
X0458829Y0076331D01*
X0458971Y0076590D01*
X0459106Y0076851D01*
X0459235Y0077116D01*
X0459357Y0077384D01*
X0459473Y0077655D01*
X0459582Y0077929D01*
X0459684Y0078205D01*
X0459779Y0078484D01*
X0459868Y0078765D01*
X0459950Y0079048D01*
X0460025Y0079333D01*
X0460092Y0079620D01*
X0460153Y0079908D01*
X0460207Y0080198D01*
X0460254Y0080489D01*
X0460293Y0080781D01*
X0460325Y0081073D01*
X0460351Y0081367D01*
X0460369Y0081661D01*
X0460379Y0081955D01*
X0460383Y0082250D01*
X0460379Y0082545D01*
X0460369Y0082839D01*
X0460351Y0083133D01*
X0460325Y0083427D01*
X0460293Y0083719D01*
X0460254Y0084011D01*
X0460207Y0084302D01*
X0460153Y0084592D01*
X0460092Y0084880D01*
X0460025Y0085167D01*
X0459950Y0085452D01*
X0459868Y0085735D01*
X0459779Y0086016D01*
X0459684Y0086295D01*
X0459582Y0086571D01*
X0459473Y0086845D01*
X0459357Y0087116D01*
X0459235Y0087384D01*
X0459106Y0087649D01*
X0458971Y0087910D01*
X0458829Y0088169D01*
X0458681Y0088424D01*
X0458527Y0088675D01*
X0458367Y0088922D01*
X0458201Y0089165D01*
X0458029Y0089405D01*
X0457851Y0089640D01*
X0457668Y0089870D01*
X0457479Y0090096D01*
X0457284Y0090317D01*
X0457084Y0090534D01*
X0456879Y0090745D01*
X0456669Y0090952D01*
X0456454Y0091153D01*
X0456233Y0091349D01*
X0456009Y0091539D01*
X0455779Y0091724D01*
X0455545Y0091903D01*
X0455307Y0092077D01*
X0455065Y0092244D01*
X0454819Y0092406D01*
X0454568Y0092561D01*
X0454314Y0092711D01*
X0454057Y0092854D01*
X0453796Y0092991D01*
X0453532Y0093121D01*
X0453264Y0093245D01*
X0452994Y0093362D01*
X0452721Y0093473D01*
X0452445Y0093577D01*
X0452167Y0093674D01*
X0451887Y0093764D01*
X0451604Y0093847D01*
X0451320Y0093924D01*
X0451033Y0093994D01*
X0450746Y0094056D01*
X0450456Y0094111D01*
X0450166Y0094160D01*
X0449874Y0094201D01*
X0449581Y0094235D01*
X0449288Y0094262D01*
X0448994Y0094282D01*
X0448700Y0094294D01*
X0448405Y0094300D01*
X0448110Y0094298D01*
X0447816Y0094289D01*
X0447522Y0094273D01*
X0447228Y0094249D01*
X0446935Y0094219D01*
X0446643Y0094181D01*
X0446352Y0094136D01*
X0446062Y0094084D01*
X0445773Y0094025D01*
X0445486Y0093959D01*
X0445200Y0093886D01*
X0444917Y0093806D01*
X0444635Y0093719D01*
X0444356Y0093625D01*
X0444079Y0093524D01*
X0443805Y0093417D01*
X0443533Y0093303D01*
X0443264Y0093182D01*
X0442999Y0093055D01*
X0442736Y0092921D01*
X0442477Y0092781D01*
X0442221Y0092635D01*
X0441969Y0092482D01*
X0441721Y0092324D01*
X0441477Y0092159D01*
X0441236Y0091989D01*
X0441000Y0091812D01*
X0440769Y0091630D01*
X0440542Y0091442D01*
X0440319Y0091249D01*
X0440102Y0091050D01*
X0439889Y0090847D01*
X0439681Y0090638D01*
X0439479Y0090424D01*
X0439282Y0090205D01*
X0439090Y0089981D01*
X0438904Y0089753D01*
X0438723Y0089520D01*
X0438004Y0090059D01*
X0438003Y0090060D01*
X0438197Y0090310D01*
X0438397Y0090556D01*
X0438603Y0090796D01*
X0438815Y0091031D01*
X0439033Y0091261D01*
X0439256Y0091486D01*
X0439484Y0091705D01*
X0439718Y0091919D01*
X0439957Y0092127D01*
X0440201Y0092329D01*
X0440450Y0092524D01*
X0440704Y0092714D01*
X0440962Y0092897D01*
X0441224Y0093074D01*
X0441491Y0093245D01*
X0441762Y0093409D01*
X0442037Y0093566D01*
X0442315Y0093717D01*
X0442598Y0093861D01*
X0442883Y0093997D01*
X0443172Y0094127D01*
X0443464Y0094250D01*
X0443759Y0094365D01*
X0444056Y0094473D01*
X0444357Y0094574D01*
X0444659Y0094668D01*
X0444964Y0094754D01*
X0445271Y0094833D01*
X0445579Y0094904D01*
X0445889Y0094967D01*
X0446201Y0095023D01*
X0446514Y0095072D01*
X0446828Y0095112D01*
X0447143Y0095145D01*
X0447459Y0095170D01*
X0447775Y0095188D01*
X0448091Y0095198D01*
X0448408Y0095200D01*
X0448725Y0095194D01*
X0449041Y0095181D01*
X0449357Y0095159D01*
X0449672Y0095131D01*
X0449987Y0095094D01*
X0450300Y0095050D01*
X0450613Y0094998D01*
X0450924Y0094938D01*
X0451233Y0094871D01*
X0451541Y0094796D01*
X0451847Y0094714D01*
X0452150Y0094625D01*
X0452452Y0094528D01*
X0452751Y0094423D01*
X0453047Y0094311D01*
X0453341Y0094193D01*
X0453631Y0094067D01*
X0453918Y0093934D01*
X0454203Y0093793D01*
X0454483Y0093646D01*
X0454760Y0093493D01*
X0455033Y0093332D01*
X0455302Y0093165D01*
X0455567Y0092991D01*
X0455827Y0092811D01*
X0456083Y0092625D01*
X0456334Y0092432D01*
X0456581Y0092234D01*
X0456823Y0092029D01*
X0457059Y0091819D01*
X0457291Y0091602D01*
X0457516Y0091380D01*
X0457737Y0091153D01*
X0457952Y0090921D01*
X0458161Y0090683D01*
X0458364Y0090440D01*
X0458562Y0090192D01*
X0458753Y0089940D01*
X0458938Y0089683D01*
X0459116Y0089421D01*
X0459288Y0089155D01*
X0459454Y0088886D01*
X0459613Y0088612D01*
X0459765Y0088334D01*
X0459910Y0088053D01*
X0460049Y0087768D01*
X0460180Y0087480D01*
X0460304Y0087188D01*
X0460422Y0086894D01*
X0460532Y0086597D01*
X0460634Y0086298D01*
X0460729Y0085996D01*
X0460817Y0085692D01*
X0460898Y0085385D01*
X0460971Y0085077D01*
X0461036Y0084767D01*
X0461094Y0084456D01*
X0461144Y0084143D01*
X0461186Y0083829D01*
X0461221Y0083515D01*
X0461248Y0083199D01*
X0461268Y0082883D01*
X0461279Y0082567D01*
X0461283Y0082250D01*
X0461279Y0081933D01*
X0461268Y0081617D01*
X0461248Y0081301D01*
X0461221Y0080985D01*
X0461186Y0080671D01*
X0461144Y0080357D01*
X0461094Y0080044D01*
X0461036Y0079733D01*
X0460971Y0079423D01*
X0460898Y0079115D01*
X0460817Y0078808D01*
X0460729Y0078504D01*
X0460634Y0078202D01*
X0460532Y0077903D01*
X0460422Y0077606D01*
X0460304Y0077312D01*
X0460180Y0077020D01*
X0460049Y0076732D01*
X0459910Y0076447D01*
X0459765Y0076166D01*
X0459613Y0075888D01*
X0459454Y0075614D01*
X0459288Y0075345D01*
X0459116Y0075079D01*
X0458938Y0074817D01*
X0458753Y0074560D01*
X0458562Y0074308D01*
X0458364Y0074060D01*
X0458161Y0073817D01*
X0457952Y0073579D01*
X0457737Y0073347D01*
X0457516Y0073120D01*
X0457291Y0072898D01*
X0457059Y0072681D01*
X0456823Y0072471D01*
X0456581Y0072266D01*
X0456334Y0072068D01*
X0456083Y0071875D01*
X0455827Y0071689D01*
X0455567Y0071509D01*
X0455302Y0071335D01*
X0455033Y0071168D01*
X0454760Y0071007D01*
X0454483Y0070854D01*
X0454203Y0070707D01*
X0453918Y0070566D01*
X0453631Y0070433D01*
X0453341Y0070307D01*
X0453047Y0070189D01*
X0452751Y0070077D01*
X0452452Y0069972D01*
X0452150Y0069875D01*
X0451847Y0069786D01*
X0451541Y0069704D01*
X0451233Y0069629D01*
X0450924Y0069562D01*
X0450613Y0069502D01*
X0450300Y0069450D01*
X0449987Y0069406D01*
X0449672Y0069369D01*
X0449357Y0069341D01*
X0449041Y0069319D01*
X0448725Y0069306D01*
X0448408Y0069300D01*
X0448091Y0069302D01*
X0447775Y0069312D01*
X0447459Y0069330D01*
X0447143Y0069355D01*
X0446828Y0069388D01*
X0446514Y0069428D01*
X0446201Y0069477D01*
X0445889Y0069533D01*
X0445579Y0069596D01*
X0445271Y0069667D01*
X0444964Y0069746D01*
X0444659Y0069832D01*
X0444357Y0069926D01*
X0444056Y0070027D01*
X0443759Y0070135D01*
X0443464Y0070250D01*
X0443172Y0070373D01*
X0442883Y0070503D01*
X0442598Y0070639D01*
X0442315Y0070783D01*
X0442037Y0070934D01*
X0441762Y0071091D01*
X0441491Y0071255D01*
X0441224Y0071426D01*
X0440962Y0071603D01*
X0440704Y0071786D01*
X0440450Y0071976D01*
X0440201Y0072171D01*
X0439957Y0072373D01*
X0439718Y0072581D01*
X0439484Y0072795D01*
X0439256Y0073014D01*
X0439033Y0073239D01*
X0438815Y0073469D01*
X0438603Y0073704D01*
X0438397Y0073944D01*
X0438197Y0074190D01*
X0438003Y0074440D01*
X0438078Y0074496D01*
X0438271Y0074248D01*
X0438470Y0074004D01*
X0438674Y0073766D01*
X0438884Y0073532D01*
X0439100Y0073304D01*
X0439322Y0073081D01*
X0439549Y0072863D01*
X0439781Y0072651D01*
X0440018Y0072445D01*
X0440260Y0072244D01*
X0440508Y0072050D01*
X0440759Y0071862D01*
X0441016Y0071680D01*
X0441276Y0071504D01*
X0441541Y0071335D01*
X0441810Y0071172D01*
X0442083Y0071016D01*
X0442359Y0070866D01*
X0442639Y0070724D01*
X0442923Y0070588D01*
X0443210Y0070459D01*
X0443500Y0070337D01*
X0443792Y0070223D01*
X0444088Y0070115D01*
X0444386Y0070015D01*
X0444686Y0069922D01*
X0444989Y0069837D01*
X0445293Y0069759D01*
X0445599Y0069688D01*
X0445907Y0069625D01*
X0446217Y0069569D01*
X0446527Y0069521D01*
X0446839Y0069481D01*
X0447152Y0069448D01*
X0447465Y0069423D01*
X0447779Y0069406D01*
X0448093Y0069396D01*
X0448408Y0069394D01*
X0448722Y0069400D01*
X0449036Y0069413D01*
X0449350Y0069434D01*
X0449663Y0069463D01*
X0449975Y0069499D01*
X0450286Y0069543D01*
X0450596Y0069595D01*
X0450905Y0069654D01*
X0451212Y0069721D01*
X0451518Y0069795D01*
X0451821Y0069876D01*
X0452123Y0069965D01*
X0452422Y0070062D01*
X0452719Y0070165D01*
X0453013Y0070276D01*
X0453304Y0070394D01*
X0453593Y0070519D01*
X0453878Y0070651D01*
X0454160Y0070790D01*
X0454438Y0070936D01*
X0454713Y0071089D01*
X0454984Y0071248D01*
X0455251Y0071414D01*
X0455514Y0071587D01*
X0455773Y0071765D01*
X0456027Y0071950D01*
X0456276Y0072142D01*
X0456521Y0072339D01*
X0456761Y0072542D01*
X0456996Y0072751D01*
X0457226Y0072966D01*
X0457450Y0073186D01*
X0457669Y0073411D01*
X0457882Y0073642D01*
X0458090Y0073878D01*
X0458292Y0074120D01*
X0458487Y0074365D01*
X0458677Y0074616D01*
X0458861Y0074871D01*
X0459038Y0075131D01*
X0459209Y0075395D01*
X0459373Y0075663D01*
X0459531Y0075935D01*
X0459682Y0076210D01*
X0459826Y0076490D01*
X0459964Y0076772D01*
X0460094Y0077058D01*
X0460218Y0077347D01*
X0460334Y0077640D01*
X0460443Y0077934D01*
X0460545Y0078232D01*
X0460639Y0078531D01*
X0460727Y0078834D01*
X0460807Y0079138D01*
X0460879Y0079443D01*
X0460944Y0079751D01*
X0461001Y0080060D01*
X0461051Y0080371D01*
X0461093Y0080682D01*
X0461128Y0080995D01*
X0461154Y0081308D01*
X0461174Y0081622D01*
X0461185Y0081936D01*
X0461189Y0082250D01*
X0461185Y0082564D01*
X0461174Y0082878D01*
X0461154Y0083192D01*
X0461128Y0083505D01*
X0461093Y0083818D01*
X0461051Y0084129D01*
X0461001Y0084440D01*
X0460944Y0084749D01*
X0460879Y0085057D01*
X0460807Y0085362D01*
X0460727Y0085666D01*
X0460639Y0085969D01*
X0460545Y0086268D01*
X0460443Y0086566D01*
X0460334Y0086860D01*
X0460218Y0087153D01*
X0460094Y0087442D01*
X0459964Y0087728D01*
X0459826Y0088010D01*
X0459682Y0088290D01*
X0459531Y0088565D01*
X0459373Y0088837D01*
X0459209Y0089105D01*
X0459038Y0089369D01*
X0458861Y0089629D01*
X0458677Y0089884D01*
X0458487Y0090135D01*
X0458292Y0090380D01*
X0458090Y0090622D01*
X0457882Y0090858D01*
X0457669Y0091089D01*
X0457450Y0091314D01*
X0457226Y0091534D01*
X0456996Y0091749D01*
X0456761Y0091958D01*
X0456521Y0092161D01*
X0456276Y0092358D01*
X0456027Y0092550D01*
X0455773Y0092735D01*
X0455514Y0092913D01*
X0455251Y0093086D01*
X0454984Y0093252D01*
X0454713Y0093411D01*
X0454438Y0093564D01*
X0454160Y0093710D01*
X0453878Y0093849D01*
X0453593Y0093981D01*
X0453304Y0094106D01*
X0453013Y0094224D01*
X0452719Y0094335D01*
X0452422Y0094438D01*
X0452123Y0094535D01*
X0451821Y0094624D01*
X0451518Y0094705D01*
X0451212Y0094779D01*
X0450905Y0094846D01*
X0450596Y0094905D01*
X0450286Y0094957D01*
X0449975Y0095001D01*
X0449663Y0095037D01*
X0449350Y0095066D01*
X0449036Y0095087D01*
X0448722Y0095100D01*
X0448408Y0095106D01*
X0448093Y0095104D01*
X0447779Y0095094D01*
X0447465Y0095077D01*
X0447152Y0095052D01*
X0446839Y0095019D01*
X0446527Y0094979D01*
X0446217Y0094931D01*
X0445907Y0094875D01*
X0445599Y0094812D01*
X0445293Y0094741D01*
X0444989Y0094663D01*
X0444686Y0094578D01*
X0444386Y0094485D01*
X0444088Y0094385D01*
X0443792Y0094277D01*
X0443500Y0094163D01*
X0443210Y0094041D01*
X0442923Y0093912D01*
X0442639Y0093776D01*
X0442359Y0093634D01*
X0442083Y0093484D01*
X0441810Y0093328D01*
X0441541Y0093165D01*
X0441276Y0092996D01*
X0441016Y0092820D01*
X0440759Y0092638D01*
X0440508Y0092450D01*
X0440260Y0092256D01*
X0440018Y0092055D01*
X0439781Y0091849D01*
X0439549Y0091637D01*
X0439322Y0091419D01*
X0439100Y0091196D01*
X0438884Y0090968D01*
X0438674Y0090734D01*
X0438470Y0090496D01*
X0438271Y0090252D01*
X0438078Y0090004D01*
X0438153Y0089947D01*
X0438345Y0090194D01*
X0438542Y0090436D01*
X0438745Y0090673D01*
X0438954Y0090904D01*
X0439168Y0091131D01*
X0439388Y0091353D01*
X0439613Y0091569D01*
X0439844Y0091779D01*
X0440079Y0091984D01*
X0440320Y0092183D01*
X0440565Y0092376D01*
X0440815Y0092562D01*
X0441069Y0092743D01*
X0441328Y0092918D01*
X0441591Y0093086D01*
X0441858Y0093247D01*
X0442129Y0093402D01*
X0442403Y0093551D01*
X0442681Y0093692D01*
X0442963Y0093827D01*
X0443247Y0093955D01*
X0443535Y0094076D01*
X0443826Y0094190D01*
X0444119Y0094296D01*
X0444415Y0094396D01*
X0444713Y0094488D01*
X0445013Y0094573D01*
X0445316Y0094650D01*
X0445620Y0094720D01*
X0445925Y0094783D01*
X0446232Y0094838D01*
X0446541Y0094886D01*
X0446850Y0094926D01*
X0447161Y0094958D01*
X0447472Y0094983D01*
X0447783Y0095000D01*
X0448095Y0095010D01*
X0448407Y0095012D01*
X0448719Y0095006D01*
X0449031Y0094993D01*
X0449342Y0094972D01*
X0449653Y0094944D01*
X0449963Y0094907D01*
X0450272Y0094864D01*
X0450580Y0094813D01*
X0450887Y0094754D01*
X0451191Y0094688D01*
X0451495Y0094614D01*
X0451796Y0094533D01*
X0452095Y0094445D01*
X0452392Y0094349D01*
X0452687Y0094246D01*
X0452979Y0094136D01*
X0453268Y0094019D01*
X0453555Y0093895D01*
X0453838Y0093764D01*
X0454118Y0093626D01*
X0454394Y0093481D01*
X0454667Y0093329D01*
X0454936Y0093171D01*
X0455201Y0093006D01*
X0455462Y0092835D01*
X0455718Y0092658D01*
X0455971Y0092474D01*
X0456218Y0092284D01*
X0456461Y0092089D01*
X0456700Y0091887D01*
X0456933Y0091679D01*
X0457161Y0091466D01*
X0457383Y0091248D01*
X0457601Y0091024D01*
X0457812Y0090795D01*
X0458018Y0090560D01*
X0458219Y0090321D01*
X0458413Y0090077D01*
X0458601Y0089828D01*
X0458784Y0089575D01*
X0458960Y0089317D01*
X0459129Y0089055D01*
X0459292Y0088789D01*
X0459449Y0088519D01*
X0459599Y0088245D01*
X0459742Y0087968D01*
X0459879Y0087688D01*
X0460008Y0087404D01*
X0460131Y0087117D01*
X0460246Y0086827D01*
X0460354Y0086534D01*
X0460456Y0086239D01*
X0460550Y0085941D01*
X0460636Y0085641D01*
X0460715Y0085340D01*
X0460787Y0085036D01*
X0460852Y0084731D01*
X0460909Y0084424D01*
X0460958Y0084116D01*
X0461000Y0083806D01*
X0461034Y0083496D01*
X0461061Y0083185D01*
X0461080Y0082874D01*
X0461091Y0082562D01*
X0461095Y0082250D01*
X0461091Y0081938D01*
X0461080Y0081626D01*
X0461061Y0081315D01*
X0461034Y0081004D01*
X0461000Y0080694D01*
X0460958Y0080384D01*
X0460909Y0080076D01*
X0460852Y0079769D01*
X0460787Y0079464D01*
X0460715Y0079160D01*
X0460636Y0078859D01*
X0460550Y0078559D01*
X0460456Y0078261D01*
X0460354Y0077966D01*
X0460246Y0077673D01*
X0460131Y0077383D01*
X0460008Y0077096D01*
X0459879Y0076812D01*
X0459742Y0076532D01*
X0459599Y0076255D01*
X0459449Y0075981D01*
X0459292Y0075711D01*
X0459129Y0075445D01*
X0458960Y0075183D01*
X0458784Y0074925D01*
X0458601Y0074672D01*
X0458413Y0074423D01*
X0458219Y0074179D01*
X0458018Y0073940D01*
X0457812Y0073705D01*
X0457601Y0073476D01*
X0457383Y0073252D01*
X0457161Y0073034D01*
X0456933Y0072821D01*
X0456700Y0072613D01*
X0456461Y0072411D01*
X0456218Y0072216D01*
X0455971Y0072026D01*
X0455718Y0071842D01*
X0455462Y0071665D01*
X0455201Y0071494D01*
X0454936Y0071329D01*
X0454667Y0071171D01*
X0454394Y0071019D01*
X0454118Y0070874D01*
X0453838Y0070736D01*
X0453555Y0070605D01*
X0453268Y0070481D01*
X0452979Y0070364D01*
X0452687Y0070254D01*
X0452392Y0070151D01*
X0452095Y0070055D01*
X0451796Y0069967D01*
X0451495Y0069886D01*
X0451191Y0069812D01*
X0450887Y0069746D01*
X0450580Y0069687D01*
X0450272Y0069636D01*
X0449963Y0069593D01*
X0449653Y0069556D01*
X0449342Y0069528D01*
X0449031Y0069507D01*
X0448719Y0069494D01*
X0448407Y0069488D01*
X0448095Y0069490D01*
X0447783Y0069500D01*
X0447472Y0069517D01*
X0447161Y0069542D01*
X0446850Y0069574D01*
X0446541Y0069614D01*
X0446232Y0069662D01*
X0445925Y0069717D01*
X0445620Y0069780D01*
X0445316Y0069850D01*
X0445013Y0069927D01*
X0444713Y0070012D01*
X0444415Y0070104D01*
X0444119Y0070204D01*
X0443826Y0070310D01*
X0443535Y0070424D01*
X0443247Y0070545D01*
X0442963Y0070673D01*
X0442681Y0070808D01*
X0442403Y0070949D01*
X0442129Y0071098D01*
X0441858Y0071253D01*
X0441591Y0071414D01*
X0441328Y0071582D01*
X0441069Y0071757D01*
X0440815Y0071938D01*
X0440565Y0072124D01*
X0440320Y0072317D01*
X0440079Y0072516D01*
X0439844Y0072721D01*
X0439613Y0072931D01*
X0439388Y0073147D01*
X0439168Y0073369D01*
X0438954Y0073596D01*
X0438745Y0073827D01*
X0438542Y0074064D01*
X0438345Y0074306D01*
X0438153Y0074553D01*
X0438229Y0074609D01*
X0438419Y0074364D01*
X0438614Y0074124D01*
X0438816Y0073889D01*
X0439023Y0073659D01*
X0439236Y0073434D01*
X0439454Y0073214D01*
X0439678Y0073000D01*
X0439907Y0072791D01*
X0440140Y0072588D01*
X0440379Y0072390D01*
X0440622Y0072199D01*
X0440871Y0072013D01*
X0441123Y0071834D01*
X0441380Y0071661D01*
X0441641Y0071494D01*
X0441906Y0071333D01*
X0442175Y0071180D01*
X0442447Y0071032D01*
X0442723Y0070892D01*
X0443003Y0070758D01*
X0443285Y0070631D01*
X0443571Y0070511D01*
X0443859Y0070398D01*
X0444150Y0070292D01*
X0444444Y0070194D01*
X0444740Y0070102D01*
X0445038Y0070018D01*
X0445338Y0069941D01*
X0445640Y0069872D01*
X0445943Y0069809D01*
X0446248Y0069755D01*
X0446554Y0069707D01*
X0446862Y0069668D01*
X0447170Y0069636D01*
X0447478Y0069611D01*
X0447788Y0069594D01*
X0448097Y0069584D01*
X0448407Y0069582D01*
X0448717Y0069588D01*
X0449026Y0069601D01*
X0449335Y0069622D01*
X0449644Y0069650D01*
X0449951Y0069686D01*
X0450258Y0069729D01*
X0450564Y0069780D01*
X0450868Y0069838D01*
X0451171Y0069904D01*
X0451472Y0069977D01*
X0451771Y0070057D01*
X0452068Y0070145D01*
X0452363Y0070240D01*
X0452655Y0070342D01*
X0452945Y0070451D01*
X0453232Y0070568D01*
X0453516Y0070691D01*
X0453797Y0070821D01*
X0454075Y0070958D01*
X0454349Y0071102D01*
X0454620Y0071252D01*
X0454887Y0071409D01*
X0455150Y0071573D01*
X0455409Y0071743D01*
X0455664Y0071919D01*
X0455915Y0072101D01*
X0456160Y0072290D01*
X0456402Y0072484D01*
X0456638Y0072684D01*
X0456869Y0072890D01*
X0457096Y0073102D01*
X0457317Y0073319D01*
X0457532Y0073541D01*
X0457743Y0073768D01*
X0457947Y0074001D01*
X0458146Y0074239D01*
X0458339Y0074481D01*
X0458526Y0074728D01*
X0458707Y0074979D01*
X0458881Y0075235D01*
X0459050Y0075495D01*
X0459212Y0075759D01*
X0459367Y0076027D01*
X0459516Y0076299D01*
X0459658Y0076574D01*
X0459794Y0076853D01*
X0459922Y0077134D01*
X0460044Y0077419D01*
X0460158Y0077707D01*
X0460266Y0077998D01*
X0460366Y0078291D01*
X0460460Y0078586D01*
X0460546Y0078884D01*
X0460624Y0079183D01*
X0460695Y0079485D01*
X0460759Y0079788D01*
X0460816Y0080092D01*
X0460865Y0080398D01*
X0460906Y0080705D01*
X0460940Y0081013D01*
X0460967Y0081322D01*
X0460986Y0081631D01*
X0460997Y0081940D01*
X0461001Y0082250D01*
X0460997Y0082560D01*
X0460986Y0082869D01*
X0460967Y0083178D01*
X0460940Y0083487D01*
X0460906Y0083795D01*
X0460865Y0084102D01*
X0460816Y0084408D01*
X0460759Y0084712D01*
X0460695Y0085015D01*
X0460624Y0085317D01*
X0460546Y0085616D01*
X0460460Y0085914D01*
X0460366Y0086209D01*
X0460266Y0086502D01*
X0460158Y0086793D01*
X0460044Y0087081D01*
X0459922Y0087366D01*
X0459794Y0087647D01*
X0459658Y0087926D01*
X0459516Y0088201D01*
X0459367Y0088473D01*
X0459212Y0088741D01*
X0459050Y0089005D01*
X0458881Y0089265D01*
X0458707Y0089521D01*
X0458526Y0089772D01*
X0458339Y0090019D01*
X0458146Y0090261D01*
X0457947Y0090499D01*
X0457743Y0090732D01*
X0457532Y0090959D01*
X0457317Y0091181D01*
X0457096Y0091398D01*
X0456869Y0091610D01*
X0456638Y0091816D01*
X0456402Y0092016D01*
X0456160Y0092210D01*
X0455915Y0092399D01*
X0455664Y0092581D01*
X0455409Y0092757D01*
X0455150Y0092927D01*
X0454887Y0093091D01*
X0454620Y0093248D01*
X0454349Y0093398D01*
X0454075Y0093542D01*
X0453797Y0093679D01*
X0453516Y0093809D01*
X0453232Y0093932D01*
X0452945Y0094049D01*
X0452655Y0094158D01*
X0452363Y0094260D01*
X0452068Y0094355D01*
X0451771Y0094443D01*
X0451472Y0094523D01*
X0451171Y0094596D01*
X0450868Y0094662D01*
X0450564Y0094720D01*
X0450258Y0094771D01*
X0449951Y0094814D01*
X0449644Y0094850D01*
X0449335Y0094878D01*
X0449026Y0094899D01*
X0448717Y0094912D01*
X0448407Y0094918D01*
X0448097Y0094916D01*
X0447788Y0094906D01*
X0447478Y0094889D01*
X0447170Y0094864D01*
X0446862Y0094832D01*
X0446554Y0094793D01*
X0446248Y0094745D01*
X0445943Y0094691D01*
X0445640Y0094628D01*
X0445338Y0094559D01*
X0445038Y0094482D01*
X0444740Y0094398D01*
X0444444Y0094306D01*
X0444150Y0094208D01*
X0443859Y0094102D01*
X0443571Y0093989D01*
X0443285Y0093869D01*
X0443003Y0093742D01*
X0442723Y0093608D01*
X0442447Y0093468D01*
X0442175Y0093320D01*
X0441906Y0093167D01*
X0441641Y0093006D01*
X0441380Y0092839D01*
X0441123Y0092666D01*
X0440871Y0092487D01*
X0440622Y0092301D01*
X0440379Y0092110D01*
X0440140Y0091912D01*
X0439907Y0091709D01*
X0439678Y0091500D01*
X0439454Y0091286D01*
X0439236Y0091066D01*
X0439023Y0090841D01*
X0438816Y0090611D01*
X0438614Y0090376D01*
X0438419Y0090136D01*
X0438229Y0089891D01*
X0438304Y0089834D01*
X0438492Y0090077D01*
X0438687Y0090316D01*
X0438887Y0090549D01*
X0439092Y0090777D01*
X0439304Y0091001D01*
X0439520Y0091219D01*
X0439742Y0091432D01*
X0439969Y0091639D01*
X0440201Y0091841D01*
X0440438Y0092037D01*
X0440680Y0092227D01*
X0440926Y0092411D01*
X0441177Y0092589D01*
X0441432Y0092761D01*
X0441691Y0092926D01*
X0441954Y0093086D01*
X0442221Y0093238D01*
X0442491Y0093385D01*
X0442765Y0093524D01*
X0443042Y0093657D01*
X0443323Y0093783D01*
X0443606Y0093902D01*
X0443893Y0094014D01*
X0444182Y0094119D01*
X0444473Y0094217D01*
X0444767Y0094308D01*
X0445063Y0094391D01*
X0445360Y0094468D01*
X0445660Y0094537D01*
X0445961Y0094598D01*
X0446264Y0094653D01*
X0446568Y0094699D01*
X0446873Y0094739D01*
X0447178Y0094771D01*
X0447485Y0094795D01*
X0447792Y0094812D01*
X0448099Y0094822D01*
X0448407Y0094824D01*
X0448714Y0094818D01*
X0449021Y0094805D01*
X0449328Y0094785D01*
X0449634Y0094756D01*
X0449940Y0094721D01*
X0450244Y0094678D01*
X0450547Y0094627D01*
X0450849Y0094570D01*
X0451150Y0094504D01*
X0451449Y0094432D01*
X0451745Y0094352D01*
X0452040Y0094265D01*
X0452333Y0094171D01*
X0452623Y0094069D01*
X0452911Y0093961D01*
X0453196Y0093846D01*
X0453478Y0093723D01*
X0453757Y0093594D01*
X0454033Y0093458D01*
X0454305Y0093315D01*
X0454574Y0093166D01*
X0454839Y0093010D01*
X0455100Y0092848D01*
X0455357Y0092679D01*
X0455610Y0092504D01*
X0455858Y0092323D01*
X0456102Y0092136D01*
X0456342Y0091943D01*
X0456576Y0091745D01*
X0456806Y0091540D01*
X0457031Y0091330D01*
X0457250Y0091115D01*
X0457464Y0090894D01*
X0457673Y0090669D01*
X0457876Y0090438D01*
X0458073Y0090202D01*
X0458265Y0089961D01*
X0458450Y0089716D01*
X0458630Y0089467D01*
X0458803Y0089213D01*
X0458970Y0088955D01*
X0459131Y0088693D01*
X0459285Y0088427D01*
X0459433Y0088157D01*
X0459574Y0087884D01*
X0459709Y0087607D01*
X0459836Y0087328D01*
X0459957Y0087045D01*
X0460071Y0086759D01*
X0460177Y0086471D01*
X0460277Y0086180D01*
X0460370Y0085887D01*
X0460455Y0085591D01*
X0460533Y0085294D01*
X0460604Y0084995D01*
X0460667Y0084694D01*
X0460723Y0084392D01*
X0460772Y0084088D01*
X0460813Y0083783D01*
X0460847Y0083478D01*
X0460873Y0083172D01*
X0460892Y0082865D01*
X0460903Y0082557D01*
X0460907Y0082250D01*
X0460903Y0081943D01*
X0460892Y0081635D01*
X0460873Y0081328D01*
X0460847Y0081022D01*
X0460813Y0080717D01*
X0460772Y0080412D01*
X0460723Y0080108D01*
X0460667Y0079806D01*
X0460604Y0079505D01*
X0460533Y0079206D01*
X0460455Y0078909D01*
X0460370Y0078613D01*
X0460277Y0078320D01*
X0460177Y0078029D01*
X0460071Y0077741D01*
X0459957Y0077455D01*
X0459836Y0077172D01*
X0459709Y0076893D01*
X0459574Y0076616D01*
X0459433Y0076343D01*
X0459285Y0076073D01*
X0459131Y0075807D01*
X0458970Y0075545D01*
X0458803Y0075287D01*
X0458630Y0075033D01*
X0458450Y0074784D01*
X0458265Y0074539D01*
X0458073Y0074298D01*
X0457876Y0074062D01*
X0457673Y0073831D01*
X0457464Y0073606D01*
X0457250Y0073385D01*
X0457031Y0073170D01*
X0456806Y0072960D01*
X0456576Y0072755D01*
X0456342Y0072557D01*
X0456102Y0072364D01*
X0455858Y0072177D01*
X0455610Y0071996D01*
X0455357Y0071821D01*
X0455100Y0071652D01*
X0454839Y0071490D01*
X0454574Y0071334D01*
X0454305Y0071185D01*
X0454033Y0071042D01*
X0453757Y0070906D01*
X0453478Y0070777D01*
X0453196Y0070654D01*
X0452911Y0070539D01*
X0452623Y0070431D01*
X0452333Y0070329D01*
X0452040Y0070235D01*
X0451745Y0070148D01*
X0451449Y0070068D01*
X0451150Y0069996D01*
X0450849Y0069930D01*
X0450547Y0069873D01*
X0450244Y0069822D01*
X0449940Y0069779D01*
X0449634Y0069744D01*
X0449328Y0069715D01*
X0449021Y0069695D01*
X0448714Y0069682D01*
X0448407Y0069676D01*
X0448099Y0069678D01*
X0447792Y0069688D01*
X0447485Y0069705D01*
X0447178Y0069729D01*
X0446873Y0069761D01*
X0446568Y0069801D01*
X0446264Y0069847D01*
X0445961Y0069902D01*
X0445660Y0069963D01*
X0445360Y0070032D01*
X0445063Y0070109D01*
X0444767Y0070192D01*
X0444473Y0070283D01*
X0444182Y0070381D01*
X0443893Y0070486D01*
X0443606Y0070598D01*
X0443323Y0070717D01*
X0443042Y0070843D01*
X0442765Y0070976D01*
X0442491Y0071115D01*
X0442221Y0071262D01*
X0441954Y0071414D01*
X0441691Y0071574D01*
X0441432Y0071739D01*
X0441177Y0071911D01*
X0440926Y0072089D01*
X0440680Y0072273D01*
X0440438Y0072463D01*
X0440201Y0072659D01*
X0439969Y0072861D01*
X0439742Y0073068D01*
X0439520Y0073281D01*
X0439304Y0073499D01*
X0439092Y0073723D01*
X0438887Y0073951D01*
X0438687Y0074184D01*
X0438492Y0074423D01*
X0438304Y0074666D01*
X0438379Y0074722D01*
X0438566Y0074481D01*
X0438759Y0074244D01*
X0438958Y0074013D01*
X0439162Y0073786D01*
X0439371Y0073564D01*
X0439586Y0073348D01*
X0439807Y0073137D01*
X0440032Y0072931D01*
X0440262Y0072731D01*
X0440498Y0072536D01*
X0440737Y0072348D01*
X0440982Y0072165D01*
X0441231Y0071988D01*
X0441484Y0071818D01*
X0441741Y0071653D01*
X0442002Y0071495D01*
X0442267Y0071344D01*
X0442535Y0071199D01*
X0442807Y0071060D01*
X0443082Y0070928D01*
X0443361Y0070803D01*
X0443642Y0070685D01*
X0443926Y0070574D01*
X0444213Y0070470D01*
X0444502Y0070372D01*
X0444794Y0070282D01*
X0445087Y0070199D01*
X0445383Y0070124D01*
X0445680Y0070055D01*
X0445979Y0069994D01*
X0446280Y0069940D01*
X0446581Y0069894D01*
X0446884Y0069854D01*
X0447187Y0069823D01*
X0447492Y0069798D01*
X0447796Y0069782D01*
X0448101Y0069772D01*
X0448406Y0069770D01*
X0448711Y0069776D01*
X0449016Y0069789D01*
X0449321Y0069809D01*
X0449625Y0069837D01*
X0449928Y0069872D01*
X0450230Y0069915D01*
X0450531Y0069965D01*
X0450831Y0070022D01*
X0451129Y0070087D01*
X0451425Y0070159D01*
X0451720Y0070238D01*
X0452013Y0070325D01*
X0452303Y0070418D01*
X0452591Y0070519D01*
X0452877Y0070627D01*
X0453160Y0070741D01*
X0453440Y0070863D01*
X0453717Y0070991D01*
X0453990Y0071126D01*
X0454260Y0071267D01*
X0454527Y0071416D01*
X0454790Y0071570D01*
X0455049Y0071731D01*
X0455305Y0071899D01*
X0455556Y0072072D01*
X0455802Y0072252D01*
X0456044Y0072438D01*
X0456282Y0072629D01*
X0456515Y0072826D01*
X0456743Y0073029D01*
X0456966Y0073238D01*
X0457184Y0073451D01*
X0457396Y0073670D01*
X0457603Y0073894D01*
X0457805Y0074124D01*
X0458001Y0074358D01*
X0458191Y0074596D01*
X0458375Y0074840D01*
X0458553Y0075087D01*
X0458725Y0075339D01*
X0458891Y0075596D01*
X0459050Y0075856D01*
X0459204Y0076120D01*
X0459350Y0076387D01*
X0459490Y0076658D01*
X0459624Y0076933D01*
X0459750Y0077210D01*
X0459870Y0077491D01*
X0459983Y0077775D01*
X0460089Y0078061D01*
X0460188Y0078349D01*
X0460280Y0078640D01*
X0460364Y0078934D01*
X0460442Y0079229D01*
X0460512Y0079526D01*
X0460575Y0079824D01*
X0460631Y0080124D01*
X0460679Y0080426D01*
X0460720Y0080728D01*
X0460753Y0081031D01*
X0460779Y0081335D01*
X0460798Y0081640D01*
X0460809Y0081945D01*
X0460813Y0082250D01*
X0460809Y0082555D01*
X0460798Y0082860D01*
X0460779Y0083165D01*
X0460753Y0083469D01*
X0460720Y0083772D01*
X0460679Y0084074D01*
X0460631Y0084376D01*
X0460575Y0084676D01*
X0460512Y0084974D01*
X0460442Y0085271D01*
X0460364Y0085566D01*
X0460280Y0085860D01*
X0460188Y0086151D01*
X0460089Y0086439D01*
X0459983Y0086725D01*
X0459870Y0087009D01*
X0459750Y0087290D01*
X0459624Y0087567D01*
X0459490Y0087842D01*
X0459350Y0088113D01*
X0459204Y0088380D01*
X0459050Y0088644D01*
X0458891Y0088904D01*
X0458725Y0089161D01*
X0458553Y0089413D01*
X0458375Y0089660D01*
X0458191Y0089904D01*
X0458001Y0090142D01*
X0457805Y0090376D01*
X0457603Y0090606D01*
X0457396Y0090830D01*
X0457184Y0091049D01*
X0456966Y0091262D01*
X0456743Y0091471D01*
X0456515Y0091674D01*
X0456282Y0091871D01*
X0456044Y0092062D01*
X0455802Y0092248D01*
X0455556Y0092428D01*
X0455305Y0092601D01*
X0455049Y0092769D01*
X0454790Y0092930D01*
X0454527Y0093084D01*
X0454260Y0093233D01*
X0453990Y0093374D01*
X0453717Y0093509D01*
X0453440Y0093637D01*
X0453160Y0093759D01*
X0452877Y0093873D01*
X0452591Y0093981D01*
X0452303Y0094082D01*
X0452013Y0094175D01*
X0451720Y0094262D01*
X0451425Y0094341D01*
X0451129Y0094413D01*
X0450831Y0094478D01*
X0450531Y0094535D01*
X0450230Y0094585D01*
X0449928Y0094628D01*
X0449625Y0094663D01*
X0449321Y0094691D01*
X0449016Y0094711D01*
X0448711Y0094724D01*
X0448406Y0094730D01*
X0448101Y0094728D01*
X0447796Y0094718D01*
X0447492Y0094702D01*
X0447187Y0094677D01*
X0446884Y0094646D01*
X0446581Y0094606D01*
X0446280Y0094560D01*
X0445979Y0094506D01*
X0445680Y0094445D01*
X0445383Y0094376D01*
X0445087Y0094301D01*
X0444794Y0094218D01*
X0444502Y0094128D01*
X0444213Y0094030D01*
X0443926Y0093926D01*
X0443642Y0093815D01*
X0443361Y0093697D01*
X0443082Y0093572D01*
X0442807Y0093440D01*
X0442535Y0093301D01*
X0442267Y0093156D01*
X0442002Y0093005D01*
X0441741Y0092847D01*
X0441484Y0092682D01*
X0441231Y0092512D01*
X0440982Y0092335D01*
X0440737Y0092152D01*
X0440498Y0091964D01*
X0440262Y0091769D01*
X0440032Y0091569D01*
X0439807Y0091363D01*
X0439586Y0091152D01*
X0439371Y0090936D01*
X0439162Y0090714D01*
X0438958Y0090487D01*
X0438759Y0090256D01*
X0438566Y0090019D01*
X0438379Y0089778D01*
X0438454Y0089722D01*
X0438640Y0089961D01*
X0438831Y0090196D01*
X0439028Y0090425D01*
X0439231Y0090650D01*
X0439439Y0090871D01*
X0439653Y0091085D01*
X0439871Y0091295D01*
X0440095Y0091499D01*
X0440323Y0091698D01*
X0440557Y0091891D01*
X0440795Y0092078D01*
X0441037Y0092259D01*
X0441284Y0092435D01*
X0441535Y0092604D01*
X0441791Y0092767D01*
X0442050Y0092924D01*
X0442313Y0093074D01*
X0442579Y0093218D01*
X0442849Y0093356D01*
X0443122Y0093487D01*
X0443398Y0093611D01*
X0443678Y0093728D01*
X0443960Y0093838D01*
X0444244Y0093942D01*
X0444531Y0094038D01*
X0444821Y0094128D01*
X0445112Y0094210D01*
X0445405Y0094285D01*
X0445701Y0094353D01*
X0445997Y0094414D01*
X0446295Y0094467D01*
X0446595Y0094513D01*
X0446895Y0094552D01*
X0447196Y0094584D01*
X0447498Y0094608D01*
X0447801Y0094625D01*
X0448103Y0094634D01*
X0448406Y0094636D01*
X0448709Y0094630D01*
X0449011Y0094617D01*
X0449314Y0094597D01*
X0449615Y0094569D01*
X0449916Y0094534D01*
X0450216Y0094492D01*
X0450515Y0094442D01*
X0450812Y0094385D01*
X0451108Y0094321D01*
X0451402Y0094250D01*
X0451695Y0094171D01*
X0451985Y0094085D01*
X0452274Y0093992D01*
X0452559Y0093893D01*
X0452843Y0093786D01*
X0453123Y0093672D01*
X0453401Y0093552D01*
X0453676Y0093424D01*
X0453948Y0093290D01*
X0454216Y0093150D01*
X0454481Y0093003D01*
X0454742Y0092849D01*
X0454999Y0092689D01*
X0455252Y0092523D01*
X0455501Y0092351D01*
X0455746Y0092173D01*
X0455987Y0091988D01*
X0456222Y0091798D01*
X0456453Y0091603D01*
X0456680Y0091401D01*
X0456901Y0091195D01*
X0457117Y0090982D01*
X0457328Y0090765D01*
X0457533Y0090543D01*
X0457733Y0090315D01*
X0457928Y0090083D01*
X0458116Y0089846D01*
X0458299Y0089604D01*
X0458476Y0089359D01*
X0458647Y0089108D01*
X0458811Y0088854D01*
X0458970Y0088596D01*
X0459122Y0088334D01*
X0459267Y0088069D01*
X0459406Y0087800D01*
X0459539Y0087527D01*
X0459664Y0087252D01*
X0459783Y0086973D01*
X0459895Y0086692D01*
X0460000Y0086408D01*
X0460099Y0086121D01*
X0460190Y0085832D01*
X0460274Y0085541D01*
X0460351Y0085248D01*
X0460420Y0084954D01*
X0460483Y0084657D01*
X0460538Y0084360D01*
X0460586Y0084061D01*
X0460627Y0083761D01*
X0460660Y0083459D01*
X0460686Y0083158D01*
X0460704Y0082855D01*
X0460715Y0082553D01*
X0460719Y0082250D01*
X0460715Y0081947D01*
X0460704Y0081645D01*
X0460686Y0081342D01*
X0460660Y0081041D01*
X0460627Y0080739D01*
X0460586Y0080439D01*
X0460538Y0080140D01*
X0460483Y0079843D01*
X0460420Y0079546D01*
X0460351Y0079252D01*
X0460274Y0078959D01*
X0460190Y0078668D01*
X0460099Y0078379D01*
X0460000Y0078092D01*
X0459895Y0077808D01*
X0459783Y0077527D01*
X0459664Y0077248D01*
X0459539Y0076973D01*
X0459406Y0076700D01*
X0459267Y0076431D01*
X0459122Y0076166D01*
X0458970Y0075904D01*
X0458811Y0075646D01*
X0458647Y0075392D01*
X0458476Y0075141D01*
X0458299Y0074896D01*
X0458116Y0074654D01*
X0457928Y0074417D01*
X0457733Y0074185D01*
X0457533Y0073957D01*
X0457328Y0073735D01*
X0457117Y0073518D01*
X0456901Y0073305D01*
X0456680Y0073099D01*
X0456453Y0072897D01*
X0456222Y0072702D01*
X0455987Y0072512D01*
X0455746Y0072327D01*
X0455501Y0072149D01*
X0455252Y0071977D01*
X0454999Y0071811D01*
X0454742Y0071651D01*
X0454481Y0071497D01*
X0454216Y0071350D01*
X0453948Y0071210D01*
X0453676Y0071076D01*
X0453401Y0070948D01*
X0453123Y0070828D01*
X0452843Y0070714D01*
X0452559Y0070607D01*
X0452274Y0070508D01*
X0451985Y0070415D01*
X0451695Y0070329D01*
X0451402Y0070250D01*
X0451108Y0070179D01*
X0450812Y0070115D01*
X0450515Y0070058D01*
X0450216Y0070008D01*
X0449916Y0069966D01*
X0449615Y0069931D01*
X0449314Y0069903D01*
X0449011Y0069883D01*
X0448709Y0069870D01*
X0448406Y0069864D01*
X0448103Y0069866D01*
X0447801Y0069875D01*
X0447498Y0069892D01*
X0447196Y0069916D01*
X0446895Y0069948D01*
X0446595Y0069987D01*
X0446295Y0070033D01*
X0445997Y0070086D01*
X0445701Y0070147D01*
X0445405Y0070215D01*
X0445112Y0070290D01*
X0444821Y0070372D01*
X0444531Y0070462D01*
X0444244Y0070558D01*
X0443960Y0070662D01*
X0443678Y0070772D01*
X0443398Y0070889D01*
X0443122Y0071013D01*
X0442849Y0071144D01*
X0442579Y0071282D01*
X0442313Y0071426D01*
X0442050Y0071576D01*
X0441791Y0071733D01*
X0441535Y0071896D01*
X0441284Y0072065D01*
X0441037Y0072241D01*
X0440795Y0072422D01*
X0440557Y0072609D01*
X0440323Y0072802D01*
X0440095Y0073001D01*
X0439871Y0073205D01*
X0439653Y0073415D01*
X0439439Y0073629D01*
X0439231Y0073850D01*
X0439028Y0074075D01*
X0438831Y0074304D01*
X0438640Y0074539D01*
X0438454Y0074778D01*
X0438529Y0074835D01*
X0438714Y0074597D01*
X0438904Y0074365D01*
X0439099Y0074136D01*
X0439300Y0073913D01*
X0439507Y0073695D01*
X0439719Y0073481D01*
X0439936Y0073273D01*
X0440158Y0073071D01*
X0440385Y0072874D01*
X0440616Y0072682D01*
X0440852Y0072496D01*
X0441093Y0072316D01*
X0441338Y0072142D01*
X0441587Y0071974D01*
X0441841Y0071812D01*
X0442098Y0071657D01*
X0442359Y0071508D01*
X0442623Y0071365D01*
X0442891Y0071228D01*
X0443162Y0071099D01*
X0443436Y0070976D01*
X0443713Y0070859D01*
X0443993Y0070750D01*
X0444276Y0070647D01*
X0444560Y0070551D01*
X0444848Y0070463D01*
X0445137Y0070381D01*
X0445428Y0070306D01*
X0445721Y0070239D01*
X0446015Y0070178D01*
X0446311Y0070125D01*
X0446608Y0070080D01*
X0446906Y0070041D01*
X0447205Y0070010D01*
X0447505Y0069986D01*
X0447805Y0069969D01*
X0448105Y0069960D01*
X0448406Y0069958D01*
X0448706Y0069964D01*
X0449007Y0069976D01*
X0449306Y0069997D01*
X0449606Y0070024D01*
X0449904Y0070059D01*
X0450202Y0070101D01*
X0450498Y0070150D01*
X0450793Y0070207D01*
X0451087Y0070271D01*
X0451379Y0070341D01*
X0451669Y0070419D01*
X0451958Y0070505D01*
X0452244Y0070597D01*
X0452528Y0070696D01*
X0452809Y0070802D01*
X0453087Y0070915D01*
X0453363Y0071034D01*
X0453636Y0071161D01*
X0453905Y0071294D01*
X0454171Y0071433D01*
X0454434Y0071579D01*
X0454693Y0071731D01*
X0454949Y0071890D01*
X0455200Y0072055D01*
X0455447Y0072226D01*
X0455690Y0072403D01*
X0455929Y0072586D01*
X0456163Y0072774D01*
X0456392Y0072968D01*
X0456616Y0073168D01*
X0456836Y0073373D01*
X0457050Y0073584D01*
X0457260Y0073800D01*
X0457464Y0074020D01*
X0457662Y0074246D01*
X0457855Y0074477D01*
X0458042Y0074712D01*
X0458224Y0074951D01*
X0458399Y0075195D01*
X0458569Y0075444D01*
X0458732Y0075696D01*
X0458889Y0075952D01*
X0459040Y0076212D01*
X0459184Y0076476D01*
X0459322Y0076743D01*
X0459454Y0077013D01*
X0459578Y0077286D01*
X0459696Y0077563D01*
X0459807Y0077842D01*
X0459912Y0078124D01*
X0460009Y0078408D01*
X0460100Y0078695D01*
X0460183Y0078984D01*
X0460259Y0079274D01*
X0460329Y0079567D01*
X0460391Y0079861D01*
X0460445Y0080156D01*
X0460493Y0080453D01*
X0460533Y0080751D01*
X0460566Y0081050D01*
X0460592Y0081349D01*
X0460610Y0081649D01*
X0460621Y0081949D01*
X0460625Y0082250D01*
X0460621Y0082551D01*
X0460610Y0082851D01*
X0460592Y0083151D01*
X0460566Y0083450D01*
X0460533Y0083749D01*
X0460493Y0084047D01*
X0460445Y0084344D01*
X0460391Y0084639D01*
X0460329Y0084933D01*
X0460259Y0085226D01*
X0460183Y0085516D01*
X0460100Y0085805D01*
X0460009Y0086092D01*
X0459912Y0086376D01*
X0459807Y0086658D01*
X0459696Y0086937D01*
X0459578Y0087214D01*
X0459454Y0087487D01*
X0459322Y0087757D01*
X0459184Y0088024D01*
X0459040Y0088288D01*
X0458889Y0088548D01*
X0458732Y0088804D01*
X0458569Y0089056D01*
X0458399Y0089305D01*
X0458224Y0089549D01*
X0458042Y0089788D01*
X0457855Y0090023D01*
X0457662Y0090254D01*
X0457464Y0090480D01*
X0457260Y0090700D01*
X0457050Y0090916D01*
X0456836Y0091127D01*
X0456616Y0091332D01*
X0456392Y0091532D01*
X0456163Y0091726D01*
X0455929Y0091914D01*
X0455690Y0092097D01*
X0455447Y0092274D01*
X0455200Y0092445D01*
X0454949Y0092610D01*
X0454693Y0092769D01*
X0454434Y0092921D01*
X0454171Y0093067D01*
X0453905Y0093206D01*
X0453636Y0093339D01*
X0453363Y0093466D01*
X0453087Y0093585D01*
X0452809Y0093698D01*
X0452528Y0093804D01*
X0452244Y0093903D01*
X0451958Y0093995D01*
X0451669Y0094081D01*
X0451379Y0094159D01*
X0451087Y0094229D01*
X0450793Y0094293D01*
X0450498Y0094350D01*
X0450202Y0094399D01*
X0449904Y0094441D01*
X0449606Y0094476D01*
X0449306Y0094503D01*
X0449007Y0094524D01*
X0448706Y0094536D01*
X0448406Y0094542D01*
X0448105Y0094540D01*
X0447805Y0094531D01*
X0447505Y0094514D01*
X0447205Y0094490D01*
X0446906Y0094459D01*
X0446608Y0094420D01*
X0446311Y0094375D01*
X0446015Y0094322D01*
X0445721Y0094261D01*
X0445428Y0094194D01*
X0445137Y0094119D01*
X0444848Y0094037D01*
X0444560Y0093949D01*
X0444276Y0093853D01*
X0443993Y0093750D01*
X0443713Y0093641D01*
X0443436Y0093524D01*
X0443162Y0093401D01*
X0442891Y0093272D01*
X0442623Y0093135D01*
X0442359Y0092992D01*
X0442098Y0092843D01*
X0441841Y0092688D01*
X0441587Y0092526D01*
X0441338Y0092358D01*
X0441093Y0092184D01*
X0440852Y0092004D01*
X0440616Y0091818D01*
X0440385Y0091626D01*
X0440158Y0091429D01*
X0439936Y0091227D01*
X0439719Y0091019D01*
X0439507Y0090805D01*
X0439300Y0090587D01*
X0439099Y0090364D01*
X0438904Y0090135D01*
X0438714Y0089903D01*
X0438529Y0089665D01*
X0438605Y0089609D01*
X0438787Y0089844D01*
X0438976Y0090075D01*
X0439170Y0090302D01*
X0439370Y0090524D01*
X0439575Y0090740D01*
X0439785Y0090952D01*
X0440000Y0091158D01*
X0440220Y0091359D01*
X0440446Y0091555D01*
X0440675Y0091745D01*
X0440910Y0091929D01*
X0441149Y0092108D01*
X0441392Y0092281D01*
X0441639Y0092447D01*
X0441891Y0092608D01*
X0442146Y0092762D01*
X0442405Y0092910D01*
X0442667Y0093052D01*
X0442933Y0093187D01*
X0443202Y0093316D01*
X0443474Y0093438D01*
X0443749Y0093554D01*
X0444027Y0093663D01*
X0444307Y0093764D01*
X0444590Y0093859D01*
X0444875Y0093947D01*
X0445162Y0094028D01*
X0445450Y0094103D01*
X0445741Y0094169D01*
X0446033Y0094229D01*
X0446327Y0094282D01*
X0446622Y0094327D01*
X0446917Y0094366D01*
X0447214Y0094397D01*
X0447511Y0094420D01*
X0447809Y0094437D01*
X0448107Y0094446D01*
X0448405Y0094448D01*
X0448704Y0094442D01*
X0449002Y0094430D01*
X0449299Y0094410D01*
X0449596Y0094382D01*
X0449892Y0094348D01*
X0450188Y0094306D01*
X0450482Y0094257D01*
X0450775Y0094201D01*
X0451066Y0094138D01*
X0451356Y0094067D01*
X0451644Y0093990D01*
X0451930Y0093906D01*
X0452214Y0093814D01*
X0452496Y0093716D01*
X0452775Y0093611D01*
X0453051Y0093499D01*
X0453325Y0093380D01*
X0453595Y0093255D01*
X0453863Y0093123D01*
X0454127Y0092984D01*
X0454388Y0092839D01*
X0454645Y0092688D01*
X0454898Y0092531D01*
X0455147Y0092367D01*
X0455393Y0092197D01*
X0455634Y0092022D01*
X0455871Y0091840D01*
X0456103Y0091653D01*
X0456330Y0091461D01*
X0456553Y0091262D01*
X0456771Y0091059D01*
X0456984Y0090850D01*
X0457192Y0090636D01*
X0457394Y0090416D01*
X0457591Y0090193D01*
X0457782Y0089964D01*
X0457968Y0089730D01*
X0458148Y0089493D01*
X0458322Y0089251D01*
X0458490Y0089004D01*
X0458652Y0088754D01*
X0458808Y0088500D01*
X0458958Y0088242D01*
X0459101Y0087980D01*
X0459238Y0087715D01*
X0459369Y0087447D01*
X0459492Y0087176D01*
X0459609Y0086901D01*
X0459720Y0086624D01*
X0459823Y0086344D01*
X0459920Y0086062D01*
X0460010Y0085778D01*
X0460092Y0085491D01*
X0460168Y0085203D01*
X0460237Y0084913D01*
X0460298Y0084621D01*
X0460353Y0084328D01*
X0460400Y0084033D01*
X0460440Y0083738D01*
X0460473Y0083441D01*
X0460498Y0083144D01*
X0460516Y0082846D01*
X0460527Y0082548D01*
X0460531Y0082250D01*
X0460527Y0081952D01*
X0460516Y0081654D01*
X0460498Y0081356D01*
X0460473Y0081059D01*
X0460440Y0080762D01*
X0460400Y0080467D01*
X0460353Y0080172D01*
X0460298Y0079879D01*
X0460237Y0079587D01*
X0460168Y0079297D01*
X0460092Y0079009D01*
X0460010Y0078722D01*
X0459920Y0078438D01*
X0459823Y0078156D01*
X0459720Y0077876D01*
X0459609Y0077599D01*
X0459492Y0077324D01*
X0459369Y0077053D01*
X0459238Y0076785D01*
X0459101Y0076520D01*
X0458958Y0076258D01*
X0458808Y0076000D01*
X0458652Y0075746D01*
X0458490Y0075496D01*
X0458322Y0075249D01*
X0458148Y0075007D01*
X0457968Y0074770D01*
X0457782Y0074536D01*
X0457591Y0074307D01*
X0457394Y0074084D01*
X0457192Y0073864D01*
X0456984Y0073650D01*
X0456771Y0073441D01*
X0456553Y0073238D01*
X0456330Y0073039D01*
X0456103Y0072847D01*
X0455871Y0072660D01*
X0455634Y0072478D01*
X0455393Y0072303D01*
X0455147Y0072133D01*
X0454898Y0071969D01*
X0454645Y0071812D01*
X0454388Y0071661D01*
X0454127Y0071516D01*
X0453863Y0071377D01*
X0453595Y0071245D01*
X0453325Y0071120D01*
X0453051Y0071001D01*
X0452775Y0070889D01*
X0452496Y0070784D01*
X0452214Y0070686D01*
X0451930Y0070594D01*
X0451644Y0070510D01*
X0451356Y0070433D01*
X0451066Y0070362D01*
X0450775Y0070299D01*
X0450482Y0070243D01*
X0450188Y0070194D01*
X0449892Y0070152D01*
X0449596Y0070118D01*
X0449299Y0070090D01*
X0449002Y0070070D01*
X0448704Y0070058D01*
X0448405Y0070052D01*
X0448107Y0070054D01*
X0447809Y0070063D01*
X0447511Y0070080D01*
X0447214Y0070103D01*
X0446917Y0070134D01*
X0446622Y0070173D01*
X0446327Y0070218D01*
X0446033Y0070271D01*
X0445741Y0070331D01*
X0445450Y0070397D01*
X0445162Y0070472D01*
X0444875Y0070553D01*
X0444590Y0070641D01*
X0444307Y0070736D01*
X0444027Y0070837D01*
X0443749Y0070946D01*
X0443474Y0071062D01*
X0443202Y0071184D01*
X0442933Y0071313D01*
X0442667Y0071448D01*
X0442405Y0071590D01*
X0442146Y0071738D01*
X0441891Y0071892D01*
X0441639Y0072053D01*
X0441392Y0072219D01*
X0441149Y0072392D01*
X0440910Y0072571D01*
X0440675Y0072755D01*
X0440446Y0072945D01*
X0440220Y0073141D01*
X0440000Y0073342D01*
X0439785Y0073548D01*
X0439575Y0073760D01*
X0439370Y0073976D01*
X0439170Y0074198D01*
X0438976Y0074425D01*
X0438787Y0074656D01*
X0438605Y0074891D01*
X0438680Y0074948D01*
X0438861Y0074714D01*
X0439048Y0074485D01*
X0439241Y0074260D01*
X0439439Y0074040D01*
X0439642Y0073825D01*
X0439851Y0073615D01*
X0440065Y0073410D01*
X0440283Y0073211D01*
X0440507Y0073017D01*
X0440735Y0072828D01*
X0440967Y0072645D01*
X0441204Y0072468D01*
X0441446Y0072297D01*
X0441691Y0072131D01*
X0441940Y0071972D01*
X0442194Y0071819D01*
X0442450Y0071672D01*
X0442711Y0071531D01*
X0442975Y0071397D01*
X0443242Y0071269D01*
X0443512Y0071148D01*
X0443784Y0071033D01*
X0444060Y0070925D01*
X0444338Y0070824D01*
X0444619Y0070730D01*
X0444901Y0070643D01*
X0445186Y0070562D01*
X0445473Y0070489D01*
X0445761Y0070422D01*
X0446051Y0070363D01*
X0446343Y0070311D01*
X0446635Y0070266D01*
X0446929Y0070228D01*
X0447223Y0070197D01*
X0447518Y0070173D01*
X0447813Y0070157D01*
X0448109Y0070148D01*
X0448405Y0070146D01*
X0448701Y0070152D01*
X0448997Y0070164D01*
X0449292Y0070184D01*
X0449587Y0070211D01*
X0449881Y0070245D01*
X0450174Y0070287D01*
X0450466Y0070335D01*
X0450756Y0070391D01*
X0451045Y0070454D01*
X0451333Y0070524D01*
X0451619Y0070601D01*
X0451903Y0070684D01*
X0452184Y0070775D01*
X0452464Y0070873D01*
X0452741Y0070977D01*
X0453015Y0071088D01*
X0453286Y0071206D01*
X0453555Y0071330D01*
X0453820Y0071461D01*
X0454082Y0071599D01*
X0454341Y0071742D01*
X0454596Y0071892D01*
X0454848Y0072049D01*
X0455095Y0072211D01*
X0455338Y0072379D01*
X0455578Y0072554D01*
X0455813Y0072734D01*
X0456043Y0072919D01*
X0456269Y0073111D01*
X0456490Y0073307D01*
X0456706Y0073509D01*
X0456917Y0073717D01*
X0457123Y0073929D01*
X0457324Y0074147D01*
X0457520Y0074369D01*
X0457710Y0074596D01*
X0457894Y0074827D01*
X0458072Y0075063D01*
X0458245Y0075303D01*
X0458412Y0075548D01*
X0458573Y0075796D01*
X0458728Y0076049D01*
X0458876Y0076305D01*
X0459018Y0076564D01*
X0459154Y0076827D01*
X0459284Y0077093D01*
X0459406Y0077362D01*
X0459523Y0077635D01*
X0459632Y0077910D01*
X0459735Y0078187D01*
X0459831Y0078467D01*
X0459920Y0078749D01*
X0460002Y0079034D01*
X0460077Y0079320D01*
X0460145Y0079608D01*
X0460206Y0079897D01*
X0460260Y0080188D01*
X0460307Y0080481D01*
X0460347Y0080774D01*
X0460379Y0081068D01*
X0460404Y0081363D01*
X0460423Y0081658D01*
X0460433Y0081954D01*
X0460437Y0082250D01*
X0460433Y0082546D01*
X0460423Y0082842D01*
X0460404Y0083137D01*
X0460379Y0083432D01*
X0460347Y0083726D01*
X0460307Y0084019D01*
X0460260Y0084312D01*
X0460206Y0084603D01*
X0460145Y0084892D01*
X0460077Y0085180D01*
X0460002Y0085466D01*
X0459920Y0085751D01*
X0459831Y0086033D01*
X0459735Y0086313D01*
X0459632Y0086590D01*
X0459523Y0086865D01*
X0459406Y0087138D01*
X0459284Y0087407D01*
X0459154Y0087673D01*
X0459018Y0087936D01*
X0458876Y0088195D01*
X0458728Y0088451D01*
X0458573Y0088704D01*
X0458412Y0088952D01*
X0458245Y0089197D01*
X0458072Y0089437D01*
X0457894Y0089673D01*
X0457710Y0089904D01*
X0457520Y0090131D01*
X0457324Y0090353D01*
X0457123Y0090571D01*
X0456917Y0090783D01*
X0456706Y0090991D01*
X0456490Y0091193D01*
X0456269Y0091389D01*
X0456043Y0091581D01*
X0455813Y0091766D01*
X0455578Y0091946D01*
X0455338Y0092121D01*
X0455095Y0092289D01*
X0454848Y0092451D01*
X0454596Y0092608D01*
X0454341Y0092758D01*
X0454082Y0092901D01*
X0453820Y0093039D01*
X0453555Y0093170D01*
X0453286Y0093294D01*
X0453015Y0093412D01*
X0452741Y0093523D01*
X0452464Y0093627D01*
X0452184Y0093725D01*
X0451903Y0093816D01*
X0451619Y0093899D01*
X0451333Y0093976D01*
X0451045Y0094046D01*
X0450756Y0094109D01*
X0450466Y0094165D01*
X0450174Y0094213D01*
X0449881Y0094255D01*
X0449587Y0094289D01*
X0449292Y0094316D01*
X0448997Y0094336D01*
X0448701Y0094348D01*
X0448405Y0094354D01*
X0448109Y0094352D01*
X0447813Y0094343D01*
X0447518Y0094327D01*
X0447223Y0094303D01*
X0446929Y0094272D01*
X0446635Y0094234D01*
X0446343Y0094189D01*
X0446051Y0094137D01*
X0445761Y0094078D01*
X0445473Y0094011D01*
X0445186Y0093938D01*
X0444901Y0093857D01*
X0444619Y0093770D01*
X0444338Y0093676D01*
X0444060Y0093575D01*
X0443784Y0093467D01*
X0443512Y0093352D01*
X0443242Y0093231D01*
X0442975Y0093103D01*
X0442711Y0092969D01*
X0442450Y0092828D01*
X0442194Y0092681D01*
X0441940Y0092528D01*
X0441691Y0092369D01*
X0441446Y0092203D01*
X0441204Y0092032D01*
X0440967Y0091855D01*
X0440735Y0091672D01*
X0440507Y0091483D01*
X0440283Y0091289D01*
X0440065Y0091090D01*
X0439851Y0090885D01*
X0439642Y0090675D01*
X0439439Y0090460D01*
X0439241Y0090240D01*
X0439048Y0090015D01*
X0438861Y0089786D01*
X0438680Y0089552D01*
M02*
