%
M48
M72
T01C0.02362
T02C0.02756
T03C0.03200
T04C0.03543
T05C0.03600
T06C0.04000
T07C0.09000
T08C0.13000
%
T01
X473333Y22250
X488333Y22250
X503333Y42250
X503333Y52250
T02
X520833Y62250
X470833Y64750
X433333Y97250
T03
X443333Y82250
X453333Y82250
X468333Y82250
X478333Y82250
T04
X493333Y82250
X493333Y92250
X533333Y92250
X533333Y82250
T05
X431133Y57171
X423333Y57171
X423333Y47329
X431133Y47329
T06
X528333Y52250
X528333Y42250
X528333Y32250
X528333Y62250
T07
X412633Y75950
X412633Y28550
T08
X398333Y12250
X398333Y92250
X298333Y137250
X203333Y112250
M30
