%
M48
M72
T01C0.02362
T02C0.02756
T03C0.03200
T04C0.03543
T05C0.04000
T06C0.11800
%
T01
X508333Y121500
T02
X508333Y136500
X498333Y136500
X558333Y131500
X558333Y121500
T03
X573333Y121500
X573333Y131500
X603333Y131500
X603333Y121500
X603333Y111500
X573333Y111500
X573333Y101500
X603333Y101500
X603333Y91500
X603333Y81500
X573333Y81500
X573333Y91500
X573333Y71500
X603333Y71500
X603333Y61500
X573333Y61500
X648333Y71500
X658333Y71500
X658333Y31500
X648333Y31500
X648333Y111500
X658333Y111500
X603333Y141500
X573333Y141500
X573333Y151500
X573333Y161500
X603333Y161500
X603333Y151500
X603333Y171500
X573333Y171500
X573333Y181500
X573333Y191500
X603333Y191500
X603333Y181500
T04
X558333Y186500
X558333Y146500
X618333Y91500
X658333Y91500
X658333Y51500
X618333Y51500
X618333Y11500
X658333Y11500
T05
X498333Y61500
X498333Y71500
X498333Y81500
X498333Y91500
X498333Y101500
X498333Y111500
X658333Y131500
X658333Y141500
X658333Y151500
X658333Y161500
X658333Y171500
X658333Y181500
X658333Y191500
X658333Y201500
X598333Y41500
X588333Y41500
X578333Y41500
X578333Y31500
X588333Y31500
X598333Y31500
T06
X520459Y167996
X508648Y186500
X532270Y186500
M30
