G75*
%MOIN*%
%OFA0B0*%
%FSLAX25Y25*%
%IPPOS*%
%LPD*%
%AMOC8*
5,1,8,0,0,1.08239X$1,22.5*
%
%ADD10C,0.00800*%
%ADD11C,0.00600*%
%ADD12C,0.06500*%
%ADD13OC8,0.07400*%
%ADD14C,0.17000*%
%ADD15C,0.07400*%
%ADD16C,0.05600*%
%ADD17C,0.01000*%
%ADD18R,0.04362X0.04362*%
D10*
X0488333Y0001500D02*
X0713333Y0001500D01*
X0713333Y0211500D01*
X0488333Y0211500D01*
X0488333Y0001500D01*
D11*
X0700768Y0173667D02*
X0700768Y0177938D01*
X0700768Y0178667D02*
X0700768Y0182938D01*
X0700768Y0178667D01*
X0701836Y0178667D01*
X0702904Y0179735D01*
X0702904Y0181870D01*
X0701836Y0182938D01*
X0699701Y0182938D01*
X0698633Y0181870D01*
X0698633Y0179735D01*
X0698633Y0181870D01*
X0699701Y0182938D01*
X0701836Y0182938D01*
X0702904Y0181870D01*
X0702904Y0179735D01*
X0701836Y0178667D01*
X0700768Y0178667D01*
X0700768Y0182938D01*
X0700768Y0178667D01*
X0701836Y0178667D01*
X0702904Y0179735D01*
X0702904Y0181870D01*
X0701836Y0182938D01*
X0699701Y0182938D01*
X0698633Y0181870D01*
X0698633Y0179735D01*
X0698633Y0181870D01*
X0699701Y0182938D01*
X0701836Y0182938D01*
X0702904Y0181870D01*
X0702904Y0179735D01*
X0701836Y0178667D01*
X0700768Y0178667D01*
X0700768Y0182938D01*
X0700768Y0178667D01*
X0701836Y0178667D01*
X0702904Y0179735D01*
X0702904Y0181870D01*
X0701836Y0182938D01*
X0699701Y0182938D01*
X0698633Y0181870D01*
X0698633Y0179735D01*
X0698633Y0181870D01*
X0699701Y0182938D01*
X0701836Y0182938D01*
X0702904Y0181870D01*
X0702904Y0179735D01*
X0701836Y0178667D01*
X0700768Y0178667D01*
X0699701Y0177938D02*
X0701836Y0177938D01*
X0702904Y0176870D01*
X0702904Y0174735D01*
X0701836Y0173667D01*
X0700768Y0173667D01*
X0698633Y0174735D02*
X0698633Y0176870D01*
X0699701Y0177938D01*
X0702904Y0180106D02*
X0702904Y0181174D01*
X0700768Y0183309D01*
X0698633Y0183309D02*
X0702904Y0183309D01*
X0702904Y0185106D02*
X0702904Y0186174D01*
X0700768Y0188309D01*
X0702904Y0186174D01*
X0702904Y0185106D01*
X0702904Y0186174D01*
X0700768Y0188309D01*
X0702904Y0186174D01*
X0702904Y0185106D01*
X0702904Y0186174D01*
X0700768Y0188309D01*
X0702904Y0186174D01*
X0702904Y0185106D01*
X0701836Y0185484D02*
X0698633Y0185484D01*
X0698633Y0188687D01*
X0699701Y0189755D01*
X0700768Y0188687D01*
X0700768Y0185484D01*
X0701836Y0185484D02*
X0702904Y0186552D01*
X0702904Y0188687D01*
X0702904Y0188309D02*
X0698633Y0188309D01*
X0702904Y0188309D01*
X0698633Y0188309D01*
X0702904Y0188309D01*
X0698633Y0188309D01*
X0702904Y0188309D01*
X0701836Y0190484D02*
X0698633Y0190484D01*
X0698633Y0193687D01*
X0699701Y0194755D01*
X0700768Y0193687D01*
X0700768Y0190484D01*
X0700768Y0193687D01*
X0699701Y0194755D01*
X0698633Y0193687D01*
X0698633Y0190484D01*
X0701836Y0190484D01*
X0702904Y0191552D01*
X0702904Y0193687D01*
X0702904Y0191552D01*
X0701836Y0190484D01*
X0698633Y0190484D01*
X0698633Y0193687D01*
X0699701Y0194755D01*
X0700768Y0193687D01*
X0700768Y0190484D01*
X0700768Y0193687D01*
X0699701Y0194755D01*
X0698633Y0193687D01*
X0698633Y0190484D01*
X0701836Y0190484D01*
X0702904Y0191552D01*
X0702904Y0193687D01*
X0702904Y0191552D01*
X0701836Y0190484D01*
X0698633Y0190484D01*
X0698633Y0193687D01*
X0699701Y0194755D01*
X0700768Y0193687D01*
X0700768Y0190484D01*
X0700768Y0193687D01*
X0699701Y0194755D01*
X0698633Y0193687D01*
X0698633Y0190484D01*
X0701836Y0190484D01*
X0702904Y0191552D01*
X0702904Y0193687D01*
X0702904Y0191552D01*
X0701836Y0190484D01*
X0700768Y0191930D02*
X0699701Y0191930D01*
X0698633Y0192997D01*
X0698633Y0196200D01*
X0705039Y0196200D01*
X0705039Y0192997D01*
X0703971Y0191930D01*
X0702904Y0191930D01*
X0701836Y0192997D01*
X0701836Y0196200D01*
X0700768Y0196930D02*
X0699701Y0196930D01*
X0698633Y0197997D01*
X0698633Y0201200D01*
X0705039Y0201200D01*
X0705039Y0197997D01*
X0703971Y0196930D01*
X0702904Y0196930D01*
X0701836Y0197997D01*
X0701836Y0201200D01*
X0701836Y0197997D01*
X0700768Y0196930D01*
X0699701Y0196930D01*
X0698633Y0197997D01*
X0698633Y0201200D01*
X0705039Y0201200D01*
X0705039Y0197997D01*
X0703971Y0196930D01*
X0702904Y0196930D01*
X0701836Y0197997D01*
X0700768Y0196930D01*
X0699701Y0196930D01*
X0698633Y0197997D01*
X0698633Y0201200D01*
X0705039Y0201200D01*
X0705039Y0197997D01*
X0703971Y0196930D01*
X0702904Y0196930D01*
X0701836Y0197997D01*
X0701836Y0201200D01*
X0701836Y0197997D01*
X0700768Y0196930D01*
X0699701Y0196930D01*
X0698633Y0197997D01*
X0698633Y0201200D01*
X0705039Y0201200D01*
X0705039Y0197997D01*
X0703971Y0196930D01*
X0702904Y0196930D01*
X0701836Y0197997D01*
X0700768Y0196930D01*
X0699701Y0196930D01*
X0698633Y0197997D01*
X0698633Y0201200D01*
X0705039Y0201200D01*
X0705039Y0197997D01*
X0703971Y0196930D01*
X0702904Y0196930D01*
X0701836Y0197997D01*
X0701836Y0201200D01*
X0701836Y0197997D01*
X0700768Y0196930D01*
X0699701Y0196930D01*
X0698633Y0197997D01*
X0698633Y0201200D01*
X0705039Y0201200D01*
X0705039Y0197997D01*
X0703971Y0196930D01*
X0702904Y0196930D01*
X0701836Y0197997D01*
X0700768Y0196930D01*
X0701836Y0192997D02*
X0700768Y0191930D01*
D12*
X0508333Y0136500D03*
X0498333Y0136500D03*
X0558333Y0131500D03*
X0558333Y0121500D03*
D13*
X0578333Y0041500D03*
X0588333Y0041500D03*
X0598333Y0041500D03*
X0598333Y0031500D03*
X0588333Y0031500D03*
X0578333Y0031500D03*
D14*
X0520459Y0167996D03*
X0508648Y0186500D03*
X0532270Y0186500D03*
D15*
X0558333Y0186500D03*
X0658333Y0181500D03*
X0658333Y0191500D03*
X0658333Y0201500D03*
X0658333Y0171500D03*
X0658333Y0161500D03*
X0658333Y0151500D03*
X0658333Y0141500D03*
X0658333Y0131500D03*
X0658333Y0111500D03*
X0648333Y0111500D03*
X0658333Y0091500D03*
X0618333Y0091500D03*
X0648333Y0071500D03*
X0658333Y0071500D03*
X0658333Y0051500D03*
X0618333Y0051500D03*
X0648333Y0031500D03*
X0658333Y0031500D03*
X0658333Y0011500D03*
X0618333Y0011500D03*
X0498333Y0061500D03*
X0498333Y0071500D03*
X0498333Y0081500D03*
X0498333Y0091500D03*
X0498333Y0101500D03*
X0498333Y0111500D03*
X0558333Y0146500D03*
D16*
X0570533Y0141500D02*
X0576133Y0141500D01*
X0600533Y0141500D02*
X0606133Y0141500D01*
X0606133Y0131500D02*
X0600533Y0131500D01*
X0600533Y0121500D02*
X0606133Y0121500D01*
X0576133Y0121500D02*
X0570533Y0121500D01*
X0570533Y0131500D02*
X0576133Y0131500D01*
X0576133Y0111500D02*
X0570533Y0111500D01*
X0570533Y0101500D02*
X0576133Y0101500D01*
X0600533Y0101500D02*
X0606133Y0101500D01*
X0606133Y0091500D02*
X0600533Y0091500D01*
X0600533Y0081500D02*
X0606133Y0081500D01*
X0576133Y0081500D02*
X0570533Y0081500D01*
X0570533Y0091500D02*
X0576133Y0091500D01*
X0576133Y0071500D02*
X0570533Y0071500D01*
X0570533Y0061500D02*
X0576133Y0061500D01*
X0600533Y0061500D02*
X0606133Y0061500D01*
X0606133Y0071500D02*
X0600533Y0071500D01*
X0600533Y0111500D02*
X0606133Y0111500D01*
X0606133Y0151500D02*
X0600533Y0151500D01*
X0600533Y0161500D02*
X0606133Y0161500D01*
X0576133Y0161500D02*
X0570533Y0161500D01*
X0570533Y0151500D02*
X0576133Y0151500D01*
X0576133Y0171500D02*
X0570533Y0171500D01*
X0570533Y0181500D02*
X0576133Y0181500D01*
X0576133Y0191500D02*
X0570533Y0191500D01*
X0600533Y0191500D02*
X0606133Y0191500D01*
X0606133Y0181500D02*
X0600533Y0181500D01*
X0600533Y0171500D02*
X0606133Y0171500D01*
D17*
X0603333Y0171500D02*
X0658333Y0171500D01*
X0653400Y0169300D02*
X0653755Y0168441D01*
X0655274Y0166922D01*
X0656294Y0166500D01*
X0655274Y0166078D01*
X0653755Y0164559D01*
X0653400Y0163700D01*
X0610093Y0163700D01*
X0609948Y0164049D01*
X0608682Y0165315D01*
X0607028Y0166000D01*
X0599638Y0166000D01*
X0597984Y0165315D01*
X0596718Y0164049D01*
X0596033Y0162395D01*
X0596033Y0160605D01*
X0596718Y0158951D01*
X0597984Y0157685D01*
X0599638Y0157000D01*
X0607028Y0157000D01*
X0608682Y0157685D01*
X0609948Y0158951D01*
X0610093Y0159300D01*
X0653400Y0159300D01*
X0653755Y0158441D01*
X0655274Y0156922D01*
X0656294Y0156500D01*
X0655274Y0156078D01*
X0653755Y0154559D01*
X0653400Y0153700D01*
X0610093Y0153700D01*
X0609948Y0154049D01*
X0608682Y0155315D01*
X0607028Y0156000D01*
X0599638Y0156000D01*
X0597984Y0155315D01*
X0596718Y0154049D01*
X0596033Y0152395D01*
X0596033Y0150605D01*
X0596718Y0148951D01*
X0597984Y0147685D01*
X0599638Y0147000D01*
X0607028Y0147000D01*
X0608682Y0147685D01*
X0609948Y0148951D01*
X0610093Y0149300D01*
X0653400Y0149300D01*
X0653755Y0148441D01*
X0655274Y0146922D01*
X0656294Y0146500D01*
X0655274Y0146078D01*
X0653755Y0144559D01*
X0653400Y0143700D01*
X0610093Y0143700D01*
X0609948Y0144049D01*
X0608682Y0145315D01*
X0607028Y0146000D01*
X0599638Y0146000D01*
X0597984Y0145315D01*
X0596718Y0144049D01*
X0596033Y0142395D01*
X0596033Y0140605D01*
X0596718Y0138951D01*
X0597984Y0137685D01*
X0599638Y0137000D01*
X0607028Y0137000D01*
X0608682Y0137685D01*
X0609948Y0138951D01*
X0610093Y0139300D01*
X0653400Y0139300D01*
X0653755Y0138441D01*
X0655274Y0136922D01*
X0656294Y0136500D01*
X0655274Y0136078D01*
X0653755Y0134559D01*
X0653400Y0133700D01*
X0642422Y0133700D01*
X0641133Y0132411D01*
X0622422Y0113700D01*
X0610093Y0113700D01*
X0609948Y0114049D01*
X0608682Y0115315D01*
X0607028Y0116000D01*
X0601945Y0116000D01*
X0600945Y0117000D01*
X0607028Y0117000D01*
X0608682Y0117685D01*
X0609948Y0118951D01*
X0610633Y0120605D01*
X0610633Y0122395D01*
X0609948Y0124049D01*
X0608682Y0125315D01*
X0607028Y0126000D01*
X0599638Y0126000D01*
X0597984Y0125315D01*
X0596718Y0124049D01*
X0596033Y0122395D01*
X0596033Y0121911D01*
X0584245Y0133700D01*
X0580093Y0133700D01*
X0579948Y0134049D01*
X0578682Y0135315D01*
X0577028Y0136000D01*
X0569638Y0136000D01*
X0567984Y0135315D01*
X0566718Y0134049D01*
X0566574Y0133700D01*
X0562780Y0133700D01*
X0562530Y0134304D01*
X0561137Y0135696D01*
X0560533Y0135947D01*
X0560533Y0141566D01*
X0561392Y0141922D01*
X0562911Y0143441D01*
X0563733Y0145426D01*
X0563733Y0147574D01*
X0562911Y0149559D01*
X0561392Y0151078D01*
X0559407Y0151900D01*
X0557259Y0151900D01*
X0556551Y0151607D01*
X0566033Y0161089D01*
X0566033Y0160605D01*
X0566718Y0158951D01*
X0567984Y0157685D01*
X0569638Y0157000D01*
X0577028Y0157000D01*
X0578682Y0157685D01*
X0579948Y0158951D01*
X0580633Y0160605D01*
X0580633Y0162395D01*
X0579948Y0164049D01*
X0578682Y0165315D01*
X0577028Y0166000D01*
X0570945Y0166000D01*
X0571945Y0167000D01*
X0577028Y0167000D01*
X0578682Y0167685D01*
X0579948Y0168951D01*
X0580633Y0170605D01*
X0580633Y0172395D01*
X0579948Y0174049D01*
X0578682Y0175315D01*
X0577028Y0176000D01*
X0570618Y0176000D01*
X0571702Y0177000D01*
X0577028Y0177000D01*
X0578682Y0177685D01*
X0579948Y0178951D01*
X0580633Y0180605D01*
X0580633Y0182395D01*
X0579948Y0184049D01*
X0578682Y0185315D01*
X0577028Y0186000D01*
X0570945Y0186000D01*
X0571945Y0187000D01*
X0577028Y0187000D01*
X0578682Y0187685D01*
X0579948Y0188951D01*
X0580633Y0190605D01*
X0580633Y0192395D01*
X0579948Y0194049D01*
X0578682Y0195315D01*
X0577028Y0196000D01*
X0569638Y0196000D01*
X0567984Y0195315D01*
X0566718Y0194049D01*
X0566033Y0192395D01*
X0566033Y0190605D01*
X0566718Y0188951D01*
X0566969Y0188700D01*
X0563267Y0188700D01*
X0562911Y0189559D01*
X0561392Y0191078D01*
X0559407Y0191900D01*
X0557259Y0191900D01*
X0555274Y0191078D01*
X0553755Y0189559D01*
X0552933Y0187574D01*
X0552933Y0185426D01*
X0553289Y0184567D01*
X0509922Y0141200D01*
X0509318Y0141450D01*
X0507349Y0141450D01*
X0505529Y0140696D01*
X0504137Y0139304D01*
X0503383Y0137485D01*
X0503383Y0135515D01*
X0504137Y0133696D01*
X0505529Y0132304D01*
X0507349Y0131550D01*
X0509318Y0131550D01*
X0511137Y0132304D01*
X0512530Y0133696D01*
X0513283Y0135515D01*
X0513283Y0137485D01*
X0513033Y0138089D01*
X0556400Y0181456D01*
X0557259Y0181100D01*
X0559407Y0181100D01*
X0561392Y0181922D01*
X0562911Y0183441D01*
X0563267Y0184300D01*
X0566969Y0184300D01*
X0566718Y0184049D01*
X0566033Y0182395D01*
X0566033Y0180605D01*
X0566718Y0178951D01*
X0567011Y0178658D01*
X0509294Y0125381D01*
X0505448Y0125381D01*
X0504452Y0124385D01*
X0504452Y0118615D01*
X0505448Y0117619D01*
X0511219Y0117619D01*
X0512214Y0118615D01*
X0512214Y0122089D01*
X0566033Y0171768D01*
X0566033Y0170605D01*
X0566718Y0168951D01*
X0567196Y0168474D01*
X0522422Y0123700D01*
X0521133Y0122411D01*
X0521133Y0117411D01*
X0507422Y0103700D01*
X0503267Y0103700D01*
X0502911Y0104559D01*
X0501392Y0106078D01*
X0500373Y0106500D01*
X0501392Y0106922D01*
X0502911Y0108441D01*
X0503733Y0110426D01*
X0503733Y0112574D01*
X0502911Y0114559D01*
X0501392Y0116078D01*
X0500533Y0116434D01*
X0500533Y0132053D01*
X0501137Y0132304D01*
X0502530Y0133696D01*
X0503283Y0135515D01*
X0503283Y0137485D01*
X0502530Y0139304D01*
X0501137Y0140696D01*
X0499318Y0141450D01*
X0497349Y0141450D01*
X0495529Y0140696D01*
X0494137Y0139304D01*
X0493383Y0137485D01*
X0493383Y0135515D01*
X0494137Y0133696D01*
X0495529Y0132304D01*
X0496133Y0132053D01*
X0496133Y0116434D01*
X0495274Y0116078D01*
X0493755Y0114559D01*
X0492933Y0112574D01*
X0492933Y0110426D01*
X0493755Y0108441D01*
X0495274Y0106922D01*
X0496294Y0106500D01*
X0495274Y0106078D01*
X0493755Y0104559D01*
X0492933Y0102574D01*
X0492933Y0100426D01*
X0493755Y0098441D01*
X0495274Y0096922D01*
X0496294Y0096500D01*
X0495274Y0096078D01*
X0493755Y0094559D01*
X0492933Y0092574D01*
X0492933Y0090426D01*
X0493755Y0088441D01*
X0495274Y0086922D01*
X0496294Y0086500D01*
X0495274Y0086078D01*
X0493755Y0084559D01*
X0492933Y0082574D01*
X0492933Y0080426D01*
X0493755Y0078441D01*
X0495274Y0076922D01*
X0496294Y0076500D01*
X0495274Y0076078D01*
X0493755Y0074559D01*
X0492933Y0072574D01*
X0492933Y0070426D01*
X0493755Y0068441D01*
X0495274Y0066922D01*
X0496558Y0066391D01*
X0496337Y0066319D01*
X0495608Y0065947D01*
X0494946Y0065466D01*
X0494367Y0064888D01*
X0493886Y0064225D01*
X0493514Y0063496D01*
X0493261Y0062718D01*
X0493148Y0062000D01*
X0497833Y0062000D01*
X0497833Y0061000D01*
X0493148Y0061000D01*
X0493261Y0060282D01*
X0493514Y0059504D01*
X0493886Y0058775D01*
X0494367Y0058112D01*
X0494946Y0057534D01*
X0495608Y0057053D01*
X0496337Y0056681D01*
X0497116Y0056428D01*
X0497833Y0056314D01*
X0497833Y0061000D01*
X0498833Y0061000D01*
X0498833Y0056314D01*
X0499551Y0056428D01*
X0500329Y0056681D01*
X0501059Y0057053D01*
X0501721Y0057534D01*
X0502300Y0058112D01*
X0502781Y0058775D01*
X0503152Y0059504D01*
X0503405Y0060282D01*
X0503519Y0061000D01*
X0498833Y0061000D01*
X0498833Y0062000D01*
X0503519Y0062000D01*
X0503405Y0062718D01*
X0503152Y0063496D01*
X0502781Y0064225D01*
X0502300Y0064888D01*
X0501721Y0065466D01*
X0501059Y0065947D01*
X0500329Y0066319D01*
X0500109Y0066391D01*
X0501392Y0066922D01*
X0502911Y0068441D01*
X0503733Y0070426D01*
X0503733Y0072574D01*
X0502911Y0074559D01*
X0501392Y0076078D01*
X0500373Y0076500D01*
X0501392Y0076922D01*
X0502911Y0078441D01*
X0503261Y0079286D01*
X0503425Y0079300D01*
X0504245Y0079300D01*
X0504319Y0079375D01*
X0504424Y0079383D01*
X0504954Y0080009D01*
X0505533Y0080589D01*
X0505533Y0080694D01*
X0556133Y0140494D01*
X0556133Y0135947D01*
X0555529Y0135696D01*
X0554137Y0134304D01*
X0553383Y0132485D01*
X0553383Y0130515D01*
X0554137Y0128696D01*
X0555529Y0127304D01*
X0557349Y0126550D01*
X0559318Y0126550D01*
X0561137Y0127304D01*
X0562530Y0128696D01*
X0562780Y0129300D01*
X0566574Y0129300D01*
X0566718Y0128951D01*
X0567984Y0127685D01*
X0569638Y0127000D01*
X0577028Y0127000D01*
X0578682Y0127685D01*
X0579948Y0128951D01*
X0580093Y0129300D01*
X0582422Y0129300D01*
X0597196Y0114526D01*
X0596718Y0114049D01*
X0596033Y0112395D01*
X0596033Y0110605D01*
X0596718Y0108951D01*
X0597984Y0107685D01*
X0599638Y0107000D01*
X0607028Y0107000D01*
X0608682Y0107685D01*
X0609948Y0108951D01*
X0610093Y0109300D01*
X0624245Y0109300D01*
X0644245Y0129300D01*
X0653400Y0129300D01*
X0653755Y0128441D01*
X0655274Y0126922D01*
X0657259Y0126100D01*
X0659407Y0126100D01*
X0661392Y0126922D01*
X0662911Y0128441D01*
X0663733Y0130426D01*
X0663733Y0132574D01*
X0662911Y0134559D01*
X0661392Y0136078D01*
X0660373Y0136500D01*
X0661392Y0136922D01*
X0662911Y0138441D01*
X0663733Y0140426D01*
X0663733Y0142574D01*
X0662911Y0144559D01*
X0661392Y0146078D01*
X0660373Y0146500D01*
X0661392Y0146922D01*
X0662911Y0148441D01*
X0663733Y0150426D01*
X0663733Y0152574D01*
X0662911Y0154559D01*
X0661392Y0156078D01*
X0660373Y0156500D01*
X0661392Y0156922D01*
X0662911Y0158441D01*
X0663733Y0160426D01*
X0663733Y0162574D01*
X0662911Y0164559D01*
X0661392Y0166078D01*
X0660373Y0166500D01*
X0661392Y0166922D01*
X0662911Y0168441D01*
X0663733Y0170426D01*
X0663733Y0172574D01*
X0662911Y0174559D01*
X0661392Y0176078D01*
X0660373Y0176500D01*
X0661392Y0176922D01*
X0662911Y0178441D01*
X0663733Y0180426D01*
X0663733Y0182574D01*
X0662911Y0184559D01*
X0661392Y0186078D01*
X0660373Y0186500D01*
X0661392Y0186922D01*
X0662911Y0188441D01*
X0663733Y0190426D01*
X0663733Y0192574D01*
X0662911Y0194559D01*
X0661392Y0196078D01*
X0660109Y0196609D01*
X0660329Y0196681D01*
X0661059Y0197053D01*
X0661721Y0197534D01*
X0662300Y0198112D01*
X0662781Y0198775D01*
X0663152Y0199504D01*
X0663405Y0200282D01*
X0663519Y0201000D01*
X0658833Y0201000D01*
X0658833Y0202000D01*
X0657833Y0202000D01*
X0657833Y0201000D01*
X0653148Y0201000D01*
X0653261Y0200282D01*
X0653514Y0199504D01*
X0653886Y0198775D01*
X0654367Y0198112D01*
X0654946Y0197534D01*
X0655608Y0197053D01*
X0656337Y0196681D01*
X0656558Y0196609D01*
X0655274Y0196078D01*
X0653755Y0194559D01*
X0653400Y0193700D01*
X0610093Y0193700D01*
X0609948Y0194049D01*
X0608682Y0195315D01*
X0607028Y0196000D01*
X0599638Y0196000D01*
X0597984Y0195315D01*
X0596718Y0194049D01*
X0596033Y0192395D01*
X0596033Y0190605D01*
X0596718Y0188951D01*
X0597984Y0187685D01*
X0599638Y0187000D01*
X0607028Y0187000D01*
X0608682Y0187685D01*
X0609948Y0188951D01*
X0610093Y0189300D01*
X0653400Y0189300D01*
X0653755Y0188441D01*
X0655274Y0186922D01*
X0656294Y0186500D01*
X0655274Y0186078D01*
X0653755Y0184559D01*
X0653400Y0183700D01*
X0610093Y0183700D01*
X0609948Y0184049D01*
X0608682Y0185315D01*
X0607028Y0186000D01*
X0599638Y0186000D01*
X0597984Y0185315D01*
X0596718Y0184049D01*
X0596033Y0182395D01*
X0596033Y0180605D01*
X0596718Y0178951D01*
X0597984Y0177685D01*
X0599638Y0177000D01*
X0607028Y0177000D01*
X0608682Y0177685D01*
X0609948Y0178951D01*
X0610093Y0179300D01*
X0653400Y0179300D01*
X0653755Y0178441D01*
X0655274Y0176922D01*
X0656294Y0176500D01*
X0655274Y0176078D01*
X0653755Y0174559D01*
X0653400Y0173700D01*
X0610093Y0173700D01*
X0609948Y0174049D01*
X0608682Y0175315D01*
X0607028Y0176000D01*
X0599638Y0176000D01*
X0597984Y0175315D01*
X0596718Y0174049D01*
X0596033Y0172395D01*
X0596033Y0170605D01*
X0596718Y0168951D01*
X0597984Y0167685D01*
X0599638Y0167000D01*
X0607028Y0167000D01*
X0608682Y0167685D01*
X0609948Y0168951D01*
X0610093Y0169300D01*
X0653400Y0169300D01*
X0653442Y0169198D02*
X0610050Y0169198D01*
X0609197Y0168199D02*
X0653997Y0168199D01*
X0654996Y0167201D02*
X0607513Y0167201D01*
X0608794Y0165204D02*
X0654400Y0165204D01*
X0653609Y0164205D02*
X0609792Y0164205D01*
X0603333Y0161500D02*
X0658333Y0161500D01*
X0653436Y0159213D02*
X0610057Y0159213D01*
X0609211Y0158214D02*
X0653982Y0158214D01*
X0654981Y0157216D02*
X0607549Y0157216D01*
X0608779Y0155219D02*
X0654415Y0155219D01*
X0653615Y0154220D02*
X0609777Y0154220D01*
X0603333Y0151500D02*
X0658333Y0151500D01*
X0662251Y0155219D02*
X0711233Y0155219D01*
X0711233Y0156217D02*
X0661056Y0156217D01*
X0661686Y0157216D02*
X0711233Y0157216D01*
X0711233Y0158214D02*
X0662684Y0158214D01*
X0663231Y0159213D02*
X0711233Y0159213D01*
X0711233Y0160211D02*
X0663644Y0160211D01*
X0663733Y0161210D02*
X0711233Y0161210D01*
X0711233Y0162208D02*
X0663733Y0162208D01*
X0663471Y0163207D02*
X0711233Y0163207D01*
X0711233Y0164205D02*
X0663058Y0164205D01*
X0662266Y0165204D02*
X0711233Y0165204D01*
X0711233Y0166202D02*
X0661092Y0166202D01*
X0661671Y0167201D02*
X0711233Y0167201D01*
X0711233Y0168199D02*
X0662669Y0168199D01*
X0663225Y0169198D02*
X0711233Y0169198D01*
X0711233Y0170196D02*
X0663638Y0170196D01*
X0663733Y0171195D02*
X0711233Y0171195D01*
X0711233Y0172193D02*
X0709177Y0172193D01*
X0709195Y0172223D02*
X0709280Y0172429D01*
X0709338Y0172644D01*
X0709367Y0172865D01*
X0709367Y0198945D01*
X0709367Y0203945D01*
X0709338Y0204166D01*
X0709280Y0204381D01*
X0709195Y0204587D01*
X0709083Y0204780D01*
X0708948Y0204957D01*
X0708790Y0205114D01*
X0708613Y0205250D01*
X0708420Y0205361D01*
X0708214Y0205447D01*
X0707999Y0205504D01*
X0707778Y0205533D01*
X0695889Y0205533D01*
X0695668Y0205504D01*
X0695452Y0205447D01*
X0695246Y0205361D01*
X0695053Y0205250D01*
X0694877Y0205114D01*
X0694719Y0204957D01*
X0694583Y0204780D01*
X0694472Y0204587D01*
X0694387Y0204381D01*
X0694329Y0204166D01*
X0694300Y0203945D01*
X0694300Y0172865D01*
X0694329Y0172644D01*
X0694387Y0172429D01*
X0694472Y0172223D01*
X0694583Y0172030D01*
X0694719Y0171853D01*
X0694877Y0171696D01*
X0695053Y0171560D01*
X0695246Y0171449D01*
X0695452Y0171363D01*
X0695668Y0171306D01*
X0695889Y0171277D01*
X0707778Y0171277D01*
X0707999Y0171306D01*
X0708214Y0171363D01*
X0708420Y0171449D01*
X0708613Y0171560D01*
X0708790Y0171696D01*
X0708948Y0171853D01*
X0709083Y0172030D01*
X0709195Y0172223D01*
X0709367Y0173192D02*
X0711233Y0173192D01*
X0711233Y0174190D02*
X0709367Y0174190D01*
X0709367Y0175189D02*
X0711233Y0175189D01*
X0711233Y0176187D02*
X0709367Y0176187D01*
X0709367Y0177186D02*
X0711233Y0177186D01*
X0711233Y0178184D02*
X0709367Y0178184D01*
X0709367Y0179183D02*
X0711233Y0179183D01*
X0711233Y0180181D02*
X0709367Y0180181D01*
X0709367Y0181180D02*
X0711233Y0181180D01*
X0711233Y0182178D02*
X0709367Y0182178D01*
X0709367Y0183177D02*
X0711233Y0183177D01*
X0711233Y0184175D02*
X0709367Y0184175D01*
X0709367Y0185174D02*
X0711233Y0185174D01*
X0711233Y0186172D02*
X0709367Y0186172D01*
X0709367Y0187171D02*
X0711233Y0187171D01*
X0711233Y0188170D02*
X0709367Y0188170D01*
X0709367Y0189168D02*
X0711233Y0189168D01*
X0711233Y0190167D02*
X0709367Y0190167D01*
X0709367Y0191165D02*
X0711233Y0191165D01*
X0711233Y0192164D02*
X0709367Y0192164D01*
X0709367Y0193162D02*
X0711233Y0193162D01*
X0711233Y0194161D02*
X0709367Y0194161D01*
X0709367Y0195159D02*
X0711233Y0195159D01*
X0711233Y0196158D02*
X0709367Y0196158D01*
X0709367Y0197156D02*
X0711233Y0197156D01*
X0711233Y0198155D02*
X0709367Y0198155D01*
X0709367Y0199153D02*
X0711233Y0199153D01*
X0711233Y0200152D02*
X0709367Y0200152D01*
X0709367Y0201150D02*
X0711233Y0201150D01*
X0711233Y0202149D02*
X0709367Y0202149D01*
X0709367Y0203147D02*
X0711233Y0203147D01*
X0711233Y0204146D02*
X0709340Y0204146D01*
X0708751Y0205144D02*
X0711233Y0205144D01*
X0711233Y0206143D02*
X0660675Y0206143D01*
X0660329Y0206319D02*
X0659551Y0206572D01*
X0658833Y0206686D01*
X0658833Y0202000D01*
X0663519Y0202000D01*
X0663405Y0202718D01*
X0663152Y0203496D01*
X0662781Y0204225D01*
X0662300Y0204888D01*
X0661721Y0205466D01*
X0661059Y0205947D01*
X0660329Y0206319D01*
X0658833Y0206143D02*
X0657833Y0206143D01*
X0657833Y0206686D02*
X0657116Y0206572D01*
X0656337Y0206319D01*
X0655608Y0205947D01*
X0654946Y0205466D01*
X0654367Y0204888D01*
X0653886Y0204225D01*
X0653514Y0203496D01*
X0653261Y0202718D01*
X0653148Y0202000D01*
X0657833Y0202000D01*
X0657833Y0206686D01*
X0657833Y0205144D02*
X0658833Y0205144D01*
X0658833Y0204146D02*
X0657833Y0204146D01*
X0657833Y0203147D02*
X0658833Y0203147D01*
X0658833Y0202149D02*
X0657833Y0202149D01*
X0657833Y0201150D02*
X0490433Y0201150D01*
X0490433Y0200152D02*
X0653304Y0200152D01*
X0653693Y0199153D02*
X0490433Y0199153D01*
X0490433Y0198155D02*
X0654336Y0198155D01*
X0655465Y0197156D02*
X0490433Y0197156D01*
X0490433Y0196158D02*
X0506021Y0196158D01*
X0505876Y0196124D02*
X0504815Y0195753D01*
X0503803Y0195266D01*
X0502852Y0194668D01*
X0501974Y0193968D01*
X0501180Y0193174D01*
X0500480Y0192296D01*
X0499882Y0191345D01*
X0499395Y0190333D01*
X0499024Y0189273D01*
X0498774Y0188178D01*
X0498648Y0187062D01*
X0498648Y0187000D01*
X0508148Y0187000D01*
X0508148Y0186000D01*
X0498648Y0186000D01*
X0498648Y0185938D01*
X0498774Y0184822D01*
X0499024Y0183727D01*
X0499395Y0182667D01*
X0499882Y0181655D01*
X0500480Y0180704D01*
X0501180Y0179826D01*
X0501974Y0179032D01*
X0502852Y0178332D01*
X0503803Y0177734D01*
X0504815Y0177247D01*
X0505876Y0176876D01*
X0506971Y0176626D01*
X0508087Y0176500D01*
X0508148Y0176500D01*
X0508148Y0186000D01*
X0509148Y0186000D01*
X0509148Y0176500D01*
X0509210Y0176500D01*
X0510326Y0176626D01*
X0511421Y0176876D01*
X0512481Y0177247D01*
X0513493Y0177734D01*
X0514444Y0178332D01*
X0515322Y0179032D01*
X0516116Y0179826D01*
X0516817Y0180704D01*
X0517414Y0181655D01*
X0517902Y0182667D01*
X0518273Y0183727D01*
X0518523Y0184822D01*
X0518648Y0185938D01*
X0518648Y0186000D01*
X0509148Y0186000D01*
X0509148Y0187000D01*
X0508148Y0187000D01*
X0508148Y0196500D01*
X0508087Y0196500D01*
X0506971Y0196374D01*
X0505876Y0196124D01*
X0508148Y0196158D02*
X0509148Y0196158D01*
X0509148Y0196500D02*
X0509148Y0187000D01*
X0518648Y0187000D01*
X0518648Y0187062D01*
X0518523Y0188178D01*
X0518273Y0189273D01*
X0517902Y0190333D01*
X0517414Y0191345D01*
X0516817Y0192296D01*
X0516116Y0193174D01*
X0515322Y0193968D01*
X0514444Y0194668D01*
X0513493Y0195266D01*
X0512481Y0195753D01*
X0511421Y0196124D01*
X0510326Y0196374D01*
X0509210Y0196500D01*
X0509148Y0196500D01*
X0509148Y0195159D02*
X0508148Y0195159D01*
X0508148Y0194161D02*
X0509148Y0194161D01*
X0509148Y0193162D02*
X0508148Y0193162D01*
X0508148Y0192164D02*
X0509148Y0192164D01*
X0509148Y0191165D02*
X0508148Y0191165D01*
X0508148Y0190167D02*
X0509148Y0190167D01*
X0509148Y0189168D02*
X0508148Y0189168D01*
X0508148Y0188170D02*
X0509148Y0188170D01*
X0509148Y0187171D02*
X0508148Y0187171D01*
X0508148Y0186172D02*
X0490433Y0186172D01*
X0490433Y0185174D02*
X0498734Y0185174D01*
X0498922Y0184175D02*
X0490433Y0184175D01*
X0490433Y0183177D02*
X0499217Y0183177D01*
X0499630Y0182178D02*
X0490433Y0182178D01*
X0490433Y0181180D02*
X0500181Y0181180D01*
X0500897Y0180181D02*
X0490433Y0180181D01*
X0490433Y0179183D02*
X0501823Y0179183D01*
X0503087Y0178184D02*
X0490433Y0178184D01*
X0490433Y0177186D02*
X0504989Y0177186D01*
X0508148Y0177186D02*
X0509148Y0177186D01*
X0509148Y0178184D02*
X0508148Y0178184D01*
X0508148Y0179183D02*
X0509148Y0179183D01*
X0509148Y0180181D02*
X0508148Y0180181D01*
X0508148Y0181180D02*
X0509148Y0181180D01*
X0509148Y0182178D02*
X0508148Y0182178D01*
X0508148Y0183177D02*
X0509148Y0183177D01*
X0509148Y0184175D02*
X0508148Y0184175D01*
X0508148Y0185174D02*
X0509148Y0185174D01*
X0509148Y0186172D02*
X0522070Y0186172D01*
X0522070Y0185174D02*
X0518562Y0185174D01*
X0518375Y0184175D02*
X0522333Y0184175D01*
X0522070Y0185157D02*
X0522765Y0182563D01*
X0524108Y0180237D01*
X0526007Y0178338D01*
X0528333Y0176995D01*
X0530927Y0176300D01*
X0533613Y0176300D01*
X0536207Y0176995D01*
X0538533Y0178338D01*
X0540432Y0180237D01*
X0541775Y0182563D01*
X0542470Y0185157D01*
X0542470Y0187843D01*
X0541775Y0190437D01*
X0540432Y0192763D01*
X0538533Y0194662D01*
X0536207Y0196005D01*
X0533613Y0196700D01*
X0530927Y0196700D01*
X0528333Y0196005D01*
X0526007Y0194662D01*
X0524108Y0192763D01*
X0522765Y0190437D01*
X0522070Y0187843D01*
X0522070Y0185157D01*
X0522070Y0187171D02*
X0518636Y0187171D01*
X0518523Y0188170D02*
X0522158Y0188170D01*
X0522425Y0189168D02*
X0518296Y0189168D01*
X0517960Y0190167D02*
X0522693Y0190167D01*
X0523186Y0191165D02*
X0517501Y0191165D01*
X0516900Y0192164D02*
X0523762Y0192164D01*
X0524507Y0193162D02*
X0516126Y0193162D01*
X0515081Y0194161D02*
X0525506Y0194161D01*
X0526868Y0195159D02*
X0513663Y0195159D01*
X0511275Y0196158D02*
X0528903Y0196158D01*
X0535637Y0196158D02*
X0655467Y0196158D01*
X0654356Y0195159D02*
X0608838Y0195159D01*
X0609837Y0194161D02*
X0653590Y0194161D01*
X0661200Y0196158D02*
X0694300Y0196158D01*
X0694300Y0197156D02*
X0661201Y0197156D01*
X0662330Y0198155D02*
X0694300Y0198155D01*
X0694300Y0199153D02*
X0662974Y0199153D01*
X0663363Y0200152D02*
X0694300Y0200152D01*
X0694300Y0201150D02*
X0658833Y0201150D01*
X0663495Y0202149D02*
X0694300Y0202149D01*
X0694300Y0203147D02*
X0663266Y0203147D01*
X0662821Y0204146D02*
X0694326Y0204146D01*
X0694916Y0205144D02*
X0662043Y0205144D01*
X0655991Y0206143D02*
X0490433Y0206143D01*
X0490433Y0207141D02*
X0711233Y0207141D01*
X0711233Y0208140D02*
X0490433Y0208140D01*
X0490433Y0209138D02*
X0711233Y0209138D01*
X0711233Y0209400D02*
X0490433Y0209400D01*
X0490433Y0003600D01*
X0711233Y0003600D01*
X0711233Y0209400D01*
X0694300Y0195159D02*
X0662311Y0195159D01*
X0663076Y0194161D02*
X0694300Y0194161D01*
X0694300Y0193162D02*
X0663490Y0193162D01*
X0663733Y0192164D02*
X0694300Y0192164D01*
X0694300Y0191165D02*
X0663733Y0191165D01*
X0663626Y0190167D02*
X0694300Y0190167D01*
X0694300Y0189168D02*
X0663212Y0189168D01*
X0662640Y0188170D02*
X0694300Y0188170D01*
X0694300Y0187171D02*
X0661641Y0187171D01*
X0661164Y0186172D02*
X0694300Y0186172D01*
X0694300Y0185174D02*
X0662296Y0185174D01*
X0663070Y0184175D02*
X0694300Y0184175D01*
X0694300Y0183177D02*
X0663484Y0183177D01*
X0663733Y0182178D02*
X0694300Y0182178D01*
X0694300Y0181180D02*
X0663733Y0181180D01*
X0663632Y0180181D02*
X0694300Y0180181D01*
X0694300Y0179183D02*
X0663218Y0179183D01*
X0662654Y0178184D02*
X0694300Y0178184D01*
X0694300Y0177186D02*
X0661656Y0177186D01*
X0661128Y0176187D02*
X0694300Y0176187D01*
X0694300Y0175189D02*
X0662281Y0175189D01*
X0663064Y0174190D02*
X0694300Y0174190D01*
X0694300Y0173192D02*
X0663477Y0173192D01*
X0663733Y0172193D02*
X0694489Y0172193D01*
X0658333Y0181500D02*
X0603333Y0181500D01*
X0597843Y0185174D02*
X0578823Y0185174D01*
X0579822Y0184175D02*
X0596845Y0184175D01*
X0596357Y0183177D02*
X0580309Y0183177D01*
X0580633Y0182178D02*
X0596033Y0182178D01*
X0596033Y0181180D02*
X0580633Y0181180D01*
X0580458Y0180181D02*
X0596209Y0180181D01*
X0596622Y0179183D02*
X0580044Y0179183D01*
X0579182Y0178184D02*
X0597485Y0178184D01*
X0599189Y0177186D02*
X0577477Y0177186D01*
X0578808Y0175189D02*
X0597858Y0175189D01*
X0596860Y0174190D02*
X0579807Y0174190D01*
X0580303Y0173192D02*
X0596363Y0173192D01*
X0596033Y0172193D02*
X0580633Y0172193D01*
X0580633Y0171195D02*
X0596033Y0171195D01*
X0596203Y0170196D02*
X0580464Y0170196D01*
X0580050Y0169198D02*
X0596616Y0169198D01*
X0597470Y0168199D02*
X0579197Y0168199D01*
X0577513Y0167201D02*
X0599153Y0167201D01*
X0597873Y0165204D02*
X0578794Y0165204D01*
X0579792Y0164205D02*
X0596875Y0164205D01*
X0596370Y0163207D02*
X0580297Y0163207D01*
X0580633Y0162208D02*
X0596033Y0162208D01*
X0596033Y0161210D02*
X0580633Y0161210D01*
X0580470Y0160211D02*
X0596196Y0160211D01*
X0596610Y0159213D02*
X0580057Y0159213D01*
X0579211Y0158214D02*
X0597455Y0158214D01*
X0599118Y0157216D02*
X0577549Y0157216D01*
X0577028Y0156000D02*
X0578682Y0155315D01*
X0579948Y0154049D01*
X0580633Y0152395D01*
X0580633Y0150605D01*
X0579948Y0148951D01*
X0578682Y0147685D01*
X0577028Y0147000D01*
X0569638Y0147000D01*
X0567984Y0147685D01*
X0566718Y0148951D01*
X0566033Y0150605D01*
X0566033Y0152395D01*
X0566718Y0154049D01*
X0567984Y0155315D01*
X0569638Y0156000D01*
X0577028Y0156000D01*
X0578779Y0155219D02*
X0597888Y0155219D01*
X0596889Y0154220D02*
X0579777Y0154220D01*
X0580291Y0153222D02*
X0596376Y0153222D01*
X0596033Y0152223D02*
X0580633Y0152223D01*
X0580633Y0151225D02*
X0596033Y0151225D01*
X0596190Y0150226D02*
X0580476Y0150226D01*
X0580063Y0149228D02*
X0596604Y0149228D01*
X0597440Y0148229D02*
X0579226Y0148229D01*
X0577585Y0147231D02*
X0599082Y0147231D01*
X0597903Y0145234D02*
X0578764Y0145234D01*
X0578682Y0145315D02*
X0577028Y0146000D01*
X0569638Y0146000D01*
X0567984Y0145315D01*
X0566718Y0144049D01*
X0566033Y0142395D01*
X0566033Y0140605D01*
X0566718Y0138951D01*
X0567984Y0137685D01*
X0569638Y0137000D01*
X0577028Y0137000D01*
X0578682Y0137685D01*
X0579948Y0138951D01*
X0580633Y0140605D01*
X0580633Y0142395D01*
X0579948Y0144049D01*
X0578682Y0145315D01*
X0579762Y0144235D02*
X0596904Y0144235D01*
X0596382Y0143237D02*
X0580285Y0143237D01*
X0580633Y0142238D02*
X0596033Y0142238D01*
X0596033Y0141239D02*
X0580633Y0141239D01*
X0580483Y0140241D02*
X0596184Y0140241D01*
X0596598Y0139242D02*
X0580069Y0139242D01*
X0579241Y0138244D02*
X0597425Y0138244D01*
X0599046Y0137245D02*
X0577621Y0137245D01*
X0578749Y0135248D02*
X0598418Y0135248D01*
X0598280Y0135178D02*
X0597732Y0134780D01*
X0597253Y0134301D01*
X0596856Y0133754D01*
X0596548Y0133151D01*
X0596339Y0132507D01*
X0596233Y0131838D01*
X0596233Y0131800D01*
X0603033Y0131800D01*
X0603033Y0131200D01*
X0596233Y0131200D01*
X0596233Y0131162D01*
X0596339Y0130493D01*
X0596548Y0129849D01*
X0596856Y0129246D01*
X0597253Y0128699D01*
X0597732Y0128220D01*
X0598280Y0127822D01*
X0598883Y0127515D01*
X0599526Y0127306D01*
X0600195Y0127200D01*
X0603033Y0127200D01*
X0603033Y0131200D01*
X0603633Y0131200D01*
X0603633Y0127200D01*
X0606472Y0127200D01*
X0607140Y0127306D01*
X0607784Y0127515D01*
X0608387Y0127822D01*
X0608935Y0128220D01*
X0609413Y0128699D01*
X0609811Y0129246D01*
X0610118Y0129849D01*
X0610327Y0130493D01*
X0610433Y0131162D01*
X0610433Y0131200D01*
X0603633Y0131200D01*
X0603633Y0131800D01*
X0603033Y0131800D01*
X0603033Y0135800D01*
X0600195Y0135800D01*
X0599526Y0135694D01*
X0598883Y0135485D01*
X0598280Y0135178D01*
X0597216Y0134250D02*
X0579747Y0134250D01*
X0584693Y0133251D02*
X0596600Y0133251D01*
X0596299Y0132253D02*
X0585692Y0132253D01*
X0586690Y0131254D02*
X0603033Y0131254D01*
X0603633Y0131254D02*
X0639976Y0131254D01*
X0638978Y0130256D02*
X0610250Y0130256D01*
X0609817Y0129257D02*
X0637979Y0129257D01*
X0636981Y0128259D02*
X0608973Y0128259D01*
X0606853Y0127260D02*
X0635982Y0127260D01*
X0634984Y0126262D02*
X0591683Y0126262D01*
X0592681Y0125263D02*
X0597933Y0125263D01*
X0596934Y0124265D02*
X0593680Y0124265D01*
X0594678Y0123266D02*
X0596394Y0123266D01*
X0596033Y0122268D02*
X0595677Y0122268D01*
X0591451Y0120271D02*
X0580255Y0120271D01*
X0580327Y0120493D02*
X0580433Y0121162D01*
X0580433Y0121200D01*
X0573633Y0121200D01*
X0573633Y0117200D01*
X0576472Y0117200D01*
X0577140Y0117306D01*
X0577784Y0117515D01*
X0578387Y0117822D01*
X0578935Y0118220D01*
X0579413Y0118699D01*
X0579811Y0119246D01*
X0580118Y0119849D01*
X0580327Y0120493D01*
X0580433Y0121800D02*
X0573633Y0121800D01*
X0573033Y0121800D01*
X0573033Y0121200D01*
X0566233Y0121200D01*
X0566233Y0121162D01*
X0566339Y0120493D01*
X0566548Y0119849D01*
X0566856Y0119246D01*
X0567253Y0118699D01*
X0567732Y0118220D01*
X0568280Y0117822D01*
X0568883Y0117515D01*
X0569526Y0117306D01*
X0570195Y0117200D01*
X0573033Y0117200D01*
X0573033Y0121200D01*
X0573633Y0121200D01*
X0573633Y0121800D01*
X0573633Y0125800D01*
X0576472Y0125800D01*
X0577140Y0125694D01*
X0577784Y0125485D01*
X0578387Y0125178D01*
X0578935Y0124780D01*
X0579413Y0124301D01*
X0579811Y0123754D01*
X0580118Y0123151D01*
X0580327Y0122507D01*
X0580433Y0121838D01*
X0580433Y0121800D01*
X0580365Y0122268D02*
X0589454Y0122268D01*
X0588456Y0123266D02*
X0580059Y0123266D01*
X0579440Y0124265D02*
X0587457Y0124265D01*
X0586459Y0125263D02*
X0578219Y0125263D01*
X0577657Y0127260D02*
X0584462Y0127260D01*
X0585460Y0126262D02*
X0544091Y0126262D01*
X0544935Y0127260D02*
X0555634Y0127260D01*
X0554574Y0128259D02*
X0545780Y0128259D01*
X0546625Y0129257D02*
X0553904Y0129257D01*
X0553491Y0130256D02*
X0547470Y0130256D01*
X0548315Y0131254D02*
X0553383Y0131254D01*
X0553383Y0132253D02*
X0549160Y0132253D01*
X0550005Y0133251D02*
X0553701Y0133251D01*
X0554115Y0134250D02*
X0550850Y0134250D01*
X0551695Y0135248D02*
X0555081Y0135248D01*
X0556133Y0136247D02*
X0552540Y0136247D01*
X0553384Y0137245D02*
X0556133Y0137245D01*
X0556133Y0138244D02*
X0554229Y0138244D01*
X0555074Y0139242D02*
X0556133Y0139242D01*
X0556133Y0140241D02*
X0555919Y0140241D01*
X0560533Y0140241D02*
X0566184Y0140241D01*
X0566033Y0141239D02*
X0560533Y0141239D01*
X0561708Y0142238D02*
X0566033Y0142238D01*
X0566382Y0143237D02*
X0562707Y0143237D01*
X0563240Y0144235D02*
X0566904Y0144235D01*
X0567903Y0145234D02*
X0563654Y0145234D01*
X0563733Y0146232D02*
X0655647Y0146232D01*
X0654966Y0147231D02*
X0607585Y0147231D01*
X0609226Y0148229D02*
X0653968Y0148229D01*
X0653430Y0149228D02*
X0610063Y0149228D01*
X0608764Y0145234D02*
X0654430Y0145234D01*
X0653621Y0144235D02*
X0609762Y0144235D01*
X0603333Y0141500D02*
X0658333Y0141500D01*
X0653424Y0139242D02*
X0610069Y0139242D01*
X0609241Y0138244D02*
X0653953Y0138244D01*
X0654951Y0137245D02*
X0607621Y0137245D01*
X0607140Y0135694D02*
X0606472Y0135800D01*
X0603633Y0135800D01*
X0603633Y0131800D01*
X0610433Y0131800D01*
X0610433Y0131838D01*
X0610327Y0132507D01*
X0610118Y0133151D01*
X0609811Y0133754D01*
X0609413Y0134301D01*
X0608935Y0134780D01*
X0608387Y0135178D01*
X0607784Y0135485D01*
X0607140Y0135694D01*
X0608248Y0135248D02*
X0654445Y0135248D01*
X0653627Y0134250D02*
X0609450Y0134250D01*
X0610067Y0133251D02*
X0641973Y0133251D01*
X0640975Y0132253D02*
X0610368Y0132253D01*
X0603633Y0132253D02*
X0603033Y0132253D01*
X0603033Y0133251D02*
X0603633Y0133251D01*
X0603633Y0134250D02*
X0603033Y0134250D01*
X0603033Y0135248D02*
X0603633Y0135248D01*
X0603633Y0130256D02*
X0603033Y0130256D01*
X0603033Y0129257D02*
X0603633Y0129257D01*
X0603633Y0128259D02*
X0603033Y0128259D01*
X0603033Y0127260D02*
X0603633Y0127260D01*
X0599814Y0127260D02*
X0590684Y0127260D01*
X0589686Y0128259D02*
X0597693Y0128259D01*
X0596850Y0129257D02*
X0588687Y0129257D01*
X0587689Y0130256D02*
X0596416Y0130256D01*
X0583463Y0128259D02*
X0579256Y0128259D01*
X0580075Y0129257D02*
X0582465Y0129257D01*
X0583333Y0131500D02*
X0573333Y0131500D01*
X0558333Y0131500D01*
X0558333Y0146500D01*
X0503333Y0081500D01*
X0498333Y0081500D01*
X0493387Y0079332D02*
X0490433Y0079332D01*
X0490433Y0080330D02*
X0492973Y0080330D01*
X0492933Y0081329D02*
X0490433Y0081329D01*
X0490433Y0082327D02*
X0492933Y0082327D01*
X0493245Y0083326D02*
X0490433Y0083326D01*
X0490433Y0084324D02*
X0493658Y0084324D01*
X0494519Y0085323D02*
X0490433Y0085323D01*
X0490433Y0086321D02*
X0495862Y0086321D01*
X0494877Y0087320D02*
X0490433Y0087320D01*
X0490433Y0088318D02*
X0493878Y0088318D01*
X0493393Y0089317D02*
X0490433Y0089317D01*
X0490433Y0090315D02*
X0492979Y0090315D01*
X0492933Y0091314D02*
X0490433Y0091314D01*
X0490433Y0092312D02*
X0492933Y0092312D01*
X0493239Y0093311D02*
X0490433Y0093311D01*
X0490433Y0094309D02*
X0493652Y0094309D01*
X0494505Y0095308D02*
X0490433Y0095308D01*
X0490433Y0096306D02*
X0495826Y0096306D01*
X0494892Y0097305D02*
X0490433Y0097305D01*
X0490433Y0098303D02*
X0493893Y0098303D01*
X0493399Y0099302D02*
X0490433Y0099302D01*
X0490433Y0100301D02*
X0492985Y0100301D01*
X0492933Y0101299D02*
X0490433Y0101299D01*
X0490433Y0102298D02*
X0492933Y0102298D01*
X0493232Y0103296D02*
X0490433Y0103296D01*
X0490433Y0104295D02*
X0493646Y0104295D01*
X0494490Y0105293D02*
X0490433Y0105293D01*
X0490433Y0106292D02*
X0495790Y0106292D01*
X0494906Y0107290D02*
X0490433Y0107290D01*
X0490433Y0108289D02*
X0493908Y0108289D01*
X0493405Y0109287D02*
X0490433Y0109287D01*
X0490433Y0110286D02*
X0492991Y0110286D01*
X0492933Y0111284D02*
X0490433Y0111284D01*
X0490433Y0112283D02*
X0492933Y0112283D01*
X0493226Y0113281D02*
X0490433Y0113281D01*
X0490433Y0114280D02*
X0493640Y0114280D01*
X0494475Y0115278D02*
X0490433Y0115278D01*
X0490433Y0116277D02*
X0495754Y0116277D01*
X0496133Y0117275D02*
X0490433Y0117275D01*
X0490433Y0118274D02*
X0496133Y0118274D01*
X0496133Y0119272D02*
X0490433Y0119272D01*
X0490433Y0120271D02*
X0496133Y0120271D01*
X0496133Y0121269D02*
X0490433Y0121269D01*
X0490433Y0122268D02*
X0496133Y0122268D01*
X0496133Y0123266D02*
X0490433Y0123266D01*
X0490433Y0124265D02*
X0496133Y0124265D01*
X0496133Y0125263D02*
X0490433Y0125263D01*
X0490433Y0126262D02*
X0496133Y0126262D01*
X0496133Y0127260D02*
X0490433Y0127260D01*
X0490433Y0128259D02*
X0496133Y0128259D01*
X0496133Y0129257D02*
X0490433Y0129257D01*
X0490433Y0130256D02*
X0496133Y0130256D01*
X0496133Y0131254D02*
X0490433Y0131254D01*
X0490433Y0132253D02*
X0495652Y0132253D01*
X0494582Y0133251D02*
X0490433Y0133251D01*
X0490433Y0134250D02*
X0493908Y0134250D01*
X0493494Y0135248D02*
X0490433Y0135248D01*
X0490433Y0136247D02*
X0493383Y0136247D01*
X0493383Y0137245D02*
X0490433Y0137245D01*
X0490433Y0138244D02*
X0493698Y0138244D01*
X0494111Y0139242D02*
X0490433Y0139242D01*
X0490433Y0140241D02*
X0495074Y0140241D01*
X0496841Y0141239D02*
X0490433Y0141239D01*
X0490433Y0142238D02*
X0510960Y0142238D01*
X0509962Y0141239D02*
X0509826Y0141239D01*
X0511959Y0143237D02*
X0490433Y0143237D01*
X0490433Y0144235D02*
X0512957Y0144235D01*
X0513956Y0145234D02*
X0490433Y0145234D01*
X0490433Y0146232D02*
X0514954Y0146232D01*
X0515953Y0147231D02*
X0490433Y0147231D01*
X0490433Y0148229D02*
X0516951Y0148229D01*
X0517950Y0149228D02*
X0490433Y0149228D01*
X0490433Y0150226D02*
X0518948Y0150226D01*
X0519947Y0151225D02*
X0490433Y0151225D01*
X0490433Y0152223D02*
X0520945Y0152223D01*
X0521944Y0153222D02*
X0490433Y0153222D01*
X0490433Y0154220D02*
X0522942Y0154220D01*
X0523941Y0155219D02*
X0490433Y0155219D01*
X0490433Y0156217D02*
X0524939Y0156217D01*
X0525938Y0157216D02*
X0490433Y0157216D01*
X0490433Y0158214D02*
X0518377Y0158214D01*
X0518782Y0158122D02*
X0519898Y0157996D01*
X0519959Y0157996D01*
X0519959Y0167496D01*
X0510459Y0167496D01*
X0510459Y0167434D01*
X0510585Y0166318D01*
X0510835Y0165223D01*
X0511206Y0164163D01*
X0511693Y0163151D01*
X0512291Y0162200D01*
X0512991Y0161322D01*
X0513785Y0160528D01*
X0514663Y0159828D01*
X0515614Y0159230D01*
X0516626Y0158743D01*
X0517687Y0158372D01*
X0518782Y0158122D01*
X0519959Y0158214D02*
X0520959Y0158214D01*
X0520959Y0157996D02*
X0521021Y0157996D01*
X0522137Y0158122D01*
X0523232Y0158372D01*
X0524292Y0158743D01*
X0525304Y0159230D01*
X0526255Y0159828D01*
X0527133Y0160528D01*
X0527927Y0161322D01*
X0528628Y0162200D01*
X0529225Y0163151D01*
X0529713Y0164163D01*
X0530084Y0165223D01*
X0530334Y0166318D01*
X0530459Y0167434D01*
X0530459Y0167496D01*
X0520959Y0167496D01*
X0520959Y0157996D01*
X0520959Y0159213D02*
X0519959Y0159213D01*
X0519959Y0160211D02*
X0520959Y0160211D01*
X0520959Y0161210D02*
X0519959Y0161210D01*
X0519959Y0162208D02*
X0520959Y0162208D01*
X0520959Y0163207D02*
X0519959Y0163207D01*
X0519959Y0164205D02*
X0520959Y0164205D01*
X0520959Y0165204D02*
X0519959Y0165204D01*
X0519959Y0166202D02*
X0520959Y0166202D01*
X0520959Y0167201D02*
X0519959Y0167201D01*
X0519959Y0167496D02*
X0520959Y0167496D01*
X0520959Y0168496D01*
X0519959Y0168496D01*
X0519959Y0167496D01*
X0519959Y0168199D02*
X0490433Y0168199D01*
X0490433Y0167201D02*
X0510486Y0167201D01*
X0510612Y0166202D02*
X0490433Y0166202D01*
X0490433Y0165204D02*
X0510842Y0165204D01*
X0511191Y0164205D02*
X0490433Y0164205D01*
X0490433Y0163207D02*
X0511667Y0163207D01*
X0512286Y0162208D02*
X0490433Y0162208D01*
X0490433Y0161210D02*
X0513104Y0161210D01*
X0514182Y0160211D02*
X0490433Y0160211D01*
X0490433Y0159213D02*
X0515651Y0159213D01*
X0522542Y0158214D02*
X0526936Y0158214D01*
X0527935Y0159213D02*
X0525268Y0159213D01*
X0526736Y0160211D02*
X0528933Y0160211D01*
X0529932Y0161210D02*
X0527815Y0161210D01*
X0528633Y0162208D02*
X0530930Y0162208D01*
X0531929Y0163207D02*
X0529252Y0163207D01*
X0529727Y0164205D02*
X0532927Y0164205D01*
X0533926Y0165204D02*
X0530077Y0165204D01*
X0530307Y0166202D02*
X0534924Y0166202D01*
X0535923Y0167201D02*
X0530433Y0167201D01*
X0530459Y0168496D02*
X0530459Y0168558D01*
X0530334Y0169674D01*
X0530084Y0170769D01*
X0529713Y0171829D01*
X0529225Y0172841D01*
X0528628Y0173792D01*
X0527927Y0174670D01*
X0527133Y0175464D01*
X0526255Y0176165D01*
X0525304Y0176762D01*
X0524292Y0177249D01*
X0523232Y0177620D01*
X0522137Y0177870D01*
X0521021Y0177996D01*
X0520959Y0177996D01*
X0520959Y0168496D01*
X0530459Y0168496D01*
X0530387Y0169198D02*
X0537920Y0169198D01*
X0538918Y0170196D02*
X0530214Y0170196D01*
X0529935Y0171195D02*
X0539917Y0171195D01*
X0540915Y0172193D02*
X0529537Y0172193D01*
X0529005Y0173192D02*
X0541914Y0173192D01*
X0542912Y0174190D02*
X0528310Y0174190D01*
X0527409Y0175189D02*
X0543911Y0175189D01*
X0544909Y0176187D02*
X0526219Y0176187D01*
X0526273Y0178184D02*
X0514210Y0178184D01*
X0515473Y0179183D02*
X0525162Y0179183D01*
X0524164Y0180181D02*
X0516400Y0180181D01*
X0517116Y0181180D02*
X0523564Y0181180D01*
X0522987Y0182178D02*
X0517666Y0182178D01*
X0518080Y0183177D02*
X0522601Y0183177D01*
X0519959Y0177996D02*
X0519898Y0177996D01*
X0518782Y0177870D01*
X0517687Y0177620D01*
X0516626Y0177249D01*
X0515614Y0176762D01*
X0514663Y0176165D01*
X0513785Y0175464D01*
X0512991Y0174670D01*
X0512291Y0173792D01*
X0511693Y0172841D01*
X0511206Y0171829D01*
X0510835Y0170769D01*
X0510585Y0169674D01*
X0510459Y0168558D01*
X0510459Y0168496D01*
X0519959Y0168496D01*
X0519959Y0177996D01*
X0519959Y0177186D02*
X0520959Y0177186D01*
X0520959Y0176187D02*
X0519959Y0176187D01*
X0519959Y0175189D02*
X0520959Y0175189D01*
X0520959Y0174190D02*
X0519959Y0174190D01*
X0519959Y0173192D02*
X0520959Y0173192D01*
X0520959Y0172193D02*
X0519959Y0172193D01*
X0519959Y0171195D02*
X0520959Y0171195D01*
X0520959Y0170196D02*
X0519959Y0170196D01*
X0519959Y0169198D02*
X0520959Y0169198D01*
X0520959Y0168199D02*
X0536921Y0168199D01*
X0540148Y0165204D02*
X0552436Y0165204D01*
X0553517Y0166202D02*
X0541147Y0166202D01*
X0542145Y0167201D02*
X0554599Y0167201D01*
X0555681Y0168199D02*
X0543144Y0168199D01*
X0544142Y0169198D02*
X0556762Y0169198D01*
X0557844Y0170196D02*
X0545141Y0170196D01*
X0546139Y0171195D02*
X0558926Y0171195D01*
X0560008Y0172193D02*
X0547138Y0172193D01*
X0548136Y0173192D02*
X0561089Y0173192D01*
X0562171Y0174190D02*
X0549135Y0174190D01*
X0550133Y0175189D02*
X0563253Y0175189D01*
X0564335Y0176187D02*
X0551132Y0176187D01*
X0552130Y0177186D02*
X0565416Y0177186D01*
X0566498Y0178184D02*
X0553129Y0178184D01*
X0554127Y0179183D02*
X0566622Y0179183D01*
X0566209Y0180181D02*
X0555126Y0180181D01*
X0556125Y0181180D02*
X0557066Y0181180D01*
X0559600Y0181180D02*
X0566033Y0181180D01*
X0566033Y0182178D02*
X0561649Y0182178D01*
X0562647Y0183177D02*
X0566357Y0183177D01*
X0566845Y0184175D02*
X0563215Y0184175D01*
X0558333Y0186500D02*
X0568333Y0186500D01*
X0573333Y0191500D01*
X0579167Y0188170D02*
X0597500Y0188170D01*
X0596628Y0189168D02*
X0580038Y0189168D01*
X0580452Y0190167D02*
X0596215Y0190167D01*
X0596033Y0191165D02*
X0580633Y0191165D01*
X0580633Y0192164D02*
X0596033Y0192164D01*
X0596351Y0193162D02*
X0580316Y0193162D01*
X0579837Y0194161D02*
X0596830Y0194161D01*
X0597828Y0195159D02*
X0578838Y0195159D01*
X0567828Y0195159D02*
X0537672Y0195159D01*
X0539035Y0194161D02*
X0566830Y0194161D01*
X0566351Y0193162D02*
X0540033Y0193162D01*
X0540778Y0192164D02*
X0566033Y0192164D01*
X0566033Y0191165D02*
X0561182Y0191165D01*
X0562304Y0190167D02*
X0566215Y0190167D01*
X0566628Y0189168D02*
X0563073Y0189168D01*
X0558333Y0186500D02*
X0508333Y0136500D01*
X0503698Y0138244D02*
X0502969Y0138244D01*
X0503283Y0137245D02*
X0503383Y0137245D01*
X0503383Y0136247D02*
X0503283Y0136247D01*
X0503173Y0135248D02*
X0503494Y0135248D01*
X0503908Y0134250D02*
X0502759Y0134250D01*
X0502085Y0133251D02*
X0504582Y0133251D01*
X0505652Y0132253D02*
X0501015Y0132253D01*
X0500533Y0131254D02*
X0515657Y0131254D01*
X0514575Y0130256D02*
X0500533Y0130256D01*
X0500533Y0129257D02*
X0513494Y0129257D01*
X0512412Y0128259D02*
X0500533Y0128259D01*
X0500533Y0127260D02*
X0511330Y0127260D01*
X0510248Y0126262D02*
X0500533Y0126262D01*
X0500533Y0125263D02*
X0505330Y0125263D01*
X0504452Y0124265D02*
X0500533Y0124265D01*
X0500533Y0123266D02*
X0504452Y0123266D01*
X0504452Y0122268D02*
X0500533Y0122268D01*
X0500533Y0121269D02*
X0504452Y0121269D01*
X0504452Y0120271D02*
X0500533Y0120271D01*
X0500533Y0119272D02*
X0504452Y0119272D01*
X0504793Y0118274D02*
X0500533Y0118274D01*
X0500533Y0117275D02*
X0520997Y0117275D01*
X0521133Y0118274D02*
X0511873Y0118274D01*
X0512214Y0119272D02*
X0521133Y0119272D01*
X0521133Y0120271D02*
X0512214Y0120271D01*
X0512214Y0121269D02*
X0521133Y0121269D01*
X0521133Y0122268D02*
X0512409Y0122268D01*
X0513490Y0123266D02*
X0521988Y0123266D01*
X0522987Y0124265D02*
X0514572Y0124265D01*
X0515654Y0125263D02*
X0523985Y0125263D01*
X0524984Y0126262D02*
X0516735Y0126262D01*
X0517817Y0127260D02*
X0525982Y0127260D01*
X0526981Y0128259D02*
X0518899Y0128259D01*
X0519981Y0129257D02*
X0527979Y0129257D01*
X0528978Y0130256D02*
X0521062Y0130256D01*
X0522144Y0131254D02*
X0529976Y0131254D01*
X0530975Y0132253D02*
X0523226Y0132253D01*
X0524307Y0133251D02*
X0531973Y0133251D01*
X0532972Y0134250D02*
X0525389Y0134250D01*
X0526471Y0135248D02*
X0533970Y0135248D01*
X0534969Y0136247D02*
X0527553Y0136247D01*
X0528634Y0137245D02*
X0535968Y0137245D01*
X0536966Y0138244D02*
X0529716Y0138244D01*
X0530798Y0139242D02*
X0537965Y0139242D01*
X0538963Y0140241D02*
X0531880Y0140241D01*
X0532961Y0141239D02*
X0539962Y0141239D01*
X0540960Y0142238D02*
X0534043Y0142238D01*
X0535125Y0143237D02*
X0541959Y0143237D01*
X0542957Y0144235D02*
X0536206Y0144235D01*
X0537288Y0145234D02*
X0543956Y0145234D01*
X0544954Y0146232D02*
X0538370Y0146232D01*
X0539452Y0147231D02*
X0545953Y0147231D01*
X0546951Y0148229D02*
X0540533Y0148229D01*
X0541615Y0149228D02*
X0547950Y0149228D01*
X0548948Y0150226D02*
X0542697Y0150226D01*
X0543778Y0151225D02*
X0549947Y0151225D01*
X0550945Y0152223D02*
X0544860Y0152223D01*
X0545942Y0153222D02*
X0551944Y0153222D01*
X0552942Y0154220D02*
X0547024Y0154220D01*
X0548105Y0155219D02*
X0553941Y0155219D01*
X0554939Y0156217D02*
X0549187Y0156217D01*
X0550269Y0157216D02*
X0555938Y0157216D01*
X0556936Y0158214D02*
X0551350Y0158214D01*
X0552432Y0159213D02*
X0557935Y0159213D01*
X0558933Y0160211D02*
X0553514Y0160211D01*
X0554596Y0161210D02*
X0559932Y0161210D01*
X0560930Y0162208D02*
X0555677Y0162208D01*
X0556759Y0163207D02*
X0561929Y0163207D01*
X0562927Y0164205D02*
X0557841Y0164205D01*
X0558923Y0165204D02*
X0563926Y0165204D01*
X0564924Y0166202D02*
X0560004Y0166202D01*
X0561086Y0167201D02*
X0565923Y0167201D01*
X0566921Y0168199D02*
X0562168Y0168199D01*
X0563249Y0169198D02*
X0566616Y0169198D01*
X0566203Y0170196D02*
X0564331Y0170196D01*
X0565413Y0171195D02*
X0566033Y0171195D01*
X0573333Y0171500D02*
X0523333Y0121500D01*
X0523333Y0116500D01*
X0508333Y0101500D01*
X0498333Y0101500D01*
X0503021Y0104295D02*
X0508017Y0104295D01*
X0509015Y0105293D02*
X0502177Y0105293D01*
X0500876Y0106292D02*
X0510014Y0106292D01*
X0511012Y0107290D02*
X0501760Y0107290D01*
X0502759Y0108289D02*
X0512011Y0108289D01*
X0513009Y0109287D02*
X0503262Y0109287D01*
X0503675Y0110286D02*
X0514008Y0110286D01*
X0515006Y0111284D02*
X0503733Y0111284D01*
X0503733Y0112283D02*
X0516005Y0112283D01*
X0517003Y0113281D02*
X0503440Y0113281D01*
X0503027Y0114280D02*
X0518002Y0114280D01*
X0519000Y0115278D02*
X0502192Y0115278D01*
X0500912Y0116277D02*
X0519999Y0116277D01*
X0531417Y0111284D02*
X0566033Y0111284D01*
X0566033Y0110605D02*
X0566033Y0112395D01*
X0566718Y0114049D01*
X0567984Y0115315D01*
X0569638Y0116000D01*
X0577028Y0116000D01*
X0578682Y0115315D01*
X0579948Y0114049D01*
X0580633Y0112395D01*
X0580633Y0110605D01*
X0579948Y0108951D01*
X0578682Y0107685D01*
X0577028Y0107000D01*
X0569638Y0107000D01*
X0567984Y0107685D01*
X0566718Y0108951D01*
X0566033Y0110605D01*
X0566166Y0110286D02*
X0530572Y0110286D01*
X0529727Y0109287D02*
X0566579Y0109287D01*
X0567381Y0108289D02*
X0528882Y0108289D01*
X0528038Y0107290D02*
X0568938Y0107290D01*
X0569638Y0106000D02*
X0567984Y0105315D01*
X0566718Y0104049D01*
X0566033Y0102395D01*
X0566033Y0100605D01*
X0566718Y0098951D01*
X0567984Y0097685D01*
X0569638Y0097000D01*
X0577028Y0097000D01*
X0578682Y0097685D01*
X0579948Y0098951D01*
X0580633Y0100605D01*
X0580633Y0102395D01*
X0579948Y0104049D01*
X0578682Y0105315D01*
X0577028Y0106000D01*
X0569638Y0106000D01*
X0567962Y0105293D02*
X0526348Y0105293D01*
X0527193Y0106292D02*
X0640014Y0106292D01*
X0641012Y0107290D02*
X0607729Y0107290D01*
X0607028Y0106000D02*
X0608682Y0105315D01*
X0609948Y0104049D01*
X0610633Y0102395D01*
X0610633Y0100605D01*
X0609948Y0098951D01*
X0608682Y0097685D01*
X0607028Y0097000D01*
X0599638Y0097000D01*
X0597984Y0097685D01*
X0596718Y0098951D01*
X0596033Y0100605D01*
X0596033Y0102395D01*
X0596718Y0104049D01*
X0597984Y0105315D01*
X0599638Y0106000D01*
X0607028Y0106000D01*
X0608704Y0105293D02*
X0639015Y0105293D01*
X0638017Y0104295D02*
X0609703Y0104295D01*
X0610260Y0103296D02*
X0637018Y0103296D01*
X0636020Y0102298D02*
X0610633Y0102298D01*
X0610633Y0101299D02*
X0635021Y0101299D01*
X0634023Y0100301D02*
X0610507Y0100301D01*
X0610094Y0099302D02*
X0633024Y0099302D01*
X0632026Y0098303D02*
X0609301Y0098303D01*
X0607765Y0097305D02*
X0631027Y0097305D01*
X0630029Y0096306D02*
X0620354Y0096306D01*
X0620329Y0096319D02*
X0619551Y0096572D01*
X0618743Y0096700D01*
X0618719Y0096700D01*
X0618719Y0091886D01*
X0617947Y0091886D01*
X0617947Y0091114D01*
X0613133Y0091114D01*
X0613133Y0091091D01*
X0613261Y0090282D01*
X0613514Y0089504D01*
X0613886Y0088775D01*
X0614367Y0088112D01*
X0614946Y0087534D01*
X0615608Y0087053D01*
X0616337Y0086681D01*
X0617116Y0086428D01*
X0617924Y0086300D01*
X0617947Y0086300D01*
X0617947Y0091114D01*
X0618719Y0091114D01*
X0618719Y0086300D01*
X0618743Y0086300D01*
X0619551Y0086428D01*
X0620329Y0086681D01*
X0620480Y0086757D01*
X0608860Y0075138D01*
X0608682Y0075315D01*
X0607028Y0076000D01*
X0599638Y0076000D01*
X0597984Y0075315D01*
X0596718Y0074049D01*
X0596033Y0072395D01*
X0596033Y0070605D01*
X0596718Y0068951D01*
X0597984Y0067685D01*
X0599638Y0067000D01*
X0607028Y0067000D01*
X0608682Y0067685D01*
X0609948Y0068951D01*
X0610633Y0070605D01*
X0610633Y0070689D01*
X0646400Y0106456D01*
X0647259Y0106100D01*
X0649407Y0106100D01*
X0651392Y0106922D01*
X0652911Y0108441D01*
X0653333Y0109460D01*
X0653755Y0108441D01*
X0655274Y0106922D01*
X0656133Y0106566D01*
X0656133Y0096434D01*
X0655274Y0096078D01*
X0653755Y0094559D01*
X0652933Y0092574D01*
X0652933Y0090426D01*
X0653755Y0088441D01*
X0655274Y0086922D01*
X0657259Y0086100D01*
X0659407Y0086100D01*
X0661392Y0086922D01*
X0662911Y0088441D01*
X0663733Y0090426D01*
X0663733Y0092574D01*
X0662911Y0094559D01*
X0661392Y0096078D01*
X0660533Y0096434D01*
X0660533Y0106566D01*
X0661392Y0106922D01*
X0662911Y0108441D01*
X0663733Y0110426D01*
X0663733Y0112574D01*
X0662911Y0114559D01*
X0661392Y0116078D01*
X0659407Y0116900D01*
X0657259Y0116900D01*
X0655274Y0116078D01*
X0653755Y0114559D01*
X0653333Y0113540D01*
X0652911Y0114559D01*
X0651392Y0116078D01*
X0649407Y0116900D01*
X0647259Y0116900D01*
X0645274Y0116078D01*
X0643755Y0114559D01*
X0642933Y0112574D01*
X0642933Y0110426D01*
X0643289Y0109567D01*
X0623076Y0089354D01*
X0623152Y0089504D01*
X0623405Y0090282D01*
X0623533Y0091091D01*
X0623533Y0091114D01*
X0618719Y0091114D01*
X0618719Y0091886D01*
X0623533Y0091886D01*
X0623533Y0091909D01*
X0623405Y0092718D01*
X0623152Y0093496D01*
X0622781Y0094225D01*
X0622300Y0094888D01*
X0621721Y0095466D01*
X0621059Y0095947D01*
X0620329Y0096319D01*
X0618719Y0096306D02*
X0617947Y0096306D01*
X0617947Y0096700D02*
X0617924Y0096700D01*
X0617116Y0096572D01*
X0616337Y0096319D01*
X0615608Y0095947D01*
X0614946Y0095466D01*
X0614367Y0094888D01*
X0613886Y0094225D01*
X0613514Y0093496D01*
X0613261Y0092718D01*
X0613133Y0091909D01*
X0613133Y0091886D01*
X0617947Y0091886D01*
X0617947Y0096700D01*
X0617947Y0095308D02*
X0618719Y0095308D01*
X0618719Y0094309D02*
X0617947Y0094309D01*
X0617947Y0093311D02*
X0618719Y0093311D01*
X0618719Y0092312D02*
X0617947Y0092312D01*
X0617947Y0091314D02*
X0610633Y0091314D01*
X0610633Y0090605D02*
X0610633Y0092395D01*
X0609948Y0094049D01*
X0608682Y0095315D01*
X0607028Y0096000D01*
X0599638Y0096000D01*
X0597984Y0095315D01*
X0596718Y0094049D01*
X0596033Y0092395D01*
X0596033Y0090605D01*
X0596718Y0088951D01*
X0596969Y0088700D01*
X0579697Y0088700D01*
X0579948Y0088951D01*
X0580633Y0090605D01*
X0580633Y0092395D01*
X0579948Y0094049D01*
X0578682Y0095315D01*
X0577028Y0096000D01*
X0569638Y0096000D01*
X0567984Y0095315D01*
X0566718Y0094049D01*
X0566033Y0092395D01*
X0566033Y0090605D01*
X0566718Y0088951D01*
X0566969Y0088700D01*
X0562422Y0088700D01*
X0561133Y0087411D01*
X0556133Y0082411D01*
X0556133Y0040589D01*
X0557422Y0039300D01*
X0567422Y0029300D01*
X0572933Y0029300D01*
X0572933Y0029263D01*
X0576097Y0026100D01*
X0580570Y0026100D01*
X0583333Y0028863D01*
X0586097Y0026100D01*
X0590570Y0026100D01*
X0593333Y0028863D01*
X0596097Y0026100D01*
X0600570Y0026100D01*
X0603733Y0029263D01*
X0603733Y0033737D01*
X0600829Y0036641D01*
X0603533Y0039346D01*
X0603533Y0041000D01*
X0598833Y0041000D01*
X0598833Y0042000D01*
X0597833Y0042000D01*
X0597833Y0046700D01*
X0596179Y0046700D01*
X0593475Y0043995D01*
X0590570Y0046900D01*
X0586097Y0046900D01*
X0583333Y0044137D01*
X0580570Y0046900D01*
X0576097Y0046900D01*
X0572933Y0043737D01*
X0572933Y0039263D01*
X0575697Y0036500D01*
X0572933Y0033737D01*
X0572933Y0033700D01*
X0569245Y0033700D01*
X0560533Y0042411D01*
X0560533Y0080589D01*
X0564245Y0084300D01*
X0566969Y0084300D01*
X0566718Y0084049D01*
X0566033Y0082395D01*
X0566033Y0080605D01*
X0566718Y0078951D01*
X0567984Y0077685D01*
X0569638Y0077000D01*
X0577028Y0077000D01*
X0578682Y0077685D01*
X0579948Y0078951D01*
X0580633Y0080605D01*
X0580633Y0082395D01*
X0579948Y0084049D01*
X0579697Y0084300D01*
X0596969Y0084300D01*
X0596718Y0084049D01*
X0596033Y0082395D01*
X0596033Y0080605D01*
X0596718Y0078951D01*
X0597984Y0077685D01*
X0599638Y0077000D01*
X0607028Y0077000D01*
X0608682Y0077685D01*
X0609948Y0078951D01*
X0610633Y0080605D01*
X0610633Y0082395D01*
X0609948Y0084049D01*
X0608682Y0085315D01*
X0607028Y0086000D01*
X0600945Y0086000D01*
X0601945Y0087000D01*
X0607028Y0087000D01*
X0608682Y0087685D01*
X0609948Y0088951D01*
X0610633Y0090605D01*
X0610513Y0090315D02*
X0613256Y0090315D01*
X0613610Y0089317D02*
X0610100Y0089317D01*
X0609316Y0088318D02*
X0614217Y0088318D01*
X0615240Y0087320D02*
X0607801Y0087320D01*
X0608663Y0085323D02*
X0619045Y0085323D01*
X0618877Y0086321D02*
X0620043Y0086321D01*
X0618719Y0086321D02*
X0617947Y0086321D01*
X0617789Y0086321D02*
X0601266Y0086321D01*
X0598333Y0086500D02*
X0603333Y0091500D01*
X0596567Y0089317D02*
X0580100Y0089317D01*
X0580513Y0090315D02*
X0596153Y0090315D01*
X0596033Y0091314D02*
X0580633Y0091314D01*
X0580633Y0092312D02*
X0596033Y0092312D01*
X0596413Y0093311D02*
X0580254Y0093311D01*
X0579688Y0094309D02*
X0596979Y0094309D01*
X0597977Y0095308D02*
X0578689Y0095308D01*
X0577765Y0097305D02*
X0598902Y0097305D01*
X0597366Y0098303D02*
X0579301Y0098303D01*
X0580094Y0099302D02*
X0596573Y0099302D01*
X0596159Y0100301D02*
X0580507Y0100301D01*
X0580633Y0101299D02*
X0596033Y0101299D01*
X0596033Y0102298D02*
X0580633Y0102298D01*
X0580260Y0103296D02*
X0596407Y0103296D01*
X0596964Y0104295D02*
X0579703Y0104295D01*
X0578704Y0105293D02*
X0597962Y0105293D01*
X0598938Y0107290D02*
X0577729Y0107290D01*
X0579286Y0108289D02*
X0597381Y0108289D01*
X0596579Y0109287D02*
X0580087Y0109287D01*
X0580501Y0110286D02*
X0596166Y0110286D01*
X0596033Y0111284D02*
X0580633Y0111284D01*
X0580633Y0112283D02*
X0596033Y0112283D01*
X0596400Y0113281D02*
X0580266Y0113281D01*
X0579718Y0114280D02*
X0596949Y0114280D01*
X0596444Y0115278D02*
X0578719Y0115278D01*
X0576947Y0117275D02*
X0594447Y0117275D01*
X0595445Y0116277D02*
X0535642Y0116277D01*
X0536487Y0117275D02*
X0556162Y0117275D01*
X0555844Y0117437D02*
X0556510Y0117098D01*
X0557221Y0116867D01*
X0557959Y0116750D01*
X0558144Y0116750D01*
X0558144Y0121311D01*
X0553583Y0121311D01*
X0553583Y0121126D01*
X0553700Y0120388D01*
X0553931Y0119677D01*
X0554271Y0119010D01*
X0554710Y0118406D01*
X0555239Y0117877D01*
X0555844Y0117437D01*
X0554842Y0118274D02*
X0537331Y0118274D01*
X0538176Y0119272D02*
X0554137Y0119272D01*
X0553738Y0120271D02*
X0539021Y0120271D01*
X0539866Y0121269D02*
X0553583Y0121269D01*
X0553583Y0121689D02*
X0558144Y0121689D01*
X0558144Y0121311D01*
X0558522Y0121311D01*
X0558522Y0116750D01*
X0558707Y0116750D01*
X0559446Y0116867D01*
X0560157Y0117098D01*
X0560823Y0117437D01*
X0561428Y0117877D01*
X0561956Y0118406D01*
X0562396Y0119010D01*
X0562735Y0119677D01*
X0562966Y0120388D01*
X0563083Y0121126D01*
X0563083Y0121311D01*
X0558522Y0121311D01*
X0558522Y0121689D01*
X0558144Y0121689D01*
X0558144Y0126250D01*
X0557959Y0126250D01*
X0557221Y0126133D01*
X0556510Y0125902D01*
X0555844Y0125563D01*
X0555239Y0125123D01*
X0554710Y0124594D01*
X0554271Y0123990D01*
X0553931Y0123323D01*
X0553700Y0122612D01*
X0553583Y0121874D01*
X0553583Y0121689D01*
X0553646Y0122268D02*
X0540711Y0122268D01*
X0541556Y0123266D02*
X0553913Y0123266D01*
X0554471Y0124265D02*
X0542401Y0124265D01*
X0543246Y0125263D02*
X0555432Y0125263D01*
X0558144Y0125263D02*
X0558522Y0125263D01*
X0558522Y0126250D02*
X0558522Y0121689D01*
X0563083Y0121689D01*
X0563083Y0121874D01*
X0562966Y0122612D01*
X0562735Y0123323D01*
X0562396Y0123990D01*
X0561956Y0124594D01*
X0561428Y0125123D01*
X0560823Y0125563D01*
X0560157Y0125902D01*
X0559446Y0126133D01*
X0558707Y0126250D01*
X0558522Y0126250D01*
X0558522Y0124265D02*
X0558144Y0124265D01*
X0558144Y0123266D02*
X0558522Y0123266D01*
X0558522Y0122268D02*
X0558144Y0122268D01*
X0558144Y0121269D02*
X0558522Y0121269D01*
X0558522Y0120271D02*
X0558144Y0120271D01*
X0558144Y0119272D02*
X0558522Y0119272D01*
X0558522Y0118274D02*
X0558144Y0118274D01*
X0558144Y0117275D02*
X0558522Y0117275D01*
X0560504Y0117275D02*
X0569720Y0117275D01*
X0567678Y0118274D02*
X0561825Y0118274D01*
X0562529Y0119272D02*
X0566842Y0119272D01*
X0566411Y0120271D02*
X0562928Y0120271D01*
X0563083Y0121269D02*
X0573033Y0121269D01*
X0573333Y0121500D02*
X0513333Y0061500D01*
X0498333Y0061500D01*
X0497833Y0061359D02*
X0490433Y0061359D01*
X0490433Y0062357D02*
X0493204Y0062357D01*
X0493469Y0063356D02*
X0490433Y0063356D01*
X0490433Y0064354D02*
X0493979Y0064354D01*
X0494832Y0065353D02*
X0490433Y0065353D01*
X0490433Y0066351D02*
X0496436Y0066351D01*
X0494847Y0067350D02*
X0490433Y0067350D01*
X0490433Y0068348D02*
X0493848Y0068348D01*
X0493380Y0069347D02*
X0490433Y0069347D01*
X0490433Y0070345D02*
X0492967Y0070345D01*
X0492933Y0071344D02*
X0490433Y0071344D01*
X0490433Y0072342D02*
X0492933Y0072342D01*
X0493251Y0073341D02*
X0490433Y0073341D01*
X0490433Y0074339D02*
X0493664Y0074339D01*
X0494534Y0075338D02*
X0490433Y0075338D01*
X0490433Y0076336D02*
X0495898Y0076336D01*
X0494862Y0077335D02*
X0490433Y0077335D01*
X0490433Y0078333D02*
X0493863Y0078333D01*
X0500768Y0076336D02*
X0556133Y0076336D01*
X0556133Y0075338D02*
X0502132Y0075338D01*
X0503002Y0074339D02*
X0556133Y0074339D01*
X0556133Y0073341D02*
X0503416Y0073341D01*
X0503733Y0072342D02*
X0556133Y0072342D01*
X0556133Y0071344D02*
X0503733Y0071344D01*
X0503700Y0070345D02*
X0556133Y0070345D01*
X0556133Y0069347D02*
X0503286Y0069347D01*
X0502818Y0068348D02*
X0556133Y0068348D01*
X0556133Y0067350D02*
X0501820Y0067350D01*
X0500231Y0066351D02*
X0556133Y0066351D01*
X0556133Y0065353D02*
X0501835Y0065353D01*
X0502687Y0064354D02*
X0556133Y0064354D01*
X0556133Y0063356D02*
X0503198Y0063356D01*
X0503462Y0062357D02*
X0556133Y0062357D01*
X0556133Y0061359D02*
X0498833Y0061359D01*
X0498833Y0060360D02*
X0497833Y0060360D01*
X0497833Y0059362D02*
X0498833Y0059362D01*
X0498833Y0058363D02*
X0497833Y0058363D01*
X0497833Y0057365D02*
X0498833Y0057365D01*
X0498833Y0056366D02*
X0497833Y0056366D01*
X0497507Y0056366D02*
X0490433Y0056366D01*
X0490433Y0055368D02*
X0556133Y0055368D01*
X0556133Y0056366D02*
X0499159Y0056366D01*
X0501488Y0057365D02*
X0556133Y0057365D01*
X0556133Y0058363D02*
X0502482Y0058363D01*
X0503080Y0059362D02*
X0556133Y0059362D01*
X0556133Y0060360D02*
X0503418Y0060360D01*
X0494185Y0058363D02*
X0490433Y0058363D01*
X0490433Y0057365D02*
X0495179Y0057365D01*
X0493587Y0059362D02*
X0490433Y0059362D01*
X0490433Y0060360D02*
X0493249Y0060360D01*
X0490433Y0054369D02*
X0556133Y0054369D01*
X0556133Y0053370D02*
X0490433Y0053370D01*
X0490433Y0052372D02*
X0556133Y0052372D01*
X0556133Y0051373D02*
X0490433Y0051373D01*
X0490433Y0050375D02*
X0556133Y0050375D01*
X0556133Y0049376D02*
X0490433Y0049376D01*
X0490433Y0048378D02*
X0556133Y0048378D01*
X0556133Y0047379D02*
X0490433Y0047379D01*
X0490433Y0046381D02*
X0556133Y0046381D01*
X0556133Y0045382D02*
X0490433Y0045382D01*
X0490433Y0044384D02*
X0556133Y0044384D01*
X0556133Y0043385D02*
X0490433Y0043385D01*
X0490433Y0042387D02*
X0556133Y0042387D01*
X0556133Y0041388D02*
X0490433Y0041388D01*
X0490433Y0040390D02*
X0556332Y0040390D01*
X0557331Y0039391D02*
X0490433Y0039391D01*
X0490433Y0038393D02*
X0558329Y0038393D01*
X0559328Y0037394D02*
X0490433Y0037394D01*
X0490433Y0036396D02*
X0560326Y0036396D01*
X0561325Y0035397D02*
X0490433Y0035397D01*
X0490433Y0034399D02*
X0562323Y0034399D01*
X0563322Y0033400D02*
X0490433Y0033400D01*
X0490433Y0032402D02*
X0564320Y0032402D01*
X0565319Y0031403D02*
X0490433Y0031403D01*
X0490433Y0030405D02*
X0566317Y0030405D01*
X0567316Y0029406D02*
X0490433Y0029406D01*
X0490433Y0028408D02*
X0573789Y0028408D01*
X0574787Y0027409D02*
X0490433Y0027409D01*
X0490433Y0026411D02*
X0575786Y0026411D01*
X0580881Y0026411D02*
X0585786Y0026411D01*
X0584787Y0027409D02*
X0581879Y0027409D01*
X0582878Y0028408D02*
X0583789Y0028408D01*
X0578333Y0031500D02*
X0568333Y0031500D01*
X0558333Y0041500D01*
X0558333Y0081500D01*
X0563333Y0086500D01*
X0598333Y0086500D01*
X0596419Y0083326D02*
X0580248Y0083326D01*
X0580633Y0082327D02*
X0596033Y0082327D01*
X0596033Y0081329D02*
X0580633Y0081329D01*
X0580520Y0080330D02*
X0596147Y0080330D01*
X0596561Y0079332D02*
X0580106Y0079332D01*
X0579331Y0078333D02*
X0597336Y0078333D01*
X0598830Y0077335D02*
X0577837Y0077335D01*
X0577028Y0076000D02*
X0569638Y0076000D01*
X0567984Y0075315D01*
X0566718Y0074049D01*
X0566033Y0072395D01*
X0566033Y0070605D01*
X0566718Y0068951D01*
X0567984Y0067685D01*
X0569638Y0067000D01*
X0577028Y0067000D01*
X0578682Y0067685D01*
X0579948Y0068951D01*
X0580633Y0070605D01*
X0580633Y0072395D01*
X0579948Y0074049D01*
X0578682Y0075315D01*
X0577028Y0076000D01*
X0578627Y0075338D02*
X0598039Y0075338D01*
X0597009Y0074339D02*
X0579658Y0074339D01*
X0580242Y0073341D02*
X0596425Y0073341D01*
X0596033Y0072342D02*
X0580633Y0072342D01*
X0580633Y0071344D02*
X0596033Y0071344D01*
X0596141Y0070345D02*
X0580526Y0070345D01*
X0580112Y0069347D02*
X0596554Y0069347D01*
X0597321Y0068348D02*
X0579345Y0068348D01*
X0577873Y0067350D02*
X0598794Y0067350D01*
X0599638Y0066000D02*
X0597984Y0065315D01*
X0596718Y0064049D01*
X0596033Y0062395D01*
X0596033Y0061911D01*
X0594245Y0063700D01*
X0580093Y0063700D01*
X0579948Y0064049D01*
X0578682Y0065315D01*
X0577028Y0066000D01*
X0569638Y0066000D01*
X0567984Y0065315D01*
X0566718Y0064049D01*
X0566033Y0062395D01*
X0566033Y0060605D01*
X0566718Y0058951D01*
X0567984Y0057685D01*
X0569638Y0057000D01*
X0577028Y0057000D01*
X0578682Y0057685D01*
X0579948Y0058951D01*
X0580093Y0059300D01*
X0592422Y0059300D01*
X0621133Y0030589D01*
X0622422Y0029300D01*
X0643400Y0029300D01*
X0643755Y0028441D01*
X0645274Y0026922D01*
X0647259Y0026100D01*
X0649407Y0026100D01*
X0651392Y0026922D01*
X0652911Y0028441D01*
X0653333Y0029460D01*
X0653755Y0028441D01*
X0655274Y0026922D01*
X0656133Y0026566D01*
X0656133Y0016434D01*
X0655274Y0016078D01*
X0653755Y0014559D01*
X0652933Y0012574D01*
X0652933Y0010426D01*
X0653755Y0008441D01*
X0655274Y0006922D01*
X0657259Y0006100D01*
X0659407Y0006100D01*
X0661392Y0006922D01*
X0662911Y0008441D01*
X0663733Y0010426D01*
X0663733Y0012574D01*
X0662911Y0014559D01*
X0661392Y0016078D01*
X0660533Y0016434D01*
X0660533Y0026566D01*
X0661392Y0026922D01*
X0662911Y0028441D01*
X0663733Y0030426D01*
X0663733Y0032574D01*
X0662911Y0034559D01*
X0661392Y0036078D01*
X0659407Y0036900D01*
X0657259Y0036900D01*
X0655274Y0036078D01*
X0653755Y0034559D01*
X0653333Y0033540D01*
X0652911Y0034559D01*
X0651392Y0036078D01*
X0649407Y0036900D01*
X0647259Y0036900D01*
X0645274Y0036078D01*
X0643755Y0034559D01*
X0643400Y0033700D01*
X0624245Y0033700D01*
X0600945Y0057000D01*
X0607028Y0057000D01*
X0608682Y0057685D01*
X0609948Y0058951D01*
X0610633Y0060605D01*
X0610633Y0061057D01*
X0643419Y0069254D01*
X0643755Y0068441D01*
X0645274Y0066922D01*
X0647259Y0066100D01*
X0649407Y0066100D01*
X0651392Y0066922D01*
X0652911Y0068441D01*
X0653333Y0069460D01*
X0653755Y0068441D01*
X0655274Y0066922D01*
X0656133Y0066566D01*
X0656133Y0056434D01*
X0655274Y0056078D01*
X0653755Y0054559D01*
X0652933Y0052574D01*
X0652933Y0050426D01*
X0653755Y0048441D01*
X0655274Y0046922D01*
X0657259Y0046100D01*
X0659407Y0046100D01*
X0661392Y0046922D01*
X0662911Y0048441D01*
X0663733Y0050426D01*
X0663733Y0052574D01*
X0662911Y0054559D01*
X0661392Y0056078D01*
X0660533Y0056434D01*
X0660533Y0066566D01*
X0661392Y0066922D01*
X0662911Y0068441D01*
X0663733Y0070426D01*
X0663733Y0072574D01*
X0662911Y0074559D01*
X0661392Y0076078D01*
X0659407Y0076900D01*
X0657259Y0076900D01*
X0655274Y0076078D01*
X0653755Y0074559D01*
X0653333Y0073540D01*
X0652911Y0074559D01*
X0651392Y0076078D01*
X0649407Y0076900D01*
X0647259Y0076900D01*
X0645274Y0076078D01*
X0643755Y0074559D01*
X0643439Y0073794D01*
X0643062Y0073700D01*
X0642422Y0073700D01*
X0642209Y0073487D01*
X0608850Y0065147D01*
X0608682Y0065315D01*
X0607028Y0066000D01*
X0599638Y0066000D01*
X0598075Y0065353D02*
X0578591Y0065353D01*
X0579643Y0064354D02*
X0597023Y0064354D01*
X0596431Y0063356D02*
X0594589Y0063356D01*
X0595588Y0062357D02*
X0596033Y0062357D01*
X0593333Y0061500D02*
X0623333Y0031500D01*
X0648333Y0031500D01*
X0653311Y0029406D02*
X0653356Y0029406D01*
X0653789Y0028408D02*
X0652878Y0028408D01*
X0651879Y0027409D02*
X0654787Y0027409D01*
X0656133Y0026411D02*
X0650157Y0026411D01*
X0646509Y0026411D02*
X0600881Y0026411D01*
X0601879Y0027409D02*
X0644787Y0027409D01*
X0643789Y0028408D02*
X0602878Y0028408D01*
X0603733Y0029406D02*
X0622316Y0029406D01*
X0621317Y0030405D02*
X0603733Y0030405D01*
X0603733Y0031403D02*
X0620319Y0031403D01*
X0619320Y0032402D02*
X0603733Y0032402D01*
X0603733Y0033400D02*
X0618322Y0033400D01*
X0617323Y0034399D02*
X0603071Y0034399D01*
X0602073Y0035397D02*
X0616325Y0035397D01*
X0615326Y0036396D02*
X0601074Y0036396D01*
X0601582Y0037394D02*
X0614328Y0037394D01*
X0613329Y0038393D02*
X0602580Y0038393D01*
X0603533Y0039391D02*
X0612331Y0039391D01*
X0611332Y0040390D02*
X0603533Y0040390D01*
X0603533Y0042000D02*
X0598833Y0042000D01*
X0598833Y0046700D01*
X0600487Y0046700D01*
X0603533Y0043654D01*
X0603533Y0042000D01*
X0603533Y0042387D02*
X0609335Y0042387D01*
X0608337Y0043385D02*
X0603533Y0043385D01*
X0602803Y0044384D02*
X0607338Y0044384D01*
X0606340Y0045382D02*
X0601805Y0045382D01*
X0600806Y0046381D02*
X0605341Y0046381D01*
X0604343Y0047379D02*
X0560533Y0047379D01*
X0560533Y0046381D02*
X0575577Y0046381D01*
X0574579Y0045382D02*
X0560533Y0045382D01*
X0560533Y0044384D02*
X0573580Y0044384D01*
X0572933Y0043385D02*
X0560533Y0043385D01*
X0560558Y0042387D02*
X0572933Y0042387D01*
X0572933Y0041388D02*
X0561556Y0041388D01*
X0562555Y0040390D02*
X0572933Y0040390D01*
X0572933Y0039391D02*
X0563553Y0039391D01*
X0564552Y0038393D02*
X0573804Y0038393D01*
X0574802Y0037394D02*
X0565550Y0037394D01*
X0566549Y0036396D02*
X0575592Y0036396D01*
X0574594Y0035397D02*
X0567547Y0035397D01*
X0568546Y0034399D02*
X0573595Y0034399D01*
X0592878Y0028408D02*
X0593789Y0028408D01*
X0594787Y0027409D02*
X0591879Y0027409D01*
X0590881Y0026411D02*
X0595786Y0026411D01*
X0622547Y0035397D02*
X0644594Y0035397D01*
X0643689Y0034399D02*
X0623546Y0034399D01*
X0621549Y0036396D02*
X0646042Y0036396D01*
X0650625Y0036396D02*
X0656042Y0036396D01*
X0654594Y0035397D02*
X0652073Y0035397D01*
X0652978Y0034399D02*
X0653689Y0034399D01*
X0660625Y0036396D02*
X0711233Y0036396D01*
X0711233Y0037394D02*
X0620550Y0037394D01*
X0619552Y0038393D02*
X0711233Y0038393D01*
X0711233Y0039391D02*
X0618553Y0039391D01*
X0617555Y0040390D02*
X0711233Y0040390D01*
X0711233Y0041388D02*
X0616556Y0041388D01*
X0615558Y0042387D02*
X0711233Y0042387D01*
X0711233Y0043385D02*
X0614559Y0043385D01*
X0613561Y0044384D02*
X0711233Y0044384D01*
X0711233Y0045382D02*
X0612562Y0045382D01*
X0611564Y0046381D02*
X0617413Y0046381D01*
X0617116Y0046428D02*
X0617924Y0046300D01*
X0617947Y0046300D01*
X0617947Y0051114D01*
X0613133Y0051114D01*
X0613133Y0051091D01*
X0613261Y0050282D01*
X0613514Y0049504D01*
X0613886Y0048775D01*
X0614367Y0048112D01*
X0614946Y0047534D01*
X0615608Y0047053D01*
X0616337Y0046681D01*
X0617116Y0046428D01*
X0617947Y0046381D02*
X0618719Y0046381D01*
X0618719Y0046300D02*
X0618743Y0046300D01*
X0619551Y0046428D01*
X0620329Y0046681D01*
X0621059Y0047053D01*
X0621721Y0047534D01*
X0622300Y0048112D01*
X0622781Y0048775D01*
X0623152Y0049504D01*
X0623405Y0050282D01*
X0623533Y0051091D01*
X0623533Y0051114D01*
X0618719Y0051114D01*
X0618719Y0046300D01*
X0619253Y0046381D02*
X0656581Y0046381D01*
X0654817Y0047379D02*
X0621509Y0047379D01*
X0622493Y0048378D02*
X0653819Y0048378D01*
X0653368Y0049376D02*
X0623087Y0049376D01*
X0623420Y0050375D02*
X0652954Y0050375D01*
X0652933Y0051373D02*
X0618719Y0051373D01*
X0618719Y0051114D02*
X0618719Y0051886D01*
X0617947Y0051886D01*
X0617947Y0051114D01*
X0618719Y0051114D01*
X0618719Y0050375D02*
X0617947Y0050375D01*
X0617947Y0051373D02*
X0606571Y0051373D01*
X0607570Y0050375D02*
X0613247Y0050375D01*
X0613579Y0049376D02*
X0608568Y0049376D01*
X0609567Y0048378D02*
X0614174Y0048378D01*
X0615158Y0047379D02*
X0610565Y0047379D01*
X0603344Y0048378D02*
X0560533Y0048378D01*
X0560533Y0049376D02*
X0602346Y0049376D01*
X0601347Y0050375D02*
X0560533Y0050375D01*
X0560533Y0051373D02*
X0600349Y0051373D01*
X0599350Y0052372D02*
X0560533Y0052372D01*
X0560533Y0053370D02*
X0598352Y0053370D01*
X0597353Y0054369D02*
X0560533Y0054369D01*
X0560533Y0055368D02*
X0596355Y0055368D01*
X0595356Y0056366D02*
X0560533Y0056366D01*
X0560533Y0057365D02*
X0568758Y0057365D01*
X0567306Y0058363D02*
X0560533Y0058363D01*
X0560533Y0059362D02*
X0566548Y0059362D01*
X0566135Y0060360D02*
X0560533Y0060360D01*
X0560533Y0061359D02*
X0566033Y0061359D01*
X0566033Y0062357D02*
X0560533Y0062357D01*
X0560533Y0063356D02*
X0566431Y0063356D01*
X0567023Y0064354D02*
X0560533Y0064354D01*
X0560533Y0065353D02*
X0568075Y0065353D01*
X0568794Y0067350D02*
X0560533Y0067350D01*
X0560533Y0068348D02*
X0567321Y0068348D01*
X0566554Y0069347D02*
X0560533Y0069347D01*
X0560533Y0070345D02*
X0566141Y0070345D01*
X0566033Y0071344D02*
X0560533Y0071344D01*
X0560533Y0072342D02*
X0566033Y0072342D01*
X0566425Y0073341D02*
X0560533Y0073341D01*
X0560533Y0074339D02*
X0567009Y0074339D01*
X0568039Y0075338D02*
X0560533Y0075338D01*
X0560533Y0076336D02*
X0610058Y0076336D01*
X0609060Y0075338D02*
X0608627Y0075338D01*
X0607837Y0077335D02*
X0611057Y0077335D01*
X0612055Y0078333D02*
X0609331Y0078333D01*
X0610106Y0079332D02*
X0613054Y0079332D01*
X0614052Y0080330D02*
X0610520Y0080330D01*
X0610633Y0081329D02*
X0615051Y0081329D01*
X0616049Y0082327D02*
X0610633Y0082327D01*
X0610248Y0083326D02*
X0617048Y0083326D01*
X0618046Y0084324D02*
X0609673Y0084324D01*
X0617947Y0087320D02*
X0618719Y0087320D01*
X0618719Y0088318D02*
X0617947Y0088318D01*
X0617947Y0089317D02*
X0618719Y0089317D01*
X0618719Y0090315D02*
X0617947Y0090315D01*
X0618719Y0091314D02*
X0625036Y0091314D01*
X0626034Y0092312D02*
X0623469Y0092312D01*
X0623213Y0093311D02*
X0627033Y0093311D01*
X0628032Y0094309D02*
X0622720Y0094309D01*
X0621879Y0095308D02*
X0629030Y0095308D01*
X0632257Y0092312D02*
X0652933Y0092312D01*
X0652933Y0091314D02*
X0631259Y0091314D01*
X0630260Y0090315D02*
X0652979Y0090315D01*
X0653393Y0089317D02*
X0629261Y0089317D01*
X0628263Y0088318D02*
X0653878Y0088318D01*
X0654877Y0087320D02*
X0627264Y0087320D01*
X0626266Y0086321D02*
X0656725Y0086321D01*
X0659942Y0086321D02*
X0711233Y0086321D01*
X0711233Y0085323D02*
X0625267Y0085323D01*
X0624269Y0084324D02*
X0711233Y0084324D01*
X0711233Y0083326D02*
X0623270Y0083326D01*
X0622272Y0082327D02*
X0711233Y0082327D01*
X0711233Y0081329D02*
X0621273Y0081329D01*
X0620275Y0080330D02*
X0711233Y0080330D01*
X0711233Y0079332D02*
X0619276Y0079332D01*
X0618278Y0078333D02*
X0711233Y0078333D01*
X0711233Y0077335D02*
X0617279Y0077335D01*
X0616281Y0076336D02*
X0645898Y0076336D01*
X0644534Y0075338D02*
X0615282Y0075338D01*
X0614284Y0074339D02*
X0643664Y0074339D01*
X0641625Y0073341D02*
X0613285Y0073341D01*
X0612287Y0072342D02*
X0637631Y0072342D01*
X0633637Y0071344D02*
X0611288Y0071344D01*
X0610526Y0070345D02*
X0629643Y0070345D01*
X0625649Y0069347D02*
X0610112Y0069347D01*
X0609345Y0068348D02*
X0621655Y0068348D01*
X0617661Y0067350D02*
X0607873Y0067350D01*
X0608591Y0065353D02*
X0609673Y0065353D01*
X0613667Y0066351D02*
X0560533Y0066351D01*
X0573333Y0061500D02*
X0593333Y0061500D01*
X0593359Y0058363D02*
X0579360Y0058363D01*
X0577908Y0057365D02*
X0594358Y0057365D01*
X0601579Y0056366D02*
X0616482Y0056366D01*
X0616337Y0056319D02*
X0615608Y0055947D01*
X0614946Y0055466D01*
X0614367Y0054888D01*
X0613886Y0054225D01*
X0613514Y0053496D01*
X0613261Y0052718D01*
X0613133Y0051909D01*
X0613133Y0051886D01*
X0617947Y0051886D01*
X0617947Y0056700D01*
X0617924Y0056700D01*
X0617116Y0056572D01*
X0616337Y0056319D01*
X0617947Y0056366D02*
X0618719Y0056366D01*
X0618743Y0056700D02*
X0618719Y0056700D01*
X0618719Y0051886D01*
X0623533Y0051886D01*
X0623533Y0051909D01*
X0623405Y0052718D01*
X0623152Y0053496D01*
X0622781Y0054225D01*
X0622300Y0054888D01*
X0621721Y0055466D01*
X0621059Y0055947D01*
X0620329Y0056319D01*
X0619551Y0056572D01*
X0618743Y0056700D01*
X0618719Y0055368D02*
X0617947Y0055368D01*
X0617947Y0054369D02*
X0618719Y0054369D01*
X0618719Y0053370D02*
X0617947Y0053370D01*
X0617947Y0052372D02*
X0618719Y0052372D01*
X0618719Y0049376D02*
X0617947Y0049376D01*
X0617947Y0048378D02*
X0618719Y0048378D01*
X0618719Y0047379D02*
X0617947Y0047379D01*
X0613207Y0052372D02*
X0605573Y0052372D01*
X0604574Y0053370D02*
X0613473Y0053370D01*
X0613990Y0054369D02*
X0603576Y0054369D01*
X0602577Y0055368D02*
X0614847Y0055368D01*
X0620185Y0056366D02*
X0655970Y0056366D01*
X0656133Y0057365D02*
X0607908Y0057365D01*
X0609360Y0058363D02*
X0656133Y0058363D01*
X0656133Y0059362D02*
X0610118Y0059362D01*
X0610532Y0060360D02*
X0656133Y0060360D01*
X0656133Y0061359D02*
X0611838Y0061359D01*
X0615832Y0062357D02*
X0656133Y0062357D01*
X0656133Y0063356D02*
X0619827Y0063356D01*
X0623821Y0064354D02*
X0656133Y0064354D01*
X0656133Y0065353D02*
X0627815Y0065353D01*
X0631809Y0066351D02*
X0646653Y0066351D01*
X0644847Y0067350D02*
X0635803Y0067350D01*
X0639797Y0068348D02*
X0643848Y0068348D01*
X0643333Y0071500D02*
X0603333Y0061500D01*
X0621820Y0055368D02*
X0654564Y0055368D01*
X0653677Y0054369D02*
X0622676Y0054369D01*
X0623193Y0053370D02*
X0653263Y0053370D01*
X0652933Y0052372D02*
X0623460Y0052372D01*
X0598833Y0046381D02*
X0597833Y0046381D01*
X0597833Y0045382D02*
X0598833Y0045382D01*
X0598833Y0044384D02*
X0597833Y0044384D01*
X0597833Y0043385D02*
X0598833Y0043385D01*
X0598833Y0042387D02*
X0597833Y0042387D01*
X0598833Y0041388D02*
X0610334Y0041388D01*
X0595860Y0046381D02*
X0591089Y0046381D01*
X0592088Y0045382D02*
X0594862Y0045382D01*
X0593863Y0044384D02*
X0593086Y0044384D01*
X0585577Y0046381D02*
X0581089Y0046381D01*
X0582088Y0045382D02*
X0584579Y0045382D01*
X0583580Y0044384D02*
X0583086Y0044384D01*
X0656133Y0025412D02*
X0490433Y0025412D01*
X0490433Y0024414D02*
X0656133Y0024414D01*
X0656133Y0023415D02*
X0490433Y0023415D01*
X0490433Y0022417D02*
X0656133Y0022417D01*
X0656133Y0021418D02*
X0490433Y0021418D01*
X0490433Y0020420D02*
X0656133Y0020420D01*
X0656133Y0019421D02*
X0490433Y0019421D01*
X0490433Y0018423D02*
X0656133Y0018423D01*
X0656133Y0017424D02*
X0490433Y0017424D01*
X0490433Y0016426D02*
X0616665Y0016426D01*
X0616337Y0016319D02*
X0615608Y0015947D01*
X0614946Y0015466D01*
X0614367Y0014888D01*
X0613886Y0014225D01*
X0613514Y0013496D01*
X0613261Y0012718D01*
X0613133Y0011909D01*
X0613133Y0011886D01*
X0617947Y0011886D01*
X0617947Y0011114D01*
X0613133Y0011114D01*
X0613133Y0011091D01*
X0613261Y0010282D01*
X0613514Y0009504D01*
X0613886Y0008775D01*
X0614367Y0008112D01*
X0614946Y0007534D01*
X0615608Y0007053D01*
X0616337Y0006681D01*
X0617116Y0006428D01*
X0617924Y0006300D01*
X0617947Y0006300D01*
X0617947Y0011114D01*
X0618719Y0011114D01*
X0618719Y0006300D01*
X0618743Y0006300D01*
X0619551Y0006428D01*
X0620329Y0006681D01*
X0621059Y0007053D01*
X0621721Y0007534D01*
X0622300Y0008112D01*
X0622781Y0008775D01*
X0623152Y0009504D01*
X0623405Y0010282D01*
X0623533Y0011091D01*
X0623533Y0011114D01*
X0618719Y0011114D01*
X0618719Y0011886D01*
X0617947Y0011886D01*
X0617947Y0016700D01*
X0617924Y0016700D01*
X0617116Y0016572D01*
X0616337Y0016319D01*
X0617947Y0016426D02*
X0618719Y0016426D01*
X0618719Y0016700D02*
X0618743Y0016700D01*
X0619551Y0016572D01*
X0620329Y0016319D01*
X0621059Y0015947D01*
X0621721Y0015466D01*
X0622300Y0014888D01*
X0622781Y0014225D01*
X0623152Y0013496D01*
X0623405Y0012718D01*
X0623533Y0011909D01*
X0623533Y0011886D01*
X0618719Y0011886D01*
X0618719Y0016700D01*
X0618719Y0015427D02*
X0617947Y0015427D01*
X0617947Y0014429D02*
X0618719Y0014429D01*
X0618719Y0013430D02*
X0617947Y0013430D01*
X0617947Y0012432D02*
X0618719Y0012432D01*
X0618719Y0011433D02*
X0652933Y0011433D01*
X0652933Y0010434D02*
X0623429Y0010434D01*
X0623118Y0009436D02*
X0653343Y0009436D01*
X0653759Y0008437D02*
X0622536Y0008437D01*
X0621591Y0007439D02*
X0654758Y0007439D01*
X0656437Y0006440D02*
X0619589Y0006440D01*
X0618719Y0006440D02*
X0617947Y0006440D01*
X0617077Y0006440D02*
X0490433Y0006440D01*
X0490433Y0005442D02*
X0711233Y0005442D01*
X0711233Y0006440D02*
X0660229Y0006440D01*
X0661909Y0007439D02*
X0711233Y0007439D01*
X0711233Y0008437D02*
X0662908Y0008437D01*
X0663323Y0009436D02*
X0711233Y0009436D01*
X0711233Y0010434D02*
X0663733Y0010434D01*
X0663733Y0011433D02*
X0711233Y0011433D01*
X0711233Y0012432D02*
X0663733Y0012432D01*
X0663379Y0013430D02*
X0711233Y0013430D01*
X0711233Y0014429D02*
X0662965Y0014429D01*
X0662043Y0015427D02*
X0711233Y0015427D01*
X0711233Y0016426D02*
X0660553Y0016426D01*
X0660533Y0017424D02*
X0711233Y0017424D01*
X0711233Y0018423D02*
X0660533Y0018423D01*
X0660533Y0019421D02*
X0711233Y0019421D01*
X0711233Y0020420D02*
X0660533Y0020420D01*
X0660533Y0021418D02*
X0711233Y0021418D01*
X0711233Y0022417D02*
X0660533Y0022417D01*
X0660533Y0023415D02*
X0711233Y0023415D01*
X0711233Y0024414D02*
X0660533Y0024414D01*
X0660533Y0025412D02*
X0711233Y0025412D01*
X0711233Y0026411D02*
X0660533Y0026411D01*
X0661879Y0027409D02*
X0711233Y0027409D01*
X0711233Y0028408D02*
X0662878Y0028408D01*
X0663311Y0029406D02*
X0711233Y0029406D01*
X0711233Y0030405D02*
X0663725Y0030405D01*
X0663733Y0031403D02*
X0711233Y0031403D01*
X0711233Y0032402D02*
X0663733Y0032402D01*
X0663391Y0033400D02*
X0711233Y0033400D01*
X0711233Y0034399D02*
X0662978Y0034399D01*
X0662073Y0035397D02*
X0711233Y0035397D01*
X0711233Y0046381D02*
X0660086Y0046381D01*
X0661849Y0047379D02*
X0711233Y0047379D01*
X0711233Y0048378D02*
X0662848Y0048378D01*
X0663299Y0049376D02*
X0711233Y0049376D01*
X0711233Y0050375D02*
X0663712Y0050375D01*
X0663733Y0051373D02*
X0711233Y0051373D01*
X0711233Y0052372D02*
X0663733Y0052372D01*
X0663403Y0053370D02*
X0711233Y0053370D01*
X0711233Y0054369D02*
X0662990Y0054369D01*
X0662103Y0055368D02*
X0711233Y0055368D01*
X0711233Y0056366D02*
X0660697Y0056366D01*
X0660533Y0057365D02*
X0711233Y0057365D01*
X0711233Y0058363D02*
X0660533Y0058363D01*
X0660533Y0059362D02*
X0711233Y0059362D01*
X0711233Y0060360D02*
X0660533Y0060360D01*
X0660533Y0061359D02*
X0711233Y0061359D01*
X0711233Y0062357D02*
X0660533Y0062357D01*
X0660533Y0063356D02*
X0711233Y0063356D01*
X0711233Y0064354D02*
X0660533Y0064354D01*
X0660533Y0065353D02*
X0711233Y0065353D01*
X0711233Y0066351D02*
X0660533Y0066351D01*
X0661820Y0067350D02*
X0711233Y0067350D01*
X0711233Y0068348D02*
X0662818Y0068348D01*
X0663286Y0069347D02*
X0711233Y0069347D01*
X0711233Y0070345D02*
X0663700Y0070345D01*
X0663733Y0071344D02*
X0711233Y0071344D01*
X0711233Y0072342D02*
X0663733Y0072342D01*
X0663416Y0073341D02*
X0711233Y0073341D01*
X0711233Y0074339D02*
X0663002Y0074339D01*
X0662132Y0075338D02*
X0711233Y0075338D01*
X0711233Y0076336D02*
X0660768Y0076336D01*
X0655898Y0076336D02*
X0650768Y0076336D01*
X0652132Y0075338D02*
X0654534Y0075338D01*
X0653664Y0074339D02*
X0653002Y0074339D01*
X0648333Y0071500D02*
X0643333Y0071500D01*
X0650014Y0066351D02*
X0656133Y0066351D01*
X0654847Y0067350D02*
X0651820Y0067350D01*
X0652818Y0068348D02*
X0653848Y0068348D01*
X0653380Y0069347D02*
X0653286Y0069347D01*
X0658333Y0071500D02*
X0658333Y0051500D01*
X0608333Y0071500D02*
X0603333Y0071500D01*
X0608333Y0071500D02*
X0648333Y0111500D01*
X0653262Y0109287D02*
X0653405Y0109287D01*
X0653908Y0108289D02*
X0652759Y0108289D01*
X0651760Y0107290D02*
X0654906Y0107290D01*
X0656133Y0106292D02*
X0649870Y0106292D01*
X0646797Y0106292D02*
X0646236Y0106292D01*
X0645238Y0105293D02*
X0656133Y0105293D01*
X0656133Y0104295D02*
X0644239Y0104295D01*
X0643241Y0103296D02*
X0656133Y0103296D01*
X0656133Y0102298D02*
X0642242Y0102298D01*
X0641244Y0101299D02*
X0656133Y0101299D01*
X0656133Y0100301D02*
X0640245Y0100301D01*
X0639247Y0099302D02*
X0656133Y0099302D01*
X0656133Y0098303D02*
X0638248Y0098303D01*
X0637250Y0097305D02*
X0656133Y0097305D01*
X0655826Y0096306D02*
X0636251Y0096306D01*
X0635253Y0095308D02*
X0654505Y0095308D01*
X0653652Y0094309D02*
X0634254Y0094309D01*
X0633256Y0093311D02*
X0653239Y0093311D01*
X0658333Y0091500D02*
X0658333Y0111500D01*
X0663262Y0109287D02*
X0711233Y0109287D01*
X0711233Y0108289D02*
X0662759Y0108289D01*
X0661760Y0107290D02*
X0711233Y0107290D01*
X0711233Y0106292D02*
X0660533Y0106292D01*
X0660533Y0105293D02*
X0711233Y0105293D01*
X0711233Y0104295D02*
X0660533Y0104295D01*
X0660533Y0103296D02*
X0711233Y0103296D01*
X0711233Y0102298D02*
X0660533Y0102298D01*
X0660533Y0101299D02*
X0711233Y0101299D01*
X0711233Y0100301D02*
X0660533Y0100301D01*
X0660533Y0099302D02*
X0711233Y0099302D01*
X0711233Y0098303D02*
X0660533Y0098303D01*
X0660533Y0097305D02*
X0711233Y0097305D01*
X0711233Y0096306D02*
X0660840Y0096306D01*
X0662162Y0095308D02*
X0711233Y0095308D01*
X0711233Y0094309D02*
X0663015Y0094309D01*
X0663428Y0093311D02*
X0711233Y0093311D01*
X0711233Y0092312D02*
X0663733Y0092312D01*
X0663733Y0091314D02*
X0711233Y0091314D01*
X0711233Y0090315D02*
X0663688Y0090315D01*
X0663274Y0089317D02*
X0711233Y0089317D01*
X0711233Y0088318D02*
X0662788Y0088318D01*
X0661790Y0087320D02*
X0711233Y0087320D01*
X0642011Y0108289D02*
X0609286Y0108289D01*
X0610087Y0109287D02*
X0643009Y0109287D01*
X0642991Y0110286D02*
X0625230Y0110286D01*
X0626229Y0111284D02*
X0642933Y0111284D01*
X0642933Y0112283D02*
X0627227Y0112283D01*
X0628226Y0113281D02*
X0643226Y0113281D01*
X0643640Y0114280D02*
X0629224Y0114280D01*
X0630223Y0115278D02*
X0644475Y0115278D01*
X0645754Y0116277D02*
X0631221Y0116277D01*
X0632220Y0117275D02*
X0711233Y0117275D01*
X0711233Y0116277D02*
X0660912Y0116277D01*
X0662192Y0115278D02*
X0711233Y0115278D01*
X0711233Y0114280D02*
X0663027Y0114280D01*
X0663440Y0113281D02*
X0711233Y0113281D01*
X0711233Y0112283D02*
X0663733Y0112283D01*
X0663733Y0111284D02*
X0711233Y0111284D01*
X0711233Y0110286D02*
X0663675Y0110286D01*
X0653640Y0114280D02*
X0653027Y0114280D01*
X0652192Y0115278D02*
X0654475Y0115278D01*
X0655754Y0116277D02*
X0650912Y0116277D01*
X0636214Y0121269D02*
X0711233Y0121269D01*
X0711233Y0120271D02*
X0635215Y0120271D01*
X0634217Y0119272D02*
X0711233Y0119272D01*
X0711233Y0118274D02*
X0633218Y0118274D01*
X0629991Y0121269D02*
X0610633Y0121269D01*
X0610633Y0122268D02*
X0630990Y0122268D01*
X0631988Y0123266D02*
X0610272Y0123266D01*
X0609732Y0124265D02*
X0632987Y0124265D01*
X0633985Y0125263D02*
X0608734Y0125263D01*
X0610495Y0120271D02*
X0628993Y0120271D01*
X0627994Y0119272D02*
X0610081Y0119272D01*
X0609271Y0118274D02*
X0626996Y0118274D01*
X0625997Y0117275D02*
X0607693Y0117275D01*
X0608719Y0115278D02*
X0624000Y0115278D01*
X0623002Y0114280D02*
X0609718Y0114280D01*
X0603333Y0111500D02*
X0623333Y0111500D01*
X0643333Y0131500D01*
X0658333Y0131500D01*
X0653417Y0129257D02*
X0644202Y0129257D01*
X0643203Y0128259D02*
X0653938Y0128259D01*
X0654936Y0127260D02*
X0642205Y0127260D01*
X0641206Y0126262D02*
X0656869Y0126262D01*
X0659798Y0126262D02*
X0711233Y0126262D01*
X0711233Y0127260D02*
X0661730Y0127260D01*
X0662729Y0128259D02*
X0711233Y0128259D01*
X0711233Y0129257D02*
X0663249Y0129257D01*
X0663663Y0130256D02*
X0711233Y0130256D01*
X0711233Y0131254D02*
X0663733Y0131254D01*
X0663733Y0132253D02*
X0711233Y0132253D01*
X0711233Y0133251D02*
X0663453Y0133251D01*
X0663039Y0134250D02*
X0711233Y0134250D01*
X0711233Y0135248D02*
X0662222Y0135248D01*
X0660984Y0136247D02*
X0711233Y0136247D01*
X0711233Y0137245D02*
X0661716Y0137245D01*
X0662714Y0138244D02*
X0711233Y0138244D01*
X0711233Y0139242D02*
X0663243Y0139242D01*
X0663657Y0140241D02*
X0711233Y0140241D01*
X0711233Y0141239D02*
X0663733Y0141239D01*
X0663733Y0142238D02*
X0711233Y0142238D01*
X0711233Y0143237D02*
X0663459Y0143237D01*
X0663045Y0144235D02*
X0711233Y0144235D01*
X0711233Y0145234D02*
X0662237Y0145234D01*
X0661020Y0146232D02*
X0711233Y0146232D01*
X0711233Y0147231D02*
X0661701Y0147231D01*
X0662699Y0148229D02*
X0711233Y0148229D01*
X0711233Y0149228D02*
X0663237Y0149228D01*
X0663651Y0150226D02*
X0711233Y0150226D01*
X0711233Y0151225D02*
X0663733Y0151225D01*
X0663733Y0152223D02*
X0711233Y0152223D01*
X0711233Y0153222D02*
X0663465Y0153222D01*
X0663052Y0154220D02*
X0711233Y0154220D01*
X0655611Y0156217D02*
X0561162Y0156217D01*
X0562160Y0157216D02*
X0569118Y0157216D01*
X0567455Y0158214D02*
X0563159Y0158214D01*
X0564157Y0159213D02*
X0566610Y0159213D01*
X0566196Y0160211D02*
X0565156Y0160211D01*
X0551354Y0164205D02*
X0539150Y0164205D01*
X0538151Y0163207D02*
X0550272Y0163207D01*
X0549190Y0162208D02*
X0537153Y0162208D01*
X0536154Y0161210D02*
X0548109Y0161210D01*
X0547027Y0160211D02*
X0535156Y0160211D01*
X0534157Y0159213D02*
X0545945Y0159213D01*
X0544864Y0158214D02*
X0533159Y0158214D01*
X0532160Y0157216D02*
X0543782Y0157216D01*
X0542700Y0156217D02*
X0531162Y0156217D01*
X0530163Y0155219D02*
X0541618Y0155219D01*
X0540537Y0154220D02*
X0529165Y0154220D01*
X0528166Y0153222D02*
X0539455Y0153222D01*
X0538373Y0152223D02*
X0527168Y0152223D01*
X0526169Y0151225D02*
X0537291Y0151225D01*
X0536210Y0150226D02*
X0525171Y0150226D01*
X0524172Y0149228D02*
X0535128Y0149228D01*
X0534046Y0148229D02*
X0523174Y0148229D01*
X0522175Y0147231D02*
X0532965Y0147231D01*
X0531883Y0146232D02*
X0521177Y0146232D01*
X0520178Y0145234D02*
X0530801Y0145234D01*
X0529719Y0144235D02*
X0519180Y0144235D01*
X0518181Y0143237D02*
X0528638Y0143237D01*
X0527556Y0142238D02*
X0517183Y0142238D01*
X0516184Y0141239D02*
X0526474Y0141239D01*
X0525393Y0140241D02*
X0515186Y0140241D01*
X0514187Y0139242D02*
X0524311Y0139242D01*
X0523229Y0138244D02*
X0513189Y0138244D01*
X0513283Y0137245D02*
X0522147Y0137245D01*
X0521066Y0136247D02*
X0513283Y0136247D01*
X0513173Y0135248D02*
X0519984Y0135248D01*
X0518902Y0134250D02*
X0512759Y0134250D01*
X0512085Y0133251D02*
X0517821Y0133251D01*
X0516739Y0132253D02*
X0511015Y0132253D01*
X0498333Y0136500D02*
X0498333Y0111500D01*
X0523813Y0102298D02*
X0566033Y0102298D01*
X0566033Y0101299D02*
X0522968Y0101299D01*
X0522123Y0100301D02*
X0566159Y0100301D01*
X0566573Y0099302D02*
X0521278Y0099302D01*
X0520434Y0098303D02*
X0567366Y0098303D01*
X0568902Y0097305D02*
X0519589Y0097305D01*
X0518744Y0096306D02*
X0616313Y0096306D01*
X0614787Y0095308D02*
X0608689Y0095308D01*
X0609688Y0094309D02*
X0613947Y0094309D01*
X0613454Y0093311D02*
X0610254Y0093311D01*
X0610633Y0092312D02*
X0613197Y0092312D01*
X0623411Y0090315D02*
X0624037Y0090315D01*
X0567977Y0095308D02*
X0517899Y0095308D01*
X0517054Y0094309D02*
X0566979Y0094309D01*
X0566413Y0093311D02*
X0516209Y0093311D01*
X0515364Y0092312D02*
X0566033Y0092312D01*
X0566033Y0091314D02*
X0514519Y0091314D01*
X0513674Y0090315D02*
X0566153Y0090315D01*
X0566567Y0089317D02*
X0512830Y0089317D01*
X0511985Y0088318D02*
X0562040Y0088318D01*
X0561042Y0087320D02*
X0511140Y0087320D01*
X0510295Y0086321D02*
X0560043Y0086321D01*
X0559045Y0085323D02*
X0509450Y0085323D01*
X0508605Y0084324D02*
X0558046Y0084324D01*
X0557048Y0083326D02*
X0507760Y0083326D01*
X0506915Y0082327D02*
X0556133Y0082327D01*
X0556133Y0081329D02*
X0506070Y0081329D01*
X0505275Y0080330D02*
X0556133Y0080330D01*
X0556133Y0079332D02*
X0504276Y0079332D01*
X0502803Y0078333D02*
X0556133Y0078333D01*
X0556133Y0077335D02*
X0501805Y0077335D01*
X0560533Y0077335D02*
X0568830Y0077335D01*
X0567336Y0078333D02*
X0560533Y0078333D01*
X0560533Y0079332D02*
X0566561Y0079332D01*
X0566147Y0080330D02*
X0560533Y0080330D01*
X0561273Y0081329D02*
X0566033Y0081329D01*
X0566033Y0082327D02*
X0562272Y0082327D01*
X0563270Y0083326D02*
X0566419Y0083326D01*
X0566407Y0103296D02*
X0524658Y0103296D01*
X0525503Y0104295D02*
X0566964Y0104295D01*
X0566033Y0112283D02*
X0532262Y0112283D01*
X0533107Y0113281D02*
X0566400Y0113281D01*
X0566949Y0114280D02*
X0533952Y0114280D01*
X0534797Y0115278D02*
X0567948Y0115278D01*
X0573033Y0117275D02*
X0573633Y0117275D01*
X0573633Y0118274D02*
X0573033Y0118274D01*
X0573033Y0119272D02*
X0573633Y0119272D01*
X0573633Y0120271D02*
X0573033Y0120271D01*
X0573633Y0121269D02*
X0590453Y0121269D01*
X0592450Y0119272D02*
X0579824Y0119272D01*
X0578988Y0118274D02*
X0593448Y0118274D01*
X0601668Y0116277D02*
X0624999Y0116277D01*
X0637212Y0122268D02*
X0711233Y0122268D01*
X0711233Y0123266D02*
X0638211Y0123266D01*
X0639209Y0124265D02*
X0711233Y0124265D01*
X0711233Y0125263D02*
X0640208Y0125263D01*
X0655683Y0136247D02*
X0560533Y0136247D01*
X0560533Y0137245D02*
X0569046Y0137245D01*
X0567425Y0138244D02*
X0560533Y0138244D01*
X0560533Y0139242D02*
X0566598Y0139242D01*
X0567918Y0135248D02*
X0561585Y0135248D01*
X0562552Y0134250D02*
X0566919Y0134250D01*
X0583333Y0131500D02*
X0603333Y0111500D01*
X0573633Y0122268D02*
X0573033Y0122268D01*
X0573033Y0121800D02*
X0573033Y0125800D01*
X0570195Y0125800D01*
X0569526Y0125694D01*
X0568883Y0125485D01*
X0568280Y0125178D01*
X0567732Y0124780D01*
X0567253Y0124301D01*
X0566856Y0123754D01*
X0566548Y0123151D01*
X0566339Y0122507D01*
X0566233Y0121838D01*
X0566233Y0121800D01*
X0573033Y0121800D01*
X0573033Y0123266D02*
X0573633Y0123266D01*
X0573633Y0124265D02*
X0573033Y0124265D01*
X0573033Y0125263D02*
X0573633Y0125263D01*
X0569010Y0127260D02*
X0561033Y0127260D01*
X0562093Y0128259D02*
X0567411Y0128259D01*
X0566591Y0129257D02*
X0562762Y0129257D01*
X0561235Y0125263D02*
X0568448Y0125263D01*
X0567227Y0124265D02*
X0562196Y0124265D01*
X0562754Y0123266D02*
X0566607Y0123266D01*
X0566301Y0122268D02*
X0563021Y0122268D01*
X0508333Y0121500D02*
X0573333Y0181500D01*
X0571117Y0186172D02*
X0655503Y0186172D01*
X0655026Y0187171D02*
X0607441Y0187171D01*
X0609167Y0188170D02*
X0654027Y0188170D01*
X0653454Y0189168D02*
X0610038Y0189168D01*
X0603333Y0191500D02*
X0658333Y0191500D01*
X0654371Y0185174D02*
X0608823Y0185174D01*
X0609822Y0184175D02*
X0653597Y0184175D01*
X0653448Y0179183D02*
X0610044Y0179183D01*
X0609182Y0178184D02*
X0654012Y0178184D01*
X0655011Y0177186D02*
X0607477Y0177186D01*
X0608808Y0175189D02*
X0654385Y0175189D01*
X0653603Y0174190D02*
X0609807Y0174190D01*
X0599225Y0187171D02*
X0577441Y0187171D01*
X0555485Y0191165D02*
X0541355Y0191165D01*
X0541848Y0190167D02*
X0554363Y0190167D01*
X0553594Y0189168D02*
X0542115Y0189168D01*
X0542383Y0188170D02*
X0553180Y0188170D01*
X0552933Y0187171D02*
X0542470Y0187171D01*
X0542470Y0186172D02*
X0552933Y0186172D01*
X0553038Y0185174D02*
X0542470Y0185174D01*
X0542207Y0184175D02*
X0552898Y0184175D01*
X0551899Y0183177D02*
X0541940Y0183177D01*
X0541553Y0182178D02*
X0550901Y0182178D01*
X0549902Y0181180D02*
X0540977Y0181180D01*
X0540377Y0180181D02*
X0548903Y0180181D01*
X0547905Y0179183D02*
X0539378Y0179183D01*
X0538267Y0178184D02*
X0546906Y0178184D01*
X0545908Y0177186D02*
X0536538Y0177186D01*
X0528003Y0177186D02*
X0524424Y0177186D01*
X0516495Y0177186D02*
X0512308Y0177186D01*
X0513510Y0175189D02*
X0490433Y0175189D01*
X0490433Y0176187D02*
X0514700Y0176187D01*
X0512609Y0174190D02*
X0490433Y0174190D01*
X0490433Y0173192D02*
X0511914Y0173192D01*
X0511381Y0172193D02*
X0490433Y0172193D01*
X0490433Y0171195D02*
X0510984Y0171195D01*
X0510704Y0170196D02*
X0490433Y0170196D01*
X0490433Y0169198D02*
X0510531Y0169198D01*
X0559165Y0154220D02*
X0566889Y0154220D01*
X0566376Y0153222D02*
X0558166Y0153222D01*
X0557168Y0152223D02*
X0566033Y0152223D01*
X0566033Y0151225D02*
X0561038Y0151225D01*
X0562244Y0150226D02*
X0566190Y0150226D01*
X0566604Y0149228D02*
X0563048Y0149228D01*
X0563462Y0148229D02*
X0567440Y0148229D01*
X0569082Y0147231D02*
X0563733Y0147231D01*
X0560163Y0155219D02*
X0567888Y0155219D01*
X0571147Y0166202D02*
X0655575Y0166202D01*
X0655539Y0176187D02*
X0570821Y0176187D01*
X0503633Y0195159D02*
X0490433Y0195159D01*
X0490433Y0194161D02*
X0502216Y0194161D01*
X0501171Y0193162D02*
X0490433Y0193162D01*
X0490433Y0192164D02*
X0500397Y0192164D01*
X0499796Y0191165D02*
X0490433Y0191165D01*
X0490433Y0190167D02*
X0499337Y0190167D01*
X0499000Y0189168D02*
X0490433Y0189168D01*
X0490433Y0188170D02*
X0498773Y0188170D01*
X0498661Y0187171D02*
X0490433Y0187171D01*
X0490433Y0202149D02*
X0653171Y0202149D01*
X0653401Y0203147D02*
X0490433Y0203147D01*
X0490433Y0204146D02*
X0653845Y0204146D01*
X0654624Y0205144D02*
X0490433Y0205144D01*
X0499826Y0141239D02*
X0506841Y0141239D01*
X0505074Y0140241D02*
X0501593Y0140241D01*
X0502555Y0139242D02*
X0504111Y0139242D01*
X0658333Y0031500D02*
X0658333Y0011500D01*
X0653288Y0013430D02*
X0623174Y0013430D01*
X0623451Y0012432D02*
X0652933Y0012432D01*
X0653701Y0014429D02*
X0622633Y0014429D01*
X0621760Y0015427D02*
X0654624Y0015427D01*
X0656114Y0016426D02*
X0620002Y0016426D01*
X0614906Y0015427D02*
X0490433Y0015427D01*
X0490433Y0014429D02*
X0614033Y0014429D01*
X0613493Y0013430D02*
X0490433Y0013430D01*
X0490433Y0012432D02*
X0613216Y0012432D01*
X0613237Y0010434D02*
X0490433Y0010434D01*
X0490433Y0009436D02*
X0613549Y0009436D01*
X0614131Y0008437D02*
X0490433Y0008437D01*
X0490433Y0007439D02*
X0615076Y0007439D01*
X0617947Y0007439D02*
X0618719Y0007439D01*
X0618719Y0008437D02*
X0617947Y0008437D01*
X0617947Y0009436D02*
X0618719Y0009436D01*
X0618719Y0010434D02*
X0617947Y0010434D01*
X0617947Y0011433D02*
X0490433Y0011433D01*
X0490433Y0004443D02*
X0711233Y0004443D01*
D18*
X0508333Y0121500D03*
M02*
