G75*
%MOIN*%
%OFA0B0*%
%FSLAX25Y25*%
%IPPOS*%
%LPD*%
%AMOC8*
5,1,8,0,0,1.08239X$1,22.5*
%
%ADD10C,0.00600*%
%ADD11C,0.00800*%
%ADD12C,0.00100*%
D10*
X0643333Y0031500D02*
X0643336Y0031745D01*
X0643345Y0031991D01*
X0643360Y0032236D01*
X0643381Y0032480D01*
X0643408Y0032724D01*
X0643441Y0032967D01*
X0643480Y0033210D01*
X0643525Y0033451D01*
X0643576Y0033691D01*
X0643633Y0033930D01*
X0643695Y0034167D01*
X0643764Y0034403D01*
X0643838Y0034637D01*
X0643918Y0034869D01*
X0644003Y0035099D01*
X0644094Y0035327D01*
X0644191Y0035552D01*
X0644293Y0035776D01*
X0644401Y0035996D01*
X0644514Y0036214D01*
X0644632Y0036429D01*
X0644756Y0036641D01*
X0644884Y0036850D01*
X0645018Y0037056D01*
X0645157Y0037258D01*
X0645301Y0037457D01*
X0645450Y0037652D01*
X0645603Y0037844D01*
X0645761Y0038032D01*
X0645923Y0038216D01*
X0646091Y0038395D01*
X0646262Y0038571D01*
X0646438Y0038742D01*
X0646617Y0038910D01*
X0646801Y0039072D01*
X0646989Y0039230D01*
X0647181Y0039383D01*
X0647376Y0039532D01*
X0647575Y0039676D01*
X0647777Y0039815D01*
X0647983Y0039949D01*
X0648192Y0040077D01*
X0648404Y0040201D01*
X0648619Y0040319D01*
X0648837Y0040432D01*
X0649057Y0040540D01*
X0649281Y0040642D01*
X0649506Y0040739D01*
X0649734Y0040830D01*
X0649964Y0040915D01*
X0650196Y0040995D01*
X0650430Y0041069D01*
X0650666Y0041138D01*
X0650903Y0041200D01*
X0651142Y0041257D01*
X0651382Y0041308D01*
X0651623Y0041353D01*
X0651866Y0041392D01*
X0652109Y0041425D01*
X0652353Y0041452D01*
X0652597Y0041473D01*
X0652842Y0041488D01*
X0653088Y0041497D01*
X0653333Y0041500D01*
X0653578Y0041497D01*
X0653824Y0041488D01*
X0654069Y0041473D01*
X0654313Y0041452D01*
X0654557Y0041425D01*
X0654800Y0041392D01*
X0655043Y0041353D01*
X0655284Y0041308D01*
X0655524Y0041257D01*
X0655763Y0041200D01*
X0656000Y0041138D01*
X0656236Y0041069D01*
X0656470Y0040995D01*
X0656702Y0040915D01*
X0656932Y0040830D01*
X0657160Y0040739D01*
X0657385Y0040642D01*
X0657609Y0040540D01*
X0657829Y0040432D01*
X0658047Y0040319D01*
X0658262Y0040201D01*
X0658474Y0040077D01*
X0658683Y0039949D01*
X0658889Y0039815D01*
X0659091Y0039676D01*
X0659290Y0039532D01*
X0659485Y0039383D01*
X0659677Y0039230D01*
X0659865Y0039072D01*
X0660049Y0038910D01*
X0660228Y0038742D01*
X0660404Y0038571D01*
X0660575Y0038395D01*
X0660743Y0038216D01*
X0660905Y0038032D01*
X0661063Y0037844D01*
X0661216Y0037652D01*
X0661365Y0037457D01*
X0661509Y0037258D01*
X0661648Y0037056D01*
X0661782Y0036850D01*
X0661910Y0036641D01*
X0662034Y0036429D01*
X0662152Y0036214D01*
X0662265Y0035996D01*
X0662373Y0035776D01*
X0662475Y0035552D01*
X0662572Y0035327D01*
X0662663Y0035099D01*
X0662748Y0034869D01*
X0662828Y0034637D01*
X0662902Y0034403D01*
X0662971Y0034167D01*
X0663033Y0033930D01*
X0663090Y0033691D01*
X0663141Y0033451D01*
X0663186Y0033210D01*
X0663225Y0032967D01*
X0663258Y0032724D01*
X0663285Y0032480D01*
X0663306Y0032236D01*
X0663321Y0031991D01*
X0663330Y0031745D01*
X0663333Y0031500D01*
X0663330Y0031255D01*
X0663321Y0031009D01*
X0663306Y0030764D01*
X0663285Y0030520D01*
X0663258Y0030276D01*
X0663225Y0030033D01*
X0663186Y0029790D01*
X0663141Y0029549D01*
X0663090Y0029309D01*
X0663033Y0029070D01*
X0662971Y0028833D01*
X0662902Y0028597D01*
X0662828Y0028363D01*
X0662748Y0028131D01*
X0662663Y0027901D01*
X0662572Y0027673D01*
X0662475Y0027448D01*
X0662373Y0027224D01*
X0662265Y0027004D01*
X0662152Y0026786D01*
X0662034Y0026571D01*
X0661910Y0026359D01*
X0661782Y0026150D01*
X0661648Y0025944D01*
X0661509Y0025742D01*
X0661365Y0025543D01*
X0661216Y0025348D01*
X0661063Y0025156D01*
X0660905Y0024968D01*
X0660743Y0024784D01*
X0660575Y0024605D01*
X0660404Y0024429D01*
X0660228Y0024258D01*
X0660049Y0024090D01*
X0659865Y0023928D01*
X0659677Y0023770D01*
X0659485Y0023617D01*
X0659290Y0023468D01*
X0659091Y0023324D01*
X0658889Y0023185D01*
X0658683Y0023051D01*
X0658474Y0022923D01*
X0658262Y0022799D01*
X0658047Y0022681D01*
X0657829Y0022568D01*
X0657609Y0022460D01*
X0657385Y0022358D01*
X0657160Y0022261D01*
X0656932Y0022170D01*
X0656702Y0022085D01*
X0656470Y0022005D01*
X0656236Y0021931D01*
X0656000Y0021862D01*
X0655763Y0021800D01*
X0655524Y0021743D01*
X0655284Y0021692D01*
X0655043Y0021647D01*
X0654800Y0021608D01*
X0654557Y0021575D01*
X0654313Y0021548D01*
X0654069Y0021527D01*
X0653824Y0021512D01*
X0653578Y0021503D01*
X0653333Y0021500D01*
X0653088Y0021503D01*
X0652842Y0021512D01*
X0652597Y0021527D01*
X0652353Y0021548D01*
X0652109Y0021575D01*
X0651866Y0021608D01*
X0651623Y0021647D01*
X0651382Y0021692D01*
X0651142Y0021743D01*
X0650903Y0021800D01*
X0650666Y0021862D01*
X0650430Y0021931D01*
X0650196Y0022005D01*
X0649964Y0022085D01*
X0649734Y0022170D01*
X0649506Y0022261D01*
X0649281Y0022358D01*
X0649057Y0022460D01*
X0648837Y0022568D01*
X0648619Y0022681D01*
X0648404Y0022799D01*
X0648192Y0022923D01*
X0647983Y0023051D01*
X0647777Y0023185D01*
X0647575Y0023324D01*
X0647376Y0023468D01*
X0647181Y0023617D01*
X0646989Y0023770D01*
X0646801Y0023928D01*
X0646617Y0024090D01*
X0646438Y0024258D01*
X0646262Y0024429D01*
X0646091Y0024605D01*
X0645923Y0024784D01*
X0645761Y0024968D01*
X0645603Y0025156D01*
X0645450Y0025348D01*
X0645301Y0025543D01*
X0645157Y0025742D01*
X0645018Y0025944D01*
X0644884Y0026150D01*
X0644756Y0026359D01*
X0644632Y0026571D01*
X0644514Y0026786D01*
X0644401Y0027004D01*
X0644293Y0027224D01*
X0644191Y0027448D01*
X0644094Y0027673D01*
X0644003Y0027901D01*
X0643918Y0028131D01*
X0643838Y0028363D01*
X0643764Y0028597D01*
X0643695Y0028833D01*
X0643633Y0029070D01*
X0643576Y0029309D01*
X0643525Y0029549D01*
X0643480Y0029790D01*
X0643441Y0030033D01*
X0643408Y0030276D01*
X0643381Y0030520D01*
X0643360Y0030764D01*
X0643345Y0031009D01*
X0643336Y0031255D01*
X0643333Y0031500D01*
X0643333Y0071500D02*
X0643336Y0071745D01*
X0643345Y0071991D01*
X0643360Y0072236D01*
X0643381Y0072480D01*
X0643408Y0072724D01*
X0643441Y0072967D01*
X0643480Y0073210D01*
X0643525Y0073451D01*
X0643576Y0073691D01*
X0643633Y0073930D01*
X0643695Y0074167D01*
X0643764Y0074403D01*
X0643838Y0074637D01*
X0643918Y0074869D01*
X0644003Y0075099D01*
X0644094Y0075327D01*
X0644191Y0075552D01*
X0644293Y0075776D01*
X0644401Y0075996D01*
X0644514Y0076214D01*
X0644632Y0076429D01*
X0644756Y0076641D01*
X0644884Y0076850D01*
X0645018Y0077056D01*
X0645157Y0077258D01*
X0645301Y0077457D01*
X0645450Y0077652D01*
X0645603Y0077844D01*
X0645761Y0078032D01*
X0645923Y0078216D01*
X0646091Y0078395D01*
X0646262Y0078571D01*
X0646438Y0078742D01*
X0646617Y0078910D01*
X0646801Y0079072D01*
X0646989Y0079230D01*
X0647181Y0079383D01*
X0647376Y0079532D01*
X0647575Y0079676D01*
X0647777Y0079815D01*
X0647983Y0079949D01*
X0648192Y0080077D01*
X0648404Y0080201D01*
X0648619Y0080319D01*
X0648837Y0080432D01*
X0649057Y0080540D01*
X0649281Y0080642D01*
X0649506Y0080739D01*
X0649734Y0080830D01*
X0649964Y0080915D01*
X0650196Y0080995D01*
X0650430Y0081069D01*
X0650666Y0081138D01*
X0650903Y0081200D01*
X0651142Y0081257D01*
X0651382Y0081308D01*
X0651623Y0081353D01*
X0651866Y0081392D01*
X0652109Y0081425D01*
X0652353Y0081452D01*
X0652597Y0081473D01*
X0652842Y0081488D01*
X0653088Y0081497D01*
X0653333Y0081500D01*
X0653578Y0081497D01*
X0653824Y0081488D01*
X0654069Y0081473D01*
X0654313Y0081452D01*
X0654557Y0081425D01*
X0654800Y0081392D01*
X0655043Y0081353D01*
X0655284Y0081308D01*
X0655524Y0081257D01*
X0655763Y0081200D01*
X0656000Y0081138D01*
X0656236Y0081069D01*
X0656470Y0080995D01*
X0656702Y0080915D01*
X0656932Y0080830D01*
X0657160Y0080739D01*
X0657385Y0080642D01*
X0657609Y0080540D01*
X0657829Y0080432D01*
X0658047Y0080319D01*
X0658262Y0080201D01*
X0658474Y0080077D01*
X0658683Y0079949D01*
X0658889Y0079815D01*
X0659091Y0079676D01*
X0659290Y0079532D01*
X0659485Y0079383D01*
X0659677Y0079230D01*
X0659865Y0079072D01*
X0660049Y0078910D01*
X0660228Y0078742D01*
X0660404Y0078571D01*
X0660575Y0078395D01*
X0660743Y0078216D01*
X0660905Y0078032D01*
X0661063Y0077844D01*
X0661216Y0077652D01*
X0661365Y0077457D01*
X0661509Y0077258D01*
X0661648Y0077056D01*
X0661782Y0076850D01*
X0661910Y0076641D01*
X0662034Y0076429D01*
X0662152Y0076214D01*
X0662265Y0075996D01*
X0662373Y0075776D01*
X0662475Y0075552D01*
X0662572Y0075327D01*
X0662663Y0075099D01*
X0662748Y0074869D01*
X0662828Y0074637D01*
X0662902Y0074403D01*
X0662971Y0074167D01*
X0663033Y0073930D01*
X0663090Y0073691D01*
X0663141Y0073451D01*
X0663186Y0073210D01*
X0663225Y0072967D01*
X0663258Y0072724D01*
X0663285Y0072480D01*
X0663306Y0072236D01*
X0663321Y0071991D01*
X0663330Y0071745D01*
X0663333Y0071500D01*
X0663330Y0071255D01*
X0663321Y0071009D01*
X0663306Y0070764D01*
X0663285Y0070520D01*
X0663258Y0070276D01*
X0663225Y0070033D01*
X0663186Y0069790D01*
X0663141Y0069549D01*
X0663090Y0069309D01*
X0663033Y0069070D01*
X0662971Y0068833D01*
X0662902Y0068597D01*
X0662828Y0068363D01*
X0662748Y0068131D01*
X0662663Y0067901D01*
X0662572Y0067673D01*
X0662475Y0067448D01*
X0662373Y0067224D01*
X0662265Y0067004D01*
X0662152Y0066786D01*
X0662034Y0066571D01*
X0661910Y0066359D01*
X0661782Y0066150D01*
X0661648Y0065944D01*
X0661509Y0065742D01*
X0661365Y0065543D01*
X0661216Y0065348D01*
X0661063Y0065156D01*
X0660905Y0064968D01*
X0660743Y0064784D01*
X0660575Y0064605D01*
X0660404Y0064429D01*
X0660228Y0064258D01*
X0660049Y0064090D01*
X0659865Y0063928D01*
X0659677Y0063770D01*
X0659485Y0063617D01*
X0659290Y0063468D01*
X0659091Y0063324D01*
X0658889Y0063185D01*
X0658683Y0063051D01*
X0658474Y0062923D01*
X0658262Y0062799D01*
X0658047Y0062681D01*
X0657829Y0062568D01*
X0657609Y0062460D01*
X0657385Y0062358D01*
X0657160Y0062261D01*
X0656932Y0062170D01*
X0656702Y0062085D01*
X0656470Y0062005D01*
X0656236Y0061931D01*
X0656000Y0061862D01*
X0655763Y0061800D01*
X0655524Y0061743D01*
X0655284Y0061692D01*
X0655043Y0061647D01*
X0654800Y0061608D01*
X0654557Y0061575D01*
X0654313Y0061548D01*
X0654069Y0061527D01*
X0653824Y0061512D01*
X0653578Y0061503D01*
X0653333Y0061500D01*
X0653088Y0061503D01*
X0652842Y0061512D01*
X0652597Y0061527D01*
X0652353Y0061548D01*
X0652109Y0061575D01*
X0651866Y0061608D01*
X0651623Y0061647D01*
X0651382Y0061692D01*
X0651142Y0061743D01*
X0650903Y0061800D01*
X0650666Y0061862D01*
X0650430Y0061931D01*
X0650196Y0062005D01*
X0649964Y0062085D01*
X0649734Y0062170D01*
X0649506Y0062261D01*
X0649281Y0062358D01*
X0649057Y0062460D01*
X0648837Y0062568D01*
X0648619Y0062681D01*
X0648404Y0062799D01*
X0648192Y0062923D01*
X0647983Y0063051D01*
X0647777Y0063185D01*
X0647575Y0063324D01*
X0647376Y0063468D01*
X0647181Y0063617D01*
X0646989Y0063770D01*
X0646801Y0063928D01*
X0646617Y0064090D01*
X0646438Y0064258D01*
X0646262Y0064429D01*
X0646091Y0064605D01*
X0645923Y0064784D01*
X0645761Y0064968D01*
X0645603Y0065156D01*
X0645450Y0065348D01*
X0645301Y0065543D01*
X0645157Y0065742D01*
X0645018Y0065944D01*
X0644884Y0066150D01*
X0644756Y0066359D01*
X0644632Y0066571D01*
X0644514Y0066786D01*
X0644401Y0067004D01*
X0644293Y0067224D01*
X0644191Y0067448D01*
X0644094Y0067673D01*
X0644003Y0067901D01*
X0643918Y0068131D01*
X0643838Y0068363D01*
X0643764Y0068597D01*
X0643695Y0068833D01*
X0643633Y0069070D01*
X0643576Y0069309D01*
X0643525Y0069549D01*
X0643480Y0069790D01*
X0643441Y0070033D01*
X0643408Y0070276D01*
X0643381Y0070520D01*
X0643360Y0070764D01*
X0643345Y0071009D01*
X0643336Y0071255D01*
X0643333Y0071500D01*
X0643333Y0111500D02*
X0643336Y0111745D01*
X0643345Y0111991D01*
X0643360Y0112236D01*
X0643381Y0112480D01*
X0643408Y0112724D01*
X0643441Y0112967D01*
X0643480Y0113210D01*
X0643525Y0113451D01*
X0643576Y0113691D01*
X0643633Y0113930D01*
X0643695Y0114167D01*
X0643764Y0114403D01*
X0643838Y0114637D01*
X0643918Y0114869D01*
X0644003Y0115099D01*
X0644094Y0115327D01*
X0644191Y0115552D01*
X0644293Y0115776D01*
X0644401Y0115996D01*
X0644514Y0116214D01*
X0644632Y0116429D01*
X0644756Y0116641D01*
X0644884Y0116850D01*
X0645018Y0117056D01*
X0645157Y0117258D01*
X0645301Y0117457D01*
X0645450Y0117652D01*
X0645603Y0117844D01*
X0645761Y0118032D01*
X0645923Y0118216D01*
X0646091Y0118395D01*
X0646262Y0118571D01*
X0646438Y0118742D01*
X0646617Y0118910D01*
X0646801Y0119072D01*
X0646989Y0119230D01*
X0647181Y0119383D01*
X0647376Y0119532D01*
X0647575Y0119676D01*
X0647777Y0119815D01*
X0647983Y0119949D01*
X0648192Y0120077D01*
X0648404Y0120201D01*
X0648619Y0120319D01*
X0648837Y0120432D01*
X0649057Y0120540D01*
X0649281Y0120642D01*
X0649506Y0120739D01*
X0649734Y0120830D01*
X0649964Y0120915D01*
X0650196Y0120995D01*
X0650430Y0121069D01*
X0650666Y0121138D01*
X0650903Y0121200D01*
X0651142Y0121257D01*
X0651382Y0121308D01*
X0651623Y0121353D01*
X0651866Y0121392D01*
X0652109Y0121425D01*
X0652353Y0121452D01*
X0652597Y0121473D01*
X0652842Y0121488D01*
X0653088Y0121497D01*
X0653333Y0121500D01*
X0653578Y0121497D01*
X0653824Y0121488D01*
X0654069Y0121473D01*
X0654313Y0121452D01*
X0654557Y0121425D01*
X0654800Y0121392D01*
X0655043Y0121353D01*
X0655284Y0121308D01*
X0655524Y0121257D01*
X0655763Y0121200D01*
X0656000Y0121138D01*
X0656236Y0121069D01*
X0656470Y0120995D01*
X0656702Y0120915D01*
X0656932Y0120830D01*
X0657160Y0120739D01*
X0657385Y0120642D01*
X0657609Y0120540D01*
X0657829Y0120432D01*
X0658047Y0120319D01*
X0658262Y0120201D01*
X0658474Y0120077D01*
X0658683Y0119949D01*
X0658889Y0119815D01*
X0659091Y0119676D01*
X0659290Y0119532D01*
X0659485Y0119383D01*
X0659677Y0119230D01*
X0659865Y0119072D01*
X0660049Y0118910D01*
X0660228Y0118742D01*
X0660404Y0118571D01*
X0660575Y0118395D01*
X0660743Y0118216D01*
X0660905Y0118032D01*
X0661063Y0117844D01*
X0661216Y0117652D01*
X0661365Y0117457D01*
X0661509Y0117258D01*
X0661648Y0117056D01*
X0661782Y0116850D01*
X0661910Y0116641D01*
X0662034Y0116429D01*
X0662152Y0116214D01*
X0662265Y0115996D01*
X0662373Y0115776D01*
X0662475Y0115552D01*
X0662572Y0115327D01*
X0662663Y0115099D01*
X0662748Y0114869D01*
X0662828Y0114637D01*
X0662902Y0114403D01*
X0662971Y0114167D01*
X0663033Y0113930D01*
X0663090Y0113691D01*
X0663141Y0113451D01*
X0663186Y0113210D01*
X0663225Y0112967D01*
X0663258Y0112724D01*
X0663285Y0112480D01*
X0663306Y0112236D01*
X0663321Y0111991D01*
X0663330Y0111745D01*
X0663333Y0111500D01*
X0663330Y0111255D01*
X0663321Y0111009D01*
X0663306Y0110764D01*
X0663285Y0110520D01*
X0663258Y0110276D01*
X0663225Y0110033D01*
X0663186Y0109790D01*
X0663141Y0109549D01*
X0663090Y0109309D01*
X0663033Y0109070D01*
X0662971Y0108833D01*
X0662902Y0108597D01*
X0662828Y0108363D01*
X0662748Y0108131D01*
X0662663Y0107901D01*
X0662572Y0107673D01*
X0662475Y0107448D01*
X0662373Y0107224D01*
X0662265Y0107004D01*
X0662152Y0106786D01*
X0662034Y0106571D01*
X0661910Y0106359D01*
X0661782Y0106150D01*
X0661648Y0105944D01*
X0661509Y0105742D01*
X0661365Y0105543D01*
X0661216Y0105348D01*
X0661063Y0105156D01*
X0660905Y0104968D01*
X0660743Y0104784D01*
X0660575Y0104605D01*
X0660404Y0104429D01*
X0660228Y0104258D01*
X0660049Y0104090D01*
X0659865Y0103928D01*
X0659677Y0103770D01*
X0659485Y0103617D01*
X0659290Y0103468D01*
X0659091Y0103324D01*
X0658889Y0103185D01*
X0658683Y0103051D01*
X0658474Y0102923D01*
X0658262Y0102799D01*
X0658047Y0102681D01*
X0657829Y0102568D01*
X0657609Y0102460D01*
X0657385Y0102358D01*
X0657160Y0102261D01*
X0656932Y0102170D01*
X0656702Y0102085D01*
X0656470Y0102005D01*
X0656236Y0101931D01*
X0656000Y0101862D01*
X0655763Y0101800D01*
X0655524Y0101743D01*
X0655284Y0101692D01*
X0655043Y0101647D01*
X0654800Y0101608D01*
X0654557Y0101575D01*
X0654313Y0101548D01*
X0654069Y0101527D01*
X0653824Y0101512D01*
X0653578Y0101503D01*
X0653333Y0101500D01*
X0653088Y0101503D01*
X0652842Y0101512D01*
X0652597Y0101527D01*
X0652353Y0101548D01*
X0652109Y0101575D01*
X0651866Y0101608D01*
X0651623Y0101647D01*
X0651382Y0101692D01*
X0651142Y0101743D01*
X0650903Y0101800D01*
X0650666Y0101862D01*
X0650430Y0101931D01*
X0650196Y0102005D01*
X0649964Y0102085D01*
X0649734Y0102170D01*
X0649506Y0102261D01*
X0649281Y0102358D01*
X0649057Y0102460D01*
X0648837Y0102568D01*
X0648619Y0102681D01*
X0648404Y0102799D01*
X0648192Y0102923D01*
X0647983Y0103051D01*
X0647777Y0103185D01*
X0647575Y0103324D01*
X0647376Y0103468D01*
X0647181Y0103617D01*
X0646989Y0103770D01*
X0646801Y0103928D01*
X0646617Y0104090D01*
X0646438Y0104258D01*
X0646262Y0104429D01*
X0646091Y0104605D01*
X0645923Y0104784D01*
X0645761Y0104968D01*
X0645603Y0105156D01*
X0645450Y0105348D01*
X0645301Y0105543D01*
X0645157Y0105742D01*
X0645018Y0105944D01*
X0644884Y0106150D01*
X0644756Y0106359D01*
X0644632Y0106571D01*
X0644514Y0106786D01*
X0644401Y0107004D01*
X0644293Y0107224D01*
X0644191Y0107448D01*
X0644094Y0107673D01*
X0644003Y0107901D01*
X0643918Y0108131D01*
X0643838Y0108363D01*
X0643764Y0108597D01*
X0643695Y0108833D01*
X0643633Y0109070D01*
X0643576Y0109309D01*
X0643525Y0109549D01*
X0643480Y0109790D01*
X0643441Y0110033D01*
X0643408Y0110276D01*
X0643381Y0110520D01*
X0643360Y0110764D01*
X0643345Y0111009D01*
X0643336Y0111255D01*
X0643333Y0111500D01*
X0678633Y0142547D02*
X0679701Y0141479D01*
X0681836Y0141479D01*
X0682904Y0142547D01*
X0682904Y0144682D01*
X0681836Y0145750D01*
X0679701Y0145750D01*
X0678633Y0144682D01*
X0678633Y0142547D01*
X0678633Y0147925D02*
X0681836Y0147925D01*
X0682904Y0148993D01*
X0682904Y0152195D01*
X0678633Y0152195D01*
X0678633Y0154357D02*
X0678633Y0156492D01*
X0678633Y0155425D02*
X0682904Y0155425D01*
X0682904Y0156492D01*
X0682904Y0158667D02*
X0678633Y0158667D01*
X0678633Y0161870D01*
X0679701Y0162938D01*
X0682904Y0162938D01*
X0682904Y0165113D02*
X0682904Y0168316D01*
X0681836Y0169383D01*
X0679701Y0169383D01*
X0678633Y0168316D01*
X0678633Y0165113D01*
X0685039Y0165113D01*
X0688633Y0165418D02*
X0688633Y0162215D01*
X0689701Y0161148D01*
X0690768Y0162215D01*
X0690768Y0164350D01*
X0691836Y0165418D01*
X0692904Y0164350D01*
X0692904Y0161148D01*
X0691836Y0167593D02*
X0690768Y0167593D01*
X0690768Y0171864D01*
X0689701Y0171864D02*
X0691836Y0171864D01*
X0692904Y0170796D01*
X0692904Y0168661D01*
X0691836Y0167593D01*
X0688633Y0168661D02*
X0688633Y0170796D01*
X0689701Y0171864D01*
X0688633Y0174039D02*
X0691836Y0174039D01*
X0692904Y0175106D01*
X0692904Y0178309D01*
X0688633Y0178309D01*
X0689701Y0180484D02*
X0691836Y0180484D01*
X0692904Y0181552D01*
X0692904Y0183687D01*
X0691836Y0184755D01*
X0689701Y0184755D01*
X0688633Y0183687D01*
X0688633Y0181552D01*
X0689701Y0180484D01*
X0685039Y0179065D02*
X0682904Y0176930D01*
X0678633Y0176930D01*
X0678633Y0174755D02*
X0682904Y0174755D01*
X0680768Y0174755D02*
X0682904Y0172619D01*
X0682904Y0171552D01*
X0681836Y0176930D02*
X0681836Y0181200D01*
X0682904Y0181200D02*
X0685039Y0179065D01*
X0682904Y0181200D02*
X0678633Y0181200D01*
X0688633Y0187997D02*
X0689701Y0186930D01*
X0690768Y0186930D01*
X0691836Y0187997D01*
X0691836Y0191200D01*
X0688633Y0191200D02*
X0688633Y0187997D01*
X0688633Y0191200D02*
X0695039Y0191200D01*
X0695039Y0187997D01*
X0693971Y0186930D01*
X0692904Y0186930D01*
X0691836Y0187997D01*
X0698633Y0188309D02*
X0702904Y0188309D01*
X0702904Y0186174D02*
X0700768Y0188309D01*
X0700768Y0190484D02*
X0700768Y0193687D01*
X0699701Y0194755D01*
X0698633Y0193687D01*
X0698633Y0190484D01*
X0701836Y0190484D01*
X0702904Y0191552D01*
X0702904Y0193687D01*
X0702904Y0196930D02*
X0701836Y0197997D01*
X0701836Y0201200D01*
X0698633Y0201200D02*
X0705039Y0201200D01*
X0705039Y0197997D01*
X0703971Y0196930D01*
X0702904Y0196930D01*
X0701836Y0197997D02*
X0700768Y0196930D01*
X0699701Y0196930D01*
X0698633Y0197997D01*
X0698633Y0201200D01*
X0702904Y0186174D02*
X0702904Y0185106D01*
X0701836Y0182938D02*
X0699701Y0182938D01*
X0698633Y0181870D01*
X0698633Y0179735D01*
X0700768Y0178667D02*
X0700768Y0182938D01*
X0701836Y0182938D02*
X0702904Y0181870D01*
X0702904Y0179735D01*
X0701836Y0178667D01*
X0700768Y0178667D01*
X0686106Y0155425D02*
X0685039Y0155425D01*
D11*
X0495833Y0056500D02*
X0493333Y0059000D01*
X0493333Y0064000D01*
X0495833Y0066500D01*
X0493333Y0069000D01*
X0493333Y0074000D01*
X0495833Y0076500D01*
X0493333Y0079000D01*
X0493333Y0084000D01*
X0495833Y0086500D01*
X0493333Y0089000D01*
X0493333Y0094000D01*
X0495833Y0096500D01*
X0493333Y0099000D01*
X0493333Y0104000D01*
X0495833Y0106500D01*
X0493333Y0109000D01*
X0493333Y0114000D01*
X0495833Y0116500D01*
X0500833Y0116500D01*
X0503333Y0114000D01*
X0503333Y0109000D01*
X0500833Y0106500D01*
X0503333Y0104000D01*
X0503333Y0099000D01*
X0500833Y0096500D01*
X0503333Y0094000D01*
X0503333Y0089000D01*
X0500833Y0086500D01*
X0503333Y0084000D01*
X0503333Y0079000D01*
X0500833Y0076500D01*
X0503333Y0074000D01*
X0503333Y0069000D01*
X0500833Y0066500D01*
X0503333Y0064000D01*
X0503333Y0059000D01*
X0500833Y0056500D01*
X0495833Y0056500D01*
X0573333Y0044000D02*
X0575833Y0046500D01*
X0580833Y0046500D01*
X0583333Y0044000D01*
X0583333Y0029000D01*
X0585833Y0026500D01*
X0590833Y0026500D01*
X0593333Y0029000D01*
X0593333Y0044000D01*
X0595833Y0046500D01*
X0600833Y0046500D01*
X0603333Y0044000D01*
X0603333Y0029000D01*
X0600833Y0026500D01*
X0595833Y0026500D01*
X0593333Y0029000D01*
X0583333Y0029000D02*
X0580833Y0026500D01*
X0575833Y0026500D01*
X0573333Y0029000D01*
X0573333Y0044000D01*
X0583333Y0044000D02*
X0585833Y0046500D01*
X0590833Y0046500D01*
X0593333Y0044000D01*
X0625932Y0046776D02*
X0650735Y0046776D01*
X0650735Y0056224D01*
X0625932Y0056224D01*
X0625932Y0046776D01*
X0600333Y0056500D02*
X0600333Y0057500D01*
X0600333Y0056500D02*
X0576333Y0056500D01*
X0576333Y0057500D01*
X0663333Y0064000D02*
X0663333Y0079000D01*
X0650735Y0086776D02*
X0625932Y0086776D01*
X0625932Y0096224D01*
X0650735Y0096224D01*
X0650735Y0086776D01*
X0663333Y0104000D02*
X0663333Y0119000D01*
X0660833Y0126500D02*
X0655833Y0126500D01*
X0653333Y0129000D01*
X0653333Y0134000D01*
X0655833Y0136500D01*
X0653333Y0139000D01*
X0653333Y0144000D01*
X0655833Y0146500D01*
X0653333Y0149000D01*
X0653333Y0154000D01*
X0655833Y0156500D01*
X0653333Y0159000D01*
X0653333Y0164000D01*
X0655833Y0166500D01*
X0653333Y0169000D01*
X0653333Y0174000D01*
X0655833Y0176500D01*
X0653333Y0179000D01*
X0653333Y0184000D01*
X0655833Y0186500D01*
X0653333Y0189000D01*
X0653333Y0194000D01*
X0655833Y0196500D01*
X0653333Y0199000D01*
X0653333Y0204000D01*
X0655833Y0206500D01*
X0660833Y0206500D01*
X0663333Y0204000D01*
X0663333Y0199000D01*
X0660833Y0196500D01*
X0663333Y0194000D01*
X0663333Y0189000D01*
X0660833Y0186500D01*
X0663333Y0184000D01*
X0663333Y0179000D01*
X0660833Y0176500D01*
X0663333Y0174000D01*
X0663333Y0169000D01*
X0660833Y0166500D01*
X0663333Y0164000D01*
X0663333Y0159000D01*
X0660833Y0156500D01*
X0663333Y0154000D01*
X0663333Y0149000D01*
X0660833Y0146500D01*
X0663333Y0144000D01*
X0663333Y0139000D01*
X0660833Y0136500D01*
X0663333Y0134000D01*
X0663333Y0129000D01*
X0660833Y0126500D01*
X0560833Y0126500D02*
X0555833Y0126500D01*
X0503333Y0134000D02*
X0503333Y0139000D01*
X0553609Y0154098D02*
X0553609Y0178902D01*
X0563058Y0178902D01*
X0563058Y0154098D01*
X0553609Y0154098D01*
X0532270Y0168783D02*
X0529514Y0168783D01*
X0532270Y0168783D02*
X0532270Y0177051D01*
X0511010Y0168783D02*
X0490144Y0168783D01*
X0490144Y0204217D01*
X0532270Y0204217D01*
X0532270Y0195949D01*
X0576333Y0195500D02*
X0576333Y0196500D01*
X0583333Y0196500D01*
X0583335Y0196360D01*
X0583341Y0196220D01*
X0583351Y0196080D01*
X0583364Y0195940D01*
X0583382Y0195801D01*
X0583404Y0195662D01*
X0583429Y0195525D01*
X0583458Y0195387D01*
X0583491Y0195251D01*
X0583528Y0195116D01*
X0583569Y0194982D01*
X0583614Y0194849D01*
X0583662Y0194717D01*
X0583714Y0194587D01*
X0583769Y0194458D01*
X0583828Y0194331D01*
X0583891Y0194205D01*
X0583957Y0194081D01*
X0584026Y0193960D01*
X0584099Y0193840D01*
X0584176Y0193722D01*
X0584255Y0193607D01*
X0584338Y0193493D01*
X0584424Y0193383D01*
X0584513Y0193274D01*
X0584605Y0193168D01*
X0584700Y0193065D01*
X0584797Y0192964D01*
X0584898Y0192867D01*
X0585001Y0192772D01*
X0585107Y0192680D01*
X0585216Y0192591D01*
X0585326Y0192505D01*
X0585440Y0192422D01*
X0585555Y0192343D01*
X0585673Y0192266D01*
X0585793Y0192193D01*
X0585914Y0192124D01*
X0586038Y0192058D01*
X0586164Y0191995D01*
X0586291Y0191936D01*
X0586420Y0191881D01*
X0586550Y0191829D01*
X0586682Y0191781D01*
X0586815Y0191736D01*
X0586949Y0191695D01*
X0587084Y0191658D01*
X0587220Y0191625D01*
X0587358Y0191596D01*
X0587495Y0191571D01*
X0587634Y0191549D01*
X0587773Y0191531D01*
X0587913Y0191518D01*
X0588053Y0191508D01*
X0588193Y0191502D01*
X0588333Y0191500D01*
X0588473Y0191502D01*
X0588613Y0191508D01*
X0588753Y0191518D01*
X0588893Y0191531D01*
X0589032Y0191549D01*
X0589171Y0191571D01*
X0589308Y0191596D01*
X0589446Y0191625D01*
X0589582Y0191658D01*
X0589717Y0191695D01*
X0589851Y0191736D01*
X0589984Y0191781D01*
X0590116Y0191829D01*
X0590246Y0191881D01*
X0590375Y0191936D01*
X0590502Y0191995D01*
X0590628Y0192058D01*
X0590752Y0192124D01*
X0590873Y0192193D01*
X0590993Y0192266D01*
X0591111Y0192343D01*
X0591226Y0192422D01*
X0591340Y0192505D01*
X0591450Y0192591D01*
X0591559Y0192680D01*
X0591665Y0192772D01*
X0591768Y0192867D01*
X0591869Y0192964D01*
X0591966Y0193065D01*
X0592061Y0193168D01*
X0592153Y0193274D01*
X0592242Y0193383D01*
X0592328Y0193493D01*
X0592411Y0193607D01*
X0592490Y0193722D01*
X0592567Y0193840D01*
X0592640Y0193960D01*
X0592709Y0194081D01*
X0592775Y0194205D01*
X0592838Y0194331D01*
X0592897Y0194458D01*
X0592952Y0194587D01*
X0593004Y0194717D01*
X0593052Y0194849D01*
X0593097Y0194982D01*
X0593138Y0195116D01*
X0593175Y0195251D01*
X0593208Y0195387D01*
X0593237Y0195525D01*
X0593262Y0195662D01*
X0593284Y0195801D01*
X0593302Y0195940D01*
X0593315Y0196080D01*
X0593325Y0196220D01*
X0593331Y0196360D01*
X0593333Y0196500D01*
X0600333Y0196500D01*
X0600333Y0195500D01*
X0663333Y0039000D02*
X0663333Y0024000D01*
X0650735Y0016224D02*
X0650735Y0006776D01*
X0625932Y0006776D01*
X0625932Y0016224D01*
X0650735Y0016224D01*
X0580833Y0025181D02*
X0575833Y0025181D01*
D12*
X0663662Y0039309D02*
X0662942Y0038769D01*
X0662943Y0038770D02*
X0662762Y0039003D01*
X0662576Y0039231D01*
X0662384Y0039455D01*
X0662187Y0039674D01*
X0661985Y0039888D01*
X0661777Y0040097D01*
X0661564Y0040300D01*
X0661347Y0040499D01*
X0661124Y0040692D01*
X0660897Y0040880D01*
X0660666Y0041062D01*
X0660430Y0041239D01*
X0660189Y0041409D01*
X0659945Y0041574D01*
X0659697Y0041732D01*
X0659445Y0041885D01*
X0659189Y0042031D01*
X0658930Y0042171D01*
X0658667Y0042305D01*
X0658402Y0042432D01*
X0658133Y0042553D01*
X0657861Y0042667D01*
X0657587Y0042774D01*
X0657310Y0042875D01*
X0657031Y0042969D01*
X0656749Y0043056D01*
X0656466Y0043136D01*
X0656180Y0043209D01*
X0655893Y0043275D01*
X0655604Y0043334D01*
X0655314Y0043386D01*
X0655023Y0043431D01*
X0654731Y0043469D01*
X0654438Y0043499D01*
X0654144Y0043523D01*
X0653850Y0043539D01*
X0653556Y0043548D01*
X0653261Y0043550D01*
X0652966Y0043544D01*
X0652672Y0043532D01*
X0652378Y0043512D01*
X0652085Y0043485D01*
X0651792Y0043451D01*
X0651500Y0043410D01*
X0651210Y0043361D01*
X0650920Y0043306D01*
X0650633Y0043244D01*
X0650346Y0043174D01*
X0650062Y0043097D01*
X0649779Y0043014D01*
X0649499Y0042924D01*
X0649221Y0042827D01*
X0648945Y0042723D01*
X0648672Y0042612D01*
X0648402Y0042495D01*
X0648134Y0042371D01*
X0647870Y0042241D01*
X0647609Y0042104D01*
X0647352Y0041961D01*
X0647098Y0041811D01*
X0646847Y0041656D01*
X0646601Y0041494D01*
X0646359Y0041327D01*
X0646121Y0041153D01*
X0645887Y0040974D01*
X0645657Y0040789D01*
X0645433Y0040599D01*
X0645212Y0040403D01*
X0644997Y0040202D01*
X0644787Y0039995D01*
X0644582Y0039784D01*
X0644382Y0039567D01*
X0644187Y0039346D01*
X0643998Y0039120D01*
X0643815Y0038890D01*
X0643637Y0038655D01*
X0643465Y0038415D01*
X0643299Y0038172D01*
X0643139Y0037925D01*
X0642985Y0037674D01*
X0642837Y0037419D01*
X0642695Y0037160D01*
X0642560Y0036899D01*
X0642431Y0036634D01*
X0642309Y0036366D01*
X0642193Y0036095D01*
X0642084Y0035821D01*
X0641982Y0035545D01*
X0641887Y0035266D01*
X0641798Y0034985D01*
X0641716Y0034702D01*
X0641641Y0034417D01*
X0641574Y0034130D01*
X0641513Y0033842D01*
X0641459Y0033552D01*
X0641412Y0033261D01*
X0641373Y0032969D01*
X0641341Y0032677D01*
X0641315Y0032383D01*
X0641297Y0032089D01*
X0641287Y0031795D01*
X0641283Y0031500D01*
X0641287Y0031205D01*
X0641297Y0030911D01*
X0641315Y0030617D01*
X0641341Y0030323D01*
X0641373Y0030031D01*
X0641412Y0029739D01*
X0641459Y0029448D01*
X0641513Y0029158D01*
X0641574Y0028870D01*
X0641641Y0028583D01*
X0641716Y0028298D01*
X0641798Y0028015D01*
X0641887Y0027734D01*
X0641982Y0027455D01*
X0642084Y0027179D01*
X0642193Y0026905D01*
X0642309Y0026634D01*
X0642431Y0026366D01*
X0642560Y0026101D01*
X0642695Y0025840D01*
X0642837Y0025581D01*
X0642985Y0025326D01*
X0643139Y0025075D01*
X0643299Y0024828D01*
X0643465Y0024585D01*
X0643637Y0024345D01*
X0643815Y0024110D01*
X0643998Y0023880D01*
X0644187Y0023654D01*
X0644382Y0023433D01*
X0644582Y0023216D01*
X0644787Y0023005D01*
X0644997Y0022798D01*
X0645212Y0022597D01*
X0645433Y0022401D01*
X0645657Y0022211D01*
X0645887Y0022026D01*
X0646121Y0021847D01*
X0646359Y0021673D01*
X0646601Y0021506D01*
X0646847Y0021344D01*
X0647098Y0021189D01*
X0647352Y0021039D01*
X0647609Y0020896D01*
X0647870Y0020759D01*
X0648134Y0020629D01*
X0648402Y0020505D01*
X0648672Y0020388D01*
X0648945Y0020277D01*
X0649221Y0020173D01*
X0649499Y0020076D01*
X0649779Y0019986D01*
X0650062Y0019903D01*
X0650346Y0019826D01*
X0650633Y0019756D01*
X0650920Y0019694D01*
X0651210Y0019639D01*
X0651500Y0019590D01*
X0651792Y0019549D01*
X0652085Y0019515D01*
X0652378Y0019488D01*
X0652672Y0019468D01*
X0652966Y0019456D01*
X0653261Y0019450D01*
X0653556Y0019452D01*
X0653850Y0019461D01*
X0654144Y0019477D01*
X0654438Y0019501D01*
X0654731Y0019531D01*
X0655023Y0019569D01*
X0655314Y0019614D01*
X0655604Y0019666D01*
X0655893Y0019725D01*
X0656180Y0019791D01*
X0656466Y0019864D01*
X0656749Y0019944D01*
X0657031Y0020031D01*
X0657310Y0020125D01*
X0657587Y0020226D01*
X0657861Y0020333D01*
X0658133Y0020447D01*
X0658402Y0020568D01*
X0658667Y0020695D01*
X0658930Y0020829D01*
X0659189Y0020969D01*
X0659445Y0021115D01*
X0659697Y0021268D01*
X0659945Y0021426D01*
X0660189Y0021591D01*
X0660430Y0021761D01*
X0660666Y0021938D01*
X0660897Y0022120D01*
X0661124Y0022308D01*
X0661347Y0022501D01*
X0661564Y0022700D01*
X0661777Y0022903D01*
X0661985Y0023112D01*
X0662187Y0023326D01*
X0662384Y0023545D01*
X0662576Y0023769D01*
X0662762Y0023997D01*
X0662943Y0024230D01*
X0663662Y0023691D01*
X0663663Y0023690D01*
X0663469Y0023440D01*
X0663269Y0023194D01*
X0663063Y0022954D01*
X0662851Y0022719D01*
X0662633Y0022489D01*
X0662410Y0022264D01*
X0662182Y0022045D01*
X0661948Y0021831D01*
X0661709Y0021623D01*
X0661465Y0021421D01*
X0661216Y0021226D01*
X0660962Y0021036D01*
X0660704Y0020853D01*
X0660442Y0020676D01*
X0660175Y0020505D01*
X0659904Y0020341D01*
X0659629Y0020184D01*
X0659351Y0020033D01*
X0659068Y0019889D01*
X0658783Y0019753D01*
X0658494Y0019623D01*
X0658202Y0019500D01*
X0657907Y0019385D01*
X0657610Y0019277D01*
X0657309Y0019176D01*
X0657007Y0019082D01*
X0656702Y0018996D01*
X0656395Y0018917D01*
X0656087Y0018846D01*
X0655777Y0018783D01*
X0655465Y0018727D01*
X0655152Y0018678D01*
X0654838Y0018638D01*
X0654523Y0018605D01*
X0654207Y0018580D01*
X0653891Y0018562D01*
X0653575Y0018552D01*
X0653258Y0018550D01*
X0652941Y0018556D01*
X0652625Y0018569D01*
X0652309Y0018591D01*
X0651994Y0018619D01*
X0651679Y0018656D01*
X0651366Y0018700D01*
X0651053Y0018752D01*
X0650742Y0018812D01*
X0650433Y0018879D01*
X0650125Y0018954D01*
X0649819Y0019036D01*
X0649516Y0019125D01*
X0649214Y0019222D01*
X0648915Y0019327D01*
X0648619Y0019439D01*
X0648325Y0019557D01*
X0648035Y0019683D01*
X0647748Y0019816D01*
X0647463Y0019957D01*
X0647183Y0020104D01*
X0646906Y0020257D01*
X0646633Y0020418D01*
X0646364Y0020585D01*
X0646099Y0020759D01*
X0645839Y0020939D01*
X0645583Y0021125D01*
X0645332Y0021318D01*
X0645085Y0021516D01*
X0644843Y0021721D01*
X0644607Y0021931D01*
X0644375Y0022148D01*
X0644150Y0022370D01*
X0643929Y0022597D01*
X0643714Y0022829D01*
X0643505Y0023067D01*
X0643302Y0023310D01*
X0643104Y0023558D01*
X0642913Y0023810D01*
X0642728Y0024067D01*
X0642550Y0024329D01*
X0642378Y0024595D01*
X0642212Y0024864D01*
X0642053Y0025138D01*
X0641901Y0025416D01*
X0641756Y0025697D01*
X0641617Y0025982D01*
X0641486Y0026270D01*
X0641362Y0026562D01*
X0641244Y0026856D01*
X0641134Y0027153D01*
X0641032Y0027452D01*
X0640937Y0027754D01*
X0640849Y0028058D01*
X0640768Y0028365D01*
X0640695Y0028673D01*
X0640630Y0028983D01*
X0640572Y0029294D01*
X0640522Y0029607D01*
X0640480Y0029921D01*
X0640445Y0030235D01*
X0640418Y0030551D01*
X0640398Y0030867D01*
X0640387Y0031183D01*
X0640383Y0031500D01*
X0640387Y0031817D01*
X0640398Y0032133D01*
X0640418Y0032449D01*
X0640445Y0032765D01*
X0640480Y0033079D01*
X0640522Y0033393D01*
X0640572Y0033706D01*
X0640630Y0034017D01*
X0640695Y0034327D01*
X0640768Y0034635D01*
X0640849Y0034942D01*
X0640937Y0035246D01*
X0641032Y0035548D01*
X0641134Y0035847D01*
X0641244Y0036144D01*
X0641362Y0036438D01*
X0641486Y0036730D01*
X0641617Y0037018D01*
X0641756Y0037303D01*
X0641901Y0037584D01*
X0642053Y0037862D01*
X0642212Y0038136D01*
X0642378Y0038405D01*
X0642550Y0038671D01*
X0642728Y0038933D01*
X0642913Y0039190D01*
X0643104Y0039442D01*
X0643302Y0039690D01*
X0643505Y0039933D01*
X0643714Y0040171D01*
X0643929Y0040403D01*
X0644150Y0040630D01*
X0644375Y0040852D01*
X0644607Y0041069D01*
X0644843Y0041279D01*
X0645085Y0041484D01*
X0645332Y0041682D01*
X0645583Y0041875D01*
X0645839Y0042061D01*
X0646099Y0042241D01*
X0646364Y0042415D01*
X0646633Y0042582D01*
X0646906Y0042743D01*
X0647183Y0042896D01*
X0647463Y0043043D01*
X0647748Y0043184D01*
X0648035Y0043317D01*
X0648325Y0043443D01*
X0648619Y0043561D01*
X0648915Y0043673D01*
X0649214Y0043778D01*
X0649516Y0043875D01*
X0649819Y0043964D01*
X0650125Y0044046D01*
X0650433Y0044121D01*
X0650742Y0044188D01*
X0651053Y0044248D01*
X0651366Y0044300D01*
X0651679Y0044344D01*
X0651994Y0044381D01*
X0652309Y0044409D01*
X0652625Y0044431D01*
X0652941Y0044444D01*
X0653258Y0044450D01*
X0653575Y0044448D01*
X0653891Y0044438D01*
X0654207Y0044420D01*
X0654523Y0044395D01*
X0654838Y0044362D01*
X0655152Y0044322D01*
X0655465Y0044273D01*
X0655777Y0044217D01*
X0656087Y0044154D01*
X0656395Y0044083D01*
X0656702Y0044004D01*
X0657007Y0043918D01*
X0657309Y0043824D01*
X0657610Y0043723D01*
X0657907Y0043615D01*
X0658202Y0043500D01*
X0658494Y0043377D01*
X0658783Y0043247D01*
X0659068Y0043111D01*
X0659351Y0042967D01*
X0659629Y0042816D01*
X0659904Y0042659D01*
X0660175Y0042495D01*
X0660442Y0042324D01*
X0660704Y0042147D01*
X0660962Y0041964D01*
X0661216Y0041774D01*
X0661465Y0041579D01*
X0661709Y0041377D01*
X0661948Y0041169D01*
X0662182Y0040955D01*
X0662410Y0040736D01*
X0662633Y0040511D01*
X0662851Y0040281D01*
X0663063Y0040046D01*
X0663269Y0039806D01*
X0663469Y0039560D01*
X0663663Y0039310D01*
X0663588Y0039254D01*
X0663395Y0039502D01*
X0663196Y0039746D01*
X0662992Y0039984D01*
X0662782Y0040218D01*
X0662566Y0040446D01*
X0662344Y0040669D01*
X0662117Y0040887D01*
X0661885Y0041099D01*
X0661648Y0041305D01*
X0661406Y0041506D01*
X0661158Y0041700D01*
X0660907Y0041888D01*
X0660650Y0042070D01*
X0660390Y0042246D01*
X0660125Y0042415D01*
X0659856Y0042578D01*
X0659583Y0042734D01*
X0659307Y0042884D01*
X0659027Y0043026D01*
X0658743Y0043162D01*
X0658456Y0043291D01*
X0658166Y0043413D01*
X0657874Y0043527D01*
X0657578Y0043635D01*
X0657280Y0043735D01*
X0656980Y0043828D01*
X0656677Y0043913D01*
X0656373Y0043991D01*
X0656067Y0044062D01*
X0655759Y0044125D01*
X0655449Y0044181D01*
X0655139Y0044229D01*
X0654827Y0044269D01*
X0654514Y0044302D01*
X0654201Y0044327D01*
X0653887Y0044344D01*
X0653573Y0044354D01*
X0653258Y0044356D01*
X0652944Y0044350D01*
X0652630Y0044337D01*
X0652316Y0044316D01*
X0652003Y0044287D01*
X0651691Y0044251D01*
X0651380Y0044207D01*
X0651070Y0044155D01*
X0650761Y0044096D01*
X0650454Y0044029D01*
X0650148Y0043955D01*
X0649845Y0043874D01*
X0649543Y0043785D01*
X0649244Y0043688D01*
X0648947Y0043585D01*
X0648653Y0043474D01*
X0648362Y0043356D01*
X0648073Y0043231D01*
X0647788Y0043099D01*
X0647506Y0042960D01*
X0647228Y0042814D01*
X0646953Y0042661D01*
X0646682Y0042502D01*
X0646415Y0042336D01*
X0646152Y0042163D01*
X0645893Y0041985D01*
X0645639Y0041800D01*
X0645390Y0041608D01*
X0645145Y0041411D01*
X0644905Y0041208D01*
X0644670Y0040999D01*
X0644440Y0040784D01*
X0644216Y0040564D01*
X0643997Y0040339D01*
X0643784Y0040108D01*
X0643576Y0039872D01*
X0643374Y0039630D01*
X0643179Y0039385D01*
X0642989Y0039134D01*
X0642805Y0038879D01*
X0642628Y0038619D01*
X0642457Y0038355D01*
X0642293Y0038087D01*
X0642135Y0037815D01*
X0641984Y0037540D01*
X0641840Y0037260D01*
X0641702Y0036978D01*
X0641572Y0036692D01*
X0641448Y0036403D01*
X0641332Y0036110D01*
X0641223Y0035816D01*
X0641121Y0035518D01*
X0641027Y0035219D01*
X0640939Y0034916D01*
X0640859Y0034612D01*
X0640787Y0034307D01*
X0640722Y0033999D01*
X0640665Y0033690D01*
X0640615Y0033379D01*
X0640573Y0033068D01*
X0640538Y0032755D01*
X0640512Y0032442D01*
X0640492Y0032128D01*
X0640481Y0031814D01*
X0640477Y0031500D01*
X0640481Y0031186D01*
X0640492Y0030872D01*
X0640512Y0030558D01*
X0640538Y0030245D01*
X0640573Y0029932D01*
X0640615Y0029621D01*
X0640665Y0029310D01*
X0640722Y0029001D01*
X0640787Y0028693D01*
X0640859Y0028388D01*
X0640939Y0028084D01*
X0641027Y0027781D01*
X0641121Y0027482D01*
X0641223Y0027184D01*
X0641332Y0026890D01*
X0641448Y0026597D01*
X0641572Y0026308D01*
X0641702Y0026022D01*
X0641840Y0025740D01*
X0641984Y0025460D01*
X0642135Y0025185D01*
X0642293Y0024913D01*
X0642457Y0024645D01*
X0642628Y0024381D01*
X0642805Y0024121D01*
X0642989Y0023866D01*
X0643179Y0023615D01*
X0643374Y0023370D01*
X0643576Y0023128D01*
X0643784Y0022892D01*
X0643997Y0022661D01*
X0644216Y0022436D01*
X0644440Y0022216D01*
X0644670Y0022001D01*
X0644905Y0021792D01*
X0645145Y0021589D01*
X0645390Y0021392D01*
X0645639Y0021200D01*
X0645893Y0021015D01*
X0646152Y0020837D01*
X0646415Y0020664D01*
X0646682Y0020498D01*
X0646953Y0020339D01*
X0647228Y0020186D01*
X0647506Y0020040D01*
X0647788Y0019901D01*
X0648073Y0019769D01*
X0648362Y0019644D01*
X0648653Y0019526D01*
X0648947Y0019415D01*
X0649244Y0019312D01*
X0649543Y0019215D01*
X0649845Y0019126D01*
X0650148Y0019045D01*
X0650454Y0018971D01*
X0650761Y0018904D01*
X0651070Y0018845D01*
X0651380Y0018793D01*
X0651691Y0018749D01*
X0652003Y0018713D01*
X0652316Y0018684D01*
X0652630Y0018663D01*
X0652944Y0018650D01*
X0653258Y0018644D01*
X0653573Y0018646D01*
X0653887Y0018656D01*
X0654201Y0018673D01*
X0654514Y0018698D01*
X0654827Y0018731D01*
X0655139Y0018771D01*
X0655449Y0018819D01*
X0655759Y0018875D01*
X0656067Y0018938D01*
X0656373Y0019009D01*
X0656677Y0019087D01*
X0656980Y0019172D01*
X0657280Y0019265D01*
X0657578Y0019365D01*
X0657874Y0019473D01*
X0658166Y0019587D01*
X0658456Y0019709D01*
X0658743Y0019838D01*
X0659027Y0019974D01*
X0659307Y0020116D01*
X0659583Y0020266D01*
X0659856Y0020422D01*
X0660125Y0020585D01*
X0660390Y0020754D01*
X0660650Y0020930D01*
X0660907Y0021112D01*
X0661158Y0021300D01*
X0661406Y0021494D01*
X0661648Y0021695D01*
X0661885Y0021901D01*
X0662117Y0022113D01*
X0662344Y0022331D01*
X0662566Y0022554D01*
X0662782Y0022782D01*
X0662992Y0023016D01*
X0663196Y0023254D01*
X0663395Y0023498D01*
X0663588Y0023746D01*
X0663513Y0023803D01*
X0663321Y0023556D01*
X0663124Y0023314D01*
X0662921Y0023077D01*
X0662712Y0022846D01*
X0662498Y0022619D01*
X0662278Y0022397D01*
X0662053Y0022181D01*
X0661822Y0021971D01*
X0661587Y0021766D01*
X0661346Y0021567D01*
X0661101Y0021374D01*
X0660851Y0021188D01*
X0660597Y0021007D01*
X0660338Y0020832D01*
X0660075Y0020664D01*
X0659808Y0020503D01*
X0659537Y0020348D01*
X0659263Y0020199D01*
X0658985Y0020058D01*
X0658703Y0019923D01*
X0658419Y0019795D01*
X0658131Y0019674D01*
X0657840Y0019560D01*
X0657547Y0019454D01*
X0657251Y0019354D01*
X0656953Y0019262D01*
X0656653Y0019177D01*
X0656350Y0019100D01*
X0656046Y0019030D01*
X0655741Y0018967D01*
X0655434Y0018912D01*
X0655125Y0018864D01*
X0654816Y0018824D01*
X0654505Y0018792D01*
X0654194Y0018767D01*
X0653883Y0018750D01*
X0653571Y0018740D01*
X0653259Y0018738D01*
X0652947Y0018744D01*
X0652635Y0018757D01*
X0652324Y0018778D01*
X0652013Y0018806D01*
X0651703Y0018843D01*
X0651394Y0018886D01*
X0651086Y0018937D01*
X0650779Y0018996D01*
X0650475Y0019062D01*
X0650171Y0019136D01*
X0649870Y0019217D01*
X0649571Y0019305D01*
X0649274Y0019401D01*
X0648979Y0019504D01*
X0648687Y0019614D01*
X0648398Y0019731D01*
X0648111Y0019855D01*
X0647828Y0019986D01*
X0647548Y0020124D01*
X0647272Y0020269D01*
X0646999Y0020421D01*
X0646730Y0020579D01*
X0646465Y0020744D01*
X0646204Y0020915D01*
X0645948Y0021092D01*
X0645695Y0021276D01*
X0645448Y0021466D01*
X0645205Y0021661D01*
X0644966Y0021863D01*
X0644733Y0022071D01*
X0644505Y0022284D01*
X0644283Y0022502D01*
X0644065Y0022726D01*
X0643854Y0022955D01*
X0643648Y0023190D01*
X0643447Y0023429D01*
X0643253Y0023673D01*
X0643065Y0023922D01*
X0642882Y0024175D01*
X0642706Y0024433D01*
X0642537Y0024695D01*
X0642374Y0024961D01*
X0642217Y0025231D01*
X0642067Y0025505D01*
X0641924Y0025782D01*
X0641787Y0026062D01*
X0641658Y0026346D01*
X0641535Y0026633D01*
X0641420Y0026923D01*
X0641312Y0027216D01*
X0641210Y0027511D01*
X0641116Y0027809D01*
X0641030Y0028109D01*
X0640951Y0028410D01*
X0640879Y0028714D01*
X0640814Y0029019D01*
X0640757Y0029326D01*
X0640708Y0029634D01*
X0640666Y0029944D01*
X0640632Y0030254D01*
X0640605Y0030565D01*
X0640586Y0030876D01*
X0640575Y0031188D01*
X0640571Y0031500D01*
X0640575Y0031812D01*
X0640586Y0032124D01*
X0640605Y0032435D01*
X0640632Y0032746D01*
X0640666Y0033056D01*
X0640708Y0033366D01*
X0640757Y0033674D01*
X0640814Y0033981D01*
X0640879Y0034286D01*
X0640951Y0034590D01*
X0641030Y0034891D01*
X0641116Y0035191D01*
X0641210Y0035489D01*
X0641312Y0035784D01*
X0641420Y0036077D01*
X0641535Y0036367D01*
X0641658Y0036654D01*
X0641787Y0036938D01*
X0641924Y0037218D01*
X0642067Y0037495D01*
X0642217Y0037769D01*
X0642374Y0038039D01*
X0642537Y0038305D01*
X0642706Y0038567D01*
X0642882Y0038825D01*
X0643065Y0039078D01*
X0643253Y0039327D01*
X0643447Y0039571D01*
X0643648Y0039810D01*
X0643854Y0040045D01*
X0644065Y0040274D01*
X0644283Y0040498D01*
X0644505Y0040716D01*
X0644733Y0040929D01*
X0644966Y0041137D01*
X0645205Y0041339D01*
X0645448Y0041534D01*
X0645695Y0041724D01*
X0645948Y0041908D01*
X0646204Y0042085D01*
X0646465Y0042256D01*
X0646730Y0042421D01*
X0646999Y0042579D01*
X0647272Y0042731D01*
X0647548Y0042876D01*
X0647828Y0043014D01*
X0648111Y0043145D01*
X0648398Y0043269D01*
X0648687Y0043386D01*
X0648979Y0043496D01*
X0649274Y0043599D01*
X0649571Y0043695D01*
X0649870Y0043783D01*
X0650171Y0043864D01*
X0650475Y0043938D01*
X0650779Y0044004D01*
X0651086Y0044063D01*
X0651394Y0044114D01*
X0651703Y0044157D01*
X0652013Y0044194D01*
X0652324Y0044222D01*
X0652635Y0044243D01*
X0652947Y0044256D01*
X0653259Y0044262D01*
X0653571Y0044260D01*
X0653883Y0044250D01*
X0654194Y0044233D01*
X0654505Y0044208D01*
X0654816Y0044176D01*
X0655125Y0044136D01*
X0655434Y0044088D01*
X0655741Y0044033D01*
X0656046Y0043970D01*
X0656350Y0043900D01*
X0656653Y0043823D01*
X0656953Y0043738D01*
X0657251Y0043646D01*
X0657547Y0043546D01*
X0657840Y0043440D01*
X0658131Y0043326D01*
X0658419Y0043205D01*
X0658703Y0043077D01*
X0658985Y0042942D01*
X0659263Y0042801D01*
X0659537Y0042652D01*
X0659808Y0042497D01*
X0660075Y0042336D01*
X0660338Y0042168D01*
X0660597Y0041993D01*
X0660851Y0041812D01*
X0661101Y0041626D01*
X0661346Y0041433D01*
X0661587Y0041234D01*
X0661822Y0041029D01*
X0662053Y0040819D01*
X0662278Y0040603D01*
X0662498Y0040381D01*
X0662712Y0040154D01*
X0662921Y0039923D01*
X0663124Y0039686D01*
X0663321Y0039444D01*
X0663513Y0039197D01*
X0663437Y0039141D01*
X0663247Y0039386D01*
X0663052Y0039626D01*
X0662850Y0039861D01*
X0662643Y0040091D01*
X0662430Y0040316D01*
X0662212Y0040536D01*
X0661988Y0040750D01*
X0661759Y0040959D01*
X0661526Y0041162D01*
X0661287Y0041360D01*
X0661044Y0041551D01*
X0660795Y0041737D01*
X0660543Y0041916D01*
X0660286Y0042089D01*
X0660025Y0042256D01*
X0659760Y0042417D01*
X0659491Y0042570D01*
X0659219Y0042718D01*
X0658943Y0042858D01*
X0658663Y0042992D01*
X0658381Y0043119D01*
X0658095Y0043239D01*
X0657807Y0043352D01*
X0657516Y0043458D01*
X0657222Y0043556D01*
X0656926Y0043648D01*
X0656628Y0043732D01*
X0656328Y0043809D01*
X0656026Y0043878D01*
X0655723Y0043941D01*
X0655418Y0043995D01*
X0655112Y0044043D01*
X0654804Y0044082D01*
X0654496Y0044114D01*
X0654188Y0044139D01*
X0653878Y0044156D01*
X0653569Y0044166D01*
X0653259Y0044168D01*
X0652949Y0044162D01*
X0652640Y0044149D01*
X0652331Y0044128D01*
X0652022Y0044100D01*
X0651715Y0044064D01*
X0651408Y0044021D01*
X0651102Y0043970D01*
X0650798Y0043912D01*
X0650495Y0043846D01*
X0650194Y0043773D01*
X0649895Y0043693D01*
X0649598Y0043605D01*
X0649303Y0043510D01*
X0649011Y0043408D01*
X0648721Y0043299D01*
X0648434Y0043182D01*
X0648150Y0043059D01*
X0647869Y0042929D01*
X0647591Y0042792D01*
X0647317Y0042648D01*
X0647046Y0042498D01*
X0646779Y0042341D01*
X0646516Y0042177D01*
X0646257Y0042007D01*
X0646002Y0041831D01*
X0645751Y0041649D01*
X0645506Y0041460D01*
X0645264Y0041266D01*
X0645028Y0041066D01*
X0644797Y0040860D01*
X0644570Y0040648D01*
X0644349Y0040431D01*
X0644134Y0040209D01*
X0643923Y0039982D01*
X0643719Y0039749D01*
X0643520Y0039511D01*
X0643327Y0039269D01*
X0643140Y0039022D01*
X0642959Y0038771D01*
X0642785Y0038515D01*
X0642616Y0038255D01*
X0642454Y0037991D01*
X0642299Y0037723D01*
X0642150Y0037451D01*
X0642008Y0037176D01*
X0641872Y0036897D01*
X0641744Y0036616D01*
X0641622Y0036331D01*
X0641508Y0036043D01*
X0641400Y0035752D01*
X0641300Y0035459D01*
X0641206Y0035164D01*
X0641120Y0034866D01*
X0641042Y0034567D01*
X0640971Y0034265D01*
X0640907Y0033962D01*
X0640850Y0033658D01*
X0640801Y0033352D01*
X0640760Y0033045D01*
X0640726Y0032737D01*
X0640699Y0032428D01*
X0640680Y0032119D01*
X0640669Y0031810D01*
X0640665Y0031500D01*
X0640669Y0031190D01*
X0640680Y0030881D01*
X0640699Y0030572D01*
X0640726Y0030263D01*
X0640760Y0029955D01*
X0640801Y0029648D01*
X0640850Y0029342D01*
X0640907Y0029038D01*
X0640971Y0028735D01*
X0641042Y0028433D01*
X0641120Y0028134D01*
X0641206Y0027836D01*
X0641300Y0027541D01*
X0641400Y0027248D01*
X0641508Y0026957D01*
X0641622Y0026669D01*
X0641744Y0026384D01*
X0641872Y0026103D01*
X0642008Y0025824D01*
X0642150Y0025549D01*
X0642299Y0025277D01*
X0642454Y0025009D01*
X0642616Y0024745D01*
X0642785Y0024485D01*
X0642959Y0024229D01*
X0643140Y0023978D01*
X0643327Y0023731D01*
X0643520Y0023489D01*
X0643719Y0023251D01*
X0643923Y0023018D01*
X0644134Y0022791D01*
X0644349Y0022569D01*
X0644570Y0022352D01*
X0644797Y0022140D01*
X0645028Y0021934D01*
X0645264Y0021734D01*
X0645506Y0021540D01*
X0645751Y0021351D01*
X0646002Y0021169D01*
X0646257Y0020993D01*
X0646516Y0020823D01*
X0646779Y0020659D01*
X0647046Y0020502D01*
X0647317Y0020352D01*
X0647591Y0020208D01*
X0647869Y0020071D01*
X0648150Y0019941D01*
X0648434Y0019818D01*
X0648721Y0019701D01*
X0649011Y0019592D01*
X0649303Y0019490D01*
X0649598Y0019395D01*
X0649895Y0019307D01*
X0650194Y0019227D01*
X0650495Y0019154D01*
X0650798Y0019088D01*
X0651102Y0019030D01*
X0651408Y0018979D01*
X0651715Y0018936D01*
X0652022Y0018900D01*
X0652331Y0018872D01*
X0652640Y0018851D01*
X0652949Y0018838D01*
X0653259Y0018832D01*
X0653569Y0018834D01*
X0653878Y0018844D01*
X0654188Y0018861D01*
X0654496Y0018886D01*
X0654804Y0018918D01*
X0655112Y0018957D01*
X0655418Y0019005D01*
X0655723Y0019059D01*
X0656026Y0019122D01*
X0656328Y0019191D01*
X0656628Y0019268D01*
X0656926Y0019352D01*
X0657222Y0019444D01*
X0657516Y0019542D01*
X0657807Y0019648D01*
X0658095Y0019761D01*
X0658381Y0019881D01*
X0658663Y0020008D01*
X0658943Y0020142D01*
X0659219Y0020282D01*
X0659491Y0020430D01*
X0659760Y0020583D01*
X0660025Y0020744D01*
X0660286Y0020911D01*
X0660543Y0021084D01*
X0660795Y0021263D01*
X0661044Y0021449D01*
X0661287Y0021640D01*
X0661526Y0021838D01*
X0661759Y0022041D01*
X0661988Y0022250D01*
X0662212Y0022464D01*
X0662430Y0022684D01*
X0662643Y0022909D01*
X0662850Y0023139D01*
X0663052Y0023374D01*
X0663247Y0023614D01*
X0663437Y0023859D01*
X0663362Y0023916D01*
X0663174Y0023673D01*
X0662979Y0023434D01*
X0662779Y0023201D01*
X0662574Y0022973D01*
X0662362Y0022749D01*
X0662146Y0022531D01*
X0661924Y0022318D01*
X0661697Y0022111D01*
X0661465Y0021909D01*
X0661228Y0021713D01*
X0660986Y0021523D01*
X0660740Y0021339D01*
X0660489Y0021161D01*
X0660234Y0020989D01*
X0659975Y0020824D01*
X0659712Y0020664D01*
X0659445Y0020512D01*
X0659175Y0020365D01*
X0658901Y0020226D01*
X0658624Y0020093D01*
X0658343Y0019967D01*
X0658060Y0019848D01*
X0657773Y0019736D01*
X0657484Y0019631D01*
X0657193Y0019533D01*
X0656899Y0019442D01*
X0656603Y0019359D01*
X0656306Y0019282D01*
X0656006Y0019213D01*
X0655705Y0019152D01*
X0655402Y0019097D01*
X0655098Y0019051D01*
X0654793Y0019011D01*
X0654488Y0018979D01*
X0654181Y0018955D01*
X0653874Y0018938D01*
X0653567Y0018928D01*
X0653259Y0018926D01*
X0652952Y0018932D01*
X0652645Y0018945D01*
X0652338Y0018965D01*
X0652032Y0018994D01*
X0651726Y0019029D01*
X0651422Y0019072D01*
X0651119Y0019123D01*
X0650817Y0019180D01*
X0650516Y0019246D01*
X0650217Y0019318D01*
X0649921Y0019398D01*
X0649626Y0019485D01*
X0649333Y0019579D01*
X0649043Y0019681D01*
X0648755Y0019789D01*
X0648470Y0019904D01*
X0648188Y0020027D01*
X0647909Y0020156D01*
X0647633Y0020292D01*
X0647361Y0020435D01*
X0647092Y0020584D01*
X0646827Y0020740D01*
X0646566Y0020902D01*
X0646309Y0021071D01*
X0646056Y0021246D01*
X0645808Y0021427D01*
X0645564Y0021614D01*
X0645324Y0021807D01*
X0645090Y0022005D01*
X0644860Y0022210D01*
X0644635Y0022420D01*
X0644416Y0022635D01*
X0644202Y0022856D01*
X0643993Y0023081D01*
X0643790Y0023312D01*
X0643593Y0023548D01*
X0643401Y0023789D01*
X0643216Y0024034D01*
X0643036Y0024283D01*
X0642863Y0024537D01*
X0642696Y0024795D01*
X0642535Y0025057D01*
X0642381Y0025323D01*
X0642233Y0025593D01*
X0642092Y0025866D01*
X0641957Y0026143D01*
X0641830Y0026422D01*
X0641709Y0026705D01*
X0641595Y0026991D01*
X0641489Y0027279D01*
X0641389Y0027570D01*
X0641296Y0027863D01*
X0641211Y0028159D01*
X0641133Y0028456D01*
X0641062Y0028755D01*
X0640999Y0029056D01*
X0640943Y0029358D01*
X0640894Y0029662D01*
X0640853Y0029967D01*
X0640819Y0030272D01*
X0640793Y0030578D01*
X0640774Y0030885D01*
X0640763Y0031193D01*
X0640759Y0031500D01*
X0640763Y0031807D01*
X0640774Y0032115D01*
X0640793Y0032422D01*
X0640819Y0032728D01*
X0640853Y0033033D01*
X0640894Y0033338D01*
X0640943Y0033642D01*
X0640999Y0033944D01*
X0641062Y0034245D01*
X0641133Y0034544D01*
X0641211Y0034841D01*
X0641296Y0035137D01*
X0641389Y0035430D01*
X0641489Y0035721D01*
X0641595Y0036009D01*
X0641709Y0036295D01*
X0641830Y0036578D01*
X0641957Y0036857D01*
X0642092Y0037134D01*
X0642233Y0037407D01*
X0642381Y0037677D01*
X0642535Y0037943D01*
X0642696Y0038205D01*
X0642863Y0038463D01*
X0643036Y0038717D01*
X0643216Y0038966D01*
X0643401Y0039211D01*
X0643593Y0039452D01*
X0643790Y0039688D01*
X0643993Y0039919D01*
X0644202Y0040144D01*
X0644416Y0040365D01*
X0644635Y0040580D01*
X0644860Y0040790D01*
X0645090Y0040995D01*
X0645324Y0041193D01*
X0645564Y0041386D01*
X0645808Y0041573D01*
X0646056Y0041754D01*
X0646309Y0041929D01*
X0646566Y0042098D01*
X0646827Y0042260D01*
X0647092Y0042416D01*
X0647361Y0042565D01*
X0647633Y0042708D01*
X0647909Y0042844D01*
X0648188Y0042973D01*
X0648470Y0043096D01*
X0648755Y0043211D01*
X0649043Y0043319D01*
X0649333Y0043421D01*
X0649626Y0043515D01*
X0649921Y0043602D01*
X0650217Y0043682D01*
X0650516Y0043754D01*
X0650817Y0043820D01*
X0651119Y0043877D01*
X0651422Y0043928D01*
X0651726Y0043971D01*
X0652032Y0044006D01*
X0652338Y0044035D01*
X0652645Y0044055D01*
X0652952Y0044068D01*
X0653259Y0044074D01*
X0653567Y0044072D01*
X0653874Y0044062D01*
X0654181Y0044045D01*
X0654488Y0044021D01*
X0654793Y0043989D01*
X0655098Y0043949D01*
X0655402Y0043903D01*
X0655705Y0043848D01*
X0656006Y0043787D01*
X0656306Y0043718D01*
X0656603Y0043641D01*
X0656899Y0043558D01*
X0657193Y0043467D01*
X0657484Y0043369D01*
X0657773Y0043264D01*
X0658060Y0043152D01*
X0658343Y0043033D01*
X0658624Y0042907D01*
X0658901Y0042774D01*
X0659175Y0042635D01*
X0659445Y0042488D01*
X0659712Y0042336D01*
X0659975Y0042176D01*
X0660234Y0042011D01*
X0660489Y0041839D01*
X0660740Y0041661D01*
X0660986Y0041477D01*
X0661228Y0041287D01*
X0661465Y0041091D01*
X0661697Y0040889D01*
X0661924Y0040682D01*
X0662146Y0040469D01*
X0662362Y0040251D01*
X0662574Y0040027D01*
X0662779Y0039799D01*
X0662979Y0039566D01*
X0663174Y0039327D01*
X0663362Y0039084D01*
X0663287Y0039028D01*
X0663100Y0039269D01*
X0662907Y0039506D01*
X0662708Y0039737D01*
X0662504Y0039964D01*
X0662295Y0040186D01*
X0662080Y0040402D01*
X0661859Y0040613D01*
X0661634Y0040819D01*
X0661404Y0041019D01*
X0661168Y0041214D01*
X0660929Y0041402D01*
X0660684Y0041585D01*
X0660435Y0041762D01*
X0660182Y0041932D01*
X0659925Y0042097D01*
X0659664Y0042255D01*
X0659399Y0042406D01*
X0659131Y0042551D01*
X0658859Y0042690D01*
X0658584Y0042822D01*
X0658305Y0042947D01*
X0658024Y0043065D01*
X0657740Y0043176D01*
X0657453Y0043280D01*
X0657164Y0043378D01*
X0656872Y0043468D01*
X0656579Y0043551D01*
X0656283Y0043626D01*
X0655986Y0043695D01*
X0655687Y0043756D01*
X0655386Y0043810D01*
X0655085Y0043856D01*
X0654782Y0043896D01*
X0654479Y0043927D01*
X0654174Y0043952D01*
X0653870Y0043968D01*
X0653565Y0043978D01*
X0653260Y0043980D01*
X0652955Y0043974D01*
X0652650Y0043961D01*
X0652345Y0043941D01*
X0652041Y0043913D01*
X0651738Y0043878D01*
X0651436Y0043835D01*
X0651135Y0043785D01*
X0650835Y0043728D01*
X0650537Y0043663D01*
X0650241Y0043591D01*
X0649946Y0043512D01*
X0649653Y0043425D01*
X0649363Y0043332D01*
X0649075Y0043231D01*
X0648789Y0043123D01*
X0648506Y0043009D01*
X0648226Y0042887D01*
X0647949Y0042759D01*
X0647676Y0042624D01*
X0647406Y0042483D01*
X0647139Y0042334D01*
X0646876Y0042180D01*
X0646617Y0042019D01*
X0646361Y0041851D01*
X0646110Y0041678D01*
X0645864Y0041498D01*
X0645622Y0041312D01*
X0645384Y0041121D01*
X0645151Y0040924D01*
X0644923Y0040721D01*
X0644700Y0040512D01*
X0644482Y0040299D01*
X0644270Y0040080D01*
X0644063Y0039856D01*
X0643861Y0039626D01*
X0643665Y0039392D01*
X0643475Y0039154D01*
X0643291Y0038910D01*
X0643113Y0038663D01*
X0642941Y0038411D01*
X0642775Y0038154D01*
X0642616Y0037894D01*
X0642462Y0037630D01*
X0642316Y0037363D01*
X0642176Y0037092D01*
X0642042Y0036817D01*
X0641916Y0036540D01*
X0641796Y0036259D01*
X0641683Y0035975D01*
X0641577Y0035689D01*
X0641478Y0035401D01*
X0641386Y0035110D01*
X0641302Y0034816D01*
X0641224Y0034521D01*
X0641154Y0034224D01*
X0641091Y0033926D01*
X0641035Y0033626D01*
X0640987Y0033324D01*
X0640946Y0033022D01*
X0640913Y0032719D01*
X0640887Y0032415D01*
X0640868Y0032110D01*
X0640857Y0031805D01*
X0640853Y0031500D01*
X0640857Y0031195D01*
X0640868Y0030890D01*
X0640887Y0030585D01*
X0640913Y0030281D01*
X0640946Y0029978D01*
X0640987Y0029676D01*
X0641035Y0029374D01*
X0641091Y0029074D01*
X0641154Y0028776D01*
X0641224Y0028479D01*
X0641302Y0028184D01*
X0641386Y0027890D01*
X0641478Y0027599D01*
X0641577Y0027311D01*
X0641683Y0027025D01*
X0641796Y0026741D01*
X0641916Y0026460D01*
X0642042Y0026183D01*
X0642176Y0025908D01*
X0642316Y0025637D01*
X0642462Y0025370D01*
X0642616Y0025106D01*
X0642775Y0024846D01*
X0642941Y0024589D01*
X0643113Y0024337D01*
X0643291Y0024090D01*
X0643475Y0023846D01*
X0643665Y0023608D01*
X0643861Y0023374D01*
X0644063Y0023144D01*
X0644270Y0022920D01*
X0644482Y0022701D01*
X0644700Y0022488D01*
X0644923Y0022279D01*
X0645151Y0022076D01*
X0645384Y0021879D01*
X0645622Y0021688D01*
X0645864Y0021502D01*
X0646110Y0021322D01*
X0646361Y0021149D01*
X0646617Y0020981D01*
X0646876Y0020820D01*
X0647139Y0020666D01*
X0647406Y0020517D01*
X0647676Y0020376D01*
X0647949Y0020241D01*
X0648226Y0020113D01*
X0648506Y0019991D01*
X0648789Y0019877D01*
X0649075Y0019769D01*
X0649363Y0019668D01*
X0649653Y0019575D01*
X0649946Y0019488D01*
X0650241Y0019409D01*
X0650537Y0019337D01*
X0650835Y0019272D01*
X0651135Y0019215D01*
X0651436Y0019165D01*
X0651738Y0019122D01*
X0652041Y0019087D01*
X0652345Y0019059D01*
X0652650Y0019039D01*
X0652955Y0019026D01*
X0653260Y0019020D01*
X0653565Y0019022D01*
X0653870Y0019032D01*
X0654174Y0019048D01*
X0654479Y0019073D01*
X0654782Y0019104D01*
X0655085Y0019144D01*
X0655386Y0019190D01*
X0655687Y0019244D01*
X0655986Y0019305D01*
X0656283Y0019374D01*
X0656579Y0019449D01*
X0656872Y0019532D01*
X0657164Y0019622D01*
X0657453Y0019720D01*
X0657740Y0019824D01*
X0658024Y0019935D01*
X0658305Y0020053D01*
X0658584Y0020178D01*
X0658859Y0020310D01*
X0659131Y0020449D01*
X0659399Y0020594D01*
X0659664Y0020745D01*
X0659925Y0020903D01*
X0660182Y0021068D01*
X0660435Y0021238D01*
X0660684Y0021415D01*
X0660929Y0021598D01*
X0661168Y0021786D01*
X0661404Y0021981D01*
X0661634Y0022181D01*
X0661859Y0022387D01*
X0662080Y0022598D01*
X0662295Y0022814D01*
X0662504Y0023036D01*
X0662708Y0023263D01*
X0662907Y0023494D01*
X0663100Y0023731D01*
X0663287Y0023972D01*
X0663212Y0024028D01*
X0663026Y0023789D01*
X0662835Y0023554D01*
X0662638Y0023325D01*
X0662435Y0023100D01*
X0662227Y0022879D01*
X0662013Y0022665D01*
X0661795Y0022455D01*
X0661571Y0022251D01*
X0661343Y0022052D01*
X0661109Y0021859D01*
X0660871Y0021672D01*
X0660629Y0021491D01*
X0660382Y0021315D01*
X0660131Y0021146D01*
X0659875Y0020983D01*
X0659616Y0020826D01*
X0659353Y0020676D01*
X0659087Y0020532D01*
X0658817Y0020394D01*
X0658544Y0020263D01*
X0658268Y0020139D01*
X0657988Y0020022D01*
X0657706Y0019912D01*
X0657422Y0019808D01*
X0657135Y0019712D01*
X0656845Y0019622D01*
X0656554Y0019540D01*
X0656261Y0019465D01*
X0655965Y0019397D01*
X0655669Y0019336D01*
X0655371Y0019283D01*
X0655071Y0019237D01*
X0654771Y0019198D01*
X0654470Y0019166D01*
X0654168Y0019142D01*
X0653865Y0019125D01*
X0653563Y0019116D01*
X0653260Y0019114D01*
X0652957Y0019120D01*
X0652655Y0019133D01*
X0652352Y0019153D01*
X0652051Y0019181D01*
X0651750Y0019216D01*
X0651450Y0019258D01*
X0651151Y0019308D01*
X0650854Y0019365D01*
X0650558Y0019429D01*
X0650264Y0019500D01*
X0649971Y0019579D01*
X0649681Y0019665D01*
X0649392Y0019758D01*
X0649107Y0019857D01*
X0648823Y0019964D01*
X0648543Y0020078D01*
X0648265Y0020198D01*
X0647990Y0020326D01*
X0647718Y0020460D01*
X0647450Y0020600D01*
X0647185Y0020747D01*
X0646924Y0020901D01*
X0646667Y0021061D01*
X0646414Y0021227D01*
X0646165Y0021399D01*
X0645920Y0021577D01*
X0645679Y0021762D01*
X0645444Y0021952D01*
X0645213Y0022147D01*
X0644986Y0022349D01*
X0644765Y0022555D01*
X0644549Y0022768D01*
X0644338Y0022985D01*
X0644133Y0023207D01*
X0643933Y0023435D01*
X0643738Y0023667D01*
X0643550Y0023904D01*
X0643367Y0024146D01*
X0643190Y0024391D01*
X0643019Y0024642D01*
X0642855Y0024896D01*
X0642696Y0025154D01*
X0642544Y0025416D01*
X0642399Y0025681D01*
X0642260Y0025950D01*
X0642127Y0026223D01*
X0642002Y0026498D01*
X0641883Y0026777D01*
X0641771Y0027058D01*
X0641666Y0027342D01*
X0641567Y0027629D01*
X0641476Y0027918D01*
X0641392Y0028209D01*
X0641315Y0028502D01*
X0641246Y0028796D01*
X0641183Y0029093D01*
X0641128Y0029390D01*
X0641080Y0029689D01*
X0641039Y0029989D01*
X0641006Y0030291D01*
X0640980Y0030592D01*
X0640962Y0030895D01*
X0640951Y0031197D01*
X0640947Y0031500D01*
X0640951Y0031803D01*
X0640962Y0032105D01*
X0640980Y0032408D01*
X0641006Y0032709D01*
X0641039Y0033011D01*
X0641080Y0033311D01*
X0641128Y0033610D01*
X0641183Y0033907D01*
X0641246Y0034204D01*
X0641315Y0034498D01*
X0641392Y0034791D01*
X0641476Y0035082D01*
X0641567Y0035371D01*
X0641666Y0035658D01*
X0641771Y0035942D01*
X0641883Y0036223D01*
X0642002Y0036502D01*
X0642127Y0036777D01*
X0642260Y0037050D01*
X0642399Y0037319D01*
X0642544Y0037584D01*
X0642696Y0037846D01*
X0642855Y0038104D01*
X0643019Y0038358D01*
X0643190Y0038609D01*
X0643367Y0038854D01*
X0643550Y0039096D01*
X0643738Y0039333D01*
X0643933Y0039565D01*
X0644133Y0039793D01*
X0644338Y0040015D01*
X0644549Y0040232D01*
X0644765Y0040445D01*
X0644986Y0040651D01*
X0645213Y0040853D01*
X0645444Y0041048D01*
X0645679Y0041238D01*
X0645920Y0041423D01*
X0646165Y0041601D01*
X0646414Y0041773D01*
X0646667Y0041939D01*
X0646924Y0042099D01*
X0647185Y0042253D01*
X0647450Y0042400D01*
X0647718Y0042540D01*
X0647990Y0042674D01*
X0648265Y0042802D01*
X0648543Y0042922D01*
X0648823Y0043036D01*
X0649107Y0043143D01*
X0649392Y0043242D01*
X0649681Y0043335D01*
X0649971Y0043421D01*
X0650264Y0043500D01*
X0650558Y0043571D01*
X0650854Y0043635D01*
X0651151Y0043692D01*
X0651450Y0043742D01*
X0651750Y0043784D01*
X0652051Y0043819D01*
X0652352Y0043847D01*
X0652655Y0043867D01*
X0652957Y0043880D01*
X0653260Y0043886D01*
X0653563Y0043884D01*
X0653865Y0043875D01*
X0654168Y0043858D01*
X0654470Y0043834D01*
X0654771Y0043802D01*
X0655071Y0043763D01*
X0655371Y0043717D01*
X0655669Y0043664D01*
X0655965Y0043603D01*
X0656261Y0043535D01*
X0656554Y0043460D01*
X0656845Y0043378D01*
X0657135Y0043288D01*
X0657422Y0043192D01*
X0657706Y0043088D01*
X0657988Y0042978D01*
X0658268Y0042861D01*
X0658544Y0042737D01*
X0658817Y0042606D01*
X0659087Y0042468D01*
X0659353Y0042324D01*
X0659616Y0042174D01*
X0659875Y0042017D01*
X0660131Y0041854D01*
X0660382Y0041685D01*
X0660629Y0041509D01*
X0660871Y0041328D01*
X0661109Y0041141D01*
X0661343Y0040948D01*
X0661571Y0040749D01*
X0661795Y0040545D01*
X0662013Y0040335D01*
X0662227Y0040121D01*
X0662435Y0039900D01*
X0662638Y0039675D01*
X0662835Y0039446D01*
X0663026Y0039211D01*
X0663212Y0038972D01*
X0663137Y0038915D01*
X0662952Y0039153D01*
X0662762Y0039385D01*
X0662567Y0039614D01*
X0662366Y0039837D01*
X0662159Y0040055D01*
X0661947Y0040269D01*
X0661730Y0040477D01*
X0661508Y0040679D01*
X0661281Y0040876D01*
X0661050Y0041068D01*
X0660814Y0041254D01*
X0660573Y0041434D01*
X0660328Y0041608D01*
X0660079Y0041776D01*
X0659825Y0041938D01*
X0659568Y0042093D01*
X0659307Y0042242D01*
X0659043Y0042385D01*
X0658775Y0042522D01*
X0658504Y0042651D01*
X0658230Y0042774D01*
X0657953Y0042891D01*
X0657673Y0043000D01*
X0657390Y0043103D01*
X0657106Y0043199D01*
X0656818Y0043287D01*
X0656529Y0043369D01*
X0656238Y0043444D01*
X0655945Y0043511D01*
X0655651Y0043572D01*
X0655355Y0043625D01*
X0655058Y0043670D01*
X0654760Y0043709D01*
X0654461Y0043740D01*
X0654161Y0043764D01*
X0653861Y0043781D01*
X0653561Y0043790D01*
X0653260Y0043792D01*
X0652960Y0043786D01*
X0652659Y0043774D01*
X0652360Y0043753D01*
X0652060Y0043726D01*
X0651762Y0043691D01*
X0651464Y0043649D01*
X0651168Y0043600D01*
X0650873Y0043543D01*
X0650579Y0043479D01*
X0650287Y0043409D01*
X0649997Y0043331D01*
X0649708Y0043245D01*
X0649422Y0043153D01*
X0649138Y0043054D01*
X0648857Y0042948D01*
X0648579Y0042835D01*
X0648303Y0042716D01*
X0648030Y0042589D01*
X0647761Y0042456D01*
X0647495Y0042317D01*
X0647232Y0042171D01*
X0646973Y0042019D01*
X0646717Y0041860D01*
X0646466Y0041695D01*
X0646219Y0041524D01*
X0645976Y0041347D01*
X0645737Y0041164D01*
X0645503Y0040976D01*
X0645274Y0040782D01*
X0645050Y0040582D01*
X0644830Y0040377D01*
X0644616Y0040166D01*
X0644406Y0039950D01*
X0644202Y0039730D01*
X0644004Y0039504D01*
X0643811Y0039273D01*
X0643624Y0039038D01*
X0643442Y0038799D01*
X0643267Y0038555D01*
X0643097Y0038306D01*
X0642934Y0038054D01*
X0642777Y0037798D01*
X0642626Y0037538D01*
X0642482Y0037274D01*
X0642344Y0037007D01*
X0642212Y0036737D01*
X0642088Y0036464D01*
X0641970Y0036187D01*
X0641859Y0035908D01*
X0641754Y0035626D01*
X0641657Y0035342D01*
X0641566Y0035055D01*
X0641483Y0034766D01*
X0641407Y0034476D01*
X0641337Y0034183D01*
X0641275Y0033889D01*
X0641221Y0033594D01*
X0641173Y0033297D01*
X0641133Y0032999D01*
X0641100Y0032700D01*
X0641074Y0032401D01*
X0641056Y0032101D01*
X0641045Y0031801D01*
X0641041Y0031500D01*
X0641045Y0031199D01*
X0641056Y0030899D01*
X0641074Y0030599D01*
X0641100Y0030300D01*
X0641133Y0030001D01*
X0641173Y0029703D01*
X0641221Y0029406D01*
X0641275Y0029111D01*
X0641337Y0028817D01*
X0641407Y0028524D01*
X0641483Y0028234D01*
X0641566Y0027945D01*
X0641657Y0027658D01*
X0641754Y0027374D01*
X0641859Y0027092D01*
X0641970Y0026813D01*
X0642088Y0026536D01*
X0642212Y0026263D01*
X0642344Y0025993D01*
X0642482Y0025726D01*
X0642626Y0025462D01*
X0642777Y0025202D01*
X0642934Y0024946D01*
X0643097Y0024694D01*
X0643267Y0024445D01*
X0643442Y0024201D01*
X0643624Y0023962D01*
X0643811Y0023727D01*
X0644004Y0023496D01*
X0644202Y0023270D01*
X0644406Y0023050D01*
X0644616Y0022834D01*
X0644830Y0022623D01*
X0645050Y0022418D01*
X0645274Y0022218D01*
X0645503Y0022024D01*
X0645737Y0021836D01*
X0645976Y0021653D01*
X0646219Y0021476D01*
X0646466Y0021305D01*
X0646717Y0021140D01*
X0646973Y0020981D01*
X0647232Y0020829D01*
X0647495Y0020683D01*
X0647761Y0020544D01*
X0648030Y0020411D01*
X0648303Y0020284D01*
X0648579Y0020165D01*
X0648857Y0020052D01*
X0649138Y0019946D01*
X0649422Y0019847D01*
X0649708Y0019755D01*
X0649997Y0019669D01*
X0650287Y0019591D01*
X0650579Y0019521D01*
X0650873Y0019457D01*
X0651168Y0019400D01*
X0651464Y0019351D01*
X0651762Y0019309D01*
X0652060Y0019274D01*
X0652360Y0019247D01*
X0652659Y0019226D01*
X0652960Y0019214D01*
X0653260Y0019208D01*
X0653561Y0019210D01*
X0653861Y0019219D01*
X0654161Y0019236D01*
X0654461Y0019260D01*
X0654760Y0019291D01*
X0655058Y0019330D01*
X0655355Y0019375D01*
X0655651Y0019428D01*
X0655945Y0019489D01*
X0656238Y0019556D01*
X0656529Y0019631D01*
X0656818Y0019713D01*
X0657106Y0019801D01*
X0657390Y0019897D01*
X0657673Y0020000D01*
X0657953Y0020109D01*
X0658230Y0020226D01*
X0658504Y0020349D01*
X0658775Y0020478D01*
X0659043Y0020615D01*
X0659307Y0020758D01*
X0659568Y0020907D01*
X0659825Y0021062D01*
X0660079Y0021224D01*
X0660328Y0021392D01*
X0660573Y0021566D01*
X0660814Y0021746D01*
X0661050Y0021932D01*
X0661281Y0022124D01*
X0661508Y0022321D01*
X0661730Y0022523D01*
X0661947Y0022731D01*
X0662159Y0022945D01*
X0662366Y0023163D01*
X0662567Y0023386D01*
X0662762Y0023615D01*
X0662952Y0023847D01*
X0663137Y0024085D01*
X0663061Y0024141D01*
X0662879Y0023906D01*
X0662690Y0023675D01*
X0662496Y0023448D01*
X0662296Y0023226D01*
X0662091Y0023010D01*
X0661881Y0022798D01*
X0661666Y0022592D01*
X0661446Y0022391D01*
X0661220Y0022195D01*
X0660991Y0022005D01*
X0660756Y0021821D01*
X0660517Y0021642D01*
X0660274Y0021469D01*
X0660027Y0021303D01*
X0659775Y0021142D01*
X0659520Y0020988D01*
X0659261Y0020840D01*
X0658999Y0020698D01*
X0658733Y0020563D01*
X0658464Y0020434D01*
X0658192Y0020312D01*
X0657917Y0020196D01*
X0657639Y0020087D01*
X0657359Y0019986D01*
X0657076Y0019891D01*
X0656791Y0019803D01*
X0656504Y0019722D01*
X0656216Y0019647D01*
X0655925Y0019581D01*
X0655633Y0019521D01*
X0655339Y0019468D01*
X0655044Y0019423D01*
X0654749Y0019384D01*
X0654452Y0019353D01*
X0654155Y0019330D01*
X0653857Y0019313D01*
X0653559Y0019304D01*
X0653261Y0019302D01*
X0652962Y0019308D01*
X0652664Y0019320D01*
X0652367Y0019340D01*
X0652070Y0019368D01*
X0651774Y0019402D01*
X0651478Y0019444D01*
X0651184Y0019493D01*
X0650891Y0019549D01*
X0650600Y0019612D01*
X0650310Y0019683D01*
X0650022Y0019760D01*
X0649736Y0019844D01*
X0649452Y0019936D01*
X0649170Y0020034D01*
X0648891Y0020139D01*
X0648615Y0020251D01*
X0648341Y0020370D01*
X0648071Y0020495D01*
X0647803Y0020627D01*
X0647539Y0020766D01*
X0647278Y0020911D01*
X0647021Y0021062D01*
X0646768Y0021219D01*
X0646519Y0021383D01*
X0646273Y0021553D01*
X0646032Y0021728D01*
X0645795Y0021910D01*
X0645563Y0022097D01*
X0645336Y0022289D01*
X0645113Y0022488D01*
X0644895Y0022691D01*
X0644682Y0022900D01*
X0644474Y0023114D01*
X0644272Y0023334D01*
X0644075Y0023557D01*
X0643884Y0023786D01*
X0643698Y0024020D01*
X0643518Y0024257D01*
X0643344Y0024499D01*
X0643176Y0024746D01*
X0643014Y0024996D01*
X0642858Y0025250D01*
X0642708Y0025508D01*
X0642565Y0025770D01*
X0642428Y0026035D01*
X0642297Y0026303D01*
X0642174Y0026574D01*
X0642057Y0026849D01*
X0641946Y0027126D01*
X0641843Y0027406D01*
X0641746Y0027688D01*
X0641656Y0027972D01*
X0641574Y0028259D01*
X0641498Y0028547D01*
X0641429Y0028837D01*
X0641368Y0029129D01*
X0641313Y0029422D01*
X0641266Y0029717D01*
X0641226Y0030012D01*
X0641193Y0030309D01*
X0641168Y0030606D01*
X0641150Y0030904D01*
X0641139Y0031202D01*
X0641135Y0031500D01*
X0641139Y0031798D01*
X0641150Y0032096D01*
X0641168Y0032394D01*
X0641193Y0032691D01*
X0641226Y0032988D01*
X0641266Y0033283D01*
X0641313Y0033578D01*
X0641368Y0033871D01*
X0641429Y0034163D01*
X0641498Y0034453D01*
X0641574Y0034741D01*
X0641656Y0035028D01*
X0641746Y0035312D01*
X0641843Y0035594D01*
X0641946Y0035874D01*
X0642057Y0036151D01*
X0642174Y0036426D01*
X0642297Y0036697D01*
X0642428Y0036965D01*
X0642565Y0037230D01*
X0642708Y0037492D01*
X0642858Y0037750D01*
X0643014Y0038004D01*
X0643176Y0038254D01*
X0643344Y0038501D01*
X0643518Y0038743D01*
X0643698Y0038980D01*
X0643884Y0039214D01*
X0644075Y0039443D01*
X0644272Y0039666D01*
X0644474Y0039886D01*
X0644682Y0040100D01*
X0644895Y0040309D01*
X0645113Y0040512D01*
X0645336Y0040711D01*
X0645563Y0040903D01*
X0645795Y0041090D01*
X0646032Y0041272D01*
X0646273Y0041447D01*
X0646519Y0041617D01*
X0646768Y0041781D01*
X0647021Y0041938D01*
X0647278Y0042089D01*
X0647539Y0042234D01*
X0647803Y0042373D01*
X0648071Y0042505D01*
X0648341Y0042630D01*
X0648615Y0042749D01*
X0648891Y0042861D01*
X0649170Y0042966D01*
X0649452Y0043064D01*
X0649736Y0043156D01*
X0650022Y0043240D01*
X0650310Y0043317D01*
X0650600Y0043388D01*
X0650891Y0043451D01*
X0651184Y0043507D01*
X0651478Y0043556D01*
X0651774Y0043598D01*
X0652070Y0043632D01*
X0652367Y0043660D01*
X0652664Y0043680D01*
X0652962Y0043692D01*
X0653261Y0043698D01*
X0653559Y0043696D01*
X0653857Y0043687D01*
X0654155Y0043670D01*
X0654452Y0043647D01*
X0654749Y0043616D01*
X0655044Y0043577D01*
X0655339Y0043532D01*
X0655633Y0043479D01*
X0655925Y0043419D01*
X0656216Y0043353D01*
X0656504Y0043278D01*
X0656791Y0043197D01*
X0657076Y0043109D01*
X0657359Y0043014D01*
X0657639Y0042913D01*
X0657917Y0042804D01*
X0658192Y0042688D01*
X0658464Y0042566D01*
X0658733Y0042437D01*
X0658999Y0042302D01*
X0659261Y0042160D01*
X0659520Y0042012D01*
X0659775Y0041858D01*
X0660027Y0041697D01*
X0660274Y0041531D01*
X0660517Y0041358D01*
X0660756Y0041179D01*
X0660991Y0040995D01*
X0661220Y0040805D01*
X0661446Y0040609D01*
X0661666Y0040408D01*
X0661881Y0040202D01*
X0662091Y0039990D01*
X0662296Y0039774D01*
X0662496Y0039552D01*
X0662690Y0039325D01*
X0662879Y0039094D01*
X0663061Y0038859D01*
X0662986Y0038802D01*
X0662805Y0039036D01*
X0662618Y0039265D01*
X0662425Y0039490D01*
X0662227Y0039710D01*
X0662024Y0039925D01*
X0661815Y0040135D01*
X0661601Y0040340D01*
X0661383Y0040539D01*
X0661159Y0040733D01*
X0660931Y0040922D01*
X0660699Y0041105D01*
X0660462Y0041282D01*
X0660220Y0041453D01*
X0659975Y0041619D01*
X0659726Y0041778D01*
X0659472Y0041931D01*
X0659216Y0042078D01*
X0658955Y0042219D01*
X0658691Y0042353D01*
X0658424Y0042481D01*
X0658154Y0042602D01*
X0657882Y0042717D01*
X0657606Y0042825D01*
X0657328Y0042926D01*
X0657047Y0043020D01*
X0656765Y0043107D01*
X0656480Y0043188D01*
X0656193Y0043261D01*
X0655905Y0043328D01*
X0655615Y0043387D01*
X0655323Y0043439D01*
X0655031Y0043484D01*
X0654737Y0043522D01*
X0654443Y0043553D01*
X0654148Y0043577D01*
X0653853Y0043593D01*
X0653557Y0043602D01*
X0653261Y0043604D01*
X0652965Y0043598D01*
X0652669Y0043586D01*
X0652374Y0043566D01*
X0652079Y0043539D01*
X0651785Y0043505D01*
X0651492Y0043463D01*
X0651200Y0043415D01*
X0650910Y0043359D01*
X0650621Y0043296D01*
X0650333Y0043226D01*
X0650047Y0043149D01*
X0649763Y0043066D01*
X0649482Y0042975D01*
X0649202Y0042877D01*
X0648925Y0042773D01*
X0648651Y0042662D01*
X0648380Y0042544D01*
X0648111Y0042420D01*
X0647846Y0042289D01*
X0647584Y0042151D01*
X0647325Y0042008D01*
X0647070Y0041858D01*
X0646818Y0041701D01*
X0646571Y0041539D01*
X0646328Y0041371D01*
X0646088Y0041196D01*
X0645853Y0041016D01*
X0645623Y0040831D01*
X0645397Y0040639D01*
X0645176Y0040443D01*
X0644960Y0040241D01*
X0644749Y0040033D01*
X0644543Y0039821D01*
X0644342Y0039603D01*
X0644146Y0039381D01*
X0643956Y0039154D01*
X0643772Y0038923D01*
X0643594Y0038687D01*
X0643421Y0038447D01*
X0643254Y0038202D01*
X0643093Y0037954D01*
X0642938Y0037701D01*
X0642790Y0037445D01*
X0642648Y0037186D01*
X0642512Y0036923D01*
X0642382Y0036657D01*
X0642260Y0036388D01*
X0642143Y0036115D01*
X0642034Y0035840D01*
X0641931Y0035563D01*
X0641835Y0035283D01*
X0641746Y0035001D01*
X0641664Y0034716D01*
X0641589Y0034430D01*
X0641521Y0034142D01*
X0641460Y0033853D01*
X0641406Y0033562D01*
X0641359Y0033269D01*
X0641319Y0032976D01*
X0641287Y0032682D01*
X0641262Y0032387D01*
X0641243Y0032092D01*
X0641233Y0031796D01*
X0641229Y0031500D01*
X0641233Y0031204D01*
X0641243Y0030908D01*
X0641262Y0030613D01*
X0641287Y0030318D01*
X0641319Y0030024D01*
X0641359Y0029731D01*
X0641406Y0029438D01*
X0641460Y0029147D01*
X0641521Y0028858D01*
X0641589Y0028570D01*
X0641664Y0028284D01*
X0641746Y0027999D01*
X0641835Y0027717D01*
X0641931Y0027437D01*
X0642034Y0027160D01*
X0642143Y0026885D01*
X0642260Y0026612D01*
X0642382Y0026343D01*
X0642512Y0026077D01*
X0642648Y0025814D01*
X0642790Y0025555D01*
X0642938Y0025299D01*
X0643093Y0025046D01*
X0643254Y0024798D01*
X0643421Y0024553D01*
X0643594Y0024313D01*
X0643772Y0024077D01*
X0643956Y0023846D01*
X0644146Y0023619D01*
X0644342Y0023397D01*
X0644543Y0023179D01*
X0644749Y0022967D01*
X0644960Y0022759D01*
X0645176Y0022557D01*
X0645397Y0022361D01*
X0645623Y0022169D01*
X0645853Y0021984D01*
X0646088Y0021804D01*
X0646328Y0021629D01*
X0646571Y0021461D01*
X0646818Y0021299D01*
X0647070Y0021142D01*
X0647325Y0020992D01*
X0647584Y0020849D01*
X0647846Y0020711D01*
X0648111Y0020580D01*
X0648380Y0020456D01*
X0648651Y0020338D01*
X0648925Y0020227D01*
X0649202Y0020123D01*
X0649482Y0020025D01*
X0649763Y0019934D01*
X0650047Y0019851D01*
X0650333Y0019774D01*
X0650621Y0019704D01*
X0650910Y0019641D01*
X0651200Y0019585D01*
X0651492Y0019537D01*
X0651785Y0019495D01*
X0652079Y0019461D01*
X0652374Y0019434D01*
X0652669Y0019414D01*
X0652965Y0019402D01*
X0653261Y0019396D01*
X0653557Y0019398D01*
X0653853Y0019407D01*
X0654148Y0019423D01*
X0654443Y0019447D01*
X0654737Y0019478D01*
X0655031Y0019516D01*
X0655323Y0019561D01*
X0655615Y0019613D01*
X0655905Y0019672D01*
X0656193Y0019739D01*
X0656480Y0019812D01*
X0656765Y0019893D01*
X0657047Y0019980D01*
X0657328Y0020074D01*
X0657606Y0020175D01*
X0657882Y0020283D01*
X0658154Y0020398D01*
X0658424Y0020519D01*
X0658691Y0020647D01*
X0658955Y0020781D01*
X0659216Y0020922D01*
X0659472Y0021069D01*
X0659726Y0021222D01*
X0659975Y0021381D01*
X0660220Y0021547D01*
X0660462Y0021718D01*
X0660699Y0021895D01*
X0660931Y0022078D01*
X0661159Y0022267D01*
X0661383Y0022461D01*
X0661601Y0022660D01*
X0661815Y0022865D01*
X0662024Y0023075D01*
X0662227Y0023290D01*
X0662425Y0023510D01*
X0662618Y0023735D01*
X0662805Y0023964D01*
X0662986Y0024198D01*
X0663662Y0079309D02*
X0662942Y0078769D01*
X0662943Y0078770D02*
X0662762Y0079003D01*
X0662576Y0079231D01*
X0662384Y0079455D01*
X0662187Y0079674D01*
X0661985Y0079888D01*
X0661777Y0080097D01*
X0661564Y0080300D01*
X0661347Y0080499D01*
X0661124Y0080692D01*
X0660897Y0080880D01*
X0660666Y0081062D01*
X0660430Y0081239D01*
X0660189Y0081409D01*
X0659945Y0081574D01*
X0659697Y0081732D01*
X0659445Y0081885D01*
X0659189Y0082031D01*
X0658930Y0082171D01*
X0658667Y0082305D01*
X0658402Y0082432D01*
X0658133Y0082553D01*
X0657861Y0082667D01*
X0657587Y0082774D01*
X0657310Y0082875D01*
X0657031Y0082969D01*
X0656749Y0083056D01*
X0656466Y0083136D01*
X0656180Y0083209D01*
X0655893Y0083275D01*
X0655604Y0083334D01*
X0655314Y0083386D01*
X0655023Y0083431D01*
X0654731Y0083469D01*
X0654438Y0083499D01*
X0654144Y0083523D01*
X0653850Y0083539D01*
X0653556Y0083548D01*
X0653261Y0083550D01*
X0652966Y0083544D01*
X0652672Y0083532D01*
X0652378Y0083512D01*
X0652085Y0083485D01*
X0651792Y0083451D01*
X0651500Y0083410D01*
X0651210Y0083361D01*
X0650920Y0083306D01*
X0650633Y0083244D01*
X0650346Y0083174D01*
X0650062Y0083097D01*
X0649779Y0083014D01*
X0649499Y0082924D01*
X0649221Y0082827D01*
X0648945Y0082723D01*
X0648672Y0082612D01*
X0648402Y0082495D01*
X0648134Y0082371D01*
X0647870Y0082241D01*
X0647609Y0082104D01*
X0647352Y0081961D01*
X0647098Y0081811D01*
X0646847Y0081656D01*
X0646601Y0081494D01*
X0646359Y0081327D01*
X0646121Y0081153D01*
X0645887Y0080974D01*
X0645657Y0080789D01*
X0645433Y0080599D01*
X0645212Y0080403D01*
X0644997Y0080202D01*
X0644787Y0079995D01*
X0644582Y0079784D01*
X0644382Y0079567D01*
X0644187Y0079346D01*
X0643998Y0079120D01*
X0643815Y0078890D01*
X0643637Y0078655D01*
X0643465Y0078415D01*
X0643299Y0078172D01*
X0643139Y0077925D01*
X0642985Y0077674D01*
X0642837Y0077419D01*
X0642695Y0077160D01*
X0642560Y0076899D01*
X0642431Y0076634D01*
X0642309Y0076366D01*
X0642193Y0076095D01*
X0642084Y0075821D01*
X0641982Y0075545D01*
X0641887Y0075266D01*
X0641798Y0074985D01*
X0641716Y0074702D01*
X0641641Y0074417D01*
X0641574Y0074130D01*
X0641513Y0073842D01*
X0641459Y0073552D01*
X0641412Y0073261D01*
X0641373Y0072969D01*
X0641341Y0072677D01*
X0641315Y0072383D01*
X0641297Y0072089D01*
X0641287Y0071795D01*
X0641283Y0071500D01*
X0641287Y0071205D01*
X0641297Y0070911D01*
X0641315Y0070617D01*
X0641341Y0070323D01*
X0641373Y0070031D01*
X0641412Y0069739D01*
X0641459Y0069448D01*
X0641513Y0069158D01*
X0641574Y0068870D01*
X0641641Y0068583D01*
X0641716Y0068298D01*
X0641798Y0068015D01*
X0641887Y0067734D01*
X0641982Y0067455D01*
X0642084Y0067179D01*
X0642193Y0066905D01*
X0642309Y0066634D01*
X0642431Y0066366D01*
X0642560Y0066101D01*
X0642695Y0065840D01*
X0642837Y0065581D01*
X0642985Y0065326D01*
X0643139Y0065075D01*
X0643299Y0064828D01*
X0643465Y0064585D01*
X0643637Y0064345D01*
X0643815Y0064110D01*
X0643998Y0063880D01*
X0644187Y0063654D01*
X0644382Y0063433D01*
X0644582Y0063216D01*
X0644787Y0063005D01*
X0644997Y0062798D01*
X0645212Y0062597D01*
X0645433Y0062401D01*
X0645657Y0062211D01*
X0645887Y0062026D01*
X0646121Y0061847D01*
X0646359Y0061673D01*
X0646601Y0061506D01*
X0646847Y0061344D01*
X0647098Y0061189D01*
X0647352Y0061039D01*
X0647609Y0060896D01*
X0647870Y0060759D01*
X0648134Y0060629D01*
X0648402Y0060505D01*
X0648672Y0060388D01*
X0648945Y0060277D01*
X0649221Y0060173D01*
X0649499Y0060076D01*
X0649779Y0059986D01*
X0650062Y0059903D01*
X0650346Y0059826D01*
X0650633Y0059756D01*
X0650920Y0059694D01*
X0651210Y0059639D01*
X0651500Y0059590D01*
X0651792Y0059549D01*
X0652085Y0059515D01*
X0652378Y0059488D01*
X0652672Y0059468D01*
X0652966Y0059456D01*
X0653261Y0059450D01*
X0653556Y0059452D01*
X0653850Y0059461D01*
X0654144Y0059477D01*
X0654438Y0059501D01*
X0654731Y0059531D01*
X0655023Y0059569D01*
X0655314Y0059614D01*
X0655604Y0059666D01*
X0655893Y0059725D01*
X0656180Y0059791D01*
X0656466Y0059864D01*
X0656749Y0059944D01*
X0657031Y0060031D01*
X0657310Y0060125D01*
X0657587Y0060226D01*
X0657861Y0060333D01*
X0658133Y0060447D01*
X0658402Y0060568D01*
X0658667Y0060695D01*
X0658930Y0060829D01*
X0659189Y0060969D01*
X0659445Y0061115D01*
X0659697Y0061268D01*
X0659945Y0061426D01*
X0660189Y0061591D01*
X0660430Y0061761D01*
X0660666Y0061938D01*
X0660897Y0062120D01*
X0661124Y0062308D01*
X0661347Y0062501D01*
X0661564Y0062700D01*
X0661777Y0062903D01*
X0661985Y0063112D01*
X0662187Y0063326D01*
X0662384Y0063545D01*
X0662576Y0063769D01*
X0662762Y0063997D01*
X0662943Y0064230D01*
X0663662Y0063691D01*
X0663663Y0063690D01*
X0663469Y0063440D01*
X0663269Y0063194D01*
X0663063Y0062954D01*
X0662851Y0062719D01*
X0662633Y0062489D01*
X0662410Y0062264D01*
X0662182Y0062045D01*
X0661948Y0061831D01*
X0661709Y0061623D01*
X0661465Y0061421D01*
X0661216Y0061226D01*
X0660962Y0061036D01*
X0660704Y0060853D01*
X0660442Y0060676D01*
X0660175Y0060505D01*
X0659904Y0060341D01*
X0659629Y0060184D01*
X0659351Y0060033D01*
X0659068Y0059889D01*
X0658783Y0059753D01*
X0658494Y0059623D01*
X0658202Y0059500D01*
X0657907Y0059385D01*
X0657610Y0059277D01*
X0657309Y0059176D01*
X0657007Y0059082D01*
X0656702Y0058996D01*
X0656395Y0058917D01*
X0656087Y0058846D01*
X0655777Y0058783D01*
X0655465Y0058727D01*
X0655152Y0058678D01*
X0654838Y0058638D01*
X0654523Y0058605D01*
X0654207Y0058580D01*
X0653891Y0058562D01*
X0653575Y0058552D01*
X0653258Y0058550D01*
X0652941Y0058556D01*
X0652625Y0058569D01*
X0652309Y0058591D01*
X0651994Y0058619D01*
X0651679Y0058656D01*
X0651366Y0058700D01*
X0651053Y0058752D01*
X0650742Y0058812D01*
X0650433Y0058879D01*
X0650125Y0058954D01*
X0649819Y0059036D01*
X0649516Y0059125D01*
X0649214Y0059222D01*
X0648915Y0059327D01*
X0648619Y0059439D01*
X0648325Y0059557D01*
X0648035Y0059683D01*
X0647748Y0059816D01*
X0647463Y0059957D01*
X0647183Y0060104D01*
X0646906Y0060257D01*
X0646633Y0060418D01*
X0646364Y0060585D01*
X0646099Y0060759D01*
X0645839Y0060939D01*
X0645583Y0061125D01*
X0645332Y0061318D01*
X0645085Y0061516D01*
X0644843Y0061721D01*
X0644607Y0061931D01*
X0644375Y0062148D01*
X0644150Y0062370D01*
X0643929Y0062597D01*
X0643714Y0062829D01*
X0643505Y0063067D01*
X0643302Y0063310D01*
X0643104Y0063558D01*
X0642913Y0063810D01*
X0642728Y0064067D01*
X0642550Y0064329D01*
X0642378Y0064595D01*
X0642212Y0064864D01*
X0642053Y0065138D01*
X0641901Y0065416D01*
X0641756Y0065697D01*
X0641617Y0065982D01*
X0641486Y0066270D01*
X0641362Y0066562D01*
X0641244Y0066856D01*
X0641134Y0067153D01*
X0641032Y0067452D01*
X0640937Y0067754D01*
X0640849Y0068058D01*
X0640768Y0068365D01*
X0640695Y0068673D01*
X0640630Y0068983D01*
X0640572Y0069294D01*
X0640522Y0069607D01*
X0640480Y0069921D01*
X0640445Y0070235D01*
X0640418Y0070551D01*
X0640398Y0070867D01*
X0640387Y0071183D01*
X0640383Y0071500D01*
X0640387Y0071817D01*
X0640398Y0072133D01*
X0640418Y0072449D01*
X0640445Y0072765D01*
X0640480Y0073079D01*
X0640522Y0073393D01*
X0640572Y0073706D01*
X0640630Y0074017D01*
X0640695Y0074327D01*
X0640768Y0074635D01*
X0640849Y0074942D01*
X0640937Y0075246D01*
X0641032Y0075548D01*
X0641134Y0075847D01*
X0641244Y0076144D01*
X0641362Y0076438D01*
X0641486Y0076730D01*
X0641617Y0077018D01*
X0641756Y0077303D01*
X0641901Y0077584D01*
X0642053Y0077862D01*
X0642212Y0078136D01*
X0642378Y0078405D01*
X0642550Y0078671D01*
X0642728Y0078933D01*
X0642913Y0079190D01*
X0643104Y0079442D01*
X0643302Y0079690D01*
X0643505Y0079933D01*
X0643714Y0080171D01*
X0643929Y0080403D01*
X0644150Y0080630D01*
X0644375Y0080852D01*
X0644607Y0081069D01*
X0644843Y0081279D01*
X0645085Y0081484D01*
X0645332Y0081682D01*
X0645583Y0081875D01*
X0645839Y0082061D01*
X0646099Y0082241D01*
X0646364Y0082415D01*
X0646633Y0082582D01*
X0646906Y0082743D01*
X0647183Y0082896D01*
X0647463Y0083043D01*
X0647748Y0083184D01*
X0648035Y0083317D01*
X0648325Y0083443D01*
X0648619Y0083561D01*
X0648915Y0083673D01*
X0649214Y0083778D01*
X0649516Y0083875D01*
X0649819Y0083964D01*
X0650125Y0084046D01*
X0650433Y0084121D01*
X0650742Y0084188D01*
X0651053Y0084248D01*
X0651366Y0084300D01*
X0651679Y0084344D01*
X0651994Y0084381D01*
X0652309Y0084409D01*
X0652625Y0084431D01*
X0652941Y0084444D01*
X0653258Y0084450D01*
X0653575Y0084448D01*
X0653891Y0084438D01*
X0654207Y0084420D01*
X0654523Y0084395D01*
X0654838Y0084362D01*
X0655152Y0084322D01*
X0655465Y0084273D01*
X0655777Y0084217D01*
X0656087Y0084154D01*
X0656395Y0084083D01*
X0656702Y0084004D01*
X0657007Y0083918D01*
X0657309Y0083824D01*
X0657610Y0083723D01*
X0657907Y0083615D01*
X0658202Y0083500D01*
X0658494Y0083377D01*
X0658783Y0083247D01*
X0659068Y0083111D01*
X0659351Y0082967D01*
X0659629Y0082816D01*
X0659904Y0082659D01*
X0660175Y0082495D01*
X0660442Y0082324D01*
X0660704Y0082147D01*
X0660962Y0081964D01*
X0661216Y0081774D01*
X0661465Y0081579D01*
X0661709Y0081377D01*
X0661948Y0081169D01*
X0662182Y0080955D01*
X0662410Y0080736D01*
X0662633Y0080511D01*
X0662851Y0080281D01*
X0663063Y0080046D01*
X0663269Y0079806D01*
X0663469Y0079560D01*
X0663663Y0079310D01*
X0663588Y0079254D01*
X0663395Y0079502D01*
X0663196Y0079746D01*
X0662992Y0079984D01*
X0662782Y0080218D01*
X0662566Y0080446D01*
X0662344Y0080669D01*
X0662117Y0080887D01*
X0661885Y0081099D01*
X0661648Y0081305D01*
X0661406Y0081506D01*
X0661158Y0081700D01*
X0660907Y0081888D01*
X0660650Y0082070D01*
X0660390Y0082246D01*
X0660125Y0082415D01*
X0659856Y0082578D01*
X0659583Y0082734D01*
X0659307Y0082884D01*
X0659027Y0083026D01*
X0658743Y0083162D01*
X0658456Y0083291D01*
X0658166Y0083413D01*
X0657874Y0083527D01*
X0657578Y0083635D01*
X0657280Y0083735D01*
X0656980Y0083828D01*
X0656677Y0083913D01*
X0656373Y0083991D01*
X0656067Y0084062D01*
X0655759Y0084125D01*
X0655449Y0084181D01*
X0655139Y0084229D01*
X0654827Y0084269D01*
X0654514Y0084302D01*
X0654201Y0084327D01*
X0653887Y0084344D01*
X0653573Y0084354D01*
X0653258Y0084356D01*
X0652944Y0084350D01*
X0652630Y0084337D01*
X0652316Y0084316D01*
X0652003Y0084287D01*
X0651691Y0084251D01*
X0651380Y0084207D01*
X0651070Y0084155D01*
X0650761Y0084096D01*
X0650454Y0084029D01*
X0650148Y0083955D01*
X0649845Y0083874D01*
X0649543Y0083785D01*
X0649244Y0083688D01*
X0648947Y0083585D01*
X0648653Y0083474D01*
X0648362Y0083356D01*
X0648073Y0083231D01*
X0647788Y0083099D01*
X0647506Y0082960D01*
X0647228Y0082814D01*
X0646953Y0082661D01*
X0646682Y0082502D01*
X0646415Y0082336D01*
X0646152Y0082163D01*
X0645893Y0081985D01*
X0645639Y0081800D01*
X0645390Y0081608D01*
X0645145Y0081411D01*
X0644905Y0081208D01*
X0644670Y0080999D01*
X0644440Y0080784D01*
X0644216Y0080564D01*
X0643997Y0080339D01*
X0643784Y0080108D01*
X0643576Y0079872D01*
X0643374Y0079630D01*
X0643179Y0079385D01*
X0642989Y0079134D01*
X0642805Y0078879D01*
X0642628Y0078619D01*
X0642457Y0078355D01*
X0642293Y0078087D01*
X0642135Y0077815D01*
X0641984Y0077540D01*
X0641840Y0077260D01*
X0641702Y0076978D01*
X0641572Y0076692D01*
X0641448Y0076403D01*
X0641332Y0076110D01*
X0641223Y0075816D01*
X0641121Y0075518D01*
X0641027Y0075219D01*
X0640939Y0074916D01*
X0640859Y0074612D01*
X0640787Y0074307D01*
X0640722Y0073999D01*
X0640665Y0073690D01*
X0640615Y0073379D01*
X0640573Y0073068D01*
X0640538Y0072755D01*
X0640512Y0072442D01*
X0640492Y0072128D01*
X0640481Y0071814D01*
X0640477Y0071500D01*
X0640481Y0071186D01*
X0640492Y0070872D01*
X0640512Y0070558D01*
X0640538Y0070245D01*
X0640573Y0069932D01*
X0640615Y0069621D01*
X0640665Y0069310D01*
X0640722Y0069001D01*
X0640787Y0068693D01*
X0640859Y0068388D01*
X0640939Y0068084D01*
X0641027Y0067781D01*
X0641121Y0067482D01*
X0641223Y0067184D01*
X0641332Y0066890D01*
X0641448Y0066597D01*
X0641572Y0066308D01*
X0641702Y0066022D01*
X0641840Y0065740D01*
X0641984Y0065460D01*
X0642135Y0065185D01*
X0642293Y0064913D01*
X0642457Y0064645D01*
X0642628Y0064381D01*
X0642805Y0064121D01*
X0642989Y0063866D01*
X0643179Y0063615D01*
X0643374Y0063370D01*
X0643576Y0063128D01*
X0643784Y0062892D01*
X0643997Y0062661D01*
X0644216Y0062436D01*
X0644440Y0062216D01*
X0644670Y0062001D01*
X0644905Y0061792D01*
X0645145Y0061589D01*
X0645390Y0061392D01*
X0645639Y0061200D01*
X0645893Y0061015D01*
X0646152Y0060837D01*
X0646415Y0060664D01*
X0646682Y0060498D01*
X0646953Y0060339D01*
X0647228Y0060186D01*
X0647506Y0060040D01*
X0647788Y0059901D01*
X0648073Y0059769D01*
X0648362Y0059644D01*
X0648653Y0059526D01*
X0648947Y0059415D01*
X0649244Y0059312D01*
X0649543Y0059215D01*
X0649845Y0059126D01*
X0650148Y0059045D01*
X0650454Y0058971D01*
X0650761Y0058904D01*
X0651070Y0058845D01*
X0651380Y0058793D01*
X0651691Y0058749D01*
X0652003Y0058713D01*
X0652316Y0058684D01*
X0652630Y0058663D01*
X0652944Y0058650D01*
X0653258Y0058644D01*
X0653573Y0058646D01*
X0653887Y0058656D01*
X0654201Y0058673D01*
X0654514Y0058698D01*
X0654827Y0058731D01*
X0655139Y0058771D01*
X0655449Y0058819D01*
X0655759Y0058875D01*
X0656067Y0058938D01*
X0656373Y0059009D01*
X0656677Y0059087D01*
X0656980Y0059172D01*
X0657280Y0059265D01*
X0657578Y0059365D01*
X0657874Y0059473D01*
X0658166Y0059587D01*
X0658456Y0059709D01*
X0658743Y0059838D01*
X0659027Y0059974D01*
X0659307Y0060116D01*
X0659583Y0060266D01*
X0659856Y0060422D01*
X0660125Y0060585D01*
X0660390Y0060754D01*
X0660650Y0060930D01*
X0660907Y0061112D01*
X0661158Y0061300D01*
X0661406Y0061494D01*
X0661648Y0061695D01*
X0661885Y0061901D01*
X0662117Y0062113D01*
X0662344Y0062331D01*
X0662566Y0062554D01*
X0662782Y0062782D01*
X0662992Y0063016D01*
X0663196Y0063254D01*
X0663395Y0063498D01*
X0663588Y0063746D01*
X0663513Y0063803D01*
X0663321Y0063556D01*
X0663124Y0063314D01*
X0662921Y0063077D01*
X0662712Y0062846D01*
X0662498Y0062619D01*
X0662278Y0062397D01*
X0662053Y0062181D01*
X0661822Y0061971D01*
X0661587Y0061766D01*
X0661346Y0061567D01*
X0661101Y0061374D01*
X0660851Y0061188D01*
X0660597Y0061007D01*
X0660338Y0060832D01*
X0660075Y0060664D01*
X0659808Y0060503D01*
X0659537Y0060348D01*
X0659263Y0060199D01*
X0658985Y0060058D01*
X0658703Y0059923D01*
X0658419Y0059795D01*
X0658131Y0059674D01*
X0657840Y0059560D01*
X0657547Y0059454D01*
X0657251Y0059354D01*
X0656953Y0059262D01*
X0656653Y0059177D01*
X0656350Y0059100D01*
X0656046Y0059030D01*
X0655741Y0058967D01*
X0655434Y0058912D01*
X0655125Y0058864D01*
X0654816Y0058824D01*
X0654505Y0058792D01*
X0654194Y0058767D01*
X0653883Y0058750D01*
X0653571Y0058740D01*
X0653259Y0058738D01*
X0652947Y0058744D01*
X0652635Y0058757D01*
X0652324Y0058778D01*
X0652013Y0058806D01*
X0651703Y0058843D01*
X0651394Y0058886D01*
X0651086Y0058937D01*
X0650779Y0058996D01*
X0650475Y0059062D01*
X0650171Y0059136D01*
X0649870Y0059217D01*
X0649571Y0059305D01*
X0649274Y0059401D01*
X0648979Y0059504D01*
X0648687Y0059614D01*
X0648398Y0059731D01*
X0648111Y0059855D01*
X0647828Y0059986D01*
X0647548Y0060124D01*
X0647272Y0060269D01*
X0646999Y0060421D01*
X0646730Y0060579D01*
X0646465Y0060744D01*
X0646204Y0060915D01*
X0645948Y0061092D01*
X0645695Y0061276D01*
X0645448Y0061466D01*
X0645205Y0061661D01*
X0644966Y0061863D01*
X0644733Y0062071D01*
X0644505Y0062284D01*
X0644283Y0062502D01*
X0644065Y0062726D01*
X0643854Y0062955D01*
X0643648Y0063190D01*
X0643447Y0063429D01*
X0643253Y0063673D01*
X0643065Y0063922D01*
X0642882Y0064175D01*
X0642706Y0064433D01*
X0642537Y0064695D01*
X0642374Y0064961D01*
X0642217Y0065231D01*
X0642067Y0065505D01*
X0641924Y0065782D01*
X0641787Y0066062D01*
X0641658Y0066346D01*
X0641535Y0066633D01*
X0641420Y0066923D01*
X0641312Y0067216D01*
X0641210Y0067511D01*
X0641116Y0067809D01*
X0641030Y0068109D01*
X0640951Y0068410D01*
X0640879Y0068714D01*
X0640814Y0069019D01*
X0640757Y0069326D01*
X0640708Y0069634D01*
X0640666Y0069944D01*
X0640632Y0070254D01*
X0640605Y0070565D01*
X0640586Y0070876D01*
X0640575Y0071188D01*
X0640571Y0071500D01*
X0640575Y0071812D01*
X0640586Y0072124D01*
X0640605Y0072435D01*
X0640632Y0072746D01*
X0640666Y0073056D01*
X0640708Y0073366D01*
X0640757Y0073674D01*
X0640814Y0073981D01*
X0640879Y0074286D01*
X0640951Y0074590D01*
X0641030Y0074891D01*
X0641116Y0075191D01*
X0641210Y0075489D01*
X0641312Y0075784D01*
X0641420Y0076077D01*
X0641535Y0076367D01*
X0641658Y0076654D01*
X0641787Y0076938D01*
X0641924Y0077218D01*
X0642067Y0077495D01*
X0642217Y0077769D01*
X0642374Y0078039D01*
X0642537Y0078305D01*
X0642706Y0078567D01*
X0642882Y0078825D01*
X0643065Y0079078D01*
X0643253Y0079327D01*
X0643447Y0079571D01*
X0643648Y0079810D01*
X0643854Y0080045D01*
X0644065Y0080274D01*
X0644283Y0080498D01*
X0644505Y0080716D01*
X0644733Y0080929D01*
X0644966Y0081137D01*
X0645205Y0081339D01*
X0645448Y0081534D01*
X0645695Y0081724D01*
X0645948Y0081908D01*
X0646204Y0082085D01*
X0646465Y0082256D01*
X0646730Y0082421D01*
X0646999Y0082579D01*
X0647272Y0082731D01*
X0647548Y0082876D01*
X0647828Y0083014D01*
X0648111Y0083145D01*
X0648398Y0083269D01*
X0648687Y0083386D01*
X0648979Y0083496D01*
X0649274Y0083599D01*
X0649571Y0083695D01*
X0649870Y0083783D01*
X0650171Y0083864D01*
X0650475Y0083938D01*
X0650779Y0084004D01*
X0651086Y0084063D01*
X0651394Y0084114D01*
X0651703Y0084157D01*
X0652013Y0084194D01*
X0652324Y0084222D01*
X0652635Y0084243D01*
X0652947Y0084256D01*
X0653259Y0084262D01*
X0653571Y0084260D01*
X0653883Y0084250D01*
X0654194Y0084233D01*
X0654505Y0084208D01*
X0654816Y0084176D01*
X0655125Y0084136D01*
X0655434Y0084088D01*
X0655741Y0084033D01*
X0656046Y0083970D01*
X0656350Y0083900D01*
X0656653Y0083823D01*
X0656953Y0083738D01*
X0657251Y0083646D01*
X0657547Y0083546D01*
X0657840Y0083440D01*
X0658131Y0083326D01*
X0658419Y0083205D01*
X0658703Y0083077D01*
X0658985Y0082942D01*
X0659263Y0082801D01*
X0659537Y0082652D01*
X0659808Y0082497D01*
X0660075Y0082336D01*
X0660338Y0082168D01*
X0660597Y0081993D01*
X0660851Y0081812D01*
X0661101Y0081626D01*
X0661346Y0081433D01*
X0661587Y0081234D01*
X0661822Y0081029D01*
X0662053Y0080819D01*
X0662278Y0080603D01*
X0662498Y0080381D01*
X0662712Y0080154D01*
X0662921Y0079923D01*
X0663124Y0079686D01*
X0663321Y0079444D01*
X0663513Y0079197D01*
X0663437Y0079141D01*
X0663247Y0079386D01*
X0663052Y0079626D01*
X0662850Y0079861D01*
X0662643Y0080091D01*
X0662430Y0080316D01*
X0662212Y0080536D01*
X0661988Y0080750D01*
X0661759Y0080959D01*
X0661526Y0081162D01*
X0661287Y0081360D01*
X0661044Y0081551D01*
X0660795Y0081737D01*
X0660543Y0081916D01*
X0660286Y0082089D01*
X0660025Y0082256D01*
X0659760Y0082417D01*
X0659491Y0082570D01*
X0659219Y0082718D01*
X0658943Y0082858D01*
X0658663Y0082992D01*
X0658381Y0083119D01*
X0658095Y0083239D01*
X0657807Y0083352D01*
X0657516Y0083458D01*
X0657222Y0083556D01*
X0656926Y0083648D01*
X0656628Y0083732D01*
X0656328Y0083809D01*
X0656026Y0083878D01*
X0655723Y0083941D01*
X0655418Y0083995D01*
X0655112Y0084043D01*
X0654804Y0084082D01*
X0654496Y0084114D01*
X0654188Y0084139D01*
X0653878Y0084156D01*
X0653569Y0084166D01*
X0653259Y0084168D01*
X0652949Y0084162D01*
X0652640Y0084149D01*
X0652331Y0084128D01*
X0652022Y0084100D01*
X0651715Y0084064D01*
X0651408Y0084021D01*
X0651102Y0083970D01*
X0650798Y0083912D01*
X0650495Y0083846D01*
X0650194Y0083773D01*
X0649895Y0083693D01*
X0649598Y0083605D01*
X0649303Y0083510D01*
X0649011Y0083408D01*
X0648721Y0083299D01*
X0648434Y0083182D01*
X0648150Y0083059D01*
X0647869Y0082929D01*
X0647591Y0082792D01*
X0647317Y0082648D01*
X0647046Y0082498D01*
X0646779Y0082341D01*
X0646516Y0082177D01*
X0646257Y0082007D01*
X0646002Y0081831D01*
X0645751Y0081649D01*
X0645506Y0081460D01*
X0645264Y0081266D01*
X0645028Y0081066D01*
X0644797Y0080860D01*
X0644570Y0080648D01*
X0644349Y0080431D01*
X0644134Y0080209D01*
X0643923Y0079982D01*
X0643719Y0079749D01*
X0643520Y0079511D01*
X0643327Y0079269D01*
X0643140Y0079022D01*
X0642959Y0078771D01*
X0642785Y0078515D01*
X0642616Y0078255D01*
X0642454Y0077991D01*
X0642299Y0077723D01*
X0642150Y0077451D01*
X0642008Y0077176D01*
X0641872Y0076897D01*
X0641744Y0076616D01*
X0641622Y0076331D01*
X0641508Y0076043D01*
X0641400Y0075752D01*
X0641300Y0075459D01*
X0641206Y0075164D01*
X0641120Y0074866D01*
X0641042Y0074567D01*
X0640971Y0074265D01*
X0640907Y0073962D01*
X0640850Y0073658D01*
X0640801Y0073352D01*
X0640760Y0073045D01*
X0640726Y0072737D01*
X0640699Y0072428D01*
X0640680Y0072119D01*
X0640669Y0071810D01*
X0640665Y0071500D01*
X0640669Y0071190D01*
X0640680Y0070881D01*
X0640699Y0070572D01*
X0640726Y0070263D01*
X0640760Y0069955D01*
X0640801Y0069648D01*
X0640850Y0069342D01*
X0640907Y0069038D01*
X0640971Y0068735D01*
X0641042Y0068433D01*
X0641120Y0068134D01*
X0641206Y0067836D01*
X0641300Y0067541D01*
X0641400Y0067248D01*
X0641508Y0066957D01*
X0641622Y0066669D01*
X0641744Y0066384D01*
X0641872Y0066103D01*
X0642008Y0065824D01*
X0642150Y0065549D01*
X0642299Y0065277D01*
X0642454Y0065009D01*
X0642616Y0064745D01*
X0642785Y0064485D01*
X0642959Y0064229D01*
X0643140Y0063978D01*
X0643327Y0063731D01*
X0643520Y0063489D01*
X0643719Y0063251D01*
X0643923Y0063018D01*
X0644134Y0062791D01*
X0644349Y0062569D01*
X0644570Y0062352D01*
X0644797Y0062140D01*
X0645028Y0061934D01*
X0645264Y0061734D01*
X0645506Y0061540D01*
X0645751Y0061351D01*
X0646002Y0061169D01*
X0646257Y0060993D01*
X0646516Y0060823D01*
X0646779Y0060659D01*
X0647046Y0060502D01*
X0647317Y0060352D01*
X0647591Y0060208D01*
X0647869Y0060071D01*
X0648150Y0059941D01*
X0648434Y0059818D01*
X0648721Y0059701D01*
X0649011Y0059592D01*
X0649303Y0059490D01*
X0649598Y0059395D01*
X0649895Y0059307D01*
X0650194Y0059227D01*
X0650495Y0059154D01*
X0650798Y0059088D01*
X0651102Y0059030D01*
X0651408Y0058979D01*
X0651715Y0058936D01*
X0652022Y0058900D01*
X0652331Y0058872D01*
X0652640Y0058851D01*
X0652949Y0058838D01*
X0653259Y0058832D01*
X0653569Y0058834D01*
X0653878Y0058844D01*
X0654188Y0058861D01*
X0654496Y0058886D01*
X0654804Y0058918D01*
X0655112Y0058957D01*
X0655418Y0059005D01*
X0655723Y0059059D01*
X0656026Y0059122D01*
X0656328Y0059191D01*
X0656628Y0059268D01*
X0656926Y0059352D01*
X0657222Y0059444D01*
X0657516Y0059542D01*
X0657807Y0059648D01*
X0658095Y0059761D01*
X0658381Y0059881D01*
X0658663Y0060008D01*
X0658943Y0060142D01*
X0659219Y0060282D01*
X0659491Y0060430D01*
X0659760Y0060583D01*
X0660025Y0060744D01*
X0660286Y0060911D01*
X0660543Y0061084D01*
X0660795Y0061263D01*
X0661044Y0061449D01*
X0661287Y0061640D01*
X0661526Y0061838D01*
X0661759Y0062041D01*
X0661988Y0062250D01*
X0662212Y0062464D01*
X0662430Y0062684D01*
X0662643Y0062909D01*
X0662850Y0063139D01*
X0663052Y0063374D01*
X0663247Y0063614D01*
X0663437Y0063859D01*
X0663362Y0063916D01*
X0663174Y0063673D01*
X0662979Y0063434D01*
X0662779Y0063201D01*
X0662574Y0062973D01*
X0662362Y0062749D01*
X0662146Y0062531D01*
X0661924Y0062318D01*
X0661697Y0062111D01*
X0661465Y0061909D01*
X0661228Y0061713D01*
X0660986Y0061523D01*
X0660740Y0061339D01*
X0660489Y0061161D01*
X0660234Y0060989D01*
X0659975Y0060824D01*
X0659712Y0060664D01*
X0659445Y0060512D01*
X0659175Y0060365D01*
X0658901Y0060226D01*
X0658624Y0060093D01*
X0658343Y0059967D01*
X0658060Y0059848D01*
X0657773Y0059736D01*
X0657484Y0059631D01*
X0657193Y0059533D01*
X0656899Y0059442D01*
X0656603Y0059359D01*
X0656306Y0059282D01*
X0656006Y0059213D01*
X0655705Y0059152D01*
X0655402Y0059097D01*
X0655098Y0059051D01*
X0654793Y0059011D01*
X0654488Y0058979D01*
X0654181Y0058955D01*
X0653874Y0058938D01*
X0653567Y0058928D01*
X0653259Y0058926D01*
X0652952Y0058932D01*
X0652645Y0058945D01*
X0652338Y0058965D01*
X0652032Y0058994D01*
X0651726Y0059029D01*
X0651422Y0059072D01*
X0651119Y0059123D01*
X0650817Y0059180D01*
X0650516Y0059246D01*
X0650217Y0059318D01*
X0649921Y0059398D01*
X0649626Y0059485D01*
X0649333Y0059579D01*
X0649043Y0059681D01*
X0648755Y0059789D01*
X0648470Y0059904D01*
X0648188Y0060027D01*
X0647909Y0060156D01*
X0647633Y0060292D01*
X0647361Y0060435D01*
X0647092Y0060584D01*
X0646827Y0060740D01*
X0646566Y0060902D01*
X0646309Y0061071D01*
X0646056Y0061246D01*
X0645808Y0061427D01*
X0645564Y0061614D01*
X0645324Y0061807D01*
X0645090Y0062005D01*
X0644860Y0062210D01*
X0644635Y0062420D01*
X0644416Y0062635D01*
X0644202Y0062856D01*
X0643993Y0063081D01*
X0643790Y0063312D01*
X0643593Y0063548D01*
X0643401Y0063789D01*
X0643216Y0064034D01*
X0643036Y0064283D01*
X0642863Y0064537D01*
X0642696Y0064795D01*
X0642535Y0065057D01*
X0642381Y0065323D01*
X0642233Y0065593D01*
X0642092Y0065866D01*
X0641957Y0066143D01*
X0641830Y0066422D01*
X0641709Y0066705D01*
X0641595Y0066991D01*
X0641489Y0067279D01*
X0641389Y0067570D01*
X0641296Y0067863D01*
X0641211Y0068159D01*
X0641133Y0068456D01*
X0641062Y0068755D01*
X0640999Y0069056D01*
X0640943Y0069358D01*
X0640894Y0069662D01*
X0640853Y0069967D01*
X0640819Y0070272D01*
X0640793Y0070578D01*
X0640774Y0070885D01*
X0640763Y0071193D01*
X0640759Y0071500D01*
X0640763Y0071807D01*
X0640774Y0072115D01*
X0640793Y0072422D01*
X0640819Y0072728D01*
X0640853Y0073033D01*
X0640894Y0073338D01*
X0640943Y0073642D01*
X0640999Y0073944D01*
X0641062Y0074245D01*
X0641133Y0074544D01*
X0641211Y0074841D01*
X0641296Y0075137D01*
X0641389Y0075430D01*
X0641489Y0075721D01*
X0641595Y0076009D01*
X0641709Y0076295D01*
X0641830Y0076578D01*
X0641957Y0076857D01*
X0642092Y0077134D01*
X0642233Y0077407D01*
X0642381Y0077677D01*
X0642535Y0077943D01*
X0642696Y0078205D01*
X0642863Y0078463D01*
X0643036Y0078717D01*
X0643216Y0078966D01*
X0643401Y0079211D01*
X0643593Y0079452D01*
X0643790Y0079688D01*
X0643993Y0079919D01*
X0644202Y0080144D01*
X0644416Y0080365D01*
X0644635Y0080580D01*
X0644860Y0080790D01*
X0645090Y0080995D01*
X0645324Y0081193D01*
X0645564Y0081386D01*
X0645808Y0081573D01*
X0646056Y0081754D01*
X0646309Y0081929D01*
X0646566Y0082098D01*
X0646827Y0082260D01*
X0647092Y0082416D01*
X0647361Y0082565D01*
X0647633Y0082708D01*
X0647909Y0082844D01*
X0648188Y0082973D01*
X0648470Y0083096D01*
X0648755Y0083211D01*
X0649043Y0083319D01*
X0649333Y0083421D01*
X0649626Y0083515D01*
X0649921Y0083602D01*
X0650217Y0083682D01*
X0650516Y0083754D01*
X0650817Y0083820D01*
X0651119Y0083877D01*
X0651422Y0083928D01*
X0651726Y0083971D01*
X0652032Y0084006D01*
X0652338Y0084035D01*
X0652645Y0084055D01*
X0652952Y0084068D01*
X0653259Y0084074D01*
X0653567Y0084072D01*
X0653874Y0084062D01*
X0654181Y0084045D01*
X0654488Y0084021D01*
X0654793Y0083989D01*
X0655098Y0083949D01*
X0655402Y0083903D01*
X0655705Y0083848D01*
X0656006Y0083787D01*
X0656306Y0083718D01*
X0656603Y0083641D01*
X0656899Y0083558D01*
X0657193Y0083467D01*
X0657484Y0083369D01*
X0657773Y0083264D01*
X0658060Y0083152D01*
X0658343Y0083033D01*
X0658624Y0082907D01*
X0658901Y0082774D01*
X0659175Y0082635D01*
X0659445Y0082488D01*
X0659712Y0082336D01*
X0659975Y0082176D01*
X0660234Y0082011D01*
X0660489Y0081839D01*
X0660740Y0081661D01*
X0660986Y0081477D01*
X0661228Y0081287D01*
X0661465Y0081091D01*
X0661697Y0080889D01*
X0661924Y0080682D01*
X0662146Y0080469D01*
X0662362Y0080251D01*
X0662574Y0080027D01*
X0662779Y0079799D01*
X0662979Y0079566D01*
X0663174Y0079327D01*
X0663362Y0079084D01*
X0663287Y0079028D01*
X0663100Y0079269D01*
X0662907Y0079506D01*
X0662708Y0079737D01*
X0662504Y0079964D01*
X0662295Y0080186D01*
X0662080Y0080402D01*
X0661859Y0080613D01*
X0661634Y0080819D01*
X0661404Y0081019D01*
X0661168Y0081214D01*
X0660929Y0081402D01*
X0660684Y0081585D01*
X0660435Y0081762D01*
X0660182Y0081932D01*
X0659925Y0082097D01*
X0659664Y0082255D01*
X0659399Y0082406D01*
X0659131Y0082551D01*
X0658859Y0082690D01*
X0658584Y0082822D01*
X0658305Y0082947D01*
X0658024Y0083065D01*
X0657740Y0083176D01*
X0657453Y0083280D01*
X0657164Y0083378D01*
X0656872Y0083468D01*
X0656579Y0083551D01*
X0656283Y0083626D01*
X0655986Y0083695D01*
X0655687Y0083756D01*
X0655386Y0083810D01*
X0655085Y0083856D01*
X0654782Y0083896D01*
X0654479Y0083927D01*
X0654174Y0083952D01*
X0653870Y0083968D01*
X0653565Y0083978D01*
X0653260Y0083980D01*
X0652955Y0083974D01*
X0652650Y0083961D01*
X0652345Y0083941D01*
X0652041Y0083913D01*
X0651738Y0083878D01*
X0651436Y0083835D01*
X0651135Y0083785D01*
X0650835Y0083728D01*
X0650537Y0083663D01*
X0650241Y0083591D01*
X0649946Y0083512D01*
X0649653Y0083425D01*
X0649363Y0083332D01*
X0649075Y0083231D01*
X0648789Y0083123D01*
X0648506Y0083009D01*
X0648226Y0082887D01*
X0647949Y0082759D01*
X0647676Y0082624D01*
X0647406Y0082483D01*
X0647139Y0082334D01*
X0646876Y0082180D01*
X0646617Y0082019D01*
X0646361Y0081851D01*
X0646110Y0081678D01*
X0645864Y0081498D01*
X0645622Y0081312D01*
X0645384Y0081121D01*
X0645151Y0080924D01*
X0644923Y0080721D01*
X0644700Y0080512D01*
X0644482Y0080299D01*
X0644270Y0080080D01*
X0644063Y0079856D01*
X0643861Y0079626D01*
X0643665Y0079392D01*
X0643475Y0079154D01*
X0643291Y0078910D01*
X0643113Y0078663D01*
X0642941Y0078411D01*
X0642775Y0078154D01*
X0642616Y0077894D01*
X0642462Y0077630D01*
X0642316Y0077363D01*
X0642176Y0077092D01*
X0642042Y0076817D01*
X0641916Y0076540D01*
X0641796Y0076259D01*
X0641683Y0075975D01*
X0641577Y0075689D01*
X0641478Y0075401D01*
X0641386Y0075110D01*
X0641302Y0074816D01*
X0641224Y0074521D01*
X0641154Y0074224D01*
X0641091Y0073926D01*
X0641035Y0073626D01*
X0640987Y0073324D01*
X0640946Y0073022D01*
X0640913Y0072719D01*
X0640887Y0072415D01*
X0640868Y0072110D01*
X0640857Y0071805D01*
X0640853Y0071500D01*
X0640857Y0071195D01*
X0640868Y0070890D01*
X0640887Y0070585D01*
X0640913Y0070281D01*
X0640946Y0069978D01*
X0640987Y0069676D01*
X0641035Y0069374D01*
X0641091Y0069074D01*
X0641154Y0068776D01*
X0641224Y0068479D01*
X0641302Y0068184D01*
X0641386Y0067890D01*
X0641478Y0067599D01*
X0641577Y0067311D01*
X0641683Y0067025D01*
X0641796Y0066741D01*
X0641916Y0066460D01*
X0642042Y0066183D01*
X0642176Y0065908D01*
X0642316Y0065637D01*
X0642462Y0065370D01*
X0642616Y0065106D01*
X0642775Y0064846D01*
X0642941Y0064589D01*
X0643113Y0064337D01*
X0643291Y0064090D01*
X0643475Y0063846D01*
X0643665Y0063608D01*
X0643861Y0063374D01*
X0644063Y0063144D01*
X0644270Y0062920D01*
X0644482Y0062701D01*
X0644700Y0062488D01*
X0644923Y0062279D01*
X0645151Y0062076D01*
X0645384Y0061879D01*
X0645622Y0061688D01*
X0645864Y0061502D01*
X0646110Y0061322D01*
X0646361Y0061149D01*
X0646617Y0060981D01*
X0646876Y0060820D01*
X0647139Y0060666D01*
X0647406Y0060517D01*
X0647676Y0060376D01*
X0647949Y0060241D01*
X0648226Y0060113D01*
X0648506Y0059991D01*
X0648789Y0059877D01*
X0649075Y0059769D01*
X0649363Y0059668D01*
X0649653Y0059575D01*
X0649946Y0059488D01*
X0650241Y0059409D01*
X0650537Y0059337D01*
X0650835Y0059272D01*
X0651135Y0059215D01*
X0651436Y0059165D01*
X0651738Y0059122D01*
X0652041Y0059087D01*
X0652345Y0059059D01*
X0652650Y0059039D01*
X0652955Y0059026D01*
X0653260Y0059020D01*
X0653565Y0059022D01*
X0653870Y0059032D01*
X0654174Y0059048D01*
X0654479Y0059073D01*
X0654782Y0059104D01*
X0655085Y0059144D01*
X0655386Y0059190D01*
X0655687Y0059244D01*
X0655986Y0059305D01*
X0656283Y0059374D01*
X0656579Y0059449D01*
X0656872Y0059532D01*
X0657164Y0059622D01*
X0657453Y0059720D01*
X0657740Y0059824D01*
X0658024Y0059935D01*
X0658305Y0060053D01*
X0658584Y0060178D01*
X0658859Y0060310D01*
X0659131Y0060449D01*
X0659399Y0060594D01*
X0659664Y0060745D01*
X0659925Y0060903D01*
X0660182Y0061068D01*
X0660435Y0061238D01*
X0660684Y0061415D01*
X0660929Y0061598D01*
X0661168Y0061786D01*
X0661404Y0061981D01*
X0661634Y0062181D01*
X0661859Y0062387D01*
X0662080Y0062598D01*
X0662295Y0062814D01*
X0662504Y0063036D01*
X0662708Y0063263D01*
X0662907Y0063494D01*
X0663100Y0063731D01*
X0663287Y0063972D01*
X0663212Y0064028D01*
X0663026Y0063789D01*
X0662835Y0063554D01*
X0662638Y0063325D01*
X0662435Y0063100D01*
X0662227Y0062879D01*
X0662013Y0062665D01*
X0661795Y0062455D01*
X0661571Y0062251D01*
X0661343Y0062052D01*
X0661109Y0061859D01*
X0660871Y0061672D01*
X0660629Y0061491D01*
X0660382Y0061315D01*
X0660131Y0061146D01*
X0659875Y0060983D01*
X0659616Y0060826D01*
X0659353Y0060676D01*
X0659087Y0060532D01*
X0658817Y0060394D01*
X0658544Y0060263D01*
X0658268Y0060139D01*
X0657988Y0060022D01*
X0657706Y0059912D01*
X0657422Y0059808D01*
X0657135Y0059712D01*
X0656845Y0059622D01*
X0656554Y0059540D01*
X0656261Y0059465D01*
X0655965Y0059397D01*
X0655669Y0059336D01*
X0655371Y0059283D01*
X0655071Y0059237D01*
X0654771Y0059198D01*
X0654470Y0059166D01*
X0654168Y0059142D01*
X0653865Y0059125D01*
X0653563Y0059116D01*
X0653260Y0059114D01*
X0652957Y0059120D01*
X0652655Y0059133D01*
X0652352Y0059153D01*
X0652051Y0059181D01*
X0651750Y0059216D01*
X0651450Y0059258D01*
X0651151Y0059308D01*
X0650854Y0059365D01*
X0650558Y0059429D01*
X0650264Y0059500D01*
X0649971Y0059579D01*
X0649681Y0059665D01*
X0649392Y0059758D01*
X0649107Y0059857D01*
X0648823Y0059964D01*
X0648543Y0060078D01*
X0648265Y0060198D01*
X0647990Y0060326D01*
X0647718Y0060460D01*
X0647450Y0060600D01*
X0647185Y0060747D01*
X0646924Y0060901D01*
X0646667Y0061061D01*
X0646414Y0061227D01*
X0646165Y0061399D01*
X0645920Y0061577D01*
X0645679Y0061762D01*
X0645444Y0061952D01*
X0645213Y0062147D01*
X0644986Y0062349D01*
X0644765Y0062555D01*
X0644549Y0062768D01*
X0644338Y0062985D01*
X0644133Y0063207D01*
X0643933Y0063435D01*
X0643738Y0063667D01*
X0643550Y0063904D01*
X0643367Y0064146D01*
X0643190Y0064391D01*
X0643019Y0064642D01*
X0642855Y0064896D01*
X0642696Y0065154D01*
X0642544Y0065416D01*
X0642399Y0065681D01*
X0642260Y0065950D01*
X0642127Y0066223D01*
X0642002Y0066498D01*
X0641883Y0066777D01*
X0641771Y0067058D01*
X0641666Y0067342D01*
X0641567Y0067629D01*
X0641476Y0067918D01*
X0641392Y0068209D01*
X0641315Y0068502D01*
X0641246Y0068796D01*
X0641183Y0069093D01*
X0641128Y0069390D01*
X0641080Y0069689D01*
X0641039Y0069989D01*
X0641006Y0070291D01*
X0640980Y0070592D01*
X0640962Y0070895D01*
X0640951Y0071197D01*
X0640947Y0071500D01*
X0640951Y0071803D01*
X0640962Y0072105D01*
X0640980Y0072408D01*
X0641006Y0072709D01*
X0641039Y0073011D01*
X0641080Y0073311D01*
X0641128Y0073610D01*
X0641183Y0073907D01*
X0641246Y0074204D01*
X0641315Y0074498D01*
X0641392Y0074791D01*
X0641476Y0075082D01*
X0641567Y0075371D01*
X0641666Y0075658D01*
X0641771Y0075942D01*
X0641883Y0076223D01*
X0642002Y0076502D01*
X0642127Y0076777D01*
X0642260Y0077050D01*
X0642399Y0077319D01*
X0642544Y0077584D01*
X0642696Y0077846D01*
X0642855Y0078104D01*
X0643019Y0078358D01*
X0643190Y0078609D01*
X0643367Y0078854D01*
X0643550Y0079096D01*
X0643738Y0079333D01*
X0643933Y0079565D01*
X0644133Y0079793D01*
X0644338Y0080015D01*
X0644549Y0080232D01*
X0644765Y0080445D01*
X0644986Y0080651D01*
X0645213Y0080853D01*
X0645444Y0081048D01*
X0645679Y0081238D01*
X0645920Y0081423D01*
X0646165Y0081601D01*
X0646414Y0081773D01*
X0646667Y0081939D01*
X0646924Y0082099D01*
X0647185Y0082253D01*
X0647450Y0082400D01*
X0647718Y0082540D01*
X0647990Y0082674D01*
X0648265Y0082802D01*
X0648543Y0082922D01*
X0648823Y0083036D01*
X0649107Y0083143D01*
X0649392Y0083242D01*
X0649681Y0083335D01*
X0649971Y0083421D01*
X0650264Y0083500D01*
X0650558Y0083571D01*
X0650854Y0083635D01*
X0651151Y0083692D01*
X0651450Y0083742D01*
X0651750Y0083784D01*
X0652051Y0083819D01*
X0652352Y0083847D01*
X0652655Y0083867D01*
X0652957Y0083880D01*
X0653260Y0083886D01*
X0653563Y0083884D01*
X0653865Y0083875D01*
X0654168Y0083858D01*
X0654470Y0083834D01*
X0654771Y0083802D01*
X0655071Y0083763D01*
X0655371Y0083717D01*
X0655669Y0083664D01*
X0655965Y0083603D01*
X0656261Y0083535D01*
X0656554Y0083460D01*
X0656845Y0083378D01*
X0657135Y0083288D01*
X0657422Y0083192D01*
X0657706Y0083088D01*
X0657988Y0082978D01*
X0658268Y0082861D01*
X0658544Y0082737D01*
X0658817Y0082606D01*
X0659087Y0082468D01*
X0659353Y0082324D01*
X0659616Y0082174D01*
X0659875Y0082017D01*
X0660131Y0081854D01*
X0660382Y0081685D01*
X0660629Y0081509D01*
X0660871Y0081328D01*
X0661109Y0081141D01*
X0661343Y0080948D01*
X0661571Y0080749D01*
X0661795Y0080545D01*
X0662013Y0080335D01*
X0662227Y0080121D01*
X0662435Y0079900D01*
X0662638Y0079675D01*
X0662835Y0079446D01*
X0663026Y0079211D01*
X0663212Y0078972D01*
X0663137Y0078915D01*
X0662952Y0079153D01*
X0662762Y0079385D01*
X0662567Y0079614D01*
X0662366Y0079837D01*
X0662159Y0080055D01*
X0661947Y0080269D01*
X0661730Y0080477D01*
X0661508Y0080679D01*
X0661281Y0080876D01*
X0661050Y0081068D01*
X0660814Y0081254D01*
X0660573Y0081434D01*
X0660328Y0081608D01*
X0660079Y0081776D01*
X0659825Y0081938D01*
X0659568Y0082093D01*
X0659307Y0082242D01*
X0659043Y0082385D01*
X0658775Y0082522D01*
X0658504Y0082651D01*
X0658230Y0082774D01*
X0657953Y0082891D01*
X0657673Y0083000D01*
X0657390Y0083103D01*
X0657106Y0083199D01*
X0656818Y0083287D01*
X0656529Y0083369D01*
X0656238Y0083444D01*
X0655945Y0083511D01*
X0655651Y0083572D01*
X0655355Y0083625D01*
X0655058Y0083670D01*
X0654760Y0083709D01*
X0654461Y0083740D01*
X0654161Y0083764D01*
X0653861Y0083781D01*
X0653561Y0083790D01*
X0653260Y0083792D01*
X0652960Y0083786D01*
X0652659Y0083774D01*
X0652360Y0083753D01*
X0652060Y0083726D01*
X0651762Y0083691D01*
X0651464Y0083649D01*
X0651168Y0083600D01*
X0650873Y0083543D01*
X0650579Y0083479D01*
X0650287Y0083409D01*
X0649997Y0083331D01*
X0649708Y0083245D01*
X0649422Y0083153D01*
X0649138Y0083054D01*
X0648857Y0082948D01*
X0648579Y0082835D01*
X0648303Y0082716D01*
X0648030Y0082589D01*
X0647761Y0082456D01*
X0647495Y0082317D01*
X0647232Y0082171D01*
X0646973Y0082019D01*
X0646717Y0081860D01*
X0646466Y0081695D01*
X0646219Y0081524D01*
X0645976Y0081347D01*
X0645737Y0081164D01*
X0645503Y0080976D01*
X0645274Y0080782D01*
X0645050Y0080582D01*
X0644830Y0080377D01*
X0644616Y0080166D01*
X0644406Y0079950D01*
X0644202Y0079730D01*
X0644004Y0079504D01*
X0643811Y0079273D01*
X0643624Y0079038D01*
X0643442Y0078799D01*
X0643267Y0078555D01*
X0643097Y0078306D01*
X0642934Y0078054D01*
X0642777Y0077798D01*
X0642626Y0077538D01*
X0642482Y0077274D01*
X0642344Y0077007D01*
X0642212Y0076737D01*
X0642088Y0076464D01*
X0641970Y0076187D01*
X0641859Y0075908D01*
X0641754Y0075626D01*
X0641657Y0075342D01*
X0641566Y0075055D01*
X0641483Y0074766D01*
X0641407Y0074476D01*
X0641337Y0074183D01*
X0641275Y0073889D01*
X0641221Y0073594D01*
X0641173Y0073297D01*
X0641133Y0072999D01*
X0641100Y0072700D01*
X0641074Y0072401D01*
X0641056Y0072101D01*
X0641045Y0071801D01*
X0641041Y0071500D01*
X0641045Y0071199D01*
X0641056Y0070899D01*
X0641074Y0070599D01*
X0641100Y0070300D01*
X0641133Y0070001D01*
X0641173Y0069703D01*
X0641221Y0069406D01*
X0641275Y0069111D01*
X0641337Y0068817D01*
X0641407Y0068524D01*
X0641483Y0068234D01*
X0641566Y0067945D01*
X0641657Y0067658D01*
X0641754Y0067374D01*
X0641859Y0067092D01*
X0641970Y0066813D01*
X0642088Y0066536D01*
X0642212Y0066263D01*
X0642344Y0065993D01*
X0642482Y0065726D01*
X0642626Y0065462D01*
X0642777Y0065202D01*
X0642934Y0064946D01*
X0643097Y0064694D01*
X0643267Y0064445D01*
X0643442Y0064201D01*
X0643624Y0063962D01*
X0643811Y0063727D01*
X0644004Y0063496D01*
X0644202Y0063270D01*
X0644406Y0063050D01*
X0644616Y0062834D01*
X0644830Y0062623D01*
X0645050Y0062418D01*
X0645274Y0062218D01*
X0645503Y0062024D01*
X0645737Y0061836D01*
X0645976Y0061653D01*
X0646219Y0061476D01*
X0646466Y0061305D01*
X0646717Y0061140D01*
X0646973Y0060981D01*
X0647232Y0060829D01*
X0647495Y0060683D01*
X0647761Y0060544D01*
X0648030Y0060411D01*
X0648303Y0060284D01*
X0648579Y0060165D01*
X0648857Y0060052D01*
X0649138Y0059946D01*
X0649422Y0059847D01*
X0649708Y0059755D01*
X0649997Y0059669D01*
X0650287Y0059591D01*
X0650579Y0059521D01*
X0650873Y0059457D01*
X0651168Y0059400D01*
X0651464Y0059351D01*
X0651762Y0059309D01*
X0652060Y0059274D01*
X0652360Y0059247D01*
X0652659Y0059226D01*
X0652960Y0059214D01*
X0653260Y0059208D01*
X0653561Y0059210D01*
X0653861Y0059219D01*
X0654161Y0059236D01*
X0654461Y0059260D01*
X0654760Y0059291D01*
X0655058Y0059330D01*
X0655355Y0059375D01*
X0655651Y0059428D01*
X0655945Y0059489D01*
X0656238Y0059556D01*
X0656529Y0059631D01*
X0656818Y0059713D01*
X0657106Y0059801D01*
X0657390Y0059897D01*
X0657673Y0060000D01*
X0657953Y0060109D01*
X0658230Y0060226D01*
X0658504Y0060349D01*
X0658775Y0060478D01*
X0659043Y0060615D01*
X0659307Y0060758D01*
X0659568Y0060907D01*
X0659825Y0061062D01*
X0660079Y0061224D01*
X0660328Y0061392D01*
X0660573Y0061566D01*
X0660814Y0061746D01*
X0661050Y0061932D01*
X0661281Y0062124D01*
X0661508Y0062321D01*
X0661730Y0062523D01*
X0661947Y0062731D01*
X0662159Y0062945D01*
X0662366Y0063163D01*
X0662567Y0063386D01*
X0662762Y0063615D01*
X0662952Y0063847D01*
X0663137Y0064085D01*
X0663061Y0064141D01*
X0662879Y0063906D01*
X0662690Y0063675D01*
X0662496Y0063448D01*
X0662296Y0063226D01*
X0662091Y0063010D01*
X0661881Y0062798D01*
X0661666Y0062592D01*
X0661446Y0062391D01*
X0661220Y0062195D01*
X0660991Y0062005D01*
X0660756Y0061821D01*
X0660517Y0061642D01*
X0660274Y0061469D01*
X0660027Y0061303D01*
X0659775Y0061142D01*
X0659520Y0060988D01*
X0659261Y0060840D01*
X0658999Y0060698D01*
X0658733Y0060563D01*
X0658464Y0060434D01*
X0658192Y0060312D01*
X0657917Y0060196D01*
X0657639Y0060087D01*
X0657359Y0059986D01*
X0657076Y0059891D01*
X0656791Y0059803D01*
X0656504Y0059722D01*
X0656216Y0059647D01*
X0655925Y0059581D01*
X0655633Y0059521D01*
X0655339Y0059468D01*
X0655044Y0059423D01*
X0654749Y0059384D01*
X0654452Y0059353D01*
X0654155Y0059330D01*
X0653857Y0059313D01*
X0653559Y0059304D01*
X0653261Y0059302D01*
X0652962Y0059308D01*
X0652664Y0059320D01*
X0652367Y0059340D01*
X0652070Y0059368D01*
X0651774Y0059402D01*
X0651478Y0059444D01*
X0651184Y0059493D01*
X0650891Y0059549D01*
X0650600Y0059612D01*
X0650310Y0059683D01*
X0650022Y0059760D01*
X0649736Y0059844D01*
X0649452Y0059936D01*
X0649170Y0060034D01*
X0648891Y0060139D01*
X0648615Y0060251D01*
X0648341Y0060370D01*
X0648071Y0060495D01*
X0647803Y0060627D01*
X0647539Y0060766D01*
X0647278Y0060911D01*
X0647021Y0061062D01*
X0646768Y0061219D01*
X0646519Y0061383D01*
X0646273Y0061553D01*
X0646032Y0061728D01*
X0645795Y0061910D01*
X0645563Y0062097D01*
X0645336Y0062289D01*
X0645113Y0062488D01*
X0644895Y0062691D01*
X0644682Y0062900D01*
X0644474Y0063114D01*
X0644272Y0063334D01*
X0644075Y0063557D01*
X0643884Y0063786D01*
X0643698Y0064020D01*
X0643518Y0064257D01*
X0643344Y0064499D01*
X0643176Y0064746D01*
X0643014Y0064996D01*
X0642858Y0065250D01*
X0642708Y0065508D01*
X0642565Y0065770D01*
X0642428Y0066035D01*
X0642297Y0066303D01*
X0642174Y0066574D01*
X0642057Y0066849D01*
X0641946Y0067126D01*
X0641843Y0067406D01*
X0641746Y0067688D01*
X0641656Y0067972D01*
X0641574Y0068259D01*
X0641498Y0068547D01*
X0641429Y0068837D01*
X0641368Y0069129D01*
X0641313Y0069422D01*
X0641266Y0069717D01*
X0641226Y0070012D01*
X0641193Y0070309D01*
X0641168Y0070606D01*
X0641150Y0070904D01*
X0641139Y0071202D01*
X0641135Y0071500D01*
X0641139Y0071798D01*
X0641150Y0072096D01*
X0641168Y0072394D01*
X0641193Y0072691D01*
X0641226Y0072988D01*
X0641266Y0073283D01*
X0641313Y0073578D01*
X0641368Y0073871D01*
X0641429Y0074163D01*
X0641498Y0074453D01*
X0641574Y0074741D01*
X0641656Y0075028D01*
X0641746Y0075312D01*
X0641843Y0075594D01*
X0641946Y0075874D01*
X0642057Y0076151D01*
X0642174Y0076426D01*
X0642297Y0076697D01*
X0642428Y0076965D01*
X0642565Y0077230D01*
X0642708Y0077492D01*
X0642858Y0077750D01*
X0643014Y0078004D01*
X0643176Y0078254D01*
X0643344Y0078501D01*
X0643518Y0078743D01*
X0643698Y0078980D01*
X0643884Y0079214D01*
X0644075Y0079443D01*
X0644272Y0079666D01*
X0644474Y0079886D01*
X0644682Y0080100D01*
X0644895Y0080309D01*
X0645113Y0080512D01*
X0645336Y0080711D01*
X0645563Y0080903D01*
X0645795Y0081090D01*
X0646032Y0081272D01*
X0646273Y0081447D01*
X0646519Y0081617D01*
X0646768Y0081781D01*
X0647021Y0081938D01*
X0647278Y0082089D01*
X0647539Y0082234D01*
X0647803Y0082373D01*
X0648071Y0082505D01*
X0648341Y0082630D01*
X0648615Y0082749D01*
X0648891Y0082861D01*
X0649170Y0082966D01*
X0649452Y0083064D01*
X0649736Y0083156D01*
X0650022Y0083240D01*
X0650310Y0083317D01*
X0650600Y0083388D01*
X0650891Y0083451D01*
X0651184Y0083507D01*
X0651478Y0083556D01*
X0651774Y0083598D01*
X0652070Y0083632D01*
X0652367Y0083660D01*
X0652664Y0083680D01*
X0652962Y0083692D01*
X0653261Y0083698D01*
X0653559Y0083696D01*
X0653857Y0083687D01*
X0654155Y0083670D01*
X0654452Y0083647D01*
X0654749Y0083616D01*
X0655044Y0083577D01*
X0655339Y0083532D01*
X0655633Y0083479D01*
X0655925Y0083419D01*
X0656216Y0083353D01*
X0656504Y0083278D01*
X0656791Y0083197D01*
X0657076Y0083109D01*
X0657359Y0083014D01*
X0657639Y0082913D01*
X0657917Y0082804D01*
X0658192Y0082688D01*
X0658464Y0082566D01*
X0658733Y0082437D01*
X0658999Y0082302D01*
X0659261Y0082160D01*
X0659520Y0082012D01*
X0659775Y0081858D01*
X0660027Y0081697D01*
X0660274Y0081531D01*
X0660517Y0081358D01*
X0660756Y0081179D01*
X0660991Y0080995D01*
X0661220Y0080805D01*
X0661446Y0080609D01*
X0661666Y0080408D01*
X0661881Y0080202D01*
X0662091Y0079990D01*
X0662296Y0079774D01*
X0662496Y0079552D01*
X0662690Y0079325D01*
X0662879Y0079094D01*
X0663061Y0078859D01*
X0662986Y0078802D01*
X0662805Y0079036D01*
X0662618Y0079265D01*
X0662425Y0079490D01*
X0662227Y0079710D01*
X0662024Y0079925D01*
X0661815Y0080135D01*
X0661601Y0080340D01*
X0661383Y0080539D01*
X0661159Y0080733D01*
X0660931Y0080922D01*
X0660699Y0081105D01*
X0660462Y0081282D01*
X0660220Y0081453D01*
X0659975Y0081619D01*
X0659726Y0081778D01*
X0659472Y0081931D01*
X0659216Y0082078D01*
X0658955Y0082219D01*
X0658691Y0082353D01*
X0658424Y0082481D01*
X0658154Y0082602D01*
X0657882Y0082717D01*
X0657606Y0082825D01*
X0657328Y0082926D01*
X0657047Y0083020D01*
X0656765Y0083107D01*
X0656480Y0083188D01*
X0656193Y0083261D01*
X0655905Y0083328D01*
X0655615Y0083387D01*
X0655323Y0083439D01*
X0655031Y0083484D01*
X0654737Y0083522D01*
X0654443Y0083553D01*
X0654148Y0083577D01*
X0653853Y0083593D01*
X0653557Y0083602D01*
X0653261Y0083604D01*
X0652965Y0083598D01*
X0652669Y0083586D01*
X0652374Y0083566D01*
X0652079Y0083539D01*
X0651785Y0083505D01*
X0651492Y0083463D01*
X0651200Y0083415D01*
X0650910Y0083359D01*
X0650621Y0083296D01*
X0650333Y0083226D01*
X0650047Y0083149D01*
X0649763Y0083066D01*
X0649482Y0082975D01*
X0649202Y0082877D01*
X0648925Y0082773D01*
X0648651Y0082662D01*
X0648380Y0082544D01*
X0648111Y0082420D01*
X0647846Y0082289D01*
X0647584Y0082151D01*
X0647325Y0082008D01*
X0647070Y0081858D01*
X0646818Y0081701D01*
X0646571Y0081539D01*
X0646328Y0081371D01*
X0646088Y0081196D01*
X0645853Y0081016D01*
X0645623Y0080831D01*
X0645397Y0080639D01*
X0645176Y0080443D01*
X0644960Y0080241D01*
X0644749Y0080033D01*
X0644543Y0079821D01*
X0644342Y0079603D01*
X0644146Y0079381D01*
X0643956Y0079154D01*
X0643772Y0078923D01*
X0643594Y0078687D01*
X0643421Y0078447D01*
X0643254Y0078202D01*
X0643093Y0077954D01*
X0642938Y0077701D01*
X0642790Y0077445D01*
X0642648Y0077186D01*
X0642512Y0076923D01*
X0642382Y0076657D01*
X0642260Y0076388D01*
X0642143Y0076115D01*
X0642034Y0075840D01*
X0641931Y0075563D01*
X0641835Y0075283D01*
X0641746Y0075001D01*
X0641664Y0074716D01*
X0641589Y0074430D01*
X0641521Y0074142D01*
X0641460Y0073853D01*
X0641406Y0073562D01*
X0641359Y0073269D01*
X0641319Y0072976D01*
X0641287Y0072682D01*
X0641262Y0072387D01*
X0641243Y0072092D01*
X0641233Y0071796D01*
X0641229Y0071500D01*
X0641233Y0071204D01*
X0641243Y0070908D01*
X0641262Y0070613D01*
X0641287Y0070318D01*
X0641319Y0070024D01*
X0641359Y0069731D01*
X0641406Y0069438D01*
X0641460Y0069147D01*
X0641521Y0068858D01*
X0641589Y0068570D01*
X0641664Y0068284D01*
X0641746Y0067999D01*
X0641835Y0067717D01*
X0641931Y0067437D01*
X0642034Y0067160D01*
X0642143Y0066885D01*
X0642260Y0066612D01*
X0642382Y0066343D01*
X0642512Y0066077D01*
X0642648Y0065814D01*
X0642790Y0065555D01*
X0642938Y0065299D01*
X0643093Y0065046D01*
X0643254Y0064798D01*
X0643421Y0064553D01*
X0643594Y0064313D01*
X0643772Y0064077D01*
X0643956Y0063846D01*
X0644146Y0063619D01*
X0644342Y0063397D01*
X0644543Y0063179D01*
X0644749Y0062967D01*
X0644960Y0062759D01*
X0645176Y0062557D01*
X0645397Y0062361D01*
X0645623Y0062169D01*
X0645853Y0061984D01*
X0646088Y0061804D01*
X0646328Y0061629D01*
X0646571Y0061461D01*
X0646818Y0061299D01*
X0647070Y0061142D01*
X0647325Y0060992D01*
X0647584Y0060849D01*
X0647846Y0060711D01*
X0648111Y0060580D01*
X0648380Y0060456D01*
X0648651Y0060338D01*
X0648925Y0060227D01*
X0649202Y0060123D01*
X0649482Y0060025D01*
X0649763Y0059934D01*
X0650047Y0059851D01*
X0650333Y0059774D01*
X0650621Y0059704D01*
X0650910Y0059641D01*
X0651200Y0059585D01*
X0651492Y0059537D01*
X0651785Y0059495D01*
X0652079Y0059461D01*
X0652374Y0059434D01*
X0652669Y0059414D01*
X0652965Y0059402D01*
X0653261Y0059396D01*
X0653557Y0059398D01*
X0653853Y0059407D01*
X0654148Y0059423D01*
X0654443Y0059447D01*
X0654737Y0059478D01*
X0655031Y0059516D01*
X0655323Y0059561D01*
X0655615Y0059613D01*
X0655905Y0059672D01*
X0656193Y0059739D01*
X0656480Y0059812D01*
X0656765Y0059893D01*
X0657047Y0059980D01*
X0657328Y0060074D01*
X0657606Y0060175D01*
X0657882Y0060283D01*
X0658154Y0060398D01*
X0658424Y0060519D01*
X0658691Y0060647D01*
X0658955Y0060781D01*
X0659216Y0060922D01*
X0659472Y0061069D01*
X0659726Y0061222D01*
X0659975Y0061381D01*
X0660220Y0061547D01*
X0660462Y0061718D01*
X0660699Y0061895D01*
X0660931Y0062078D01*
X0661159Y0062267D01*
X0661383Y0062461D01*
X0661601Y0062660D01*
X0661815Y0062865D01*
X0662024Y0063075D01*
X0662227Y0063290D01*
X0662425Y0063510D01*
X0662618Y0063735D01*
X0662805Y0063964D01*
X0662986Y0064198D01*
X0663662Y0119309D02*
X0662942Y0118769D01*
X0662943Y0118770D02*
X0662762Y0119003D01*
X0662576Y0119231D01*
X0662384Y0119455D01*
X0662187Y0119674D01*
X0661985Y0119888D01*
X0661777Y0120097D01*
X0661564Y0120300D01*
X0661347Y0120499D01*
X0661124Y0120692D01*
X0660897Y0120880D01*
X0660666Y0121062D01*
X0660430Y0121239D01*
X0660189Y0121409D01*
X0659945Y0121574D01*
X0659697Y0121732D01*
X0659445Y0121885D01*
X0659189Y0122031D01*
X0658930Y0122171D01*
X0658667Y0122305D01*
X0658402Y0122432D01*
X0658133Y0122553D01*
X0657861Y0122667D01*
X0657587Y0122774D01*
X0657310Y0122875D01*
X0657031Y0122969D01*
X0656749Y0123056D01*
X0656466Y0123136D01*
X0656180Y0123209D01*
X0655893Y0123275D01*
X0655604Y0123334D01*
X0655314Y0123386D01*
X0655023Y0123431D01*
X0654731Y0123469D01*
X0654438Y0123499D01*
X0654144Y0123523D01*
X0653850Y0123539D01*
X0653556Y0123548D01*
X0653261Y0123550D01*
X0652966Y0123544D01*
X0652672Y0123532D01*
X0652378Y0123512D01*
X0652085Y0123485D01*
X0651792Y0123451D01*
X0651500Y0123410D01*
X0651210Y0123361D01*
X0650920Y0123306D01*
X0650633Y0123244D01*
X0650346Y0123174D01*
X0650062Y0123097D01*
X0649779Y0123014D01*
X0649499Y0122924D01*
X0649221Y0122827D01*
X0648945Y0122723D01*
X0648672Y0122612D01*
X0648402Y0122495D01*
X0648134Y0122371D01*
X0647870Y0122241D01*
X0647609Y0122104D01*
X0647352Y0121961D01*
X0647098Y0121811D01*
X0646847Y0121656D01*
X0646601Y0121494D01*
X0646359Y0121327D01*
X0646121Y0121153D01*
X0645887Y0120974D01*
X0645657Y0120789D01*
X0645433Y0120599D01*
X0645212Y0120403D01*
X0644997Y0120202D01*
X0644787Y0119995D01*
X0644582Y0119784D01*
X0644382Y0119567D01*
X0644187Y0119346D01*
X0643998Y0119120D01*
X0643815Y0118890D01*
X0643637Y0118655D01*
X0643465Y0118415D01*
X0643299Y0118172D01*
X0643139Y0117925D01*
X0642985Y0117674D01*
X0642837Y0117419D01*
X0642695Y0117160D01*
X0642560Y0116899D01*
X0642431Y0116634D01*
X0642309Y0116366D01*
X0642193Y0116095D01*
X0642084Y0115821D01*
X0641982Y0115545D01*
X0641887Y0115266D01*
X0641798Y0114985D01*
X0641716Y0114702D01*
X0641641Y0114417D01*
X0641574Y0114130D01*
X0641513Y0113842D01*
X0641459Y0113552D01*
X0641412Y0113261D01*
X0641373Y0112969D01*
X0641341Y0112677D01*
X0641315Y0112383D01*
X0641297Y0112089D01*
X0641287Y0111795D01*
X0641283Y0111500D01*
X0641287Y0111205D01*
X0641297Y0110911D01*
X0641315Y0110617D01*
X0641341Y0110323D01*
X0641373Y0110031D01*
X0641412Y0109739D01*
X0641459Y0109448D01*
X0641513Y0109158D01*
X0641574Y0108870D01*
X0641641Y0108583D01*
X0641716Y0108298D01*
X0641798Y0108015D01*
X0641887Y0107734D01*
X0641982Y0107455D01*
X0642084Y0107179D01*
X0642193Y0106905D01*
X0642309Y0106634D01*
X0642431Y0106366D01*
X0642560Y0106101D01*
X0642695Y0105840D01*
X0642837Y0105581D01*
X0642985Y0105326D01*
X0643139Y0105075D01*
X0643299Y0104828D01*
X0643465Y0104585D01*
X0643637Y0104345D01*
X0643815Y0104110D01*
X0643998Y0103880D01*
X0644187Y0103654D01*
X0644382Y0103433D01*
X0644582Y0103216D01*
X0644787Y0103005D01*
X0644997Y0102798D01*
X0645212Y0102597D01*
X0645433Y0102401D01*
X0645657Y0102211D01*
X0645887Y0102026D01*
X0646121Y0101847D01*
X0646359Y0101673D01*
X0646601Y0101506D01*
X0646847Y0101344D01*
X0647098Y0101189D01*
X0647352Y0101039D01*
X0647609Y0100896D01*
X0647870Y0100759D01*
X0648134Y0100629D01*
X0648402Y0100505D01*
X0648672Y0100388D01*
X0648945Y0100277D01*
X0649221Y0100173D01*
X0649499Y0100076D01*
X0649779Y0099986D01*
X0650062Y0099903D01*
X0650346Y0099826D01*
X0650633Y0099756D01*
X0650920Y0099694D01*
X0651210Y0099639D01*
X0651500Y0099590D01*
X0651792Y0099549D01*
X0652085Y0099515D01*
X0652378Y0099488D01*
X0652672Y0099468D01*
X0652966Y0099456D01*
X0653261Y0099450D01*
X0653556Y0099452D01*
X0653850Y0099461D01*
X0654144Y0099477D01*
X0654438Y0099501D01*
X0654731Y0099531D01*
X0655023Y0099569D01*
X0655314Y0099614D01*
X0655604Y0099666D01*
X0655893Y0099725D01*
X0656180Y0099791D01*
X0656466Y0099864D01*
X0656749Y0099944D01*
X0657031Y0100031D01*
X0657310Y0100125D01*
X0657587Y0100226D01*
X0657861Y0100333D01*
X0658133Y0100447D01*
X0658402Y0100568D01*
X0658667Y0100695D01*
X0658930Y0100829D01*
X0659189Y0100969D01*
X0659445Y0101115D01*
X0659697Y0101268D01*
X0659945Y0101426D01*
X0660189Y0101591D01*
X0660430Y0101761D01*
X0660666Y0101938D01*
X0660897Y0102120D01*
X0661124Y0102308D01*
X0661347Y0102501D01*
X0661564Y0102700D01*
X0661777Y0102903D01*
X0661985Y0103112D01*
X0662187Y0103326D01*
X0662384Y0103545D01*
X0662576Y0103769D01*
X0662762Y0103997D01*
X0662943Y0104230D01*
X0663662Y0103691D01*
X0663663Y0103690D01*
X0663469Y0103440D01*
X0663269Y0103194D01*
X0663063Y0102954D01*
X0662851Y0102719D01*
X0662633Y0102489D01*
X0662410Y0102264D01*
X0662182Y0102045D01*
X0661948Y0101831D01*
X0661709Y0101623D01*
X0661465Y0101421D01*
X0661216Y0101226D01*
X0660962Y0101036D01*
X0660704Y0100853D01*
X0660442Y0100676D01*
X0660175Y0100505D01*
X0659904Y0100341D01*
X0659629Y0100184D01*
X0659351Y0100033D01*
X0659068Y0099889D01*
X0658783Y0099753D01*
X0658494Y0099623D01*
X0658202Y0099500D01*
X0657907Y0099385D01*
X0657610Y0099277D01*
X0657309Y0099176D01*
X0657007Y0099082D01*
X0656702Y0098996D01*
X0656395Y0098917D01*
X0656087Y0098846D01*
X0655777Y0098783D01*
X0655465Y0098727D01*
X0655152Y0098678D01*
X0654838Y0098638D01*
X0654523Y0098605D01*
X0654207Y0098580D01*
X0653891Y0098562D01*
X0653575Y0098552D01*
X0653258Y0098550D01*
X0652941Y0098556D01*
X0652625Y0098569D01*
X0652309Y0098591D01*
X0651994Y0098619D01*
X0651679Y0098656D01*
X0651366Y0098700D01*
X0651053Y0098752D01*
X0650742Y0098812D01*
X0650433Y0098879D01*
X0650125Y0098954D01*
X0649819Y0099036D01*
X0649516Y0099125D01*
X0649214Y0099222D01*
X0648915Y0099327D01*
X0648619Y0099439D01*
X0648325Y0099557D01*
X0648035Y0099683D01*
X0647748Y0099816D01*
X0647463Y0099957D01*
X0647183Y0100104D01*
X0646906Y0100257D01*
X0646633Y0100418D01*
X0646364Y0100585D01*
X0646099Y0100759D01*
X0645839Y0100939D01*
X0645583Y0101125D01*
X0645332Y0101318D01*
X0645085Y0101516D01*
X0644843Y0101721D01*
X0644607Y0101931D01*
X0644375Y0102148D01*
X0644150Y0102370D01*
X0643929Y0102597D01*
X0643714Y0102829D01*
X0643505Y0103067D01*
X0643302Y0103310D01*
X0643104Y0103558D01*
X0642913Y0103810D01*
X0642728Y0104067D01*
X0642550Y0104329D01*
X0642378Y0104595D01*
X0642212Y0104864D01*
X0642053Y0105138D01*
X0641901Y0105416D01*
X0641756Y0105697D01*
X0641617Y0105982D01*
X0641486Y0106270D01*
X0641362Y0106562D01*
X0641244Y0106856D01*
X0641134Y0107153D01*
X0641032Y0107452D01*
X0640937Y0107754D01*
X0640849Y0108058D01*
X0640768Y0108365D01*
X0640695Y0108673D01*
X0640630Y0108983D01*
X0640572Y0109294D01*
X0640522Y0109607D01*
X0640480Y0109921D01*
X0640445Y0110235D01*
X0640418Y0110551D01*
X0640398Y0110867D01*
X0640387Y0111183D01*
X0640383Y0111500D01*
X0640387Y0111817D01*
X0640398Y0112133D01*
X0640418Y0112449D01*
X0640445Y0112765D01*
X0640480Y0113079D01*
X0640522Y0113393D01*
X0640572Y0113706D01*
X0640630Y0114017D01*
X0640695Y0114327D01*
X0640768Y0114635D01*
X0640849Y0114942D01*
X0640937Y0115246D01*
X0641032Y0115548D01*
X0641134Y0115847D01*
X0641244Y0116144D01*
X0641362Y0116438D01*
X0641486Y0116730D01*
X0641617Y0117018D01*
X0641756Y0117303D01*
X0641901Y0117584D01*
X0642053Y0117862D01*
X0642212Y0118136D01*
X0642378Y0118405D01*
X0642550Y0118671D01*
X0642728Y0118933D01*
X0642913Y0119190D01*
X0643104Y0119442D01*
X0643302Y0119690D01*
X0643505Y0119933D01*
X0643714Y0120171D01*
X0643929Y0120403D01*
X0644150Y0120630D01*
X0644375Y0120852D01*
X0644607Y0121069D01*
X0644843Y0121279D01*
X0645085Y0121484D01*
X0645332Y0121682D01*
X0645583Y0121875D01*
X0645839Y0122061D01*
X0646099Y0122241D01*
X0646364Y0122415D01*
X0646633Y0122582D01*
X0646906Y0122743D01*
X0647183Y0122896D01*
X0647463Y0123043D01*
X0647748Y0123184D01*
X0648035Y0123317D01*
X0648325Y0123443D01*
X0648619Y0123561D01*
X0648915Y0123673D01*
X0649214Y0123778D01*
X0649516Y0123875D01*
X0649819Y0123964D01*
X0650125Y0124046D01*
X0650433Y0124121D01*
X0650742Y0124188D01*
X0651053Y0124248D01*
X0651366Y0124300D01*
X0651679Y0124344D01*
X0651994Y0124381D01*
X0652309Y0124409D01*
X0652625Y0124431D01*
X0652941Y0124444D01*
X0653258Y0124450D01*
X0653575Y0124448D01*
X0653891Y0124438D01*
X0654207Y0124420D01*
X0654523Y0124395D01*
X0654838Y0124362D01*
X0655152Y0124322D01*
X0655465Y0124273D01*
X0655777Y0124217D01*
X0656087Y0124154D01*
X0656395Y0124083D01*
X0656702Y0124004D01*
X0657007Y0123918D01*
X0657309Y0123824D01*
X0657610Y0123723D01*
X0657907Y0123615D01*
X0658202Y0123500D01*
X0658494Y0123377D01*
X0658783Y0123247D01*
X0659068Y0123111D01*
X0659351Y0122967D01*
X0659629Y0122816D01*
X0659904Y0122659D01*
X0660175Y0122495D01*
X0660442Y0122324D01*
X0660704Y0122147D01*
X0660962Y0121964D01*
X0661216Y0121774D01*
X0661465Y0121579D01*
X0661709Y0121377D01*
X0661948Y0121169D01*
X0662182Y0120955D01*
X0662410Y0120736D01*
X0662633Y0120511D01*
X0662851Y0120281D01*
X0663063Y0120046D01*
X0663269Y0119806D01*
X0663469Y0119560D01*
X0663663Y0119310D01*
X0663588Y0119254D01*
X0663395Y0119502D01*
X0663196Y0119746D01*
X0662992Y0119984D01*
X0662782Y0120218D01*
X0662566Y0120446D01*
X0662344Y0120669D01*
X0662117Y0120887D01*
X0661885Y0121099D01*
X0661648Y0121305D01*
X0661406Y0121506D01*
X0661158Y0121700D01*
X0660907Y0121888D01*
X0660650Y0122070D01*
X0660390Y0122246D01*
X0660125Y0122415D01*
X0659856Y0122578D01*
X0659583Y0122734D01*
X0659307Y0122884D01*
X0659027Y0123026D01*
X0658743Y0123162D01*
X0658456Y0123291D01*
X0658166Y0123413D01*
X0657874Y0123527D01*
X0657578Y0123635D01*
X0657280Y0123735D01*
X0656980Y0123828D01*
X0656677Y0123913D01*
X0656373Y0123991D01*
X0656067Y0124062D01*
X0655759Y0124125D01*
X0655449Y0124181D01*
X0655139Y0124229D01*
X0654827Y0124269D01*
X0654514Y0124302D01*
X0654201Y0124327D01*
X0653887Y0124344D01*
X0653573Y0124354D01*
X0653258Y0124356D01*
X0652944Y0124350D01*
X0652630Y0124337D01*
X0652316Y0124316D01*
X0652003Y0124287D01*
X0651691Y0124251D01*
X0651380Y0124207D01*
X0651070Y0124155D01*
X0650761Y0124096D01*
X0650454Y0124029D01*
X0650148Y0123955D01*
X0649845Y0123874D01*
X0649543Y0123785D01*
X0649244Y0123688D01*
X0648947Y0123585D01*
X0648653Y0123474D01*
X0648362Y0123356D01*
X0648073Y0123231D01*
X0647788Y0123099D01*
X0647506Y0122960D01*
X0647228Y0122814D01*
X0646953Y0122661D01*
X0646682Y0122502D01*
X0646415Y0122336D01*
X0646152Y0122163D01*
X0645893Y0121985D01*
X0645639Y0121800D01*
X0645390Y0121608D01*
X0645145Y0121411D01*
X0644905Y0121208D01*
X0644670Y0120999D01*
X0644440Y0120784D01*
X0644216Y0120564D01*
X0643997Y0120339D01*
X0643784Y0120108D01*
X0643576Y0119872D01*
X0643374Y0119630D01*
X0643179Y0119385D01*
X0642989Y0119134D01*
X0642805Y0118879D01*
X0642628Y0118619D01*
X0642457Y0118355D01*
X0642293Y0118087D01*
X0642135Y0117815D01*
X0641984Y0117540D01*
X0641840Y0117260D01*
X0641702Y0116978D01*
X0641572Y0116692D01*
X0641448Y0116403D01*
X0641332Y0116110D01*
X0641223Y0115816D01*
X0641121Y0115518D01*
X0641027Y0115219D01*
X0640939Y0114916D01*
X0640859Y0114612D01*
X0640787Y0114307D01*
X0640722Y0113999D01*
X0640665Y0113690D01*
X0640615Y0113379D01*
X0640573Y0113068D01*
X0640538Y0112755D01*
X0640512Y0112442D01*
X0640492Y0112128D01*
X0640481Y0111814D01*
X0640477Y0111500D01*
X0640481Y0111186D01*
X0640492Y0110872D01*
X0640512Y0110558D01*
X0640538Y0110245D01*
X0640573Y0109932D01*
X0640615Y0109621D01*
X0640665Y0109310D01*
X0640722Y0109001D01*
X0640787Y0108693D01*
X0640859Y0108388D01*
X0640939Y0108084D01*
X0641027Y0107781D01*
X0641121Y0107482D01*
X0641223Y0107184D01*
X0641332Y0106890D01*
X0641448Y0106597D01*
X0641572Y0106308D01*
X0641702Y0106022D01*
X0641840Y0105740D01*
X0641984Y0105460D01*
X0642135Y0105185D01*
X0642293Y0104913D01*
X0642457Y0104645D01*
X0642628Y0104381D01*
X0642805Y0104121D01*
X0642989Y0103866D01*
X0643179Y0103615D01*
X0643374Y0103370D01*
X0643576Y0103128D01*
X0643784Y0102892D01*
X0643997Y0102661D01*
X0644216Y0102436D01*
X0644440Y0102216D01*
X0644670Y0102001D01*
X0644905Y0101792D01*
X0645145Y0101589D01*
X0645390Y0101392D01*
X0645639Y0101200D01*
X0645893Y0101015D01*
X0646152Y0100837D01*
X0646415Y0100664D01*
X0646682Y0100498D01*
X0646953Y0100339D01*
X0647228Y0100186D01*
X0647506Y0100040D01*
X0647788Y0099901D01*
X0648073Y0099769D01*
X0648362Y0099644D01*
X0648653Y0099526D01*
X0648947Y0099415D01*
X0649244Y0099312D01*
X0649543Y0099215D01*
X0649845Y0099126D01*
X0650148Y0099045D01*
X0650454Y0098971D01*
X0650761Y0098904D01*
X0651070Y0098845D01*
X0651380Y0098793D01*
X0651691Y0098749D01*
X0652003Y0098713D01*
X0652316Y0098684D01*
X0652630Y0098663D01*
X0652944Y0098650D01*
X0653258Y0098644D01*
X0653573Y0098646D01*
X0653887Y0098656D01*
X0654201Y0098673D01*
X0654514Y0098698D01*
X0654827Y0098731D01*
X0655139Y0098771D01*
X0655449Y0098819D01*
X0655759Y0098875D01*
X0656067Y0098938D01*
X0656373Y0099009D01*
X0656677Y0099087D01*
X0656980Y0099172D01*
X0657280Y0099265D01*
X0657578Y0099365D01*
X0657874Y0099473D01*
X0658166Y0099587D01*
X0658456Y0099709D01*
X0658743Y0099838D01*
X0659027Y0099974D01*
X0659307Y0100116D01*
X0659583Y0100266D01*
X0659856Y0100422D01*
X0660125Y0100585D01*
X0660390Y0100754D01*
X0660650Y0100930D01*
X0660907Y0101112D01*
X0661158Y0101300D01*
X0661406Y0101494D01*
X0661648Y0101695D01*
X0661885Y0101901D01*
X0662117Y0102113D01*
X0662344Y0102331D01*
X0662566Y0102554D01*
X0662782Y0102782D01*
X0662992Y0103016D01*
X0663196Y0103254D01*
X0663395Y0103498D01*
X0663588Y0103746D01*
X0663513Y0103803D01*
X0663321Y0103556D01*
X0663124Y0103314D01*
X0662921Y0103077D01*
X0662712Y0102846D01*
X0662498Y0102619D01*
X0662278Y0102397D01*
X0662053Y0102181D01*
X0661822Y0101971D01*
X0661587Y0101766D01*
X0661346Y0101567D01*
X0661101Y0101374D01*
X0660851Y0101188D01*
X0660597Y0101007D01*
X0660338Y0100832D01*
X0660075Y0100664D01*
X0659808Y0100503D01*
X0659537Y0100348D01*
X0659263Y0100199D01*
X0658985Y0100058D01*
X0658703Y0099923D01*
X0658419Y0099795D01*
X0658131Y0099674D01*
X0657840Y0099560D01*
X0657547Y0099454D01*
X0657251Y0099354D01*
X0656953Y0099262D01*
X0656653Y0099177D01*
X0656350Y0099100D01*
X0656046Y0099030D01*
X0655741Y0098967D01*
X0655434Y0098912D01*
X0655125Y0098864D01*
X0654816Y0098824D01*
X0654505Y0098792D01*
X0654194Y0098767D01*
X0653883Y0098750D01*
X0653571Y0098740D01*
X0653259Y0098738D01*
X0652947Y0098744D01*
X0652635Y0098757D01*
X0652324Y0098778D01*
X0652013Y0098806D01*
X0651703Y0098843D01*
X0651394Y0098886D01*
X0651086Y0098937D01*
X0650779Y0098996D01*
X0650475Y0099062D01*
X0650171Y0099136D01*
X0649870Y0099217D01*
X0649571Y0099305D01*
X0649274Y0099401D01*
X0648979Y0099504D01*
X0648687Y0099614D01*
X0648398Y0099731D01*
X0648111Y0099855D01*
X0647828Y0099986D01*
X0647548Y0100124D01*
X0647272Y0100269D01*
X0646999Y0100421D01*
X0646730Y0100579D01*
X0646465Y0100744D01*
X0646204Y0100915D01*
X0645948Y0101092D01*
X0645695Y0101276D01*
X0645448Y0101466D01*
X0645205Y0101661D01*
X0644966Y0101863D01*
X0644733Y0102071D01*
X0644505Y0102284D01*
X0644283Y0102502D01*
X0644065Y0102726D01*
X0643854Y0102955D01*
X0643648Y0103190D01*
X0643447Y0103429D01*
X0643253Y0103673D01*
X0643065Y0103922D01*
X0642882Y0104175D01*
X0642706Y0104433D01*
X0642537Y0104695D01*
X0642374Y0104961D01*
X0642217Y0105231D01*
X0642067Y0105505D01*
X0641924Y0105782D01*
X0641787Y0106062D01*
X0641658Y0106346D01*
X0641535Y0106633D01*
X0641420Y0106923D01*
X0641312Y0107216D01*
X0641210Y0107511D01*
X0641116Y0107809D01*
X0641030Y0108109D01*
X0640951Y0108410D01*
X0640879Y0108714D01*
X0640814Y0109019D01*
X0640757Y0109326D01*
X0640708Y0109634D01*
X0640666Y0109944D01*
X0640632Y0110254D01*
X0640605Y0110565D01*
X0640586Y0110876D01*
X0640575Y0111188D01*
X0640571Y0111500D01*
X0640575Y0111812D01*
X0640586Y0112124D01*
X0640605Y0112435D01*
X0640632Y0112746D01*
X0640666Y0113056D01*
X0640708Y0113366D01*
X0640757Y0113674D01*
X0640814Y0113981D01*
X0640879Y0114286D01*
X0640951Y0114590D01*
X0641030Y0114891D01*
X0641116Y0115191D01*
X0641210Y0115489D01*
X0641312Y0115784D01*
X0641420Y0116077D01*
X0641535Y0116367D01*
X0641658Y0116654D01*
X0641787Y0116938D01*
X0641924Y0117218D01*
X0642067Y0117495D01*
X0642217Y0117769D01*
X0642374Y0118039D01*
X0642537Y0118305D01*
X0642706Y0118567D01*
X0642882Y0118825D01*
X0643065Y0119078D01*
X0643253Y0119327D01*
X0643447Y0119571D01*
X0643648Y0119810D01*
X0643854Y0120045D01*
X0644065Y0120274D01*
X0644283Y0120498D01*
X0644505Y0120716D01*
X0644733Y0120929D01*
X0644966Y0121137D01*
X0645205Y0121339D01*
X0645448Y0121534D01*
X0645695Y0121724D01*
X0645948Y0121908D01*
X0646204Y0122085D01*
X0646465Y0122256D01*
X0646730Y0122421D01*
X0646999Y0122579D01*
X0647272Y0122731D01*
X0647548Y0122876D01*
X0647828Y0123014D01*
X0648111Y0123145D01*
X0648398Y0123269D01*
X0648687Y0123386D01*
X0648979Y0123496D01*
X0649274Y0123599D01*
X0649571Y0123695D01*
X0649870Y0123783D01*
X0650171Y0123864D01*
X0650475Y0123938D01*
X0650779Y0124004D01*
X0651086Y0124063D01*
X0651394Y0124114D01*
X0651703Y0124157D01*
X0652013Y0124194D01*
X0652324Y0124222D01*
X0652635Y0124243D01*
X0652947Y0124256D01*
X0653259Y0124262D01*
X0653571Y0124260D01*
X0653883Y0124250D01*
X0654194Y0124233D01*
X0654505Y0124208D01*
X0654816Y0124176D01*
X0655125Y0124136D01*
X0655434Y0124088D01*
X0655741Y0124033D01*
X0656046Y0123970D01*
X0656350Y0123900D01*
X0656653Y0123823D01*
X0656953Y0123738D01*
X0657251Y0123646D01*
X0657547Y0123546D01*
X0657840Y0123440D01*
X0658131Y0123326D01*
X0658419Y0123205D01*
X0658703Y0123077D01*
X0658985Y0122942D01*
X0659263Y0122801D01*
X0659537Y0122652D01*
X0659808Y0122497D01*
X0660075Y0122336D01*
X0660338Y0122168D01*
X0660597Y0121993D01*
X0660851Y0121812D01*
X0661101Y0121626D01*
X0661346Y0121433D01*
X0661587Y0121234D01*
X0661822Y0121029D01*
X0662053Y0120819D01*
X0662278Y0120603D01*
X0662498Y0120381D01*
X0662712Y0120154D01*
X0662921Y0119923D01*
X0663124Y0119686D01*
X0663321Y0119444D01*
X0663513Y0119197D01*
X0663437Y0119141D01*
X0663247Y0119386D01*
X0663052Y0119626D01*
X0662850Y0119861D01*
X0662643Y0120091D01*
X0662430Y0120316D01*
X0662212Y0120536D01*
X0661988Y0120750D01*
X0661759Y0120959D01*
X0661526Y0121162D01*
X0661287Y0121360D01*
X0661044Y0121551D01*
X0660795Y0121737D01*
X0660543Y0121916D01*
X0660286Y0122089D01*
X0660025Y0122256D01*
X0659760Y0122417D01*
X0659491Y0122570D01*
X0659219Y0122718D01*
X0658943Y0122858D01*
X0658663Y0122992D01*
X0658381Y0123119D01*
X0658095Y0123239D01*
X0657807Y0123352D01*
X0657516Y0123458D01*
X0657222Y0123556D01*
X0656926Y0123648D01*
X0656628Y0123732D01*
X0656328Y0123809D01*
X0656026Y0123878D01*
X0655723Y0123941D01*
X0655418Y0123995D01*
X0655112Y0124043D01*
X0654804Y0124082D01*
X0654496Y0124114D01*
X0654188Y0124139D01*
X0653878Y0124156D01*
X0653569Y0124166D01*
X0653259Y0124168D01*
X0652949Y0124162D01*
X0652640Y0124149D01*
X0652331Y0124128D01*
X0652022Y0124100D01*
X0651715Y0124064D01*
X0651408Y0124021D01*
X0651102Y0123970D01*
X0650798Y0123912D01*
X0650495Y0123846D01*
X0650194Y0123773D01*
X0649895Y0123693D01*
X0649598Y0123605D01*
X0649303Y0123510D01*
X0649011Y0123408D01*
X0648721Y0123299D01*
X0648434Y0123182D01*
X0648150Y0123059D01*
X0647869Y0122929D01*
X0647591Y0122792D01*
X0647317Y0122648D01*
X0647046Y0122498D01*
X0646779Y0122341D01*
X0646516Y0122177D01*
X0646257Y0122007D01*
X0646002Y0121831D01*
X0645751Y0121649D01*
X0645506Y0121460D01*
X0645264Y0121266D01*
X0645028Y0121066D01*
X0644797Y0120860D01*
X0644570Y0120648D01*
X0644349Y0120431D01*
X0644134Y0120209D01*
X0643923Y0119982D01*
X0643719Y0119749D01*
X0643520Y0119511D01*
X0643327Y0119269D01*
X0643140Y0119022D01*
X0642959Y0118771D01*
X0642785Y0118515D01*
X0642616Y0118255D01*
X0642454Y0117991D01*
X0642299Y0117723D01*
X0642150Y0117451D01*
X0642008Y0117176D01*
X0641872Y0116897D01*
X0641744Y0116616D01*
X0641622Y0116331D01*
X0641508Y0116043D01*
X0641400Y0115752D01*
X0641300Y0115459D01*
X0641206Y0115164D01*
X0641120Y0114866D01*
X0641042Y0114567D01*
X0640971Y0114265D01*
X0640907Y0113962D01*
X0640850Y0113658D01*
X0640801Y0113352D01*
X0640760Y0113045D01*
X0640726Y0112737D01*
X0640699Y0112428D01*
X0640680Y0112119D01*
X0640669Y0111810D01*
X0640665Y0111500D01*
X0640669Y0111190D01*
X0640680Y0110881D01*
X0640699Y0110572D01*
X0640726Y0110263D01*
X0640760Y0109955D01*
X0640801Y0109648D01*
X0640850Y0109342D01*
X0640907Y0109038D01*
X0640971Y0108735D01*
X0641042Y0108433D01*
X0641120Y0108134D01*
X0641206Y0107836D01*
X0641300Y0107541D01*
X0641400Y0107248D01*
X0641508Y0106957D01*
X0641622Y0106669D01*
X0641744Y0106384D01*
X0641872Y0106103D01*
X0642008Y0105824D01*
X0642150Y0105549D01*
X0642299Y0105277D01*
X0642454Y0105009D01*
X0642616Y0104745D01*
X0642785Y0104485D01*
X0642959Y0104229D01*
X0643140Y0103978D01*
X0643327Y0103731D01*
X0643520Y0103489D01*
X0643719Y0103251D01*
X0643923Y0103018D01*
X0644134Y0102791D01*
X0644349Y0102569D01*
X0644570Y0102352D01*
X0644797Y0102140D01*
X0645028Y0101934D01*
X0645264Y0101734D01*
X0645506Y0101540D01*
X0645751Y0101351D01*
X0646002Y0101169D01*
X0646257Y0100993D01*
X0646516Y0100823D01*
X0646779Y0100659D01*
X0647046Y0100502D01*
X0647317Y0100352D01*
X0647591Y0100208D01*
X0647869Y0100071D01*
X0648150Y0099941D01*
X0648434Y0099818D01*
X0648721Y0099701D01*
X0649011Y0099592D01*
X0649303Y0099490D01*
X0649598Y0099395D01*
X0649895Y0099307D01*
X0650194Y0099227D01*
X0650495Y0099154D01*
X0650798Y0099088D01*
X0651102Y0099030D01*
X0651408Y0098979D01*
X0651715Y0098936D01*
X0652022Y0098900D01*
X0652331Y0098872D01*
X0652640Y0098851D01*
X0652949Y0098838D01*
X0653259Y0098832D01*
X0653569Y0098834D01*
X0653878Y0098844D01*
X0654188Y0098861D01*
X0654496Y0098886D01*
X0654804Y0098918D01*
X0655112Y0098957D01*
X0655418Y0099005D01*
X0655723Y0099059D01*
X0656026Y0099122D01*
X0656328Y0099191D01*
X0656628Y0099268D01*
X0656926Y0099352D01*
X0657222Y0099444D01*
X0657516Y0099542D01*
X0657807Y0099648D01*
X0658095Y0099761D01*
X0658381Y0099881D01*
X0658663Y0100008D01*
X0658943Y0100142D01*
X0659219Y0100282D01*
X0659491Y0100430D01*
X0659760Y0100583D01*
X0660025Y0100744D01*
X0660286Y0100911D01*
X0660543Y0101084D01*
X0660795Y0101263D01*
X0661044Y0101449D01*
X0661287Y0101640D01*
X0661526Y0101838D01*
X0661759Y0102041D01*
X0661988Y0102250D01*
X0662212Y0102464D01*
X0662430Y0102684D01*
X0662643Y0102909D01*
X0662850Y0103139D01*
X0663052Y0103374D01*
X0663247Y0103614D01*
X0663437Y0103859D01*
X0663362Y0103916D01*
X0663174Y0103673D01*
X0662979Y0103434D01*
X0662779Y0103201D01*
X0662574Y0102973D01*
X0662362Y0102749D01*
X0662146Y0102531D01*
X0661924Y0102318D01*
X0661697Y0102111D01*
X0661465Y0101909D01*
X0661228Y0101713D01*
X0660986Y0101523D01*
X0660740Y0101339D01*
X0660489Y0101161D01*
X0660234Y0100989D01*
X0659975Y0100824D01*
X0659712Y0100664D01*
X0659445Y0100512D01*
X0659175Y0100365D01*
X0658901Y0100226D01*
X0658624Y0100093D01*
X0658343Y0099967D01*
X0658060Y0099848D01*
X0657773Y0099736D01*
X0657484Y0099631D01*
X0657193Y0099533D01*
X0656899Y0099442D01*
X0656603Y0099359D01*
X0656306Y0099282D01*
X0656006Y0099213D01*
X0655705Y0099152D01*
X0655402Y0099097D01*
X0655098Y0099051D01*
X0654793Y0099011D01*
X0654488Y0098979D01*
X0654181Y0098955D01*
X0653874Y0098938D01*
X0653567Y0098928D01*
X0653259Y0098926D01*
X0652952Y0098932D01*
X0652645Y0098945D01*
X0652338Y0098965D01*
X0652032Y0098994D01*
X0651726Y0099029D01*
X0651422Y0099072D01*
X0651119Y0099123D01*
X0650817Y0099180D01*
X0650516Y0099246D01*
X0650217Y0099318D01*
X0649921Y0099398D01*
X0649626Y0099485D01*
X0649333Y0099579D01*
X0649043Y0099681D01*
X0648755Y0099789D01*
X0648470Y0099904D01*
X0648188Y0100027D01*
X0647909Y0100156D01*
X0647633Y0100292D01*
X0647361Y0100435D01*
X0647092Y0100584D01*
X0646827Y0100740D01*
X0646566Y0100902D01*
X0646309Y0101071D01*
X0646056Y0101246D01*
X0645808Y0101427D01*
X0645564Y0101614D01*
X0645324Y0101807D01*
X0645090Y0102005D01*
X0644860Y0102210D01*
X0644635Y0102420D01*
X0644416Y0102635D01*
X0644202Y0102856D01*
X0643993Y0103081D01*
X0643790Y0103312D01*
X0643593Y0103548D01*
X0643401Y0103789D01*
X0643216Y0104034D01*
X0643036Y0104283D01*
X0642863Y0104537D01*
X0642696Y0104795D01*
X0642535Y0105057D01*
X0642381Y0105323D01*
X0642233Y0105593D01*
X0642092Y0105866D01*
X0641957Y0106143D01*
X0641830Y0106422D01*
X0641709Y0106705D01*
X0641595Y0106991D01*
X0641489Y0107279D01*
X0641389Y0107570D01*
X0641296Y0107863D01*
X0641211Y0108159D01*
X0641133Y0108456D01*
X0641062Y0108755D01*
X0640999Y0109056D01*
X0640943Y0109358D01*
X0640894Y0109662D01*
X0640853Y0109967D01*
X0640819Y0110272D01*
X0640793Y0110578D01*
X0640774Y0110885D01*
X0640763Y0111193D01*
X0640759Y0111500D01*
X0640763Y0111807D01*
X0640774Y0112115D01*
X0640793Y0112422D01*
X0640819Y0112728D01*
X0640853Y0113033D01*
X0640894Y0113338D01*
X0640943Y0113642D01*
X0640999Y0113944D01*
X0641062Y0114245D01*
X0641133Y0114544D01*
X0641211Y0114841D01*
X0641296Y0115137D01*
X0641389Y0115430D01*
X0641489Y0115721D01*
X0641595Y0116009D01*
X0641709Y0116295D01*
X0641830Y0116578D01*
X0641957Y0116857D01*
X0642092Y0117134D01*
X0642233Y0117407D01*
X0642381Y0117677D01*
X0642535Y0117943D01*
X0642696Y0118205D01*
X0642863Y0118463D01*
X0643036Y0118717D01*
X0643216Y0118966D01*
X0643401Y0119211D01*
X0643593Y0119452D01*
X0643790Y0119688D01*
X0643993Y0119919D01*
X0644202Y0120144D01*
X0644416Y0120365D01*
X0644635Y0120580D01*
X0644860Y0120790D01*
X0645090Y0120995D01*
X0645324Y0121193D01*
X0645564Y0121386D01*
X0645808Y0121573D01*
X0646056Y0121754D01*
X0646309Y0121929D01*
X0646566Y0122098D01*
X0646827Y0122260D01*
X0647092Y0122416D01*
X0647361Y0122565D01*
X0647633Y0122708D01*
X0647909Y0122844D01*
X0648188Y0122973D01*
X0648470Y0123096D01*
X0648755Y0123211D01*
X0649043Y0123319D01*
X0649333Y0123421D01*
X0649626Y0123515D01*
X0649921Y0123602D01*
X0650217Y0123682D01*
X0650516Y0123754D01*
X0650817Y0123820D01*
X0651119Y0123877D01*
X0651422Y0123928D01*
X0651726Y0123971D01*
X0652032Y0124006D01*
X0652338Y0124035D01*
X0652645Y0124055D01*
X0652952Y0124068D01*
X0653259Y0124074D01*
X0653567Y0124072D01*
X0653874Y0124062D01*
X0654181Y0124045D01*
X0654488Y0124021D01*
X0654793Y0123989D01*
X0655098Y0123949D01*
X0655402Y0123903D01*
X0655705Y0123848D01*
X0656006Y0123787D01*
X0656306Y0123718D01*
X0656603Y0123641D01*
X0656899Y0123558D01*
X0657193Y0123467D01*
X0657484Y0123369D01*
X0657773Y0123264D01*
X0658060Y0123152D01*
X0658343Y0123033D01*
X0658624Y0122907D01*
X0658901Y0122774D01*
X0659175Y0122635D01*
X0659445Y0122488D01*
X0659712Y0122336D01*
X0659975Y0122176D01*
X0660234Y0122011D01*
X0660489Y0121839D01*
X0660740Y0121661D01*
X0660986Y0121477D01*
X0661228Y0121287D01*
X0661465Y0121091D01*
X0661697Y0120889D01*
X0661924Y0120682D01*
X0662146Y0120469D01*
X0662362Y0120251D01*
X0662574Y0120027D01*
X0662779Y0119799D01*
X0662979Y0119566D01*
X0663174Y0119327D01*
X0663362Y0119084D01*
X0663287Y0119028D01*
X0663100Y0119269D01*
X0662907Y0119506D01*
X0662708Y0119737D01*
X0662504Y0119964D01*
X0662295Y0120186D01*
X0662080Y0120402D01*
X0661859Y0120613D01*
X0661634Y0120819D01*
X0661404Y0121019D01*
X0661168Y0121214D01*
X0660929Y0121402D01*
X0660684Y0121585D01*
X0660435Y0121762D01*
X0660182Y0121932D01*
X0659925Y0122097D01*
X0659664Y0122255D01*
X0659399Y0122406D01*
X0659131Y0122551D01*
X0658859Y0122690D01*
X0658584Y0122822D01*
X0658305Y0122947D01*
X0658024Y0123065D01*
X0657740Y0123176D01*
X0657453Y0123280D01*
X0657164Y0123378D01*
X0656872Y0123468D01*
X0656579Y0123551D01*
X0656283Y0123626D01*
X0655986Y0123695D01*
X0655687Y0123756D01*
X0655386Y0123810D01*
X0655085Y0123856D01*
X0654782Y0123896D01*
X0654479Y0123927D01*
X0654174Y0123952D01*
X0653870Y0123968D01*
X0653565Y0123978D01*
X0653260Y0123980D01*
X0652955Y0123974D01*
X0652650Y0123961D01*
X0652345Y0123941D01*
X0652041Y0123913D01*
X0651738Y0123878D01*
X0651436Y0123835D01*
X0651135Y0123785D01*
X0650835Y0123728D01*
X0650537Y0123663D01*
X0650241Y0123591D01*
X0649946Y0123512D01*
X0649653Y0123425D01*
X0649363Y0123332D01*
X0649075Y0123231D01*
X0648789Y0123123D01*
X0648506Y0123009D01*
X0648226Y0122887D01*
X0647949Y0122759D01*
X0647676Y0122624D01*
X0647406Y0122483D01*
X0647139Y0122334D01*
X0646876Y0122180D01*
X0646617Y0122019D01*
X0646361Y0121851D01*
X0646110Y0121678D01*
X0645864Y0121498D01*
X0645622Y0121312D01*
X0645384Y0121121D01*
X0645151Y0120924D01*
X0644923Y0120721D01*
X0644700Y0120512D01*
X0644482Y0120299D01*
X0644270Y0120080D01*
X0644063Y0119856D01*
X0643861Y0119626D01*
X0643665Y0119392D01*
X0643475Y0119154D01*
X0643291Y0118910D01*
X0643113Y0118663D01*
X0642941Y0118411D01*
X0642775Y0118154D01*
X0642616Y0117894D01*
X0642462Y0117630D01*
X0642316Y0117363D01*
X0642176Y0117092D01*
X0642042Y0116817D01*
X0641916Y0116540D01*
X0641796Y0116259D01*
X0641683Y0115975D01*
X0641577Y0115689D01*
X0641478Y0115401D01*
X0641386Y0115110D01*
X0641302Y0114816D01*
X0641224Y0114521D01*
X0641154Y0114224D01*
X0641091Y0113926D01*
X0641035Y0113626D01*
X0640987Y0113324D01*
X0640946Y0113022D01*
X0640913Y0112719D01*
X0640887Y0112415D01*
X0640868Y0112110D01*
X0640857Y0111805D01*
X0640853Y0111500D01*
X0640857Y0111195D01*
X0640868Y0110890D01*
X0640887Y0110585D01*
X0640913Y0110281D01*
X0640946Y0109978D01*
X0640987Y0109676D01*
X0641035Y0109374D01*
X0641091Y0109074D01*
X0641154Y0108776D01*
X0641224Y0108479D01*
X0641302Y0108184D01*
X0641386Y0107890D01*
X0641478Y0107599D01*
X0641577Y0107311D01*
X0641683Y0107025D01*
X0641796Y0106741D01*
X0641916Y0106460D01*
X0642042Y0106183D01*
X0642176Y0105908D01*
X0642316Y0105637D01*
X0642462Y0105370D01*
X0642616Y0105106D01*
X0642775Y0104846D01*
X0642941Y0104589D01*
X0643113Y0104337D01*
X0643291Y0104090D01*
X0643475Y0103846D01*
X0643665Y0103608D01*
X0643861Y0103374D01*
X0644063Y0103144D01*
X0644270Y0102920D01*
X0644482Y0102701D01*
X0644700Y0102488D01*
X0644923Y0102279D01*
X0645151Y0102076D01*
X0645384Y0101879D01*
X0645622Y0101688D01*
X0645864Y0101502D01*
X0646110Y0101322D01*
X0646361Y0101149D01*
X0646617Y0100981D01*
X0646876Y0100820D01*
X0647139Y0100666D01*
X0647406Y0100517D01*
X0647676Y0100376D01*
X0647949Y0100241D01*
X0648226Y0100113D01*
X0648506Y0099991D01*
X0648789Y0099877D01*
X0649075Y0099769D01*
X0649363Y0099668D01*
X0649653Y0099575D01*
X0649946Y0099488D01*
X0650241Y0099409D01*
X0650537Y0099337D01*
X0650835Y0099272D01*
X0651135Y0099215D01*
X0651436Y0099165D01*
X0651738Y0099122D01*
X0652041Y0099087D01*
X0652345Y0099059D01*
X0652650Y0099039D01*
X0652955Y0099026D01*
X0653260Y0099020D01*
X0653565Y0099022D01*
X0653870Y0099032D01*
X0654174Y0099048D01*
X0654479Y0099073D01*
X0654782Y0099104D01*
X0655085Y0099144D01*
X0655386Y0099190D01*
X0655687Y0099244D01*
X0655986Y0099305D01*
X0656283Y0099374D01*
X0656579Y0099449D01*
X0656872Y0099532D01*
X0657164Y0099622D01*
X0657453Y0099720D01*
X0657740Y0099824D01*
X0658024Y0099935D01*
X0658305Y0100053D01*
X0658584Y0100178D01*
X0658859Y0100310D01*
X0659131Y0100449D01*
X0659399Y0100594D01*
X0659664Y0100745D01*
X0659925Y0100903D01*
X0660182Y0101068D01*
X0660435Y0101238D01*
X0660684Y0101415D01*
X0660929Y0101598D01*
X0661168Y0101786D01*
X0661404Y0101981D01*
X0661634Y0102181D01*
X0661859Y0102387D01*
X0662080Y0102598D01*
X0662295Y0102814D01*
X0662504Y0103036D01*
X0662708Y0103263D01*
X0662907Y0103494D01*
X0663100Y0103731D01*
X0663287Y0103972D01*
X0663212Y0104028D01*
X0663026Y0103789D01*
X0662835Y0103554D01*
X0662638Y0103325D01*
X0662435Y0103100D01*
X0662227Y0102879D01*
X0662013Y0102665D01*
X0661795Y0102455D01*
X0661571Y0102251D01*
X0661343Y0102052D01*
X0661109Y0101859D01*
X0660871Y0101672D01*
X0660629Y0101491D01*
X0660382Y0101315D01*
X0660131Y0101146D01*
X0659875Y0100983D01*
X0659616Y0100826D01*
X0659353Y0100676D01*
X0659087Y0100532D01*
X0658817Y0100394D01*
X0658544Y0100263D01*
X0658268Y0100139D01*
X0657988Y0100022D01*
X0657706Y0099912D01*
X0657422Y0099808D01*
X0657135Y0099712D01*
X0656845Y0099622D01*
X0656554Y0099540D01*
X0656261Y0099465D01*
X0655965Y0099397D01*
X0655669Y0099336D01*
X0655371Y0099283D01*
X0655071Y0099237D01*
X0654771Y0099198D01*
X0654470Y0099166D01*
X0654168Y0099142D01*
X0653865Y0099125D01*
X0653563Y0099116D01*
X0653260Y0099114D01*
X0652957Y0099120D01*
X0652655Y0099133D01*
X0652352Y0099153D01*
X0652051Y0099181D01*
X0651750Y0099216D01*
X0651450Y0099258D01*
X0651151Y0099308D01*
X0650854Y0099365D01*
X0650558Y0099429D01*
X0650264Y0099500D01*
X0649971Y0099579D01*
X0649681Y0099665D01*
X0649392Y0099758D01*
X0649107Y0099857D01*
X0648823Y0099964D01*
X0648543Y0100078D01*
X0648265Y0100198D01*
X0647990Y0100326D01*
X0647718Y0100460D01*
X0647450Y0100600D01*
X0647185Y0100747D01*
X0646924Y0100901D01*
X0646667Y0101061D01*
X0646414Y0101227D01*
X0646165Y0101399D01*
X0645920Y0101577D01*
X0645679Y0101762D01*
X0645444Y0101952D01*
X0645213Y0102147D01*
X0644986Y0102349D01*
X0644765Y0102555D01*
X0644549Y0102768D01*
X0644338Y0102985D01*
X0644133Y0103207D01*
X0643933Y0103435D01*
X0643738Y0103667D01*
X0643550Y0103904D01*
X0643367Y0104146D01*
X0643190Y0104391D01*
X0643019Y0104642D01*
X0642855Y0104896D01*
X0642696Y0105154D01*
X0642544Y0105416D01*
X0642399Y0105681D01*
X0642260Y0105950D01*
X0642127Y0106223D01*
X0642002Y0106498D01*
X0641883Y0106777D01*
X0641771Y0107058D01*
X0641666Y0107342D01*
X0641567Y0107629D01*
X0641476Y0107918D01*
X0641392Y0108209D01*
X0641315Y0108502D01*
X0641246Y0108796D01*
X0641183Y0109093D01*
X0641128Y0109390D01*
X0641080Y0109689D01*
X0641039Y0109989D01*
X0641006Y0110291D01*
X0640980Y0110592D01*
X0640962Y0110895D01*
X0640951Y0111197D01*
X0640947Y0111500D01*
X0640951Y0111803D01*
X0640962Y0112105D01*
X0640980Y0112408D01*
X0641006Y0112709D01*
X0641039Y0113011D01*
X0641080Y0113311D01*
X0641128Y0113610D01*
X0641183Y0113907D01*
X0641246Y0114204D01*
X0641315Y0114498D01*
X0641392Y0114791D01*
X0641476Y0115082D01*
X0641567Y0115371D01*
X0641666Y0115658D01*
X0641771Y0115942D01*
X0641883Y0116223D01*
X0642002Y0116502D01*
X0642127Y0116777D01*
X0642260Y0117050D01*
X0642399Y0117319D01*
X0642544Y0117584D01*
X0642696Y0117846D01*
X0642855Y0118104D01*
X0643019Y0118358D01*
X0643190Y0118609D01*
X0643367Y0118854D01*
X0643550Y0119096D01*
X0643738Y0119333D01*
X0643933Y0119565D01*
X0644133Y0119793D01*
X0644338Y0120015D01*
X0644549Y0120232D01*
X0644765Y0120445D01*
X0644986Y0120651D01*
X0645213Y0120853D01*
X0645444Y0121048D01*
X0645679Y0121238D01*
X0645920Y0121423D01*
X0646165Y0121601D01*
X0646414Y0121773D01*
X0646667Y0121939D01*
X0646924Y0122099D01*
X0647185Y0122253D01*
X0647450Y0122400D01*
X0647718Y0122540D01*
X0647990Y0122674D01*
X0648265Y0122802D01*
X0648543Y0122922D01*
X0648823Y0123036D01*
X0649107Y0123143D01*
X0649392Y0123242D01*
X0649681Y0123335D01*
X0649971Y0123421D01*
X0650264Y0123500D01*
X0650558Y0123571D01*
X0650854Y0123635D01*
X0651151Y0123692D01*
X0651450Y0123742D01*
X0651750Y0123784D01*
X0652051Y0123819D01*
X0652352Y0123847D01*
X0652655Y0123867D01*
X0652957Y0123880D01*
X0653260Y0123886D01*
X0653563Y0123884D01*
X0653865Y0123875D01*
X0654168Y0123858D01*
X0654470Y0123834D01*
X0654771Y0123802D01*
X0655071Y0123763D01*
X0655371Y0123717D01*
X0655669Y0123664D01*
X0655965Y0123603D01*
X0656261Y0123535D01*
X0656554Y0123460D01*
X0656845Y0123378D01*
X0657135Y0123288D01*
X0657422Y0123192D01*
X0657706Y0123088D01*
X0657988Y0122978D01*
X0658268Y0122861D01*
X0658544Y0122737D01*
X0658817Y0122606D01*
X0659087Y0122468D01*
X0659353Y0122324D01*
X0659616Y0122174D01*
X0659875Y0122017D01*
X0660131Y0121854D01*
X0660382Y0121685D01*
X0660629Y0121509D01*
X0660871Y0121328D01*
X0661109Y0121141D01*
X0661343Y0120948D01*
X0661571Y0120749D01*
X0661795Y0120545D01*
X0662013Y0120335D01*
X0662227Y0120121D01*
X0662435Y0119900D01*
X0662638Y0119675D01*
X0662835Y0119446D01*
X0663026Y0119211D01*
X0663212Y0118972D01*
X0663137Y0118915D01*
X0662952Y0119153D01*
X0662762Y0119385D01*
X0662567Y0119614D01*
X0662366Y0119837D01*
X0662159Y0120055D01*
X0661947Y0120269D01*
X0661730Y0120477D01*
X0661508Y0120679D01*
X0661281Y0120876D01*
X0661050Y0121068D01*
X0660814Y0121254D01*
X0660573Y0121434D01*
X0660328Y0121608D01*
X0660079Y0121776D01*
X0659825Y0121938D01*
X0659568Y0122093D01*
X0659307Y0122242D01*
X0659043Y0122385D01*
X0658775Y0122522D01*
X0658504Y0122651D01*
X0658230Y0122774D01*
X0657953Y0122891D01*
X0657673Y0123000D01*
X0657390Y0123103D01*
X0657106Y0123199D01*
X0656818Y0123287D01*
X0656529Y0123369D01*
X0656238Y0123444D01*
X0655945Y0123511D01*
X0655651Y0123572D01*
X0655355Y0123625D01*
X0655058Y0123670D01*
X0654760Y0123709D01*
X0654461Y0123740D01*
X0654161Y0123764D01*
X0653861Y0123781D01*
X0653561Y0123790D01*
X0653260Y0123792D01*
X0652960Y0123786D01*
X0652659Y0123774D01*
X0652360Y0123753D01*
X0652060Y0123726D01*
X0651762Y0123691D01*
X0651464Y0123649D01*
X0651168Y0123600D01*
X0650873Y0123543D01*
X0650579Y0123479D01*
X0650287Y0123409D01*
X0649997Y0123331D01*
X0649708Y0123245D01*
X0649422Y0123153D01*
X0649138Y0123054D01*
X0648857Y0122948D01*
X0648579Y0122835D01*
X0648303Y0122716D01*
X0648030Y0122589D01*
X0647761Y0122456D01*
X0647495Y0122317D01*
X0647232Y0122171D01*
X0646973Y0122019D01*
X0646717Y0121860D01*
X0646466Y0121695D01*
X0646219Y0121524D01*
X0645976Y0121347D01*
X0645737Y0121164D01*
X0645503Y0120976D01*
X0645274Y0120782D01*
X0645050Y0120582D01*
X0644830Y0120377D01*
X0644616Y0120166D01*
X0644406Y0119950D01*
X0644202Y0119730D01*
X0644004Y0119504D01*
X0643811Y0119273D01*
X0643624Y0119038D01*
X0643442Y0118799D01*
X0643267Y0118555D01*
X0643097Y0118306D01*
X0642934Y0118054D01*
X0642777Y0117798D01*
X0642626Y0117538D01*
X0642482Y0117274D01*
X0642344Y0117007D01*
X0642212Y0116737D01*
X0642088Y0116464D01*
X0641970Y0116187D01*
X0641859Y0115908D01*
X0641754Y0115626D01*
X0641657Y0115342D01*
X0641566Y0115055D01*
X0641483Y0114766D01*
X0641407Y0114476D01*
X0641337Y0114183D01*
X0641275Y0113889D01*
X0641221Y0113594D01*
X0641173Y0113297D01*
X0641133Y0112999D01*
X0641100Y0112700D01*
X0641074Y0112401D01*
X0641056Y0112101D01*
X0641045Y0111801D01*
X0641041Y0111500D01*
X0641045Y0111199D01*
X0641056Y0110899D01*
X0641074Y0110599D01*
X0641100Y0110300D01*
X0641133Y0110001D01*
X0641173Y0109703D01*
X0641221Y0109406D01*
X0641275Y0109111D01*
X0641337Y0108817D01*
X0641407Y0108524D01*
X0641483Y0108234D01*
X0641566Y0107945D01*
X0641657Y0107658D01*
X0641754Y0107374D01*
X0641859Y0107092D01*
X0641970Y0106813D01*
X0642088Y0106536D01*
X0642212Y0106263D01*
X0642344Y0105993D01*
X0642482Y0105726D01*
X0642626Y0105462D01*
X0642777Y0105202D01*
X0642934Y0104946D01*
X0643097Y0104694D01*
X0643267Y0104445D01*
X0643442Y0104201D01*
X0643624Y0103962D01*
X0643811Y0103727D01*
X0644004Y0103496D01*
X0644202Y0103270D01*
X0644406Y0103050D01*
X0644616Y0102834D01*
X0644830Y0102623D01*
X0645050Y0102418D01*
X0645274Y0102218D01*
X0645503Y0102024D01*
X0645737Y0101836D01*
X0645976Y0101653D01*
X0646219Y0101476D01*
X0646466Y0101305D01*
X0646717Y0101140D01*
X0646973Y0100981D01*
X0647232Y0100829D01*
X0647495Y0100683D01*
X0647761Y0100544D01*
X0648030Y0100411D01*
X0648303Y0100284D01*
X0648579Y0100165D01*
X0648857Y0100052D01*
X0649138Y0099946D01*
X0649422Y0099847D01*
X0649708Y0099755D01*
X0649997Y0099669D01*
X0650287Y0099591D01*
X0650579Y0099521D01*
X0650873Y0099457D01*
X0651168Y0099400D01*
X0651464Y0099351D01*
X0651762Y0099309D01*
X0652060Y0099274D01*
X0652360Y0099247D01*
X0652659Y0099226D01*
X0652960Y0099214D01*
X0653260Y0099208D01*
X0653561Y0099210D01*
X0653861Y0099219D01*
X0654161Y0099236D01*
X0654461Y0099260D01*
X0654760Y0099291D01*
X0655058Y0099330D01*
X0655355Y0099375D01*
X0655651Y0099428D01*
X0655945Y0099489D01*
X0656238Y0099556D01*
X0656529Y0099631D01*
X0656818Y0099713D01*
X0657106Y0099801D01*
X0657390Y0099897D01*
X0657673Y0100000D01*
X0657953Y0100109D01*
X0658230Y0100226D01*
X0658504Y0100349D01*
X0658775Y0100478D01*
X0659043Y0100615D01*
X0659307Y0100758D01*
X0659568Y0100907D01*
X0659825Y0101062D01*
X0660079Y0101224D01*
X0660328Y0101392D01*
X0660573Y0101566D01*
X0660814Y0101746D01*
X0661050Y0101932D01*
X0661281Y0102124D01*
X0661508Y0102321D01*
X0661730Y0102523D01*
X0661947Y0102731D01*
X0662159Y0102945D01*
X0662366Y0103163D01*
X0662567Y0103386D01*
X0662762Y0103615D01*
X0662952Y0103847D01*
X0663137Y0104085D01*
X0663061Y0104141D01*
X0662879Y0103906D01*
X0662690Y0103675D01*
X0662496Y0103448D01*
X0662296Y0103226D01*
X0662091Y0103010D01*
X0661881Y0102798D01*
X0661666Y0102592D01*
X0661446Y0102391D01*
X0661220Y0102195D01*
X0660991Y0102005D01*
X0660756Y0101821D01*
X0660517Y0101642D01*
X0660274Y0101469D01*
X0660027Y0101303D01*
X0659775Y0101142D01*
X0659520Y0100988D01*
X0659261Y0100840D01*
X0658999Y0100698D01*
X0658733Y0100563D01*
X0658464Y0100434D01*
X0658192Y0100312D01*
X0657917Y0100196D01*
X0657639Y0100087D01*
X0657359Y0099986D01*
X0657076Y0099891D01*
X0656791Y0099803D01*
X0656504Y0099722D01*
X0656216Y0099647D01*
X0655925Y0099581D01*
X0655633Y0099521D01*
X0655339Y0099468D01*
X0655044Y0099423D01*
X0654749Y0099384D01*
X0654452Y0099353D01*
X0654155Y0099330D01*
X0653857Y0099313D01*
X0653559Y0099304D01*
X0653261Y0099302D01*
X0652962Y0099308D01*
X0652664Y0099320D01*
X0652367Y0099340D01*
X0652070Y0099368D01*
X0651774Y0099402D01*
X0651478Y0099444D01*
X0651184Y0099493D01*
X0650891Y0099549D01*
X0650600Y0099612D01*
X0650310Y0099683D01*
X0650022Y0099760D01*
X0649736Y0099844D01*
X0649452Y0099936D01*
X0649170Y0100034D01*
X0648891Y0100139D01*
X0648615Y0100251D01*
X0648341Y0100370D01*
X0648071Y0100495D01*
X0647803Y0100627D01*
X0647539Y0100766D01*
X0647278Y0100911D01*
X0647021Y0101062D01*
X0646768Y0101219D01*
X0646519Y0101383D01*
X0646273Y0101553D01*
X0646032Y0101728D01*
X0645795Y0101910D01*
X0645563Y0102097D01*
X0645336Y0102289D01*
X0645113Y0102488D01*
X0644895Y0102691D01*
X0644682Y0102900D01*
X0644474Y0103114D01*
X0644272Y0103334D01*
X0644075Y0103557D01*
X0643884Y0103786D01*
X0643698Y0104020D01*
X0643518Y0104257D01*
X0643344Y0104499D01*
X0643176Y0104746D01*
X0643014Y0104996D01*
X0642858Y0105250D01*
X0642708Y0105508D01*
X0642565Y0105770D01*
X0642428Y0106035D01*
X0642297Y0106303D01*
X0642174Y0106574D01*
X0642057Y0106849D01*
X0641946Y0107126D01*
X0641843Y0107406D01*
X0641746Y0107688D01*
X0641656Y0107972D01*
X0641574Y0108259D01*
X0641498Y0108547D01*
X0641429Y0108837D01*
X0641368Y0109129D01*
X0641313Y0109422D01*
X0641266Y0109717D01*
X0641226Y0110012D01*
X0641193Y0110309D01*
X0641168Y0110606D01*
X0641150Y0110904D01*
X0641139Y0111202D01*
X0641135Y0111500D01*
X0641139Y0111798D01*
X0641150Y0112096D01*
X0641168Y0112394D01*
X0641193Y0112691D01*
X0641226Y0112988D01*
X0641266Y0113283D01*
X0641313Y0113578D01*
X0641368Y0113871D01*
X0641429Y0114163D01*
X0641498Y0114453D01*
X0641574Y0114741D01*
X0641656Y0115028D01*
X0641746Y0115312D01*
X0641843Y0115594D01*
X0641946Y0115874D01*
X0642057Y0116151D01*
X0642174Y0116426D01*
X0642297Y0116697D01*
X0642428Y0116965D01*
X0642565Y0117230D01*
X0642708Y0117492D01*
X0642858Y0117750D01*
X0643014Y0118004D01*
X0643176Y0118254D01*
X0643344Y0118501D01*
X0643518Y0118743D01*
X0643698Y0118980D01*
X0643884Y0119214D01*
X0644075Y0119443D01*
X0644272Y0119666D01*
X0644474Y0119886D01*
X0644682Y0120100D01*
X0644895Y0120309D01*
X0645113Y0120512D01*
X0645336Y0120711D01*
X0645563Y0120903D01*
X0645795Y0121090D01*
X0646032Y0121272D01*
X0646273Y0121447D01*
X0646519Y0121617D01*
X0646768Y0121781D01*
X0647021Y0121938D01*
X0647278Y0122089D01*
X0647539Y0122234D01*
X0647803Y0122373D01*
X0648071Y0122505D01*
X0648341Y0122630D01*
X0648615Y0122749D01*
X0648891Y0122861D01*
X0649170Y0122966D01*
X0649452Y0123064D01*
X0649736Y0123156D01*
X0650022Y0123240D01*
X0650310Y0123317D01*
X0650600Y0123388D01*
X0650891Y0123451D01*
X0651184Y0123507D01*
X0651478Y0123556D01*
X0651774Y0123598D01*
X0652070Y0123632D01*
X0652367Y0123660D01*
X0652664Y0123680D01*
X0652962Y0123692D01*
X0653261Y0123698D01*
X0653559Y0123696D01*
X0653857Y0123687D01*
X0654155Y0123670D01*
X0654452Y0123647D01*
X0654749Y0123616D01*
X0655044Y0123577D01*
X0655339Y0123532D01*
X0655633Y0123479D01*
X0655925Y0123419D01*
X0656216Y0123353D01*
X0656504Y0123278D01*
X0656791Y0123197D01*
X0657076Y0123109D01*
X0657359Y0123014D01*
X0657639Y0122913D01*
X0657917Y0122804D01*
X0658192Y0122688D01*
X0658464Y0122566D01*
X0658733Y0122437D01*
X0658999Y0122302D01*
X0659261Y0122160D01*
X0659520Y0122012D01*
X0659775Y0121858D01*
X0660027Y0121697D01*
X0660274Y0121531D01*
X0660517Y0121358D01*
X0660756Y0121179D01*
X0660991Y0120995D01*
X0661220Y0120805D01*
X0661446Y0120609D01*
X0661666Y0120408D01*
X0661881Y0120202D01*
X0662091Y0119990D01*
X0662296Y0119774D01*
X0662496Y0119552D01*
X0662690Y0119325D01*
X0662879Y0119094D01*
X0663061Y0118859D01*
X0662986Y0118802D01*
X0662805Y0119036D01*
X0662618Y0119265D01*
X0662425Y0119490D01*
X0662227Y0119710D01*
X0662024Y0119925D01*
X0661815Y0120135D01*
X0661601Y0120340D01*
X0661383Y0120539D01*
X0661159Y0120733D01*
X0660931Y0120922D01*
X0660699Y0121105D01*
X0660462Y0121282D01*
X0660220Y0121453D01*
X0659975Y0121619D01*
X0659726Y0121778D01*
X0659472Y0121931D01*
X0659216Y0122078D01*
X0658955Y0122219D01*
X0658691Y0122353D01*
X0658424Y0122481D01*
X0658154Y0122602D01*
X0657882Y0122717D01*
X0657606Y0122825D01*
X0657328Y0122926D01*
X0657047Y0123020D01*
X0656765Y0123107D01*
X0656480Y0123188D01*
X0656193Y0123261D01*
X0655905Y0123328D01*
X0655615Y0123387D01*
X0655323Y0123439D01*
X0655031Y0123484D01*
X0654737Y0123522D01*
X0654443Y0123553D01*
X0654148Y0123577D01*
X0653853Y0123593D01*
X0653557Y0123602D01*
X0653261Y0123604D01*
X0652965Y0123598D01*
X0652669Y0123586D01*
X0652374Y0123566D01*
X0652079Y0123539D01*
X0651785Y0123505D01*
X0651492Y0123463D01*
X0651200Y0123415D01*
X0650910Y0123359D01*
X0650621Y0123296D01*
X0650333Y0123226D01*
X0650047Y0123149D01*
X0649763Y0123066D01*
X0649482Y0122975D01*
X0649202Y0122877D01*
X0648925Y0122773D01*
X0648651Y0122662D01*
X0648380Y0122544D01*
X0648111Y0122420D01*
X0647846Y0122289D01*
X0647584Y0122151D01*
X0647325Y0122008D01*
X0647070Y0121858D01*
X0646818Y0121701D01*
X0646571Y0121539D01*
X0646328Y0121371D01*
X0646088Y0121196D01*
X0645853Y0121016D01*
X0645623Y0120831D01*
X0645397Y0120639D01*
X0645176Y0120443D01*
X0644960Y0120241D01*
X0644749Y0120033D01*
X0644543Y0119821D01*
X0644342Y0119603D01*
X0644146Y0119381D01*
X0643956Y0119154D01*
X0643772Y0118923D01*
X0643594Y0118687D01*
X0643421Y0118447D01*
X0643254Y0118202D01*
X0643093Y0117954D01*
X0642938Y0117701D01*
X0642790Y0117445D01*
X0642648Y0117186D01*
X0642512Y0116923D01*
X0642382Y0116657D01*
X0642260Y0116388D01*
X0642143Y0116115D01*
X0642034Y0115840D01*
X0641931Y0115563D01*
X0641835Y0115283D01*
X0641746Y0115001D01*
X0641664Y0114716D01*
X0641589Y0114430D01*
X0641521Y0114142D01*
X0641460Y0113853D01*
X0641406Y0113562D01*
X0641359Y0113269D01*
X0641319Y0112976D01*
X0641287Y0112682D01*
X0641262Y0112387D01*
X0641243Y0112092D01*
X0641233Y0111796D01*
X0641229Y0111500D01*
X0641233Y0111204D01*
X0641243Y0110908D01*
X0641262Y0110613D01*
X0641287Y0110318D01*
X0641319Y0110024D01*
X0641359Y0109731D01*
X0641406Y0109438D01*
X0641460Y0109147D01*
X0641521Y0108858D01*
X0641589Y0108570D01*
X0641664Y0108284D01*
X0641746Y0107999D01*
X0641835Y0107717D01*
X0641931Y0107437D01*
X0642034Y0107160D01*
X0642143Y0106885D01*
X0642260Y0106612D01*
X0642382Y0106343D01*
X0642512Y0106077D01*
X0642648Y0105814D01*
X0642790Y0105555D01*
X0642938Y0105299D01*
X0643093Y0105046D01*
X0643254Y0104798D01*
X0643421Y0104553D01*
X0643594Y0104313D01*
X0643772Y0104077D01*
X0643956Y0103846D01*
X0644146Y0103619D01*
X0644342Y0103397D01*
X0644543Y0103179D01*
X0644749Y0102967D01*
X0644960Y0102759D01*
X0645176Y0102557D01*
X0645397Y0102361D01*
X0645623Y0102169D01*
X0645853Y0101984D01*
X0646088Y0101804D01*
X0646328Y0101629D01*
X0646571Y0101461D01*
X0646818Y0101299D01*
X0647070Y0101142D01*
X0647325Y0100992D01*
X0647584Y0100849D01*
X0647846Y0100711D01*
X0648111Y0100580D01*
X0648380Y0100456D01*
X0648651Y0100338D01*
X0648925Y0100227D01*
X0649202Y0100123D01*
X0649482Y0100025D01*
X0649763Y0099934D01*
X0650047Y0099851D01*
X0650333Y0099774D01*
X0650621Y0099704D01*
X0650910Y0099641D01*
X0651200Y0099585D01*
X0651492Y0099537D01*
X0651785Y0099495D01*
X0652079Y0099461D01*
X0652374Y0099434D01*
X0652669Y0099414D01*
X0652965Y0099402D01*
X0653261Y0099396D01*
X0653557Y0099398D01*
X0653853Y0099407D01*
X0654148Y0099423D01*
X0654443Y0099447D01*
X0654737Y0099478D01*
X0655031Y0099516D01*
X0655323Y0099561D01*
X0655615Y0099613D01*
X0655905Y0099672D01*
X0656193Y0099739D01*
X0656480Y0099812D01*
X0656765Y0099893D01*
X0657047Y0099980D01*
X0657328Y0100074D01*
X0657606Y0100175D01*
X0657882Y0100283D01*
X0658154Y0100398D01*
X0658424Y0100519D01*
X0658691Y0100647D01*
X0658955Y0100781D01*
X0659216Y0100922D01*
X0659472Y0101069D01*
X0659726Y0101222D01*
X0659975Y0101381D01*
X0660220Y0101547D01*
X0660462Y0101718D01*
X0660699Y0101895D01*
X0660931Y0102078D01*
X0661159Y0102267D01*
X0661383Y0102461D01*
X0661601Y0102660D01*
X0661815Y0102865D01*
X0662024Y0103075D01*
X0662227Y0103290D01*
X0662425Y0103510D01*
X0662618Y0103735D01*
X0662805Y0103964D01*
X0662986Y0104198D01*
M02*
