G75*
%MOIN*%
%OFA0B0*%
%FSLAX25Y25*%
%IPPOS*%
%LPD*%
%AMOC8*
5,1,8,0,0,1.08239X$1,22.5*
%
%ADD10C,0.07300*%
%ADD11OC8,0.08200*%
%ADD12C,0.17800*%
%ADD13C,0.08200*%
%ADD14C,0.06400*%
%ADD15R,0.05162X0.05162*%
D10*
X0498333Y0136500D03*
X0508333Y0136500D03*
X0558333Y0131500D03*
X0558333Y0121500D03*
D11*
X0578333Y0041500D03*
X0588333Y0041500D03*
X0598333Y0041500D03*
X0598333Y0031500D03*
X0588333Y0031500D03*
X0578333Y0031500D03*
D12*
X0520459Y0167996D03*
X0508648Y0186500D03*
X0532270Y0186500D03*
D13*
X0498333Y0061500D03*
X0498333Y0071500D03*
X0498333Y0081500D03*
X0498333Y0091500D03*
X0498333Y0101500D03*
X0498333Y0111500D03*
X0558333Y0146500D03*
X0658333Y0141500D03*
X0658333Y0131500D03*
X0658333Y0111500D03*
X0648333Y0111500D03*
X0658333Y0091500D03*
X0618333Y0091500D03*
X0648333Y0071500D03*
X0658333Y0071500D03*
X0658333Y0051500D03*
X0618333Y0051500D03*
X0648333Y0031500D03*
X0658333Y0031500D03*
X0658333Y0011500D03*
X0618333Y0011500D03*
X0658333Y0151500D03*
X0658333Y0161500D03*
X0658333Y0171500D03*
X0658333Y0181500D03*
X0658333Y0191500D03*
X0658333Y0201500D03*
X0558333Y0186500D03*
D14*
X0570533Y0181500D02*
X0576133Y0181500D01*
X0576133Y0191500D02*
X0570533Y0191500D01*
X0600533Y0191500D02*
X0606133Y0191500D01*
X0606133Y0181500D02*
X0600533Y0181500D01*
X0600533Y0171500D02*
X0606133Y0171500D01*
X0576133Y0171500D02*
X0570533Y0171500D01*
X0570533Y0161500D02*
X0576133Y0161500D01*
X0576133Y0151500D02*
X0570533Y0151500D01*
X0570533Y0141500D02*
X0576133Y0141500D01*
X0600533Y0141500D02*
X0606133Y0141500D01*
X0606133Y0131500D02*
X0600533Y0131500D01*
X0600533Y0121500D02*
X0606133Y0121500D01*
X0576133Y0121500D02*
X0570533Y0121500D01*
X0570533Y0131500D02*
X0576133Y0131500D01*
X0576133Y0111500D02*
X0570533Y0111500D01*
X0570533Y0101500D02*
X0576133Y0101500D01*
X0600533Y0101500D02*
X0606133Y0101500D01*
X0606133Y0091500D02*
X0600533Y0091500D01*
X0600533Y0081500D02*
X0606133Y0081500D01*
X0576133Y0081500D02*
X0570533Y0081500D01*
X0570533Y0091500D02*
X0576133Y0091500D01*
X0576133Y0071500D02*
X0570533Y0071500D01*
X0570533Y0061500D02*
X0576133Y0061500D01*
X0600533Y0061500D02*
X0606133Y0061500D01*
X0606133Y0071500D02*
X0600533Y0071500D01*
X0600533Y0111500D02*
X0606133Y0111500D01*
X0606133Y0151500D02*
X0600533Y0151500D01*
X0600533Y0161500D02*
X0606133Y0161500D01*
D15*
X0508333Y0121500D03*
M02*
